<svg width="16" height="16" viewBox="0 0 16 16" fill="none" xmlns="http://www.w3.org/2000/svg">
<path fill-rule="evenodd" clip-rule="evenodd" d="M8.40921 0.804494C8.16847 0.617252 7.83137 0.617252 7.59063 0.804494L1.59062 5.47116C1.42823 5.59747 1.33325 5.79167 1.33325 5.9974V13.3307C1.33325 13.8612 1.54397 14.3699 1.91904 14.7449C2.29411 15.12 2.80282 15.3307 3.33325 15.3307H12.6666C13.197 15.3307 13.7057 15.12 14.0808 14.7449C14.4559 14.3699 14.6666 13.8612 14.6666 13.3307V5.9974C14.6666 5.79167 14.5716 5.59747 14.4092 5.47116L8.40921 0.804494ZM10.6666 13.9974H12.6666C12.8434 13.9974 13.013 13.9272 13.138 13.8021C13.263 13.6771 13.3333 13.5075 13.3333 13.3307V6.32345L7.99992 2.1753L2.66659 6.32345V13.3307C2.66659 13.5075 2.73682 13.6771 2.86185 13.8021C2.98687 13.9272 3.15644 13.9974 3.33325 13.9974H5.33325V7.9974C5.33325 7.62921 5.63173 7.33073 5.99992 7.33073H9.99992C10.3681 7.33073 10.6666 7.62921 10.6666 7.9974V13.9974ZM6.66659 13.9974V8.66406H9.33325V13.9974H6.66659Z" fill="#2B2B2B"/>
</svg>
