<svg width="24" height="24" viewBox="0 0 24 24" fill="none" xmlns="http://www.w3.org/2000/svg">
<path fill-rule="evenodd" clip-rule="evenodd" d="M12 3C7.02944 3 3 7.02944 3 12C3 16.9706 7.02944 21 12 21C16.9706 21 21 16.9706 21 12C21 7.02944 16.9706 3 12 3ZM1 12C1 5.92487 5.92487 1 12 1C18.0751 1 23 5.92487 23 12C23 18.0751 18.0751 23 12 23C5.92487 23 1 18.0751 1 12Z" fill="white"/>
<path fill-rule="evenodd" clip-rule="evenodd" d="M12.258 8.0243C11.7925 7.94446 11.3138 8.03194 10.9066 8.27125C10.4994 8.51057 10.19 8.88628 10.0333 9.33183C9.84999 9.85282 9.27907 10.1266 8.75808 9.94332C8.23709 9.76005 7.96332 9.18913 8.14659 8.66814C8.46006 7.77703 9.07879 7.02562 9.89319 6.54699C10.7076 6.06835 11.6651 5.89339 12.5962 6.05309C13.5272 6.21279 14.3717 6.69684 14.98 7.41951C15.5882 8.14204 15.9212 9.05647 15.9199 10.0009C15.9195 11.5313 14.7849 12.5419 13.9746 13.082C13.539 13.3725 13.1105 13.586 12.7948 13.7263C12.6356 13.7971 12.5015 13.8508 12.4048 13.8876C12.3564 13.906 12.3172 13.9203 12.2886 13.9305L12.2539 13.9426L12.2428 13.9464L12.2389 13.9477L12.2374 13.9483C12.2371 13.9484 12.2362 13.9487 11.9199 13L12.2362 13.9487C11.7122 14.1233 11.1459 13.8402 10.9712 13.3162C10.7967 12.7926 11.0794 12.2267 11.6026 12.0517L11.6014 12.0521C11.6015 12.052 11.6016 12.052 11.6026 12.0517L11.6186 12.0461C11.634 12.0406 11.6592 12.0314 11.6928 12.0186C11.7603 11.9929 11.8605 11.9529 11.9825 11.8987C12.2294 11.789 12.5509 11.6275 12.8652 11.4179C13.5548 10.9582 13.9199 10.4691 13.9199 9.99999L13.9199 9.9985C13.9206 9.52618 13.7542 9.06885 13.45 8.70752C13.1458 8.34618 12.7236 8.10415 12.258 8.0243Z" fill="white"/>
<path fill-rule="evenodd" clip-rule="evenodd" d="M10.9999 17C10.9999 16.4477 11.4477 16 11.9999 16H12.0099C12.5622 16 13.0099 16.4477 13.0099 17C13.0099 17.5523 12.5622 18 12.0099 18H11.9999C11.4477 18 10.9999 17.5523 10.9999 17Z" fill="white"/>
</svg>
