<svg width="24" height="25" viewBox="0 0 24 25" fill="none" xmlns="http://www.w3.org/2000/svg">
<path fill-rule="evenodd" clip-rule="evenodd" d="M15.1321 23.7015C15.6759 23.5537 15.9481 22.9609 15.7554 22.429C15.5627 21.897 14.9781 21.6282 14.4319 21.7664C12.7347 22.1959 10.9485 22.1697 9.25467 21.6816C7.2328 21.0989 5.44637 19.888 4.15142 18.2223C2.85647 16.5566 2.11948 14.5216 2.04607 12.4091C1.97267 10.2966 2.56662 8.2149 3.7428 6.46246C4.91897 4.71002 6.617 3.37678 8.5935 2.65381C10.57 1.93084 12.7235 1.85527 14.7454 2.43791C16.7672 3.02056 18.5537 4.23152 19.8486 5.89723C20.9335 7.29269 21.6267 8.94729 21.8663 10.6896C21.9434 11.2504 22.4104 11.6944 22.9734 11.6746C23.5363 11.6549 23.9813 11.1792 23.9139 10.6171C23.6531 8.44175 22.8064 6.3718 21.4562 4.63503C19.896 2.62815 17.7437 1.16916 15.3077 0.467175C12.8717 -0.234809 10.2771 -0.143753 7.89578 0.727293C5.51445 1.59834 3.46864 3.20466 2.05156 5.31603C0.634474 7.42739 -0.0811277 9.93542 0.00731321 12.4806C0.0957541 15.0259 0.983697 17.4776 2.54388 19.4845C4.10406 21.4914 6.25638 22.9503 8.69237 23.6523C10.8005 24.2598 13.0274 24.2734 15.1321 23.7015Z" fill="black"/>
</svg>
