<svg width="364" height="314" viewBox="0 0 364 314" fill="none" xmlns="http://www.w3.org/2000/svg">
<rect width="364" height="314" rx="10" fill="#9BAF21"/>
<mask id="mask0_3582_236011" style="mask-type:alpha" maskUnits="userSpaceOnUse" x="0" y="0" width="364" height="314">
<rect width="364" height="314" rx="10" fill="#A02600"/>
</mask>
<g mask="url(#mask0_3582_236011)">
<rect x="359.099" y="319.766" width="27.1288" height="27.1288" rx="6.65719" transform="rotate(-45 359.099 319.766)" stroke="#90A320" stroke-width="0.5"/>
<rect x="339.622" y="319.766" width="13.3144" height="13.3144" rx="6.65719" transform="rotate(-45 339.622 319.766)" stroke="#90A320" stroke-width="0.5"/>
<rect x="329.853" y="319.766" width="27.1288" height="27.1288" rx="6.65719" transform="rotate(-45 329.853 319.766)" stroke="#90A320" stroke-width="0.5"/>
<rect x="310.376" y="319.766" width="13.3144" height="13.3144" rx="6.65719" transform="rotate(-45 310.376 319.766)" stroke="#90A320" stroke-width="0.5"/>
<rect x="300.607" y="319.766" width="27.1288" height="27.1288" rx="6.65719" transform="rotate(-45 300.607 319.766)" stroke="#90A320" stroke-width="0.5"/>
<rect x="281.13" y="319.766" width="13.3144" height="13.3144" rx="6.65719" transform="rotate(-45 281.13 319.766)" stroke="#90A320" stroke-width="0.5"/>
<rect x="271.362" y="319.766" width="27.1288" height="27.1288" rx="6.65719" transform="rotate(-45 271.362 319.766)" stroke="#90A320" stroke-width="0.5"/>
<rect x="251.884" y="319.766" width="13.3144" height="13.3144" rx="6.65719" transform="rotate(-45 251.884 319.766)" stroke="#90A320" stroke-width="0.5"/>
<rect x="242.116" y="319.766" width="27.1288" height="27.1288" rx="6.65719" transform="rotate(-45 242.116 319.766)" stroke="#90A320" stroke-width="0.5"/>
<rect x="222.639" y="319.766" width="13.3144" height="13.3144" rx="6.65719" transform="rotate(-45 222.639 319.766)" stroke="#90A320" stroke-width="0.5"/>
<rect x="212.871" y="319.766" width="27.1288" height="27.1288" rx="6.65719" transform="rotate(-45 212.871 319.766)" stroke="#90A320" stroke-width="0.5"/>
<rect x="193.393" y="319.766" width="13.3144" height="13.3144" rx="6.65719" transform="rotate(-45 193.393 319.766)" stroke="#90A320" stroke-width="0.5"/>
<rect x="183.625" y="319.766" width="27.1288" height="27.1288" rx="6.65719" transform="rotate(-45 183.625 319.766)" stroke="#90A320" stroke-width="0.5"/>
<rect x="164.148" y="319.766" width="13.3144" height="13.3144" rx="6.65719" transform="rotate(-45 164.148 319.766)" stroke="#90A320" stroke-width="0.5"/>
<rect x="154.38" y="319.766" width="27.1288" height="27.1288" rx="6.65719" transform="rotate(-45 154.38 319.766)" stroke="#90A320" stroke-width="0.5"/>
<rect x="134.902" y="319.766" width="13.3144" height="13.3144" rx="6.65719" transform="rotate(-45 134.902 319.766)" stroke="#90A320" stroke-width="0.5"/>
<rect x="125.134" y="319.766" width="27.1288" height="27.1288" rx="6.65719" transform="rotate(-45 125.134 319.766)" stroke="#90A320" stroke-width="0.5"/>
<rect x="105.657" y="319.766" width="13.3144" height="13.3144" rx="6.65719" transform="rotate(-45 105.657 319.766)" stroke="#90A320" stroke-width="0.5"/>
<rect x="95.8887" y="319.766" width="27.1288" height="27.1288" rx="6.65719" transform="rotate(-45 95.8887 319.766)" stroke="#90A320" stroke-width="0.5"/>
<rect x="76.4119" y="319.766" width="13.3144" height="13.3144" rx="6.65719" transform="rotate(-45 76.4119 319.766)" stroke="#90A320" stroke-width="0.5"/>
<rect x="66.6433" y="319.766" width="27.1288" height="27.1288" rx="6.65719" transform="rotate(-45 66.6433 319.766)" stroke="#90A320" stroke-width="0.5"/>
<rect x="47.1663" y="319.766" width="13.3144" height="13.3144" rx="6.65719" transform="rotate(-45 47.1663 319.766)" stroke="#90A320" stroke-width="0.5"/>
<rect x="37.3977" y="319.766" width="27.1288" height="27.1288" rx="6.65719" transform="rotate(-45 37.3977 319.766)" stroke="#90A320" stroke-width="0.5"/>
<rect x="17.9202" y="319.766" width="13.3144" height="13.3144" rx="6.65719" transform="rotate(-45 17.9202 319.766)" stroke="#90A320" stroke-width="0.5"/>
<rect x="8.15214" y="319.766" width="27.1288" height="27.1288" rx="6.65719" transform="rotate(-45 8.15214 319.766)" stroke="#90A320" stroke-width="0.5"/>
<rect x="-11.3249" y="319.766" width="13.3144" height="13.3144" rx="6.65719" transform="rotate(-45 -11.3249 319.766)" stroke="#90A320" stroke-width="0.5"/>
<rect x="-21.0932" y="319.766" width="27.1288" height="27.1288" rx="6.65719" transform="rotate(-45 -21.0932 319.766)" stroke="#90A320" stroke-width="0.5"/>
<rect x="359.099" y="290.734" width="27.1288" height="27.1288" rx="6.65719" transform="rotate(-45 359.099 290.734)" stroke="#90A320" stroke-width="0.5"/>
<rect x="339.621" y="290.734" width="13.3144" height="13.3144" rx="6.65719" transform="rotate(-45 339.621 290.734)" stroke="#90A320" stroke-width="0.5"/>
<rect x="329.853" y="290.734" width="27.1288" height="27.1288" rx="6.65719" transform="rotate(-45 329.853 290.734)" stroke="#90A320" stroke-width="0.5"/>
<rect x="310.376" y="290.734" width="13.3144" height="13.3144" rx="6.65719" transform="rotate(-45 310.376 290.734)" stroke="#90A320" stroke-width="0.5"/>
<rect x="300.607" y="290.734" width="27.1288" height="27.1288" rx="6.65719" transform="rotate(-45 300.607 290.734)" stroke="#90A320" stroke-width="0.5"/>
<rect x="281.13" y="290.734" width="13.3144" height="13.3144" rx="6.65719" transform="rotate(-45 281.13 290.734)" stroke="#90A320" stroke-width="0.5"/>
<rect x="271.362" y="290.734" width="27.1288" height="27.1288" rx="6.65719" transform="rotate(-45 271.362 290.734)" stroke="#90A320" stroke-width="0.5"/>
<rect x="251.885" y="290.734" width="13.3144" height="13.3144" rx="6.65719" transform="rotate(-45 251.885 290.734)" stroke="#90A320" stroke-width="0.5"/>
<rect x="242.116" y="290.734" width="27.1288" height="27.1288" rx="6.65719" transform="rotate(-45 242.116 290.734)" stroke="#90A320" stroke-width="0.5"/>
<rect x="222.64" y="290.734" width="13.3144" height="13.3144" rx="6.65719" transform="rotate(-45 222.64 290.734)" stroke="#90A320" stroke-width="0.5"/>
<rect x="212.871" y="290.734" width="27.1288" height="27.1288" rx="6.65719" transform="rotate(-45 212.871 290.734)" stroke="#90A320" stroke-width="0.5"/>
<rect x="193.394" y="290.734" width="13.3144" height="13.3144" rx="6.65719" transform="rotate(-45 193.394 290.734)" stroke="#90A320" stroke-width="0.5"/>
<rect x="183.626" y="290.734" width="27.1288" height="27.1288" rx="6.65719" transform="rotate(-45 183.626 290.734)" stroke="#90A320" stroke-width="0.5"/>
<rect x="164.148" y="290.734" width="13.3144" height="13.3144" rx="6.65719" transform="rotate(-45 164.148 290.734)" stroke="#90A320" stroke-width="0.5"/>
<rect x="154.38" y="290.734" width="27.1288" height="27.1288" rx="6.65719" transform="rotate(-45 154.38 290.734)" stroke="#90A320" stroke-width="0.5"/>
<rect x="134.903" y="290.734" width="13.3144" height="13.3144" rx="6.65719" transform="rotate(-45 134.903 290.734)" stroke="#90A320" stroke-width="0.5"/>
<rect x="125.134" y="290.734" width="27.1288" height="27.1288" rx="6.65719" transform="rotate(-45 125.134 290.734)" stroke="#90A320" stroke-width="0.5"/>
<rect x="105.657" y="290.734" width="13.3144" height="13.3144" rx="6.65719" transform="rotate(-45 105.657 290.734)" stroke="#90A320" stroke-width="0.5"/>
<rect x="95.889" y="290.734" width="27.1288" height="27.1288" rx="6.65719" transform="rotate(-45 95.889 290.734)" stroke="#90A320" stroke-width="0.5"/>
<rect x="76.4117" y="290.734" width="13.3144" height="13.3144" rx="6.65719" transform="rotate(-45 76.4117 290.734)" stroke="#90A320" stroke-width="0.5"/>
<rect x="66.6433" y="290.734" width="27.1288" height="27.1288" rx="6.65719" transform="rotate(-45 66.6433 290.734)" stroke="#90A320" stroke-width="0.5"/>
<rect x="47.1661" y="290.734" width="13.3144" height="13.3144" rx="6.65719" transform="rotate(-45 47.1661 290.734)" stroke="#90A320" stroke-width="0.5"/>
<rect x="37.3977" y="290.734" width="27.1288" height="27.1288" rx="6.65719" transform="rotate(-45 37.3977 290.734)" stroke="#90A320" stroke-width="0.5"/>
<rect x="17.9207" y="290.734" width="13.3144" height="13.3144" rx="6.65719" transform="rotate(-45 17.9207 290.734)" stroke="#90A320" stroke-width="0.5"/>
<rect x="8.15189" y="290.734" width="27.1288" height="27.1288" rx="6.65719" transform="rotate(-45 8.15189 290.734)" stroke="#90A320" stroke-width="0.5"/>
<rect x="-11.3254" y="290.734" width="13.3144" height="13.3144" rx="6.65719" transform="rotate(-45 -11.3254 290.734)" stroke="#90A320" stroke-width="0.5"/>
<rect x="-21.0932" y="290.734" width="27.1288" height="27.1288" rx="6.65719" transform="rotate(-45 -21.0932 290.734)" stroke="#90A320" stroke-width="0.5"/>
<rect x="359.099" y="261.703" width="27.1288" height="27.1288" rx="6.65719" transform="rotate(-45 359.099 261.703)" stroke="#90A320" stroke-width="0.5"/>
<rect x="339.621" y="261.703" width="13.3144" height="13.3144" rx="6.65719" transform="rotate(-45 339.621 261.703)" stroke="#90A320" stroke-width="0.5"/>
<rect x="329.853" y="261.703" width="27.1288" height="27.1288" rx="6.65719" transform="rotate(-45 329.853 261.703)" stroke="#90A320" stroke-width="0.5"/>
<rect x="310.376" y="261.703" width="13.3144" height="13.3144" rx="6.65719" transform="rotate(-45 310.376 261.703)" stroke="#90A320" stroke-width="0.5"/>
<rect x="300.608" y="261.703" width="27.1288" height="27.1288" rx="6.65719" transform="rotate(-45 300.608 261.703)" stroke="#90A320" stroke-width="0.5"/>
<rect x="281.13" y="261.703" width="13.3144" height="13.3144" rx="6.65719" transform="rotate(-45 281.13 261.703)" stroke="#90A320" stroke-width="0.5"/>
<rect x="271.362" y="261.703" width="27.1288" height="27.1288" rx="6.65719" transform="rotate(-45 271.362 261.703)" stroke="#90A320" stroke-width="0.5"/>
<rect x="251.884" y="261.703" width="13.3144" height="13.3144" rx="6.65719" transform="rotate(-45 251.884 261.703)" stroke="#90A320" stroke-width="0.5"/>
<rect x="242.116" y="261.703" width="27.1288" height="27.1288" rx="6.65719" transform="rotate(-45 242.116 261.703)" stroke="#90A320" stroke-width="0.5"/>
<rect x="222.639" y="261.703" width="13.3144" height="13.3144" rx="6.65719" transform="rotate(-45 222.639 261.703)" stroke="#90A320" stroke-width="0.5"/>
<rect x="212.871" y="261.703" width="27.1288" height="27.1288" rx="6.65719" transform="rotate(-45 212.871 261.703)" stroke="#90A320" stroke-width="0.5"/>
<rect x="193.394" y="261.703" width="13.3144" height="13.3144" rx="6.65719" transform="rotate(-45 193.394 261.703)" stroke="#90A320" stroke-width="0.5"/>
<rect x="183.626" y="261.703" width="27.1288" height="27.1288" rx="6.65719" transform="rotate(-45 183.626 261.703)" stroke="#90A320" stroke-width="0.5"/>
<rect x="164.148" y="261.703" width="13.3144" height="13.3144" rx="6.65719" transform="rotate(-45 164.148 261.703)" stroke="#90A320" stroke-width="0.5"/>
<rect x="154.38" y="261.703" width="27.1288" height="27.1288" rx="6.65719" transform="rotate(-45 154.38 261.703)" stroke="#90A320" stroke-width="0.5"/>
<rect x="134.903" y="261.703" width="13.3144" height="13.3144" rx="6.65719" transform="rotate(-45 134.903 261.703)" stroke="#90A320" stroke-width="0.5"/>
<rect x="125.134" y="261.703" width="27.1288" height="27.1288" rx="6.65719" transform="rotate(-45 125.134 261.703)" stroke="#90A320" stroke-width="0.5"/>
<rect x="105.657" y="261.703" width="13.3144" height="13.3144" rx="6.65719" transform="rotate(-45 105.657 261.703)" stroke="#90A320" stroke-width="0.5"/>
<rect x="95.889" y="261.703" width="27.1288" height="27.1288" rx="6.65719" transform="rotate(-45 95.889 261.703)" stroke="#90A320" stroke-width="0.5"/>
<rect x="76.4117" y="261.703" width="13.3144" height="13.3144" rx="6.65719" transform="rotate(-45 76.4117 261.703)" stroke="#90A320" stroke-width="0.5"/>
<rect x="66.6436" y="261.703" width="27.1288" height="27.1288" rx="6.65719" transform="rotate(-45 66.6436 261.703)" stroke="#90A320" stroke-width="0.5"/>
<rect x="47.1661" y="261.703" width="13.3144" height="13.3144" rx="6.65719" transform="rotate(-45 47.1661 261.703)" stroke="#90A320" stroke-width="0.5"/>
<rect x="37.3975" y="261.703" width="27.1288" height="27.1288" rx="6.65719" transform="rotate(-45 37.3975 261.703)" stroke="#90A320" stroke-width="0.5"/>
<rect x="17.9204" y="261.703" width="13.3144" height="13.3144" rx="6.65719" transform="rotate(-45 17.9204 261.703)" stroke="#90A320" stroke-width="0.5"/>
<rect x="8.15238" y="261.703" width="27.1288" height="27.1288" rx="6.65719" transform="rotate(-45 8.15238 261.703)" stroke="#90A320" stroke-width="0.5"/>
<rect x="-11.3249" y="261.703" width="13.3144" height="13.3144" rx="6.65719" transform="rotate(-45 -11.3249 261.703)" stroke="#90A320" stroke-width="0.5"/>
<rect x="-21.093" y="261.703" width="27.1288" height="27.1288" rx="6.65719" transform="rotate(-45 -21.093 261.703)" stroke="#90A320" stroke-width="0.5"/>
<rect x="359.099" y="232.664" width="27.1288" height="27.1288" rx="6.65719" transform="rotate(-45 359.099 232.664)" stroke="#90A320" stroke-width="0.5"/>
<rect x="339.621" y="232.664" width="13.3144" height="13.3144" rx="6.65719" transform="rotate(-45 339.621 232.664)" stroke="#90A320" stroke-width="0.5"/>
<rect x="329.853" y="232.664" width="27.1288" height="27.1288" rx="6.65719" transform="rotate(-45 329.853 232.664)" stroke="#90A320" stroke-width="0.5"/>
<rect x="310.376" y="232.664" width="13.3144" height="13.3144" rx="6.65719" transform="rotate(-45 310.376 232.664)" stroke="#90A320" stroke-width="0.5"/>
<rect x="300.608" y="232.664" width="27.1288" height="27.1288" rx="6.65719" transform="rotate(-45 300.608 232.664)" stroke="#90A320" stroke-width="0.5"/>
<rect x="281.13" y="232.664" width="13.3144" height="13.3144" rx="6.65719" transform="rotate(-45 281.13 232.664)" stroke="#90A320" stroke-width="0.5"/>
<rect x="271.362" y="232.664" width="27.1288" height="27.1288" rx="6.65719" transform="rotate(-45 271.362 232.664)" stroke="#90A320" stroke-width="0.5"/>
<rect x="251.885" y="232.664" width="13.3144" height="13.3144" rx="6.65719" transform="rotate(-45 251.885 232.664)" stroke="#90A320" stroke-width="0.5"/>
<rect x="242.117" y="232.664" width="27.1288" height="27.1288" rx="6.65719" transform="rotate(-45 242.117 232.664)" stroke="#90A320" stroke-width="0.5"/>
<rect x="222.639" y="232.664" width="13.3144" height="13.3144" rx="6.65719" transform="rotate(-45 222.639 232.664)" stroke="#90A320" stroke-width="0.5"/>
<rect x="212.871" y="232.664" width="27.1288" height="27.1288" rx="6.65719" transform="rotate(-45 212.871 232.664)" stroke="#90A320" stroke-width="0.5"/>
<rect x="193.394" y="232.664" width="13.3144" height="13.3144" rx="6.65719" transform="rotate(-45 193.394 232.664)" stroke="#90A320" stroke-width="0.5"/>
<rect x="183.626" y="232.664" width="27.1288" height="27.1288" rx="6.65719" transform="rotate(-45 183.626 232.664)" stroke="#90A320" stroke-width="0.5"/>
<rect x="164.148" y="232.664" width="13.3144" height="13.3144" rx="6.65719" transform="rotate(-45 164.148 232.664)" stroke="#90A320" stroke-width="0.5"/>
<rect x="154.38" y="232.664" width="27.1288" height="27.1288" rx="6.65719" transform="rotate(-45 154.38 232.664)" stroke="#90A320" stroke-width="0.5"/>
<rect x="134.903" y="232.664" width="13.3144" height="13.3144" rx="6.65719" transform="rotate(-45 134.903 232.664)" stroke="#90A320" stroke-width="0.5"/>
<rect x="125.135" y="232.664" width="27.1288" height="27.1288" rx="6.65719" transform="rotate(-45 125.135 232.664)" stroke="#90A320" stroke-width="0.5"/>
<rect x="105.657" y="232.664" width="13.3144" height="13.3144" rx="6.65719" transform="rotate(-45 105.657 232.664)" stroke="#90A320" stroke-width="0.5"/>
<rect x="95.8887" y="232.664" width="27.1288" height="27.1288" rx="6.65719" transform="rotate(-45 95.8887 232.664)" stroke="#90A320" stroke-width="0.5"/>
<rect x="76.4119" y="232.664" width="13.3144" height="13.3144" rx="6.65719" transform="rotate(-45 76.4119 232.664)" stroke="#90A320" stroke-width="0.5"/>
<rect x="66.6431" y="232.664" width="27.1288" height="27.1288" rx="6.65719" transform="rotate(-45 66.6431 232.664)" stroke="#90A320" stroke-width="0.5"/>
<rect x="47.1658" y="232.664" width="13.3144" height="13.3144" rx="6.65719" transform="rotate(-45 47.1658 232.664)" stroke="#90A320" stroke-width="0.5"/>
<rect x="37.3975" y="232.664" width="27.1288" height="27.1288" rx="6.65719" transform="rotate(-45 37.3975 232.664)" stroke="#90A320" stroke-width="0.5"/>
<rect x="17.9204" y="232.664" width="13.3144" height="13.3144" rx="6.65719" transform="rotate(-45 17.9204 232.664)" stroke="#90A320" stroke-width="0.5"/>
<rect x="8.15214" y="232.664" width="27.1288" height="27.1288" rx="6.65719" transform="rotate(-45 8.15214 232.664)" stroke="#90A320" stroke-width="0.5"/>
<rect x="-11.3252" y="232.664" width="13.3144" height="13.3144" rx="6.65719" transform="rotate(-45 -11.3252 232.664)" stroke="#90A320" stroke-width="0.5"/>
<rect x="-21.0935" y="232.664" width="27.1288" height="27.1288" rx="6.65719" transform="rotate(-45 -21.0935 232.664)" stroke="#90A320" stroke-width="0.5"/>
<rect x="359.099" y="203.633" width="27.1288" height="27.1288" rx="6.65719" transform="rotate(-45 359.099 203.633)" stroke="#90A320" stroke-width="0.5"/>
<rect x="339.622" y="203.633" width="13.3144" height="13.3144" rx="6.65719" transform="rotate(-45 339.622 203.633)" stroke="#90A320" stroke-width="0.5"/>
<rect x="329.853" y="203.633" width="27.1288" height="27.1288" rx="6.65719" transform="rotate(-45 329.853 203.633)" stroke="#90A320" stroke-width="0.5"/>
<rect x="310.376" y="203.633" width="13.3144" height="13.3144" rx="6.65719" transform="rotate(-45 310.376 203.633)" stroke="#90A320" stroke-width="0.5"/>
<rect x="300.607" y="203.633" width="27.1288" height="27.1288" rx="6.65719" transform="rotate(-45 300.607 203.633)" stroke="#90A320" stroke-width="0.5"/>
<rect x="281.131" y="203.633" width="13.3144" height="13.3144" rx="6.65719" transform="rotate(-45 281.131 203.633)" stroke="#90A320" stroke-width="0.5"/>
<rect x="271.362" y="203.633" width="27.1288" height="27.1288" rx="6.65719" transform="rotate(-45 271.362 203.633)" stroke="#90A320" stroke-width="0.5"/>
<rect x="251.885" y="203.633" width="13.3144" height="13.3144" rx="6.65719" transform="rotate(-45 251.885 203.633)" stroke="#90A320" stroke-width="0.5"/>
<rect x="242.116" y="203.633" width="27.1288" height="27.1288" rx="6.65719" transform="rotate(-45 242.116 203.633)" stroke="#90A320" stroke-width="0.5"/>
<rect x="222.639" y="203.633" width="13.3144" height="13.3144" rx="6.65719" transform="rotate(-45 222.639 203.633)" stroke="#90A320" stroke-width="0.5"/>
<rect x="212.871" y="203.633" width="27.1288" height="27.1288" rx="6.65719" transform="rotate(-45 212.871 203.633)" stroke="#90A320" stroke-width="0.5"/>
<rect x="193.394" y="203.633" width="13.3144" height="13.3144" rx="6.65719" transform="rotate(-45 193.394 203.633)" stroke="#90A320" stroke-width="0.5"/>
<rect x="183.625" y="203.633" width="27.1288" height="27.1288" rx="6.65719" transform="rotate(-45 183.625 203.633)" stroke="#90A320" stroke-width="0.5"/>
<rect x="164.148" y="203.633" width="13.3144" height="13.3144" rx="6.65719" transform="rotate(-45 164.148 203.633)" stroke="#90A320" stroke-width="0.5"/>
<rect x="154.38" y="203.633" width="27.1288" height="27.1288" rx="6.65719" transform="rotate(-45 154.38 203.633)" stroke="#90A320" stroke-width="0.5"/>
<rect x="134.902" y="203.633" width="13.3144" height="13.3144" rx="6.65719" transform="rotate(-45 134.902 203.633)" stroke="#90A320" stroke-width="0.5"/>
<rect x="125.134" y="203.633" width="27.1288" height="27.1288" rx="6.65719" transform="rotate(-45 125.134 203.633)" stroke="#90A320" stroke-width="0.5"/>
<rect x="105.657" y="203.633" width="13.3144" height="13.3144" rx="6.65719" transform="rotate(-45 105.657 203.633)" stroke="#90A320" stroke-width="0.5"/>
<rect x="95.8887" y="203.633" width="27.1288" height="27.1288" rx="6.65719" transform="rotate(-45 95.8887 203.633)" stroke="#90A320" stroke-width="0.5"/>
<rect x="76.4117" y="203.633" width="13.3144" height="13.3144" rx="6.65719" transform="rotate(-45 76.4117 203.633)" stroke="#90A320" stroke-width="0.5"/>
<rect x="66.6431" y="203.633" width="27.1288" height="27.1288" rx="6.65719" transform="rotate(-45 66.6431 203.633)" stroke="#90A320" stroke-width="0.5"/>
<rect x="47.1658" y="203.633" width="13.3144" height="13.3144" rx="6.65719" transform="rotate(-45 47.1658 203.633)" stroke="#90A320" stroke-width="0.5"/>
<rect x="37.3977" y="203.633" width="27.1288" height="27.1288" rx="6.65719" transform="rotate(-45 37.3977 203.633)" stroke="#90A320" stroke-width="0.5"/>
<rect x="17.9202" y="203.633" width="13.3144" height="13.3144" rx="6.65719" transform="rotate(-45 17.9202 203.633)" stroke="#90A320" stroke-width="0.5"/>
<rect x="8.15214" y="203.633" width="27.1288" height="27.1288" rx="6.65719" transform="rotate(-45 8.15214 203.633)" stroke="#90A320" stroke-width="0.5"/>
<rect x="-11.3254" y="203.633" width="13.3144" height="13.3144" rx="6.65719" transform="rotate(-45 -11.3254 203.633)" stroke="#90A320" stroke-width="0.5"/>
<rect x="-21.0935" y="203.633" width="27.1288" height="27.1288" rx="6.65719" transform="rotate(-45 -21.0935 203.633)" stroke="#90A320" stroke-width="0.5"/>
<rect x="359.099" y="174.602" width="27.1288" height="27.1288" rx="6.65719" transform="rotate(-45 359.099 174.602)" stroke="#90A320" stroke-width="0.5"/>
<rect x="339.622" y="174.602" width="13.3144" height="13.3144" rx="6.65719" transform="rotate(-45 339.622 174.602)" stroke="#90A320" stroke-width="0.5"/>
<rect x="329.854" y="174.602" width="27.1288" height="27.1288" rx="6.65719" transform="rotate(-45 329.854 174.602)" stroke="#90A320" stroke-width="0.5"/>
<rect x="310.376" y="174.602" width="13.3144" height="13.3144" rx="6.65719" transform="rotate(-45 310.376 174.602)" stroke="#90A320" stroke-width="0.5"/>
<rect x="300.607" y="174.602" width="27.1288" height="27.1288" rx="6.65719" transform="rotate(-45 300.607 174.602)" stroke="#90A320" stroke-width="0.5"/>
<rect x="281.13" y="174.602" width="13.3144" height="13.3144" rx="6.65719" transform="rotate(-45 281.13 174.602)" stroke="#90A320" stroke-width="0.5"/>
<rect x="271.362" y="174.602" width="27.1288" height="27.1288" rx="6.65719" transform="rotate(-45 271.362 174.602)" stroke="#90A320" stroke-width="0.5"/>
<rect x="251.885" y="174.602" width="13.3144" height="13.3144" rx="6.65719" transform="rotate(-45 251.885 174.602)" stroke="#90A320" stroke-width="0.5"/>
<rect x="242.116" y="174.602" width="27.1288" height="27.1288" rx="6.65719" transform="rotate(-45 242.116 174.602)" stroke="#90A320" stroke-width="0.5"/>
<rect x="222.639" y="174.602" width="13.3144" height="13.3144" rx="6.65719" transform="rotate(-45 222.639 174.602)" stroke="#90A320" stroke-width="0.5"/>
<rect x="212.871" y="174.602" width="27.1288" height="27.1288" rx="6.65719" transform="rotate(-45 212.871 174.602)" stroke="#90A320" stroke-width="0.5"/>
<rect x="193.394" y="174.602" width="13.3144" height="13.3144" rx="6.65719" transform="rotate(-45 193.394 174.602)" stroke="#90A320" stroke-width="0.5"/>
<rect x="183.626" y="174.602" width="27.1288" height="27.1288" rx="6.65719" transform="rotate(-45 183.626 174.602)" stroke="#90A320" stroke-width="0.5"/>
<rect x="164.148" y="174.602" width="13.3144" height="13.3144" rx="6.65719" transform="rotate(-45 164.148 174.602)" stroke="#90A320" stroke-width="0.5"/>
<rect x="154.38" y="174.602" width="27.1288" height="27.1288" rx="6.65719" transform="rotate(-45 154.38 174.602)" stroke="#90A320" stroke-width="0.5"/>
<rect x="134.903" y="174.602" width="13.3144" height="13.3144" rx="6.65719" transform="rotate(-45 134.903 174.602)" stroke="#90A320" stroke-width="0.5"/>
<rect x="125.134" y="174.602" width="27.1288" height="27.1288" rx="6.65719" transform="rotate(-45 125.134 174.602)" stroke="#90A320" stroke-width="0.5"/>
<rect x="105.657" y="174.602" width="13.3144" height="13.3144" rx="6.65719" transform="rotate(-45 105.657 174.602)" stroke="#90A320" stroke-width="0.5"/>
<rect x="95.8887" y="174.602" width="27.1288" height="27.1288" rx="6.65719" transform="rotate(-45 95.8887 174.602)" stroke="#90A320" stroke-width="0.5"/>
<rect x="76.4121" y="174.602" width="13.3144" height="13.3144" rx="6.65719" transform="rotate(-45 76.4121 174.602)" stroke="#90A320" stroke-width="0.5"/>
<rect x="66.6433" y="174.602" width="27.1288" height="27.1288" rx="6.65719" transform="rotate(-45 66.6433 174.602)" stroke="#90A320" stroke-width="0.5"/>
<rect x="47.1665" y="174.602" width="13.3144" height="13.3144" rx="6.65719" transform="rotate(-45 47.1665 174.602)" stroke="#90A320" stroke-width="0.5"/>
<rect x="37.3977" y="174.602" width="27.1288" height="27.1288" rx="6.65719" transform="rotate(-45 37.3977 174.602)" stroke="#90A320" stroke-width="0.5"/>
<rect x="17.9207" y="174.602" width="13.3144" height="13.3144" rx="6.65719" transform="rotate(-45 17.9207 174.602)" stroke="#90A320" stroke-width="0.5"/>
<rect x="8.15238" y="174.602" width="27.1288" height="27.1288" rx="6.65719" transform="rotate(-45 8.15238 174.602)" stroke="#90A320" stroke-width="0.5"/>
<rect x="-11.3249" y="174.602" width="13.3144" height="13.3144" rx="6.65719" transform="rotate(-45 -11.3249 174.602)" stroke="#90A320" stroke-width="0.5"/>
<rect x="-21.0932" y="174.602" width="27.1288" height="27.1288" rx="6.65719" transform="rotate(-45 -21.0932 174.602)" stroke="#90A320" stroke-width="0.5"/>
<rect x="359.099" y="145.562" width="27.1288" height="27.1288" rx="6.65719" transform="rotate(-45 359.099 145.562)" stroke="#90A320" stroke-width="0.5"/>
<rect x="339.621" y="145.562" width="13.3144" height="13.3144" rx="6.65719" transform="rotate(-45 339.621 145.562)" stroke="#90A320" stroke-width="0.5"/>
<rect x="329.853" y="145.562" width="27.1288" height="27.1288" rx="6.65719" transform="rotate(-45 329.853 145.562)" stroke="#90A320" stroke-width="0.5"/>
<rect x="310.376" y="145.562" width="13.3144" height="13.3144" rx="6.65719" transform="rotate(-45 310.376 145.562)" stroke="#90A320" stroke-width="0.5"/>
<rect x="300.607" y="145.562" width="27.1288" height="27.1288" rx="6.65719" transform="rotate(-45 300.607 145.562)" stroke="#90A320" stroke-width="0.5"/>
<rect x="281.131" y="145.562" width="13.3144" height="13.3144" rx="6.65719" transform="rotate(-45 281.131 145.562)" stroke="#90A320" stroke-width="0.5"/>
<rect x="271.362" y="145.562" width="27.1288" height="27.1288" rx="6.65719" transform="rotate(-45 271.362 145.562)" stroke="#90A320" stroke-width="0.5"/>
<rect x="251.885" y="145.562" width="13.3144" height="13.3144" rx="6.65719" transform="rotate(-45 251.885 145.562)" stroke="#90A320" stroke-width="0.5"/>
<rect x="242.116" y="145.562" width="27.1288" height="27.1288" rx="6.65719" transform="rotate(-45 242.116 145.562)" stroke="#90A320" stroke-width="0.5"/>
<rect x="222.639" y="145.562" width="13.3144" height="13.3144" rx="6.65719" transform="rotate(-45 222.639 145.562)" stroke="#90A320" stroke-width="0.5"/>
<rect x="212.871" y="145.562" width="27.1288" height="27.1288" rx="6.65719" transform="rotate(-45 212.871 145.562)" stroke="#90A320" stroke-width="0.5"/>
<rect x="193.393" y="145.562" width="13.3144" height="13.3144" rx="6.65719" transform="rotate(-45 193.393 145.562)" stroke="#90A320" stroke-width="0.5"/>
<rect x="183.626" y="145.562" width="27.1288" height="27.1288" rx="6.65719" transform="rotate(-45 183.626 145.562)" stroke="#90A320" stroke-width="0.5"/>
<rect x="164.148" y="145.562" width="13.3144" height="13.3144" rx="6.65719" transform="rotate(-45 164.148 145.562)" stroke="#90A320" stroke-width="0.5"/>
<rect x="154.38" y="145.562" width="27.1288" height="27.1288" rx="6.65719" transform="rotate(-45 154.38 145.562)" stroke="#90A320" stroke-width="0.5"/>
<rect x="134.903" y="145.562" width="13.3144" height="13.3144" rx="6.65719" transform="rotate(-45 134.903 145.562)" stroke="#90A320" stroke-width="0.5"/>
<rect x="125.135" y="145.562" width="27.1288" height="27.1288" rx="6.65719" transform="rotate(-45 125.135 145.562)" stroke="#90A320" stroke-width="0.5"/>
<rect x="105.657" y="145.562" width="13.3144" height="13.3144" rx="6.65719" transform="rotate(-45 105.657 145.562)" stroke="#90A320" stroke-width="0.5"/>
<rect x="95.889" y="145.562" width="27.1288" height="27.1288" rx="6.65719" transform="rotate(-45 95.889 145.562)" stroke="#90A320" stroke-width="0.5"/>
<rect x="76.4114" y="145.562" width="13.3144" height="13.3144" rx="6.65719" transform="rotate(-45 76.4114 145.562)" stroke="#90A320" stroke-width="0.5"/>
<rect x="66.6433" y="145.562" width="27.1288" height="27.1288" rx="6.65719" transform="rotate(-45 66.6433 145.562)" stroke="#90A320" stroke-width="0.5"/>
<rect x="47.1661" y="145.562" width="13.3144" height="13.3144" rx="6.65719" transform="rotate(-45 47.1661 145.562)" stroke="#90A320" stroke-width="0.5"/>
<rect x="37.398" y="145.562" width="27.1288" height="27.1288" rx="6.65719" transform="rotate(-45 37.398 145.562)" stroke="#90A320" stroke-width="0.5"/>
<rect x="17.9204" y="145.562" width="13.3144" height="13.3144" rx="6.65719" transform="rotate(-45 17.9204 145.562)" stroke="#90A320" stroke-width="0.5"/>
<rect x="8.15189" y="145.562" width="27.1288" height="27.1288" rx="6.65719" transform="rotate(-45 8.15189 145.562)" stroke="#90A320" stroke-width="0.5"/>
<rect x="-11.3252" y="145.562" width="13.3144" height="13.3144" rx="6.65719" transform="rotate(-45 -11.3252 145.562)" stroke="#90A320" stroke-width="0.5"/>
<rect x="-21.0932" y="145.562" width="27.1288" height="27.1288" rx="6.65719" transform="rotate(-45 -21.0932 145.562)" stroke="#90A320" stroke-width="0.5"/>
<rect x="359.099" y="116.531" width="27.1288" height="27.1288" rx="6.65719" transform="rotate(-45 359.099 116.531)" stroke="#90A320" stroke-width="0.5"/>
<rect x="339.621" y="116.531" width="13.3144" height="13.3144" rx="6.65719" transform="rotate(-45 339.621 116.531)" stroke="#90A320" stroke-width="0.5"/>
<rect x="329.853" y="116.531" width="27.1288" height="27.1288" rx="6.65719" transform="rotate(-45 329.853 116.531)" stroke="#90A320" stroke-width="0.5"/>
<rect x="310.376" y="116.531" width="13.3144" height="13.3144" rx="6.65719" transform="rotate(-45 310.376 116.531)" stroke="#90A320" stroke-width="0.5"/>
<rect x="300.608" y="116.531" width="27.1288" height="27.1288" rx="6.65719" transform="rotate(-45 300.608 116.531)" stroke="#90A320" stroke-width="0.5"/>
<rect x="281.13" y="116.531" width="13.3144" height="13.3144" rx="6.65719" transform="rotate(-45 281.13 116.531)" stroke="#90A320" stroke-width="0.5"/>
<rect x="271.362" y="116.531" width="27.1288" height="27.1288" rx="6.65719" transform="rotate(-45 271.362 116.531)" stroke="#90A320" stroke-width="0.5"/>
<rect x="251.885" y="116.531" width="13.3144" height="13.3144" rx="6.65719" transform="rotate(-45 251.885 116.531)" stroke="#90A320" stroke-width="0.5"/>
<rect x="242.117" y="116.531" width="27.1288" height="27.1288" rx="6.65719" transform="rotate(-45 242.117 116.531)" stroke="#90A320" stroke-width="0.5"/>
<rect x="222.639" y="116.531" width="13.3144" height="13.3144" rx="6.65719" transform="rotate(-45 222.639 116.531)" stroke="#90A320" stroke-width="0.5"/>
<rect x="212.871" y="116.531" width="27.1288" height="27.1288" rx="6.65719" transform="rotate(-45 212.871 116.531)" stroke="#90A320" stroke-width="0.5"/>
<rect x="193.394" y="116.531" width="13.3144" height="13.3144" rx="6.65719" transform="rotate(-45 193.394 116.531)" stroke="#90A320" stroke-width="0.5"/>
<rect x="183.626" y="116.531" width="27.1288" height="27.1288" rx="6.65719" transform="rotate(-45 183.626 116.531)" stroke="#90A320" stroke-width="0.5"/>
<rect x="164.148" y="116.531" width="13.3144" height="13.3144" rx="6.65719" transform="rotate(-45 164.148 116.531)" stroke="#90A320" stroke-width="0.5"/>
<rect x="154.379" y="116.531" width="27.1288" height="27.1288" rx="6.65719" transform="rotate(-45 154.379 116.531)" stroke="#90A320" stroke-width="0.5"/>
<rect x="134.903" y="116.531" width="13.3144" height="13.3144" rx="6.65719" transform="rotate(-45 134.903 116.531)" stroke="#90A320" stroke-width="0.5"/>
<rect x="125.134" y="116.531" width="27.1288" height="27.1288" rx="6.65719" transform="rotate(-45 125.134 116.531)" stroke="#90A320" stroke-width="0.5"/>
<rect x="105.657" y="116.531" width="13.3144" height="13.3144" rx="6.65719" transform="rotate(-45 105.657 116.531)" stroke="#90A320" stroke-width="0.5"/>
<rect x="95.889" y="116.531" width="27.1288" height="27.1288" rx="6.65719" transform="rotate(-45 95.889 116.531)" stroke="#90A320" stroke-width="0.5"/>
<rect x="76.4119" y="116.531" width="13.3144" height="13.3144" rx="6.65719" transform="rotate(-45 76.4119 116.531)" stroke="#90A320" stroke-width="0.5"/>
<rect x="66.6436" y="116.531" width="27.1288" height="27.1288" rx="6.65719" transform="rotate(-45 66.6436 116.531)" stroke="#90A320" stroke-width="0.5"/>
<rect x="47.1663" y="116.531" width="13.3144" height="13.3144" rx="6.65719" transform="rotate(-45 47.1663 116.531)" stroke="#90A320" stroke-width="0.5"/>
<rect x="37.3975" y="116.531" width="27.1288" height="27.1288" rx="6.65719" transform="rotate(-45 37.3975 116.531)" stroke="#90A320" stroke-width="0.5"/>
<rect x="17.9207" y="116.531" width="13.3144" height="13.3144" rx="6.65719" transform="rotate(-45 17.9207 116.531)" stroke="#90A320" stroke-width="0.5"/>
<rect x="8.15189" y="116.531" width="27.1288" height="27.1288" rx="6.65719" transform="rotate(-45 8.15189 116.531)" stroke="#90A320" stroke-width="0.5"/>
<rect x="-11.3252" y="116.531" width="13.3144" height="13.3144" rx="6.65719" transform="rotate(-45 -11.3252 116.531)" stroke="#90A320" stroke-width="0.5"/>
<rect x="-21.0935" y="116.531" width="27.1288" height="27.1288" rx="6.65719" transform="rotate(-45 -21.0935 116.531)" stroke="#90A320" stroke-width="0.5"/>
<rect x="359.098" y="87.5" width="27.1288" height="27.1288" rx="6.65719" transform="rotate(-45 359.098 87.5)" stroke="#90A320" stroke-width="0.5"/>
<rect x="339.622" y="87.5" width="13.3144" height="13.3144" rx="6.65719" transform="rotate(-45 339.622 87.5)" stroke="#90A320" stroke-width="0.5"/>
<rect x="329.853" y="87.5" width="27.1288" height="27.1288" rx="6.65719" transform="rotate(-45 329.853 87.5)" stroke="#90A320" stroke-width="0.5"/>
<rect x="310.376" y="87.5" width="13.3144" height="13.3144" rx="6.65719" transform="rotate(-45 310.376 87.5)" stroke="#90A320" stroke-width="0.5"/>
<rect x="300.608" y="87.5" width="27.1288" height="27.1288" rx="6.65719" transform="rotate(-45 300.608 87.5)" stroke="#90A320" stroke-width="0.5"/>
<rect x="281.131" y="87.5" width="13.3144" height="13.3144" rx="6.65719" transform="rotate(-45 281.131 87.5)" stroke="#90A320" stroke-width="0.5"/>
<rect x="271.362" y="87.5" width="27.1288" height="27.1288" rx="6.65719" transform="rotate(-45 271.362 87.5)" stroke="#90A320" stroke-width="0.5"/>
<rect x="251.885" y="87.5" width="13.3144" height="13.3144" rx="6.65719" transform="rotate(-45 251.885 87.5)" stroke="#90A320" stroke-width="0.5"/>
<rect x="242.117" y="87.5" width="27.1288" height="27.1288" rx="6.65719" transform="rotate(-45 242.117 87.5)" stroke="#90A320" stroke-width="0.5"/>
<rect x="222.639" y="87.5" width="13.3144" height="13.3144" rx="6.65719" transform="rotate(-45 222.639 87.5)" stroke="#90A320" stroke-width="0.5"/>
<rect x="212.871" y="87.5" width="27.1288" height="27.1288" rx="6.65719" transform="rotate(-45 212.871 87.5)" stroke="#90A320" stroke-width="0.5"/>
<rect x="193.394" y="87.5" width="13.3144" height="13.3144" rx="6.65719" transform="rotate(-45 193.394 87.5)" stroke="#90A320" stroke-width="0.5"/>
<rect x="183.626" y="87.5" width="27.1288" height="27.1288" rx="6.65719" transform="rotate(-45 183.626 87.5)" stroke="#90A320" stroke-width="0.5"/>
<rect x="164.148" y="87.5" width="13.3144" height="13.3144" rx="6.65719" transform="rotate(-45 164.148 87.5)" stroke="#90A320" stroke-width="0.5"/>
<rect x="154.38" y="87.5" width="27.1288" height="27.1288" rx="6.65719" transform="rotate(-45 154.38 87.5)" stroke="#90A320" stroke-width="0.5"/>
<rect x="134.903" y="87.5" width="13.3144" height="13.3144" rx="6.65719" transform="rotate(-45 134.903 87.5)" stroke="#90A320" stroke-width="0.5"/>
<rect x="125.134" y="87.5" width="27.1288" height="27.1288" rx="6.65719" transform="rotate(-45 125.134 87.5)" stroke="#90A320" stroke-width="0.5"/>
<rect x="105.657" y="87.5" width="13.3144" height="13.3144" rx="6.65719" transform="rotate(-45 105.657 87.5)" stroke="#90A320" stroke-width="0.5"/>
<rect x="95.8887" y="87.5" width="27.1288" height="27.1288" rx="6.65719" transform="rotate(-45 95.8887 87.5)" stroke="#90A320" stroke-width="0.5"/>
<rect x="76.4112" y="87.5" width="13.3144" height="13.3144" rx="6.65719" transform="rotate(-45 76.4112 87.5)" stroke="#90A320" stroke-width="0.5"/>
<rect x="66.6431" y="87.5" width="27.1288" height="27.1288" rx="6.65719" transform="rotate(-45 66.6431 87.5)" stroke="#90A320" stroke-width="0.5"/>
<rect x="47.1656" y="87.5" width="13.3144" height="13.3144" rx="6.65719" transform="rotate(-45 47.1656 87.5)" stroke="#90A320" stroke-width="0.5"/>
<rect x="37.3975" y="87.5" width="27.1288" height="27.1288" rx="6.65719" transform="rotate(-45 37.3975 87.5)" stroke="#90A320" stroke-width="0.5"/>
<rect x="17.9202" y="87.5" width="13.3144" height="13.3144" rx="6.65719" transform="rotate(-45 17.9202 87.5)" stroke="#90A320" stroke-width="0.5"/>
<rect x="8.15214" y="87.5" width="27.1288" height="27.1288" rx="6.65719" transform="rotate(-45 8.15214 87.5)" stroke="#90A320" stroke-width="0.5"/>
<rect x="-11.3254" y="87.5" width="13.3144" height="13.3144" rx="6.65719" transform="rotate(-45 -11.3254 87.5)" stroke="#90A320" stroke-width="0.5"/>
<rect x="-21.0935" y="87.5" width="27.1288" height="27.1288" rx="6.65719" transform="rotate(-45 -21.0935 87.5)" stroke="#90A320" stroke-width="0.5"/>
<rect x="359.098" y="58.4609" width="27.1288" height="27.1288" rx="6.65719" transform="rotate(-45 359.098 58.4609)" stroke="#90A320" stroke-width="0.5"/>
<rect x="339.621" y="58.4609" width="13.3144" height="13.3144" rx="6.65719" transform="rotate(-45 339.621 58.4609)" stroke="#90A320" stroke-width="0.5"/>
<rect x="329.853" y="58.4609" width="27.1288" height="27.1288" rx="6.65719" transform="rotate(-45 329.853 58.4609)" stroke="#90A320" stroke-width="0.5"/>
<rect x="310.376" y="58.4609" width="13.3144" height="13.3144" rx="6.65719" transform="rotate(-45 310.376 58.4609)" stroke="#90A320" stroke-width="0.5"/>
<rect x="300.607" y="58.4609" width="27.1288" height="27.1288" rx="6.65719" transform="rotate(-45 300.607 58.4609)" stroke="#90A320" stroke-width="0.5"/>
<rect x="281.13" y="58.4609" width="13.3144" height="13.3144" rx="6.65719" transform="rotate(-45 281.13 58.4609)" stroke="#90A320" stroke-width="0.5"/>
<rect x="271.362" y="58.4609" width="27.1288" height="27.1288" rx="6.65719" transform="rotate(-45 271.362 58.4609)" stroke="#90A320" stroke-width="0.5"/>
<rect x="251.884" y="58.4609" width="13.3144" height="13.3144" rx="6.65719" transform="rotate(-45 251.884 58.4609)" stroke="#90A320" stroke-width="0.5"/>
<rect x="242.116" y="58.4609" width="27.1288" height="27.1288" rx="6.65719" transform="rotate(-45 242.116 58.4609)" stroke="#90A320" stroke-width="0.5"/>
<rect x="222.639" y="58.4609" width="13.3144" height="13.3144" rx="6.65719" transform="rotate(-45 222.639 58.4609)" stroke="#90A320" stroke-width="0.5"/>
<rect x="212.871" y="58.4609" width="27.1288" height="27.1288" rx="6.65719" transform="rotate(-45 212.871 58.4609)" stroke="#90A320" stroke-width="0.5"/>
<rect x="193.393" y="58.4609" width="13.3144" height="13.3144" rx="6.65719" transform="rotate(-45 193.393 58.4609)" stroke="#90A320" stroke-width="0.5"/>
<rect x="183.625" y="58.4609" width="27.1288" height="27.1288" rx="6.65719" transform="rotate(-45 183.625 58.4609)" stroke="#90A320" stroke-width="0.5"/>
<rect x="164.148" y="58.4609" width="13.3144" height="13.3144" rx="6.65719" transform="rotate(-45 164.148 58.4609)" stroke="#90A320" stroke-width="0.5"/>
<rect x="154.38" y="58.4609" width="27.1288" height="27.1288" rx="6.65719" transform="rotate(-45 154.38 58.4609)" stroke="#90A320" stroke-width="0.5"/>
<rect x="134.902" y="58.4609" width="13.3144" height="13.3144" rx="6.65719" transform="rotate(-45 134.902 58.4609)" stroke="#90A320" stroke-width="0.5"/>
<rect x="125.134" y="58.4609" width="27.1288" height="27.1288" rx="6.65719" transform="rotate(-45 125.134 58.4609)" stroke="#90A320" stroke-width="0.5"/>
<rect x="105.657" y="58.4609" width="13.3144" height="13.3144" rx="6.65719" transform="rotate(-45 105.657 58.4609)" stroke="#90A320" stroke-width="0.5"/>
<rect x="95.8887" y="58.4609" width="27.1288" height="27.1288" rx="6.65719" transform="rotate(-45 95.8887 58.4609)" stroke="#90A320" stroke-width="0.5"/>
<rect x="76.4117" y="58.4609" width="13.3144" height="13.3144" rx="6.65719" transform="rotate(-45 76.4117 58.4609)" stroke="#90A320" stroke-width="0.5"/>
<rect x="66.6433" y="58.4609" width="27.1288" height="27.1288" rx="6.65719" transform="rotate(-45 66.6433 58.4609)" stroke="#90A320" stroke-width="0.5"/>
<rect x="47.1661" y="58.4609" width="13.3144" height="13.3144" rx="6.65719" transform="rotate(-45 47.1661 58.4609)" stroke="#90A320" stroke-width="0.5"/>
<rect x="37.3977" y="58.4609" width="27.1288" height="27.1288" rx="6.65719" transform="rotate(-45 37.3977 58.4609)" stroke="#90A320" stroke-width="0.5"/>
<rect x="17.9204" y="58.4609" width="13.3144" height="13.3144" rx="6.65719" transform="rotate(-45 17.9204 58.4609)" stroke="#90A320" stroke-width="0.5"/>
<rect x="8.15214" y="58.4609" width="27.1288" height="27.1288" rx="6.65719" transform="rotate(-45 8.15214 58.4609)" stroke="#90A320" stroke-width="0.5"/>
<rect x="-11.3249" y="58.4609" width="13.3144" height="13.3144" rx="6.65719" transform="rotate(-45 -11.3249 58.4609)" stroke="#90A320" stroke-width="0.5"/>
<rect x="-21.0932" y="58.4609" width="27.1288" height="27.1288" rx="6.65719" transform="rotate(-45 -21.0932 58.4609)" stroke="#90A320" stroke-width="0.5"/>
<rect x="359.099" y="29.4297" width="27.1288" height="27.1288" rx="6.65719" transform="rotate(-45 359.099 29.4297)" stroke="#90A320" stroke-width="0.5"/>
<rect x="339.622" y="29.4297" width="13.3144" height="13.3144" rx="6.65719" transform="rotate(-45 339.622 29.4297)" stroke="#90A320" stroke-width="0.5"/>
<rect x="329.853" y="29.4297" width="27.1288" height="27.1288" rx="6.65719" transform="rotate(-45 329.853 29.4297)" stroke="#90A320" stroke-width="0.5"/>
<rect x="310.376" y="29.4297" width="13.3144" height="13.3144" rx="6.65719" transform="rotate(-45 310.376 29.4297)" stroke="#90A320" stroke-width="0.5"/>
<rect x="300.607" y="29.4297" width="27.1288" height="27.1288" rx="6.65719" transform="rotate(-45 300.607 29.4297)" stroke="#90A320" stroke-width="0.5"/>
<rect x="281.131" y="29.4297" width="13.3144" height="13.3144" rx="6.65719" transform="rotate(-45 281.131 29.4297)" stroke="#90A320" stroke-width="0.5"/>
<rect x="271.362" y="29.4297" width="27.1288" height="27.1288" rx="6.65719" transform="rotate(-45 271.362 29.4297)" stroke="#90A320" stroke-width="0.5"/>
<rect x="251.885" y="29.4297" width="13.3144" height="13.3144" rx="6.65719" transform="rotate(-45 251.885 29.4297)" stroke="#90A320" stroke-width="0.5"/>
<rect x="242.116" y="29.4297" width="27.1288" height="27.1288" rx="6.65719" transform="rotate(-45 242.116 29.4297)" stroke="#90A320" stroke-width="0.5"/>
<rect x="222.639" y="29.4297" width="13.3144" height="13.3144" rx="6.65719" transform="rotate(-45 222.639 29.4297)" stroke="#90A320" stroke-width="0.5"/>
<rect x="212.871" y="29.4297" width="27.1288" height="27.1288" rx="6.65719" transform="rotate(-45 212.871 29.4297)" stroke="#90A320" stroke-width="0.5"/>
<rect x="193.394" y="29.4297" width="13.3144" height="13.3144" rx="6.65719" transform="rotate(-45 193.394 29.4297)" stroke="#90A320" stroke-width="0.5"/>
<rect x="183.626" y="29.4297" width="27.1288" height="27.1288" rx="6.65719" transform="rotate(-45 183.626 29.4297)" stroke="#90A320" stroke-width="0.5"/>
<rect x="164.148" y="29.4297" width="13.3144" height="13.3144" rx="6.65719" transform="rotate(-45 164.148 29.4297)" stroke="#90A320" stroke-width="0.5"/>
<rect x="154.38" y="29.4297" width="27.1288" height="27.1288" rx="6.65719" transform="rotate(-45 154.38 29.4297)" stroke="#90A320" stroke-width="0.5"/>
<rect x="134.902" y="29.4297" width="13.3144" height="13.3144" rx="6.65719" transform="rotate(-45 134.902 29.4297)" stroke="#90A320" stroke-width="0.5"/>
<rect x="125.134" y="29.4297" width="27.1288" height="27.1288" rx="6.65719" transform="rotate(-45 125.134 29.4297)" stroke="#90A320" stroke-width="0.5"/>
<rect x="105.657" y="29.4297" width="13.3144" height="13.3144" rx="6.65719" transform="rotate(-45 105.657 29.4297)" stroke="#90A320" stroke-width="0.5"/>
<rect x="95.889" y="29.4297" width="27.1288" height="27.1288" rx="6.65719" transform="rotate(-45 95.889 29.4297)" stroke="#90A320" stroke-width="0.5"/>
<rect x="76.4112" y="29.4297" width="13.3144" height="13.3144" rx="6.65719" transform="rotate(-45 76.4112 29.4297)" stroke="#90A320" stroke-width="0.5"/>
<rect x="66.6429" y="29.4297" width="27.1288" height="27.1288" rx="6.65719" transform="rotate(-45 66.6429 29.4297)" stroke="#90A320" stroke-width="0.5"/>
<rect x="47.1658" y="29.4297" width="13.3144" height="13.3144" rx="6.65719" transform="rotate(-45 47.1658 29.4297)" stroke="#90A320" stroke-width="0.5"/>
<rect x="37.3977" y="29.4297" width="27.1288" height="27.1288" rx="6.65719" transform="rotate(-45 37.3977 29.4297)" stroke="#90A320" stroke-width="0.5"/>
<rect x="17.9204" y="29.4297" width="13.3144" height="13.3144" rx="6.65719" transform="rotate(-45 17.9204 29.4297)" stroke="#90A320" stroke-width="0.5"/>
<rect x="8.15238" y="29.4297" width="27.1288" height="27.1288" rx="6.65719" transform="rotate(-45 8.15238 29.4297)" stroke="#90A320" stroke-width="0.5"/>
<rect x="-11.3252" y="29.4297" width="13.3144" height="13.3144" rx="6.65719" transform="rotate(-45 -11.3252 29.4297)" stroke="#90A320" stroke-width="0.5"/>
<rect x="-21.0932" y="29.4297" width="27.1288" height="27.1288" rx="6.65719" transform="rotate(-45 -21.0932 29.4297)" stroke="#90A320" stroke-width="0.5"/>
<rect x="359.099" y="0.398438" width="27.1288" height="27.1288" rx="6.65719" transform="rotate(-45 359.099 0.398438)" stroke="#90A320" stroke-width="0.5"/>
<rect x="339.621" y="0.398438" width="13.3144" height="13.3144" rx="6.65719" transform="rotate(-45 339.621 0.398438)" stroke="#90A320" stroke-width="0.5"/>
<rect x="329.853" y="0.398438" width="27.1288" height="27.1288" rx="6.65719" transform="rotate(-45 329.853 0.398438)" stroke="#90A320" stroke-width="0.5"/>
<rect x="310.376" y="0.398438" width="13.3144" height="13.3144" rx="6.65719" transform="rotate(-45 310.376 0.398438)" stroke="#90A320" stroke-width="0.5"/>
<rect x="300.608" y="0.398438" width="27.1288" height="27.1288" rx="6.65719" transform="rotate(-45 300.608 0.398438)" stroke="#90A320" stroke-width="0.5"/>
<rect x="281.13" y="0.398438" width="13.3144" height="13.3144" rx="6.65719" transform="rotate(-45 281.13 0.398438)" stroke="#90A320" stroke-width="0.5"/>
<rect x="271.362" y="0.398438" width="27.1288" height="27.1288" rx="6.65719" transform="rotate(-45 271.362 0.398438)" stroke="#90A320" stroke-width="0.5"/>
<rect x="251.885" y="0.398438" width="13.3144" height="13.3144" rx="6.65719" transform="rotate(-45 251.885 0.398438)" stroke="#90A320" stroke-width="0.5"/>
<rect x="242.116" y="0.398438" width="27.1288" height="27.1288" rx="6.65719" transform="rotate(-45 242.116 0.398438)" stroke="#90A320" stroke-width="0.5"/>
<rect x="222.639" y="0.398438" width="13.3144" height="13.3144" rx="6.65719" transform="rotate(-45 222.639 0.398438)" stroke="#90A320" stroke-width="0.5"/>
<rect x="212.871" y="0.398438" width="27.1288" height="27.1288" rx="6.65719" transform="rotate(-45 212.871 0.398438)" stroke="#90A320" stroke-width="0.5"/>
<rect x="193.394" y="0.398438" width="13.3144" height="13.3144" rx="6.65719" transform="rotate(-45 193.394 0.398438)" stroke="#90A320" stroke-width="0.5"/>
<rect x="183.626" y="0.398438" width="27.1288" height="27.1288" rx="6.65719" transform="rotate(-45 183.626 0.398438)" stroke="#90A320" stroke-width="0.5"/>
<rect x="164.148" y="0.398438" width="13.3144" height="13.3144" rx="6.65719" transform="rotate(-45 164.148 0.398438)" stroke="#90A320" stroke-width="0.5"/>
<rect x="154.38" y="0.398438" width="27.1288" height="27.1288" rx="6.65719" transform="rotate(-45 154.38 0.398438)" stroke="#90A320" stroke-width="0.5"/>
<rect x="134.903" y="0.398438" width="13.3144" height="13.3144" rx="6.65719" transform="rotate(-45 134.903 0.398438)" stroke="#90A320" stroke-width="0.5"/>
<rect x="125.135" y="0.398438" width="27.1288" height="27.1288" rx="6.65719" transform="rotate(-45 125.135 0.398438)" stroke="#90A320" stroke-width="0.5"/>
<rect x="105.657" y="0.398438" width="13.3144" height="13.3144" rx="6.65719" transform="rotate(-45 105.657 0.398438)" stroke="#90A320" stroke-width="0.5"/>
<rect x="95.8885" y="0.398438" width="27.1288" height="27.1288" rx="6.65719" transform="rotate(-45 95.8885 0.398438)" stroke="#90A320" stroke-width="0.5"/>
<rect x="76.4119" y="0.398438" width="13.3144" height="13.3144" rx="6.65719" transform="rotate(-45 76.4119 0.398438)" stroke="#90A320" stroke-width="0.5"/>
<rect x="66.6436" y="0.398438" width="27.1288" height="27.1288" rx="6.65719" transform="rotate(-45 66.6436 0.398438)" stroke="#90A320" stroke-width="0.5"/>
<rect x="47.1663" y="0.398438" width="13.3144" height="13.3144" rx="6.65719" transform="rotate(-45 47.1663 0.398438)" stroke="#90A320" stroke-width="0.5"/>
<rect x="37.398" y="0.398438" width="27.1288" height="27.1288" rx="6.65719" transform="rotate(-45 37.398 0.398438)" stroke="#90A320" stroke-width="0.5"/>
<rect x="17.9202" y="0.398438" width="13.3144" height="13.3144" rx="6.65719" transform="rotate(-45 17.9202 0.398438)" stroke="#90A320" stroke-width="0.5"/>
<rect x="8.15189" y="0.398438" width="27.1288" height="27.1288" rx="6.65719" transform="rotate(-45 8.15189 0.398438)" stroke="#90A320" stroke-width="0.5"/>
<rect x="-11.3247" y="0.398438" width="13.3144" height="13.3144" rx="6.65719" transform="rotate(-45 -11.3247 0.398438)" stroke="#90A320" stroke-width="0.5"/>
<rect x="-21.0935" y="0.398438" width="27.1288" height="27.1288" rx="6.65719" transform="rotate(-45 -21.0935 0.398438)" stroke="#90A320" stroke-width="0.5"/>
</g>
<path d="M177.973 49.9376C180.372 48.1873 183.628 48.1873 186.027 49.9376L209.088 66.7593C210.261 67.6149 211.676 68.0747 213.128 68.072L241.672 68.0176C244.642 68.012 247.275 69.9254 248.188 72.7517L256.957 99.9155C257.403 101.297 258.277 102.501 259.453 103.352L282.578 120.086C284.984 121.827 285.99 124.923 285.067 127.746L276.195 154.876C275.743 156.256 275.743 157.744 276.195 159.124L285.067 186.254C285.99 189.077 284.984 192.173 282.578 193.914L259.453 210.648C258.277 211.499 257.403 212.703 256.957 214.085L248.188 241.248C247.275 244.075 244.642 245.988 241.672 245.982L213.128 245.928C211.676 245.925 210.261 246.385 209.088 247.241L186.027 264.062C183.628 265.813 180.372 265.813 177.973 264.062L154.912 247.241C153.739 246.385 152.324 245.925 150.872 245.928L122.328 245.982C119.358 245.988 116.725 244.075 115.812 241.248L107.043 214.085C106.597 212.703 105.723 211.499 104.547 210.648L81.422 193.914C79.0159 192.173 78.01 189.077 78.9331 186.254L87.8054 159.124C88.2567 157.744 88.2567 156.256 87.8054 154.876L78.9331 127.746C78.01 124.923 79.0159 121.827 81.422 120.086L104.547 103.352C105.723 102.501 106.597 101.297 107.043 99.9155L115.812 72.7517C116.725 69.9254 119.358 68.012 122.328 68.0176L150.872 68.072C152.324 68.0747 153.739 67.6149 154.912 66.7593L177.973 49.9376Z" fill="#90A320"/>
<path d="M192.5 122C194.958 122 197.373 122.647 199.501 123.876C201.63 125.105 203.398 126.872 204.627 129.001C205.855 131.13 206.502 133.545 206.502 136.003C206.501 138.461 205.854 140.875 204.624 143.004L220.5 143V150H213.5V185C213.5 185.928 213.131 186.819 212.475 187.475C211.818 188.131 210.928 188.5 210 188.5H154C153.072 188.5 152.182 188.131 151.525 187.475C150.869 186.819 150.5 185.928 150.5 185V150H143.5V143L159.376 143.004C157.64 139.997 157.082 136.452 157.813 133.057C158.543 129.663 160.509 126.661 163.329 124.634C166.148 122.607 169.62 121.701 173.071 122.091C176.521 122.48 179.703 124.138 182 126.743C183.311 125.249 184.926 124.054 186.737 123.236C188.548 122.418 190.513 121.997 192.5 122ZM178.5 150H157.5V181.5H178.5V150ZM206.5 150H185.5V181.5H206.5V150ZM171.5 129C169.684 128.992 167.935 129.69 166.624 130.947C165.313 132.205 164.542 133.922 164.474 135.737C164.405 137.552 165.046 139.323 166.259 140.675C167.472 142.027 169.163 142.854 170.975 142.983L171.5 143H178.5V136C178.5 134.327 177.901 132.71 176.812 131.44C175.722 130.171 174.214 129.334 172.561 129.081L172.021 129.018L171.5 129ZM192.5 129C190.734 128.999 189.033 129.666 187.738 130.867C186.443 132.068 185.65 133.714 185.518 135.475L185.5 136V143H192.5C194.266 143.001 195.967 142.334 197.262 141.133C198.557 139.932 199.35 138.286 199.483 136.525L199.5 136C199.5 134.144 198.763 132.363 197.45 131.05C196.137 129.738 194.357 129 192.5 129Z" fill="black" fill-opacity="0.2"/>
</svg>
