<svg width="364" height="314" viewBox="0 0 364 314" fill="none" xmlns="http://www.w3.org/2000/svg">
<rect width="364" height="314" rx="10" fill="#AFAFFF"/>
<mask id="mask0_181_7926" style="mask-type:alpha" maskUnits="userSpaceOnUse" x="0" y="0" width="364" height="314">
<rect width="364" height="314" rx="10" fill="#2AACAC"/>
</mask>
<g mask="url(#mask0_181_7926)">
<rect x="6.93607" y="329.599" width="31.4189" height="31.4189" rx="7.87101" transform="rotate(-30 6.93607 329.599)" stroke="#9292FF" stroke-opacity="0.45" stroke-width="0.542828"/>
<path d="M21.5901 326.834L20.7962 322.186L24.4244 325.198C27.8987 328.082 32.4595 329.304 36.9102 328.543L41.5581 327.75L38.5466 331.378C35.6628 334.852 34.4407 339.413 35.201 343.864L35.9949 348.511L32.3668 345.5C28.8924 342.616 24.3317 341.394 19.8809 342.154L15.233 342.948L18.2446 339.32C21.1284 335.846 22.3504 331.285 21.5901 326.834Z" stroke="#9292FF" stroke-opacity="0.45" stroke-width="0.542828"/>
<rect x="34.6158" y="313.618" width="31.4189" height="31.4189" rx="7.87101" transform="rotate(-30 34.6158 313.618)" stroke="#9292FF" stroke-opacity="0.45" stroke-width="0.542828"/>
<path d="M49.2698 310.853L48.4759 306.205L52.1041 309.217C55.5784 312.101 60.1391 313.323 64.5899 312.563L69.2378 311.769L66.2262 315.397C63.3424 318.871 62.1204 323.432 62.8807 327.883L63.6746 332.53L60.0464 329.519C56.5721 326.635 52.0113 325.413 47.5606 326.173L42.9127 326.967L45.9243 323.339C48.8081 319.865 50.0301 315.304 49.2698 310.853Z" stroke="#9292FF" stroke-opacity="0.45" stroke-width="0.542828"/>
<rect x="62.2953" y="297.637" width="31.4189" height="31.4189" rx="7.87101" transform="rotate(-30 62.2953 297.637)" stroke="#9292FF" stroke-opacity="0.45" stroke-width="0.542828"/>
<path d="M76.9494 294.873L76.1554 290.225L79.7836 293.236C83.2579 296.12 87.8187 297.342 92.2695 296.582L96.9173 295.788L93.9058 299.416C91.022 302.891 89.7999 307.451 90.5602 311.902L91.3542 316.55L87.726 313.538C84.2517 310.655 79.6909 309.433 75.2402 310.193L70.5923 310.987L73.6038 307.359C76.4876 303.884 77.7097 299.324 76.9494 294.873Z" stroke="#9292FF" stroke-opacity="0.45" stroke-width="0.542828"/>
<rect x="89.975" y="281.656" width="31.4189" height="31.4189" rx="7.87101" transform="rotate(-30 89.975 281.656)" stroke="#9292FF" stroke-opacity="0.45" stroke-width="0.542828"/>
<path d="M104.629 278.892L103.835 274.244L107.463 277.256C110.938 280.139 115.498 281.361 119.949 280.601L124.597 279.807L121.585 283.435C118.702 286.91 117.48 291.47 118.24 295.921L119.034 300.569L115.406 297.558C111.931 294.674 107.371 293.452 102.92 294.212L98.272 295.006L101.284 291.378C104.167 287.903 105.389 283.343 104.629 278.892Z" stroke="#9292FF" stroke-opacity="0.45" stroke-width="0.542828"/>
<rect x="117.655" y="265.676" width="31.4189" height="31.4189" rx="7.87101" transform="rotate(-30 117.655 265.676)" stroke="#9292FF" stroke-opacity="0.45" stroke-width="0.542828"/>
<path d="M132.309 262.911L131.515 258.263L135.143 261.275C138.617 264.158 143.178 265.38 147.629 264.62L152.277 263.826L149.265 267.454C146.381 270.929 145.159 275.489 145.92 279.94L146.714 284.588L143.085 281.577C139.611 278.693 135.05 277.471 130.6 278.231L125.952 279.025L128.963 275.397C131.847 271.922 133.069 267.362 132.309 262.911Z" stroke="#9292FF" stroke-opacity="0.45" stroke-width="0.542828"/>
<rect x="145.334" y="249.695" width="31.4189" height="31.4189" rx="7.87101" transform="rotate(-30 145.334 249.695)" stroke="#9292FF" stroke-opacity="0.45" stroke-width="0.542828"/>
<path d="M159.988 246.93L159.194 242.282L162.823 245.294C166.297 248.177 170.858 249.399 175.308 248.639L179.956 247.845L176.945 251.473C174.061 254.948 172.839 259.509 173.599 263.959L174.393 268.607L170.765 265.596C167.291 262.712 162.73 261.49 158.279 262.25L153.631 263.044L156.643 259.416C159.527 255.941 160.749 251.381 159.988 246.93Z" stroke="#9292FF" stroke-opacity="0.45" stroke-width="0.542828"/>
<rect x="173.014" y="233.714" width="31.4189" height="31.4189" rx="7.87101" transform="rotate(-30 173.014 233.714)" stroke="#9292FF" stroke-opacity="0.45" stroke-width="0.542828"/>
<path d="M187.668 230.949L186.874 226.301L190.502 229.313C193.977 232.196 198.537 233.419 202.988 232.658L207.636 231.864L204.624 235.492C201.741 238.967 200.519 243.528 201.279 247.978L202.073 252.626L198.445 249.615C194.97 246.731 190.41 245.509 185.959 246.269L181.311 247.063L184.322 243.435C187.206 239.961 188.428 235.4 187.668 230.949Z" stroke="#9292FF" stroke-opacity="0.45" stroke-width="0.542828"/>
<rect x="200.694" y="217.733" width="31.4189" height="31.4189" rx="7.87101" transform="rotate(-30 200.694 217.733)" stroke="#9292FF" stroke-opacity="0.45" stroke-width="0.542828"/>
<path d="M215.348 214.969L214.554 210.321L218.182 213.332C221.656 216.216 226.217 217.438 230.668 216.678L235.316 215.884L232.304 219.512C229.42 222.986 228.198 227.547 228.959 231.998L229.753 236.646L226.124 233.634C222.65 230.75 218.089 229.528 213.638 230.289L208.991 231.083L212.002 227.454C214.886 223.98 216.108 219.419 215.348 214.969Z" stroke="#9292FF" stroke-opacity="0.45" stroke-width="0.542828"/>
<rect x="228.373" y="201.752" width="31.4189" height="31.4189" rx="7.87101" transform="rotate(-30 228.373 201.752)" stroke="#9292FF" stroke-opacity="0.45" stroke-width="0.542828"/>
<path d="M243.027 198.988L242.233 194.34L245.862 197.351C249.336 200.235 253.897 201.457 258.347 200.697L262.995 199.903L259.984 203.531C257.1 207.005 255.878 211.566 256.638 216.017L257.432 220.665L253.804 217.653C250.33 214.769 245.769 213.547 241.318 214.308L236.67 215.102L239.682 211.473C242.566 207.999 243.788 203.438 243.027 198.988Z" stroke="#9292FF" stroke-opacity="0.45" stroke-width="0.542828"/>
<rect x="256.053" y="185.771" width="31.4189" height="31.4189" rx="7.87101" transform="rotate(-30 256.053 185.771)" stroke="#9292FF" stroke-opacity="0.45" stroke-width="0.542828"/>
<path d="M270.707 183.007L269.913 178.359L273.541 181.37C277.016 184.254 281.576 185.476 286.027 184.716L290.675 183.922L287.663 187.55C284.78 191.024 283.558 195.585 284.318 200.036L285.112 204.684L281.484 201.672C278.009 198.788 273.449 197.566 268.998 198.327L264.35 199.121L267.362 195.492C270.245 192.018 271.467 187.457 270.707 183.007Z" stroke="#9292FF" stroke-opacity="0.45" stroke-width="0.542828"/>
<rect x="283.733" y="169.79" width="31.4189" height="31.4189" rx="7.87101" transform="rotate(-30 283.733 169.79)" stroke="#9292FF" stroke-opacity="0.45" stroke-width="0.542828"/>
<path d="M298.387 167.026L297.593 162.378L301.221 165.389C304.695 168.273 309.256 169.495 313.707 168.735L318.355 167.941L315.343 171.569C312.459 175.043 311.237 179.604 311.997 184.055L312.791 188.703L309.163 185.691C305.689 182.808 301.128 181.585 296.677 182.346L292.03 183.14L295.041 179.512C297.925 176.037 299.147 171.476 298.387 167.026Z" stroke="#9292FF" stroke-opacity="0.45" stroke-width="0.542828"/>
<rect x="311.412" y="153.81" width="31.4189" height="31.4189" rx="7.87101" transform="rotate(-30 311.412 153.81)" stroke="#9292FF" stroke-opacity="0.45" stroke-width="0.542828"/>
<path d="M326.066 151.045L325.272 146.397L328.9 149.409C332.375 152.293 336.936 153.515 341.386 152.754L346.034 151.96L343.023 155.589C340.139 159.063 338.917 163.624 339.677 168.074L340.471 172.722L336.843 169.711C333.369 166.827 328.808 165.605 324.357 166.365L319.709 167.159L322.721 163.531C325.604 160.057 326.827 155.496 326.066 151.045Z" stroke="#9292FF" stroke-opacity="0.45" stroke-width="0.542828"/>
<rect x="339.092" y="137.829" width="31.4189" height="31.4189" rx="7.87101" transform="rotate(-30 339.092 137.829)" stroke="#9292FF" stroke-opacity="0.45" stroke-width="0.542828"/>
<path d="M353.746 135.064L352.952 130.416L356.58 133.428C360.054 136.312 364.615 137.534 369.066 136.773L373.714 135.98L370.702 139.608C367.819 143.082 366.596 147.643 367.357 152.094L368.151 156.741L364.523 153.73C361.048 150.846 356.487 149.624 352.037 150.384L347.389 151.178L350.4 147.55C353.284 144.076 354.506 139.515 353.746 135.064Z" stroke="#9292FF" stroke-opacity="0.45" stroke-width="0.542828"/>
<rect x="89.9745" y="317.908" width="31.4189" height="31.4189" rx="7.87101" transform="rotate(-30 89.9745 317.908)" stroke="#9292FF" stroke-opacity="0.45" stroke-width="0.542828"/>
<path d="M104.629 315.144L103.835 310.496L107.463 313.507C110.937 316.391 115.498 317.613 119.949 316.853L124.597 316.059L121.585 319.687C118.701 323.162 117.479 327.722 118.239 332.173L119.033 336.821L115.405 333.809C111.931 330.926 107.37 329.704 102.919 330.464L98.2715 331.258L101.283 327.63C104.167 324.155 105.389 319.595 104.629 315.144Z" stroke="#9292FF" stroke-opacity="0.45" stroke-width="0.542828"/>
<rect x="117.654" y="301.927" width="31.4189" height="31.4189" rx="7.87101" transform="rotate(-30 117.654 301.927)" stroke="#9292FF" stroke-opacity="0.45" stroke-width="0.542828"/>
<path d="M132.308 299.163L131.514 294.515L135.143 297.527C138.617 300.41 143.178 301.632 147.628 300.872L152.276 300.078L149.265 303.706C146.381 307.181 145.159 311.741 145.919 316.192L146.713 320.84L143.085 317.829C139.611 314.945 135.05 313.723 130.599 314.483L125.951 315.277L128.963 311.649C131.847 308.174 133.069 303.614 132.308 299.163Z" stroke="#9292FF" stroke-opacity="0.45" stroke-width="0.542828"/>
<rect x="145.334" y="285.947" width="31.4189" height="31.4189" rx="7.87101" transform="rotate(-30 145.334 285.947)" stroke="#9292FF" stroke-opacity="0.45" stroke-width="0.542828"/>
<path d="M159.988 283.182L159.194 278.534L162.822 281.546C166.296 284.429 170.857 285.651 175.308 284.891L179.956 284.097L176.944 287.725C174.06 291.2 172.838 295.76 173.599 300.211L174.393 304.859L170.764 301.848C167.29 298.964 162.729 297.742 158.279 298.502L153.631 299.296L156.642 295.668C159.526 292.193 160.748 287.633 159.988 283.182Z" stroke="#9292FF" stroke-opacity="0.45" stroke-width="0.542828"/>
<rect x="173.013" y="269.966" width="31.4189" height="31.4189" rx="7.87101" transform="rotate(-30 173.013 269.966)" stroke="#9292FF" stroke-opacity="0.45" stroke-width="0.542828"/>
<path d="M187.668 267.201L186.874 262.553L190.502 265.565C193.976 268.448 198.537 269.67 202.988 268.91L207.635 268.116L204.624 271.744C201.74 275.219 200.518 279.78 201.278 284.23L202.072 288.878L198.444 285.867C194.97 282.983 190.409 281.761 185.958 282.521L181.31 283.315L184.322 279.687C187.206 276.212 188.428 271.652 187.668 267.201Z" stroke="#9292FF" stroke-opacity="0.45" stroke-width="0.542828"/>
<rect x="200.693" y="253.985" width="31.4189" height="31.4189" rx="7.87101" transform="rotate(-30 200.693 253.985)" stroke="#9292FF" stroke-opacity="0.45" stroke-width="0.542828"/>
<path d="M215.347 251.22L214.553 246.573L218.181 249.584C221.656 252.468 226.217 253.69 230.667 252.93L235.315 252.136L232.304 255.764C229.42 259.238 228.198 263.799 228.958 268.25L229.752 272.898L226.124 269.886C222.65 267.002 218.089 265.78 213.638 266.541L208.99 267.335L212.002 263.706C214.885 260.232 216.108 255.671 215.347 251.22Z" stroke="#9292FF" stroke-opacity="0.45" stroke-width="0.542828"/>
<rect x="228.373" y="238.004" width="31.4189" height="31.4189" rx="7.87101" transform="rotate(-30 228.373 238.004)" stroke="#9292FF" stroke-opacity="0.45" stroke-width="0.542828"/>
<path d="M243.027 235.24L242.233 230.592L245.861 233.603C249.335 236.487 253.896 237.709 258.347 236.949L262.995 236.155L259.983 239.783C257.1 243.257 255.877 247.818 256.638 252.269L257.432 256.917L253.804 253.905C250.329 251.021 245.768 249.799 241.318 250.56L236.67 251.354L239.681 247.725C242.565 244.251 243.787 239.69 243.027 235.24Z" stroke="#9292FF" stroke-opacity="0.45" stroke-width="0.542828"/>
<rect x="256.053" y="222.023" width="31.4189" height="31.4189" rx="7.87101" transform="rotate(-30 256.053 222.023)" stroke="#9292FF" stroke-opacity="0.45" stroke-width="0.542828"/>
<path d="M270.707 219.259L269.913 214.611L273.541 217.622C277.015 220.506 281.576 221.728 286.027 220.968L290.675 220.174L287.663 223.802C284.779 227.276 283.557 231.837 284.317 236.288L285.111 240.936L281.483 237.924C278.009 235.04 273.448 233.818 268.997 234.579L264.349 235.373L267.361 231.744C270.245 228.27 271.467 223.709 270.707 219.259Z" stroke="#9292FF" stroke-opacity="0.45" stroke-width="0.542828"/>
<rect x="283.732" y="206.042" width="31.4189" height="31.4189" rx="7.87101" transform="rotate(-30 283.732 206.042)" stroke="#9292FF" stroke-opacity="0.45" stroke-width="0.542828"/>
<path d="M298.386 203.278L297.592 198.63L301.22 201.641C304.695 204.525 309.255 205.747 313.706 204.987L318.354 204.193L315.343 207.821C312.459 211.295 311.237 215.856 311.997 220.307L312.791 224.955L309.163 221.943C305.688 219.059 301.128 217.837 296.677 218.598L292.029 219.392L295.041 215.763C297.924 212.289 299.146 207.728 298.386 203.278Z" stroke="#9292FF" stroke-opacity="0.45" stroke-width="0.542828"/>
<rect x="311.412" y="190.062" width="31.4189" height="31.4189" rx="7.87101" transform="rotate(-30 311.412 190.062)" stroke="#9292FF" stroke-opacity="0.45" stroke-width="0.542828"/>
<path d="M326.066 187.297L325.272 182.649L328.9 185.661C332.374 188.545 336.935 189.767 341.386 189.006L346.034 188.212L343.022 191.841C340.138 195.315 338.916 199.876 339.677 204.326L340.471 208.974L336.842 205.963C333.368 203.079 328.807 201.857 324.357 202.617L319.709 203.411L322.72 199.783C325.604 196.309 326.826 191.748 326.066 187.297Z" stroke="#9292FF" stroke-opacity="0.45" stroke-width="0.542828"/>
<rect x="339.091" y="174.081" width="31.4189" height="31.4189" rx="7.87101" transform="rotate(-30 339.091 174.081)" stroke="#9292FF" stroke-opacity="0.45" stroke-width="0.542828"/>
<path d="M353.745 171.316L352.951 166.668L356.58 169.68C360.054 172.564 364.615 173.786 369.065 173.025L373.713 172.231L370.702 175.86C367.818 179.334 366.596 183.895 367.356 188.345L368.15 192.993L364.522 189.982C361.048 187.098 356.487 185.876 352.036 186.636L347.388 187.43L350.4 183.802C353.284 180.328 354.506 175.767 353.745 171.316Z" stroke="#9292FF" stroke-opacity="0.45" stroke-width="0.542828"/>
<rect x="145.333" y="321.947" width="31.4189" height="31.4189" rx="7.87101" transform="rotate(-30 145.333 321.947)" stroke="#9292FF" stroke-opacity="0.45" stroke-width="0.542828"/>
<path d="M159.987 319.182L159.193 314.535L162.821 317.546C166.295 320.43 170.856 321.652 175.307 320.892L179.955 320.098L176.943 323.726C174.059 327.2 172.837 331.761 173.598 336.212L174.392 340.86L170.763 337.848C167.289 334.964 162.728 333.742 158.278 334.502L153.63 335.296L156.641 331.668C159.525 328.194 160.747 323.633 159.987 319.182Z" stroke="#9292FF" stroke-opacity="0.45" stroke-width="0.542828"/>
<rect x="173.012" y="305.966" width="31.4189" height="31.4189" rx="7.87101" transform="rotate(-30 173.012 305.966)" stroke="#9292FF" stroke-opacity="0.45" stroke-width="0.542828"/>
<path d="M187.667 303.201L186.873 298.554L190.501 301.565C193.975 304.449 198.536 305.671 202.987 304.911L207.634 304.117L204.623 307.745C201.739 311.219 200.517 315.78 201.277 320.231L202.071 324.879L198.443 321.867C194.969 318.983 190.408 317.761 185.957 318.522L181.309 319.315L184.321 315.687C187.205 312.213 188.427 307.652 187.667 303.201Z" stroke="#9292FF" stroke-opacity="0.45" stroke-width="0.542828"/>
<rect x="200.692" y="289.986" width="31.4189" height="31.4189" rx="7.87101" transform="rotate(-30 200.692 289.986)" stroke="#9292FF" stroke-opacity="0.45" stroke-width="0.542828"/>
<path d="M215.346 287.221L214.552 282.573L218.18 285.585C221.655 288.468 226.216 289.69 230.666 288.93L235.314 288.136L232.303 291.764C229.419 295.239 228.197 299.8 228.957 304.25L229.751 308.898L226.123 305.887C222.649 303.003 218.088 301.781 213.637 302.541L208.989 303.335L212.001 299.707C214.884 296.233 216.107 291.672 215.346 287.221Z" stroke="#9292FF" stroke-opacity="0.45" stroke-width="0.542828"/>
<rect x="228.372" y="274.005" width="31.4189" height="31.4189" rx="7.87101" transform="rotate(-30 228.372 274.005)" stroke="#9292FF" stroke-opacity="0.45" stroke-width="0.542828"/>
<path d="M243.026 271.24L242.232 266.592L245.86 269.604C249.334 272.487 253.895 273.71 258.346 272.949L262.994 272.155L259.982 275.783C257.099 279.258 255.876 283.819 256.637 288.269L257.431 292.917L253.803 289.906C250.328 287.022 245.767 285.8 241.317 286.56L236.669 287.354L239.68 283.726C242.564 280.252 243.786 275.691 243.026 271.24Z" stroke="#9292FF" stroke-opacity="0.45" stroke-width="0.542828"/>
<rect x="256.052" y="258.024" width="31.4189" height="31.4189" rx="7.87101" transform="rotate(-30 256.052 258.024)" stroke="#9292FF" stroke-opacity="0.45" stroke-width="0.542828"/>
<path d="M270.706 255.259L269.912 250.611L273.54 253.623C277.014 256.507 281.575 257.729 286.026 256.968L290.674 256.174L287.662 259.803C284.778 263.277 283.556 267.838 284.316 272.288L285.11 276.936L281.482 273.925C278.008 271.041 273.447 269.819 268.996 270.579L264.349 271.373L267.36 267.745C270.244 264.271 271.466 259.71 270.706 255.259Z" stroke="#9292FF" stroke-opacity="0.45" stroke-width="0.542828"/>
<rect x="283.731" y="242.043" width="31.4189" height="31.4189" rx="7.87101" transform="rotate(-30 283.731 242.043)" stroke="#9292FF" stroke-opacity="0.45" stroke-width="0.542828"/>
<path d="M298.385 239.278L297.591 234.63L301.219 237.642C304.694 240.526 309.255 241.748 313.705 240.987L318.353 240.193L315.342 243.822C312.458 247.296 311.236 251.857 311.996 256.307L312.79 260.955L309.162 257.944C305.687 255.06 301.127 253.838 296.676 254.598L292.028 255.392L295.04 251.764C297.923 248.29 299.145 243.729 298.385 239.278Z" stroke="#9292FF" stroke-opacity="0.45" stroke-width="0.542828"/>
<rect x="311.411" y="226.062" width="31.4189" height="31.4189" rx="7.87101" transform="rotate(-30 311.411 226.062)" stroke="#9292FF" stroke-opacity="0.45" stroke-width="0.542828"/>
<path d="M326.065 223.298L325.271 218.65L328.899 221.661C332.373 224.545 336.934 225.767 341.385 225.007L346.033 224.213L343.021 227.841C340.137 231.315 338.915 235.876 339.676 240.327L340.47 244.975L336.841 241.963C333.367 239.079 328.806 237.857 324.356 238.618L319.708 239.412L322.719 235.783C325.603 232.309 326.825 227.748 326.065 223.298Z" stroke="#9292FF" stroke-opacity="0.45" stroke-width="0.542828"/>
<rect x="339.09" y="210.081" width="31.4189" height="31.4189" rx="7.87101" transform="rotate(-30 339.09 210.081)" stroke="#9292FF" stroke-opacity="0.45" stroke-width="0.542828"/>
<path d="M353.744 207.317L352.95 202.669L356.579 205.68C360.053 208.564 364.614 209.786 369.065 209.026L373.712 208.232L370.701 211.86C367.817 215.334 366.595 219.895 367.355 224.346L368.149 228.994L364.521 225.982C361.047 223.099 356.486 221.876 352.035 222.637L347.387 223.431L350.399 219.803C353.283 216.328 354.505 211.767 353.744 207.317Z" stroke="#9292FF" stroke-opacity="0.45" stroke-width="0.542828"/>
<rect x="200.693" y="325.986" width="31.4189" height="31.4189" rx="7.87101" transform="rotate(-30 200.693 325.986)" stroke="#9292FF" stroke-opacity="0.45" stroke-width="0.542828"/>
<path d="M215.347 323.221L214.553 318.573L218.181 321.585C221.656 324.468 226.216 325.69 230.667 324.93L235.315 324.136L232.303 327.764C229.42 331.239 228.198 335.8 228.958 340.25L229.752 344.898L226.124 341.887C222.649 339.003 218.088 337.781 213.638 338.541L208.99 339.335L212.001 335.707C214.885 332.233 216.107 327.672 215.347 323.221Z" stroke="#9292FF" stroke-opacity="0.45" stroke-width="0.542828"/>
<rect x="228.373" y="310.005" width="31.4189" height="31.4189" rx="7.87101" transform="rotate(-30 228.373 310.005)" stroke="#9292FF" stroke-opacity="0.45" stroke-width="0.542828"/>
<path d="M243.027 307.24L242.233 302.592L245.861 305.604C249.335 308.487 253.896 309.71 258.347 308.949L262.995 308.155L259.983 311.783C257.099 315.258 255.877 319.819 256.638 324.269L257.431 328.917L253.803 325.906C250.329 323.022 245.768 321.8 241.317 322.56L236.67 323.354L239.681 319.726C242.565 316.252 243.787 311.691 243.027 307.24Z" stroke="#9292FF" stroke-opacity="0.45" stroke-width="0.542828"/>
<rect x="256.052" y="294.024" width="31.4189" height="31.4189" rx="7.87101" transform="rotate(-30 256.052 294.024)" stroke="#9292FF" stroke-opacity="0.45" stroke-width="0.542828"/>
<path d="M270.706 291.259L269.912 286.611L273.541 289.623C277.015 292.507 281.576 293.729 286.026 292.968L290.674 292.174L287.663 295.803C284.779 299.277 283.557 303.838 284.317 308.288L285.111 312.936L281.483 309.925C278.009 307.041 273.448 305.819 268.997 306.579L264.349 307.373L267.361 303.745C270.245 300.271 271.467 295.71 270.706 291.259Z" stroke="#9292FF" stroke-opacity="0.45" stroke-width="0.542828"/>
<rect x="283.732" y="278.043" width="31.4189" height="31.4189" rx="7.87101" transform="rotate(-30 283.732 278.043)" stroke="#9292FF" stroke-opacity="0.45" stroke-width="0.542828"/>
<path d="M298.386 275.278L297.592 270.63L301.22 273.642C304.694 276.526 309.255 277.748 313.706 276.987L318.354 276.193L315.342 279.822C312.459 283.296 311.236 287.857 311.997 292.307L312.791 296.955L309.163 293.944C305.688 291.06 301.127 289.838 296.677 290.598L292.029 291.392L295.04 287.764C297.924 284.29 299.146 279.729 298.386 275.278Z" stroke="#9292FF" stroke-opacity="0.45" stroke-width="0.542828"/>
<rect x="311.411" y="262.062" width="31.4189" height="31.4189" rx="7.87101" transform="rotate(-30 311.411 262.062)" stroke="#9292FF" stroke-opacity="0.45" stroke-width="0.542828"/>
<path d="M326.065 259.298L325.272 254.65L328.9 257.661C332.374 260.545 336.935 261.767 341.386 261.007L346.033 260.213L343.022 263.841C340.138 267.315 338.916 271.876 339.676 276.327L340.47 280.975L336.842 277.963C333.368 275.079 328.807 273.857 324.356 274.618L319.708 275.412L322.72 271.783C325.604 268.309 326.826 263.748 326.065 259.298Z" stroke="#9292FF" stroke-opacity="0.45" stroke-width="0.542828"/>
<rect x="339.091" y="246.081" width="31.4189" height="31.4189" rx="7.87101" transform="rotate(-30 339.091 246.081)" stroke="#9292FF" stroke-opacity="0.45" stroke-width="0.542828"/>
<path d="M353.745 243.317L352.951 238.669L356.579 241.68C360.054 244.564 364.614 245.786 369.065 245.026L373.713 244.232L370.702 247.86C367.818 251.334 366.596 255.895 367.356 260.346L368.15 264.994L364.522 261.982C361.047 259.099 356.487 257.876 352.036 258.637L347.388 259.431L350.4 255.803C353.283 252.328 354.505 247.767 353.745 243.317Z" stroke="#9292FF" stroke-opacity="0.45" stroke-width="0.542828"/>
<rect x="256.052" y="330.023" width="31.4189" height="31.4189" rx="7.87101" transform="rotate(-30 256.052 330.023)" stroke="#9292FF" stroke-opacity="0.45" stroke-width="0.542828"/>
<path d="M270.706 327.258L269.913 322.61L273.541 325.622C277.015 328.506 281.576 329.728 286.027 328.967L290.674 328.173L287.663 331.802C284.779 335.276 283.557 339.837 284.317 344.287L285.111 348.935L281.483 345.924C278.009 343.04 273.448 341.818 268.997 342.578L264.349 343.372L267.361 339.744C270.245 336.27 271.467 331.709 270.706 327.258Z" stroke="#9292FF" stroke-opacity="0.45" stroke-width="0.542828"/>
<rect x="283.732" y="314.042" width="31.4189" height="31.4189" rx="7.87101" transform="rotate(-30 283.732 314.042)" stroke="#9292FF" stroke-opacity="0.45" stroke-width="0.542828"/>
<path d="M298.386 311.277L297.592 306.629L301.22 309.641C304.695 312.525 309.255 313.747 313.706 312.986L318.354 312.192L315.342 315.821C312.459 319.295 311.237 323.856 311.997 328.306L312.791 332.954L309.163 329.943C305.688 327.059 301.128 325.837 296.677 326.597L292.029 327.391L295.04 323.763C297.924 320.289 299.146 315.728 298.386 311.277Z" stroke="#9292FF" stroke-opacity="0.45" stroke-width="0.542828"/>
<rect x="311.412" y="298.061" width="31.4189" height="31.4189" rx="7.87101" transform="rotate(-30 311.412 298.061)" stroke="#9292FF" stroke-opacity="0.45" stroke-width="0.542828"/>
<path d="M326.066 295.297L325.272 290.649L328.9 293.66C332.374 296.544 336.935 297.766 341.386 297.006L346.034 296.212L343.022 299.84C340.138 303.314 338.916 307.875 339.676 312.326L340.47 316.974L336.842 313.962C333.368 311.079 328.807 309.856 324.356 310.617L319.709 311.411L322.72 307.783C325.604 304.308 326.826 299.747 326.066 295.297Z" stroke="#9292FF" stroke-opacity="0.45" stroke-width="0.542828"/>
<rect x="339.091" y="282.08" width="31.4189" height="31.4189" rx="7.87101" transform="rotate(-30 339.091 282.08)" stroke="#9292FF" stroke-opacity="0.45" stroke-width="0.542828"/>
<path d="M353.745 279.316L352.951 274.668L356.58 277.679C360.054 280.563 364.615 281.785 369.065 281.025L373.713 280.231L370.702 283.859C367.818 287.333 366.596 291.894 367.356 296.345L368.15 300.993L364.522 297.981C361.048 295.098 356.487 293.875 352.036 294.636L347.388 295.43L350.4 291.802C353.284 288.327 354.506 283.766 353.745 279.316Z" stroke="#9292FF" stroke-opacity="0.45" stroke-width="0.542828"/>
<rect x="-36.7245" y="317.9" width="31.4189" height="31.4189" rx="7.87101" transform="rotate(-30 -36.7245 317.9)" stroke="#9292FF" stroke-opacity="0.45" stroke-width="0.542828"/>
<path d="M-22.0704 315.136L-22.8643 310.488L-19.2362 313.499C-15.7618 316.383 -11.2011 317.605 -6.75032 316.845L-2.10245 316.051L-5.11397 319.679C-7.99777 323.153 -9.21983 327.714 -8.45954 332.165L-7.66558 336.813L-11.2938 333.801C-14.7681 330.917 -19.3289 329.695 -23.7796 330.456L-28.4275 331.25L-25.416 327.621C-22.5322 324.147 -21.3101 319.586 -22.0704 315.136Z" stroke="#9292FF" stroke-opacity="0.45" stroke-width="0.542828"/>
<rect x="-9.04477" y="301.919" width="31.4189" height="31.4189" rx="7.87101" transform="rotate(-30 -9.04477 301.919)" stroke="#9292FF" stroke-opacity="0.45" stroke-width="0.542828"/>
<path d="M5.6093 299.155L4.81534 294.507L8.44353 297.518C11.9178 300.402 16.4786 301.624 20.9294 300.864L25.5772 300.07L22.5657 303.698C19.6819 307.172 18.4599 311.733 19.2201 316.184L20.0141 320.832L16.3859 317.82C12.9116 314.936 8.35082 313.714 3.90008 314.475L-0.74779 315.269L2.26373 311.64C5.14753 308.166 6.36959 303.605 5.6093 299.155Z" stroke="#9292FF" stroke-opacity="0.45" stroke-width="0.542828"/>
<rect x="18.6348" y="285.938" width="31.4189" height="31.4189" rx="7.87101" transform="rotate(-30 18.6348 285.938)" stroke="#9292FF" stroke-opacity="0.45" stroke-width="0.542828"/>
<path d="M33.2889 283.174L32.4949 278.526L36.1231 281.537C39.5974 284.421 44.1582 285.643 48.6089 284.883L53.2568 284.089L50.2453 287.717C47.3615 291.191 46.1394 295.752 46.8997 300.203L47.6937 304.851L44.0655 301.839C40.5912 298.955 36.0304 297.733 31.5796 298.494L26.9318 299.288L29.9433 295.659C32.8271 292.185 34.0492 287.624 33.2889 283.174Z" stroke="#9292FF" stroke-opacity="0.45" stroke-width="0.542828"/>
<rect x="46.3145" y="269.958" width="31.4189" height="31.4189" rx="7.87101" transform="rotate(-30 46.3145 269.958)" stroke="#9292FF" stroke-opacity="0.45" stroke-width="0.542828"/>
<path d="M60.9686 267.193L60.1746 262.545L63.8028 265.557C67.2771 268.441 71.8379 269.663 76.2886 268.902L80.9365 268.108L77.925 271.737C75.0412 275.211 73.8191 279.772 74.5794 284.222L75.3734 288.87L71.7452 285.859C68.2709 282.975 63.7101 281.753 59.2593 282.513L54.6115 283.307L57.623 279.679C60.5068 276.205 61.7288 271.644 60.9686 267.193Z" stroke="#9292FF" stroke-opacity="0.45" stroke-width="0.542828"/>
<rect x="73.9942" y="253.977" width="31.4189" height="31.4189" rx="7.87101" transform="rotate(-30 73.9942 253.977)" stroke="#9292FF" stroke-opacity="0.45" stroke-width="0.542828"/>
<path d="M88.6482 251.212L87.8543 246.564L91.4825 249.576C94.9568 252.46 99.5176 253.682 103.968 252.921L108.616 252.127L105.605 255.756C102.721 259.23 101.499 263.791 102.259 268.241L103.053 272.889L99.4249 269.878C95.9505 266.994 91.3898 265.772 86.939 266.532L82.2912 267.326L85.3027 263.698C88.1865 260.224 89.4085 255.663 88.6482 251.212Z" stroke="#9292FF" stroke-opacity="0.45" stroke-width="0.542828"/>
<rect x="101.674" y="237.996" width="31.4189" height="31.4189" rx="7.87101" transform="rotate(-30 101.674 237.996)" stroke="#9292FF" stroke-opacity="0.45" stroke-width="0.542828"/>
<path d="M116.328 235.231L115.534 230.583L119.162 233.595C122.636 236.479 127.197 237.701 131.648 236.94L136.296 236.147L133.284 239.775C130.4 243.249 129.178 247.81 129.939 252.261L130.733 256.908L127.104 253.897C123.63 251.013 119.069 249.791 114.619 250.551L109.971 251.345L112.982 247.717C115.866 244.243 117.088 239.682 116.328 235.231Z" stroke="#9292FF" stroke-opacity="0.45" stroke-width="0.542828"/>
<rect x="129.354" y="222.015" width="31.4189" height="31.4189" rx="7.87101" transform="rotate(-30 129.354 222.015)" stroke="#9292FF" stroke-opacity="0.45" stroke-width="0.542828"/>
<path d="M144.008 219.25L143.214 214.602L146.842 217.614C150.316 220.498 154.877 221.72 159.328 220.96L163.976 220.166L160.964 223.794C158.08 227.268 156.858 231.829 157.618 236.28L158.412 240.927L154.784 237.916C151.31 235.032 146.749 233.81 142.298 234.57L137.651 235.364L140.662 231.736C143.546 228.262 144.768 223.701 144.008 219.25Z" stroke="#9292FF" stroke-opacity="0.45" stroke-width="0.542828"/>
<rect x="157.033" y="206.034" width="31.4189" height="31.4189" rx="7.87101" transform="rotate(-30 157.033 206.034)" stroke="#9292FF" stroke-opacity="0.45" stroke-width="0.542828"/>
<path d="M171.687 203.269L170.893 198.621L174.521 201.633C177.996 204.517 182.557 205.739 187.007 204.979L191.655 204.185L188.644 207.813C185.76 211.287 184.538 215.848 185.298 220.299L186.092 224.946L182.464 221.935C178.989 219.051 174.429 217.829 169.978 218.589L165.33 219.383L168.342 215.755C171.225 212.281 172.447 207.72 171.687 203.269Z" stroke="#9292FF" stroke-opacity="0.45" stroke-width="0.542828"/>
<rect x="184.713" y="190.053" width="31.4189" height="31.4189" rx="7.87101" transform="rotate(-30 184.713 190.053)" stroke="#9292FF" stroke-opacity="0.45" stroke-width="0.542828"/>
<path d="M199.367 187.289L198.573 182.641L202.201 185.653C205.675 188.536 210.236 189.758 214.687 188.998L219.335 188.204L216.323 191.832C213.439 195.307 212.217 199.867 212.978 204.318L213.772 208.966L210.143 205.954C206.669 203.071 202.108 201.849 197.658 202.609L193.01 203.403L196.021 199.775C198.905 196.3 200.127 191.74 199.367 187.289Z" stroke="#9292FF" stroke-opacity="0.45" stroke-width="0.542828"/>
<rect x="212.392" y="174.072" width="31.4189" height="31.4189" rx="7.87101" transform="rotate(-30 212.392 174.072)" stroke="#9292FF" stroke-opacity="0.45" stroke-width="0.542828"/>
<path d="M227.046 171.308L226.252 166.66L229.881 169.672C233.355 172.555 237.916 173.777 242.367 173.017L247.014 172.223L244.003 175.851C241.119 179.326 239.897 183.886 240.657 188.337L241.451 192.985L237.823 189.974C234.349 187.09 229.788 185.868 225.337 186.628L220.689 187.422L223.701 183.794C226.585 180.319 227.807 175.759 227.046 171.308Z" stroke="#9292FF" stroke-opacity="0.45" stroke-width="0.542828"/>
<rect x="240.072" y="158.092" width="31.4189" height="31.4189" rx="7.87101" transform="rotate(-30 240.072 158.092)" stroke="#9292FF" stroke-opacity="0.45" stroke-width="0.542828"/>
<path d="M254.726 155.327L253.932 150.679L257.56 153.691C261.035 156.574 265.595 157.796 270.046 157.036L274.694 156.242L271.683 159.87C268.799 163.345 267.577 167.905 268.337 172.356L269.131 177.004L265.503 173.993C262.028 171.109 257.468 169.887 253.017 170.647L248.369 171.441L251.381 167.813C254.264 164.338 255.486 159.778 254.726 155.327Z" stroke="#9292FF" stroke-opacity="0.45" stroke-width="0.542828"/>
<rect x="267.752" y="142.111" width="31.4189" height="31.4189" rx="7.87101" transform="rotate(-30 267.752 142.111)" stroke="#9292FF" stroke-opacity="0.45" stroke-width="0.542828"/>
<path d="M282.406 139.346L281.612 134.698L285.24 137.71C288.714 140.593 293.275 141.815 297.726 141.055L302.374 140.261L299.362 143.889C296.478 147.364 295.256 151.925 296.017 156.375L296.811 161.023L293.182 158.012C289.708 155.128 285.147 153.906 280.697 154.666L276.049 155.46L279.06 151.832C281.944 148.358 283.166 143.797 282.406 139.346Z" stroke="#9292FF" stroke-opacity="0.45" stroke-width="0.542828"/>
<rect x="295.431" y="126.13" width="31.4189" height="31.4189" rx="7.87101" transform="rotate(-30 295.431 126.13)" stroke="#9292FF" stroke-opacity="0.45" stroke-width="0.542828"/>
<path d="M310.085 123.366L309.291 118.718L312.92 121.729C316.394 124.613 320.955 125.835 325.405 125.075L330.053 124.281L327.042 127.909C324.158 131.383 322.936 135.944 323.696 140.395L324.49 145.043L320.862 142.031C317.388 139.147 312.827 137.925 308.376 138.686L303.728 139.48L306.74 135.851C309.624 132.377 310.846 127.816 310.085 123.366Z" stroke="#9292FF" stroke-opacity="0.45" stroke-width="0.542828"/>
<rect x="323.111" y="110.149" width="31.4189" height="31.4189" rx="7.87101" transform="rotate(-30 323.111 110.149)" stroke="#9292FF" stroke-opacity="0.45" stroke-width="0.542828"/>
<path d="M337.765 107.385L336.971 102.737L340.599 105.748C344.074 108.632 348.634 109.854 353.085 109.094L357.733 108.3L354.721 111.928C351.838 115.402 350.616 119.963 351.376 124.414L352.17 129.062L348.542 126.05C345.067 123.166 340.507 121.944 336.056 122.705L331.408 123.499L334.419 119.87C337.303 116.396 338.525 111.835 337.765 107.385Z" stroke="#9292FF" stroke-opacity="0.45" stroke-width="0.542828"/>
<rect x="350.791" y="94.1682" width="31.4189" height="31.4189" rx="7.87101" transform="rotate(-30 350.791 94.1682)" stroke="#9292FF" stroke-opacity="0.45" stroke-width="0.542828"/>
<path d="M365.445 91.4036L364.651 86.7557L368.279 89.7673C371.753 92.6511 376.314 93.8731 380.765 93.1128L385.413 92.3189L382.401 95.9471C379.517 99.4214 378.295 103.982 379.055 108.433L379.849 113.081L376.221 110.069C372.747 107.185 368.186 105.963 363.735 106.724L359.088 107.518L362.099 103.889C364.983 100.415 366.205 95.8543 365.445 91.4036Z" stroke="#9292FF" stroke-opacity="0.45" stroke-width="0.542828"/>
<rect x="-25.0255" y="274.239" width="31.4189" height="31.4189" rx="7.87101" transform="rotate(-30 -25.0255 274.239)" stroke="#9292FF" stroke-opacity="0.45" stroke-width="0.542828"/>
<path d="M-10.3714 271.475L-11.1654 266.827L-7.53718 269.839C-4.06287 272.722 0.497912 273.944 4.94866 273.184L9.59652 272.39L6.585 276.018C3.7012 279.493 2.47914 284.053 3.23943 288.504L4.03339 293.152L0.405202 290.141C-3.06911 287.257 -7.62989 286.035 -12.0806 286.795L-16.7285 287.589L-13.717 283.961C-10.8332 280.486 -9.61112 275.926 -10.3714 271.475Z" stroke="#9292FF" stroke-opacity="0.45" stroke-width="0.542828"/>
<rect x="2.65408" y="258.259" width="31.4189" height="31.4189" rx="7.87101" transform="rotate(-30 2.65408 258.259)" stroke="#9292FF" stroke-opacity="0.45" stroke-width="0.542828"/>
<path d="M17.3082 255.494L16.5142 250.846L20.1424 253.858C23.6167 256.741 28.1775 257.963 32.6282 257.203L37.2761 256.409L34.2646 260.037C31.3808 263.512 30.1587 268.072 30.919 272.523L31.713 277.171L28.0848 274.16C24.6105 271.276 20.0497 270.054 15.5989 270.814L10.9511 271.608L13.9626 267.98C16.8464 264.505 18.0684 259.945 17.3082 255.494Z" stroke="#9292FF" stroke-opacity="0.45" stroke-width="0.542828"/>
<rect x="30.3338" y="242.278" width="31.4189" height="31.4189" rx="7.87101" transform="rotate(-30 30.3338 242.278)" stroke="#9292FF" stroke-opacity="0.45" stroke-width="0.542828"/>
<path d="M44.9878 239.513L44.1939 234.866L47.8221 237.877C51.2964 240.761 55.8572 241.983 60.3079 241.223L64.9558 240.429L61.9443 244.057C59.0605 247.531 57.8384 252.092 58.5987 256.543L59.3926 261.191L55.7645 258.179C52.2901 255.295 47.7294 254.073 43.2786 254.834L38.6307 255.627L41.6423 251.999C44.5261 248.525 45.7481 243.964 44.9878 239.513Z" stroke="#9292FF" stroke-opacity="0.45" stroke-width="0.542828"/>
<rect x="58.0135" y="226.297" width="31.4189" height="31.4189" rx="7.87101" transform="rotate(-30 58.0135 226.297)" stroke="#9292FF" stroke-opacity="0.45" stroke-width="0.542828"/>
<path d="M72.6675 223.533L71.8736 218.885L75.5018 221.896C78.9761 224.78 83.5369 226.002 87.9876 225.242L92.6355 224.448L89.6239 228.076C86.7401 231.55 85.5181 236.111 86.2784 240.562L87.0723 245.21L83.4441 242.198C79.9698 239.314 75.4091 238.092 70.9583 238.853L66.3104 239.647L69.322 236.018C72.2058 232.544 73.4278 227.983 72.6675 223.533Z" stroke="#9292FF" stroke-opacity="0.45" stroke-width="0.542828"/>
<rect x="85.693" y="210.316" width="31.4189" height="31.4189" rx="7.87101" transform="rotate(-30 85.693 210.316)" stroke="#9292FF" stroke-opacity="0.45" stroke-width="0.542828"/>
<path d="M100.347 207.552L99.5531 202.904L103.181 205.915C106.656 208.799 111.216 210.021 115.667 209.261L120.315 208.467L117.304 212.095C114.42 215.569 113.198 220.13 113.958 224.581L114.752 229.229L111.124 226.217C107.649 223.333 103.089 222.111 98.6379 222.872L93.99 223.666L97.0015 220.037C99.8853 216.563 101.107 212.002 100.347 207.552Z" stroke="#9292FF" stroke-opacity="0.45" stroke-width="0.542828"/>
<rect x="113.373" y="194.335" width="31.4189" height="31.4189" rx="7.87101" transform="rotate(-30 113.373 194.335)" stroke="#9292FF" stroke-opacity="0.45" stroke-width="0.542828"/>
<path d="M128.027 191.571L127.233 186.923L130.861 189.934C134.335 192.818 138.896 194.04 143.347 193.28L147.995 192.486L144.983 196.114C142.099 199.588 140.877 204.149 141.638 208.6L142.432 213.248L138.803 210.236C135.329 207.352 130.768 206.13 126.318 206.891L121.67 207.685L124.681 204.056C127.565 200.582 128.787 196.021 128.027 191.571Z" stroke="#9292FF" stroke-opacity="0.45" stroke-width="0.542828"/>
<rect x="141.052" y="178.355" width="31.4189" height="31.4189" rx="7.87101" transform="rotate(-30 141.052 178.355)" stroke="#9292FF" stroke-opacity="0.45" stroke-width="0.542828"/>
<path d="M155.706 175.59L154.913 170.942L158.541 173.954C162.015 176.838 166.576 178.06 171.027 177.299L175.674 176.505L172.663 180.134C169.779 183.608 168.557 188.169 169.317 192.619L170.111 197.267L166.483 194.256C163.009 191.372 158.448 190.15 153.997 190.91L149.349 191.704L152.361 188.076C155.245 184.602 156.467 180.041 155.706 175.59Z" stroke="#9292FF" stroke-opacity="0.45" stroke-width="0.542828"/>
<rect x="168.732" y="162.374" width="31.4189" height="31.4189" rx="7.87101" transform="rotate(-30 168.732 162.374)" stroke="#9292FF" stroke-opacity="0.45" stroke-width="0.542828"/>
<path d="M183.386 159.609L182.592 154.961L186.22 157.973C189.695 160.857 194.255 162.079 198.706 161.318L203.354 160.524L200.342 164.153C197.459 167.627 196.237 172.188 196.997 176.638L197.791 181.286L194.163 178.275C190.688 175.391 186.128 174.169 181.677 174.929L177.029 175.723L180.04 172.095C182.924 168.621 184.146 164.06 183.386 159.609Z" stroke="#9292FF" stroke-opacity="0.45" stroke-width="0.542828"/>
<rect x="196.412" y="146.393" width="31.4189" height="31.4189" rx="7.87101" transform="rotate(-30 196.412 146.393)" stroke="#9292FF" stroke-opacity="0.45" stroke-width="0.542828"/>
<path d="M211.066 143.628L210.272 138.98L213.9 141.992C217.374 144.876 221.935 146.098 226.386 145.337L231.034 144.543L228.022 148.172C225.138 151.646 223.916 156.207 224.677 160.657L225.471 165.305L221.842 162.294C218.368 159.41 213.807 158.188 209.357 158.948L204.709 159.742L207.72 156.114C210.604 152.64 211.826 148.079 211.066 143.628Z" stroke="#9292FF" stroke-opacity="0.45" stroke-width="0.542828"/>
<rect x="224.091" y="130.412" width="31.4189" height="31.4189" rx="7.87101" transform="rotate(-30 224.091 130.412)" stroke="#9292FF" stroke-opacity="0.45" stroke-width="0.542828"/>
<path d="M238.745 127.647L237.951 122.999L241.58 126.011C245.054 128.895 249.615 130.117 254.065 129.356L258.713 128.563L255.702 132.191C252.818 135.665 251.596 140.226 252.356 144.677L253.15 149.324L249.522 146.313C246.048 143.429 241.487 142.207 237.036 142.967L232.388 143.761L235.4 140.133C238.284 136.659 239.506 132.098 238.745 127.647Z" stroke="#9292FF" stroke-opacity="0.45" stroke-width="0.542828"/>
<rect x="251.771" y="114.431" width="31.4189" height="31.4189" rx="7.87101" transform="rotate(-30 251.771 114.431)" stroke="#9292FF" stroke-opacity="0.45" stroke-width="0.542828"/>
<path d="M266.425 111.666L265.631 107.018L269.259 110.03C272.734 112.914 277.294 114.136 281.745 113.376L286.393 112.582L283.381 116.21C280.498 119.684 279.276 124.245 280.036 128.696L280.83 133.343L277.202 130.332C273.727 127.448 269.166 126.226 264.716 126.986L260.068 127.78L263.079 124.152C265.963 120.678 267.185 116.117 266.425 111.666Z" stroke="#9292FF" stroke-opacity="0.45" stroke-width="0.542828"/>
<rect x="279.451" y="98.4504" width="31.4189" height="31.4189" rx="7.87101" transform="rotate(-30 279.451 98.4504)" stroke="#9292FF" stroke-opacity="0.45" stroke-width="0.542828"/>
<path d="M294.105 95.6858L293.311 91.038L296.939 94.0495C300.413 96.9333 304.974 98.1553 309.425 97.3951L314.073 96.6011L311.061 100.229C308.177 103.704 306.955 108.264 307.716 112.715L308.509 117.363L304.881 114.351C301.407 111.468 296.846 110.246 292.395 111.006L287.748 111.8L290.759 108.172C293.643 104.697 294.865 100.137 294.105 95.6858Z" stroke="#9292FF" stroke-opacity="0.45" stroke-width="0.542828"/>
<rect x="307.13" y="82.4695" width="31.4189" height="31.4189" rx="7.87101" transform="rotate(-30 307.13 82.4695)" stroke="#9292FF" stroke-opacity="0.45" stroke-width="0.542828"/>
<path d="M321.784 79.7049L320.99 75.057L324.619 78.0685C328.093 80.9523 332.654 82.1744 337.104 81.4141L341.752 80.6201L338.741 84.2483C335.857 87.7226 334.635 92.2834 335.395 96.7342L336.189 101.382L332.561 98.3705C329.087 95.4867 324.526 94.2646 320.075 95.0249L315.427 95.8189L318.439 92.1907C321.323 88.7164 322.545 84.1556 321.784 79.7049Z" stroke="#9292FF" stroke-opacity="0.45" stroke-width="0.542828"/>
<rect x="334.81" y="66.4885" width="31.4189" height="31.4189" rx="7.87101" transform="rotate(-30 334.81 66.4885)" stroke="#9292FF" stroke-opacity="0.45" stroke-width="0.542828"/>
<path d="M349.464 63.7239L348.67 59.076L352.298 62.0876C355.772 64.9714 360.333 66.1934 364.784 65.4331L369.432 64.6392L366.42 68.2674C363.537 71.7417 362.314 76.3025 363.075 80.7532L363.869 85.4011L360.241 82.3895C356.766 79.5057 352.205 78.2837 347.755 79.044L343.107 79.8379L346.118 76.2098C349.002 72.7354 350.224 68.1747 349.464 63.7239Z" stroke="#9292FF" stroke-opacity="0.45" stroke-width="0.542828"/>
<rect x="-41.0066" y="246.56" width="31.4189" height="31.4189" rx="7.87101" transform="rotate(-30 -41.0066 246.56)" stroke="#9292FF" stroke-opacity="0.45" stroke-width="0.542828"/>
<path d="M-26.3525 243.795L-27.1464 239.147L-23.5183 242.159C-20.0439 245.043 -15.4832 246.265 -11.0324 245.504L-6.38455 244.71L-9.39608 248.339C-12.2799 251.813 -13.5019 256.374 -12.7416 260.824L-11.9477 265.472L-15.5759 262.461C-19.0502 259.577 -23.611 258.355 -28.0617 259.115L-32.7096 259.909L-29.6981 256.281C-26.8143 252.807 -25.5922 248.246 -26.3525 243.795Z" stroke="#9292FF" stroke-opacity="0.45" stroke-width="0.542828"/>
<rect x="-13.327" y="230.579" width="31.4189" height="31.4189" rx="7.87101" transform="rotate(-30 -13.327 230.579)" stroke="#9292FF" stroke-opacity="0.45" stroke-width="0.542828"/>
<path d="M1.32708 227.814L0.533116 223.166L4.16131 226.178C7.63562 229.062 12.1964 230.284 16.6471 229.523L21.295 228.73L18.2835 232.358C15.3997 235.832 14.1776 240.393 14.9379 244.844L15.7319 249.491L12.1037 246.48C8.62938 243.596 4.0686 242.374 -0.382146 243.134L-5.03002 243.928L-2.01849 240.3C0.865305 236.826 2.08736 232.265 1.32708 227.814Z" stroke="#9292FF" stroke-opacity="0.45" stroke-width="0.542828"/>
<rect x="14.3527" y="214.598" width="31.4189" height="31.4189" rx="7.87101" transform="rotate(-30 14.3527 214.598)" stroke="#9292FF" stroke-opacity="0.45" stroke-width="0.542828"/>
<path d="M29.0068 211.834L28.2128 207.186L31.841 210.197C35.3153 213.081 39.8761 214.303 44.3268 213.543L48.9747 212.749L45.9632 216.377C43.0794 219.852 41.8573 224.412 42.6176 228.863L43.4116 233.511L39.7834 230.499C36.3091 227.616 31.7483 226.394 27.2975 227.154L22.6497 227.948L25.6612 224.32C28.545 220.845 29.7671 216.285 29.0068 211.834Z" stroke="#9292FF" stroke-opacity="0.45" stroke-width="0.542828"/>
<rect x="42.0324" y="198.617" width="31.4189" height="31.4189" rx="7.87101" transform="rotate(-30 42.0324 198.617)" stroke="#9292FF" stroke-opacity="0.45" stroke-width="0.542828"/>
<path d="M56.6865 195.853L55.8925 191.205L59.5207 194.216C62.995 197.1 67.5558 198.322 72.0065 197.562L76.6544 196.768L73.6429 200.396C70.7591 203.871 69.537 208.431 70.2973 212.882L71.0913 217.53L67.4631 214.518C63.9888 211.635 59.428 210.413 54.9772 211.173L50.3294 211.967L53.3409 208.339C56.2247 204.864 57.4467 200.304 56.6865 195.853Z" stroke="#9292FF" stroke-opacity="0.45" stroke-width="0.542828"/>
<rect x="69.7119" y="182.636" width="31.4189" height="31.4189" rx="7.87101" transform="rotate(-30 69.7119 182.636)" stroke="#9292FF" stroke-opacity="0.45" stroke-width="0.542828"/>
<path d="M84.366 179.872L83.5721 175.224L87.2002 178.236C90.6746 181.119 95.2353 182.341 99.6861 181.581L104.334 180.787L101.322 184.415C98.4386 187.89 97.2166 192.45 97.9769 196.901L98.7708 201.549L95.1426 198.537C91.6683 195.654 87.1075 194.432 82.6568 195.192L78.0089 195.986L81.0204 192.358C83.9042 188.883 85.1263 184.323 84.366 179.872Z" stroke="#9292FF" stroke-opacity="0.45" stroke-width="0.542828"/>
<rect x="97.3916" y="166.655" width="31.4189" height="31.4189" rx="7.87101" transform="rotate(-30 97.3916 166.655)" stroke="#9292FF" stroke-opacity="0.45" stroke-width="0.542828"/>
<path d="M112.046 163.891L111.252 159.243L114.88 162.255C118.354 165.138 122.915 166.36 127.366 165.6L132.014 164.806L129.002 168.434C126.118 171.909 124.896 176.469 125.657 180.92L126.451 185.568L122.822 182.557C119.348 179.673 114.787 178.451 110.336 179.211L105.689 180.005L108.7 176.377C111.584 172.902 112.806 168.342 112.046 163.891Z" stroke="#9292FF" stroke-opacity="0.45" stroke-width="0.542828"/>
<rect x="125.071" y="150.675" width="31.4189" height="31.4189" rx="7.87101" transform="rotate(-30 125.071 150.675)" stroke="#9292FF" stroke-opacity="0.45" stroke-width="0.542828"/>
<path d="M139.725 147.91L138.931 143.262L142.56 146.274C146.034 149.157 150.595 150.379 155.045 149.619L159.693 148.825L156.682 152.453C153.798 155.928 152.576 160.488 153.336 164.939L154.13 169.587L150.502 166.576C147.028 163.692 142.467 162.47 138.016 163.23L133.368 164.024L136.38 160.396C139.264 156.921 140.486 152.361 139.725 147.91Z" stroke="#9292FF" stroke-opacity="0.45" stroke-width="0.542828"/>
<rect x="152.751" y="134.694" width="31.4189" height="31.4189" rx="7.87101" transform="rotate(-30 152.751 134.694)" stroke="#9292FF" stroke-opacity="0.45" stroke-width="0.542828"/>
<path d="M167.405 131.929L166.611 127.282L170.239 130.293C173.713 133.177 178.274 134.399 182.725 133.639L187.373 132.845L184.361 136.473C181.478 139.947 180.256 144.508 181.016 148.959L181.81 153.607L178.182 150.595C174.707 147.711 170.146 146.489 165.696 147.25L161.048 148.044L164.059 144.415C166.943 140.941 168.165 136.38 167.405 131.929Z" stroke="#9292FF" stroke-opacity="0.45" stroke-width="0.542828"/>
<rect x="180.431" y="118.713" width="31.4189" height="31.4189" rx="7.87101" transform="rotate(-30 180.431 118.713)" stroke="#9292FF" stroke-opacity="0.45" stroke-width="0.542828"/>
<path d="M195.085 115.949L194.291 111.301L197.919 114.312C201.393 117.196 205.954 118.418 210.405 117.658L215.053 116.864L212.041 120.492C209.157 123.966 207.935 128.527 208.695 132.978L209.489 137.626L205.861 134.614C202.387 131.73 197.826 130.508 193.375 131.269L188.728 132.063L191.739 128.434C194.623 124.96 195.845 120.399 195.085 115.949Z" stroke="#9292FF" stroke-opacity="0.45" stroke-width="0.542828"/>
<rect x="208.11" y="102.732" width="31.4189" height="31.4189" rx="7.87101" transform="rotate(-30 208.11 102.732)" stroke="#9292FF" stroke-opacity="0.45" stroke-width="0.542828"/>
<path d="M222.764 99.9676L221.97 95.3197L225.599 98.3312C229.073 101.215 233.634 102.437 238.084 101.677L242.732 100.883L239.721 104.511C236.837 107.985 235.615 112.546 236.375 116.997L237.169 121.645L233.541 118.633C230.067 115.749 225.506 114.527 221.055 115.288L216.407 116.082L219.419 112.453C222.303 108.979 223.525 104.418 222.764 99.9676Z" stroke="#9292FF" stroke-opacity="0.45" stroke-width="0.542828"/>
<rect x="235.79" y="86.7512" width="31.4189" height="31.4189" rx="7.87101" transform="rotate(-30 235.79 86.7512)" stroke="#9292FF" stroke-opacity="0.45" stroke-width="0.542828"/>
<path d="M250.444 83.9866L249.65 79.3387L253.278 82.3503C256.752 85.2341 261.313 86.4561 265.764 85.6958L270.412 84.9019L267.4 88.5301C264.517 92.0044 263.294 96.5652 264.055 101.016L264.849 105.664L261.221 102.652C257.746 99.7684 253.185 98.5464 248.735 99.3067L244.087 100.101L247.098 96.4724C249.982 92.9981 251.204 88.4374 250.444 83.9866Z" stroke="#9292FF" stroke-opacity="0.45" stroke-width="0.542828"/>
<rect x="263.47" y="70.7707" width="31.4189" height="31.4189" rx="7.87101" transform="rotate(-30 263.47 70.7707)" stroke="#9292FF" stroke-opacity="0.45" stroke-width="0.542828"/>
<path d="M278.124 68.0061L277.33 63.3583L280.958 66.3698C284.432 69.2536 288.993 70.4757 293.444 69.7154L298.092 68.9214L295.08 72.5496C292.196 76.0239 290.974 80.5847 291.734 85.0354L292.528 89.6833L288.9 86.6718C285.426 83.788 280.865 82.5659 276.414 83.3262L271.766 84.1202L274.778 80.492C277.662 77.0177 278.884 72.4569 278.124 68.0061Z" stroke="#9292FF" stroke-opacity="0.45" stroke-width="0.542828"/>
<rect x="291.149" y="54.7898" width="31.4189" height="31.4189" rx="7.87101" transform="rotate(-30 291.149 54.7898)" stroke="#9292FF" stroke-opacity="0.45" stroke-width="0.542828"/>
<path d="M305.803 52.0252L305.009 47.3773L308.638 50.3888C312.112 53.2726 316.673 54.4947 321.123 53.7344L325.771 52.9404L322.76 56.5686C319.876 60.0429 318.654 64.6037 319.414 69.0545L320.208 73.7023L316.58 70.6908C313.106 67.807 308.545 66.585 304.094 67.3452L299.446 68.1392L302.458 64.511C305.342 61.0367 306.564 56.4759 305.803 52.0252Z" stroke="#9292FF" stroke-opacity="0.45" stroke-width="0.542828"/>
<rect x="318.829" y="38.8088" width="31.4189" height="31.4189" rx="7.87101" transform="rotate(-30 318.829 38.8088)" stroke="#9292FF" stroke-opacity="0.45" stroke-width="0.542828"/>
<path d="M333.483 36.0442L332.689 31.3964L336.317 34.4079C339.791 37.2917 344.352 38.5137 348.803 37.7535L353.451 36.9595L350.439 40.5877C347.555 44.062 346.333 48.6228 347.094 53.0735L347.888 57.7214L344.259 54.7099C340.785 51.8261 336.224 50.604 331.774 51.3643L327.126 52.1583L330.137 48.5301C333.021 45.0558 334.243 40.495 333.483 36.0442Z" stroke="#9292FF" stroke-opacity="0.45" stroke-width="0.542828"/>
<rect x="346.508" y="22.8279" width="31.4189" height="31.4189" rx="7.87101" transform="rotate(-30 346.508 22.8279)" stroke="#9292FF" stroke-opacity="0.45" stroke-width="0.542828"/>
<path d="M361.163 20.0633L360.369 15.4154L363.997 18.4269C367.471 21.3107 372.032 22.5328 376.483 21.7725L381.13 20.9785L378.119 24.6067C375.235 28.081 374.013 32.6418 374.773 37.0926L375.567 41.7404L371.939 38.7289C368.465 35.8451 363.904 34.623 359.453 35.3833L354.805 36.1773L357.817 32.5491C360.701 29.0748 361.923 24.514 361.163 20.0633Z" stroke="#9292FF" stroke-opacity="0.45" stroke-width="0.542828"/>
<rect x="-29.308" y="202.899" width="31.4189" height="31.4189" rx="7.87101" transform="rotate(-30 -29.308 202.899)" stroke="#9292FF" stroke-opacity="0.45" stroke-width="0.542828"/>
<path d="M-14.6539 200.135L-15.4478 195.487L-11.8197 198.498C-8.34534 201.382 -3.78456 202.604 0.666185 201.844L5.31405 201.05L2.30253 204.678C-0.581268 208.152 -1.80333 212.713 -1.04304 217.164L-0.249079 221.812L-3.87727 218.8C-7.35158 215.916 -11.9124 214.694 -16.3631 215.455L-21.011 216.249L-17.9995 212.62C-15.1157 209.146 -13.8936 204.585 -14.6539 200.135Z" stroke="#9292FF" stroke-opacity="0.45" stroke-width="0.542828"/>
<rect x="-1.62827" y="186.919" width="31.4189" height="31.4189" rx="7.87101" transform="rotate(-30 -1.62827 186.919)" stroke="#9292FF" stroke-opacity="0.45" stroke-width="0.542828"/>
<path d="M13.0258 184.154L12.2318 179.506L15.86 182.518C19.3343 185.402 23.8951 186.624 28.3459 185.863L32.9937 185.069L29.9822 188.698C27.0984 192.172 25.8764 196.733 26.6366 201.183L27.4306 205.831L23.8024 202.82C20.3281 199.936 15.7673 198.714 11.3166 199.474L6.66871 200.268L9.68024 196.64C12.564 193.166 13.7861 188.605 13.0258 184.154Z" stroke="#9292FF" stroke-opacity="0.45" stroke-width="0.542828"/>
<rect x="26.0514" y="170.938" width="31.4189" height="31.4189" rx="7.87101" transform="rotate(-30 26.0514 170.938)" stroke="#9292FF" stroke-opacity="0.45" stroke-width="0.542828"/>
<path d="M40.7055 168.173L39.9115 163.525L43.5397 166.537C47.014 169.421 51.5748 170.643 56.0256 169.882L60.6734 169.088L57.6619 172.717C54.7781 176.191 53.556 180.752 54.3163 185.202L55.1103 189.85L51.4821 186.839C48.0078 183.955 43.447 182.733 38.9963 183.493L34.3484 184.287L37.3599 180.659C40.2437 177.185 41.4658 172.624 40.7055 168.173Z" stroke="#9292FF" stroke-opacity="0.45" stroke-width="0.542828"/>
<rect x="53.731" y="154.957" width="31.4189" height="31.4189" rx="7.87101" transform="rotate(-30 53.731 154.957)" stroke="#9292FF" stroke-opacity="0.45" stroke-width="0.542828"/>
<path d="M68.3851 152.192L67.5911 147.544L71.2193 150.556C74.6936 153.44 79.2544 154.662 83.7051 153.901L88.353 153.107L85.3415 156.736C82.4577 160.21 81.2356 164.771 81.9959 169.221L82.7899 173.869L79.1617 170.858C75.6874 167.974 71.1266 166.752 66.6758 167.512L62.028 168.306L65.0395 164.678C67.9233 161.204 69.1453 156.643 68.3851 152.192Z" stroke="#9292FF" stroke-opacity="0.45" stroke-width="0.542828"/>
<rect x="81.4107" y="138.976" width="31.4189" height="31.4189" rx="7.87101" transform="rotate(-30 81.4107 138.976)" stroke="#9292FF" stroke-opacity="0.45" stroke-width="0.542828"/>
<path d="M96.0647 136.211L95.2708 131.563L98.899 134.575C102.373 137.459 106.934 138.681 111.385 137.92L116.033 137.126L113.021 140.755C110.137 144.229 108.915 148.79 109.676 153.241L110.47 157.888L106.841 154.877C103.367 151.993 98.8063 150.771 94.3555 151.531L89.7077 152.325L92.7192 148.697C95.603 145.223 96.825 140.662 96.0647 136.211Z" stroke="#9292FF" stroke-opacity="0.45" stroke-width="0.542828"/>
<rect x="109.09" y="122.995" width="31.4189" height="31.4189" rx="7.87101" transform="rotate(-30 109.09 122.995)" stroke="#9292FF" stroke-opacity="0.45" stroke-width="0.542828"/>
<path d="M123.744 120.23L122.95 115.582L126.579 118.594C130.053 121.478 134.614 122.7 139.065 121.939L143.712 121.146L140.701 124.774C137.817 128.248 136.595 132.809 137.355 137.26L138.149 141.907L134.521 138.896C131.047 136.012 126.486 134.79 122.035 135.55L117.387 136.344L120.399 132.716C123.283 129.242 124.505 124.681 123.744 120.23Z" stroke="#9292FF" stroke-opacity="0.45" stroke-width="0.542828"/>
<rect x="136.77" y="107.014" width="31.4189" height="31.4189" rx="7.87101" transform="rotate(-30 136.77 107.014)" stroke="#9292FF" stroke-opacity="0.45" stroke-width="0.542828"/>
<path d="M151.424 104.25L150.63 99.6019L154.258 102.613C157.733 105.497 162.293 106.719 166.744 105.959L171.392 105.165L168.38 108.793C165.497 112.268 164.275 116.828 165.035 121.279L165.829 125.927L162.201 122.915C158.726 120.032 154.166 118.81 149.715 119.57L145.067 120.364L148.078 116.736C150.962 113.261 152.184 108.701 151.424 104.25Z" stroke="#9292FF" stroke-opacity="0.45" stroke-width="0.542828"/>
<rect x="164.45" y="91.0334" width="31.4189" height="31.4189" rx="7.87101" transform="rotate(-30 164.45 91.0334)" stroke="#9292FF" stroke-opacity="0.45" stroke-width="0.542828"/>
<path d="M179.104 88.2688L178.31 83.621L181.938 86.6325C185.412 89.5163 189.973 90.7383 194.424 89.9781L199.072 89.1841L196.06 92.8123C193.176 96.2866 191.954 100.847 192.715 105.298L193.508 109.946L189.88 106.934C186.406 104.051 181.845 102.829 177.394 103.589L172.747 104.383L175.758 100.755C178.642 97.2804 179.864 92.7196 179.104 88.2688Z" stroke="#9292FF" stroke-opacity="0.45" stroke-width="0.542828"/>
<rect x="192.129" y="75.0525" width="31.4189" height="31.4189" rx="7.87101" transform="rotate(-30 192.129 75.0525)" stroke="#9292FF" stroke-opacity="0.45" stroke-width="0.542828"/>
<path d="M206.783 72.2879L205.989 67.64L209.618 70.6515C213.092 73.5353 217.653 74.7574 222.103 73.9971L226.751 73.2031L223.74 76.8313C220.856 80.3056 219.634 84.8664 220.394 89.3172L221.188 93.965L217.56 90.9535C214.086 88.0697 209.525 86.8477 205.074 87.6079L200.426 88.4019L203.438 84.7737C206.322 81.2994 207.544 76.7386 206.783 72.2879Z" stroke="#9292FF" stroke-opacity="0.45" stroke-width="0.542828"/>
<rect x="219.809" y="59.0715" width="31.4189" height="31.4189" rx="7.87101" transform="rotate(-30 219.809 59.0715)" stroke="#9292FF" stroke-opacity="0.45" stroke-width="0.542828"/>
<path d="M234.463 56.3069L233.669 51.6591L237.297 54.6706C240.771 57.5544 245.332 58.7764 249.783 58.0161L254.431 57.2222L251.419 60.8504C248.536 64.3247 247.313 68.8855 248.074 73.3362L248.868 77.9841L245.24 74.9726C241.765 72.0888 237.204 70.8667 232.754 71.627L228.106 72.4209L231.117 68.7928C234.001 65.3184 235.223 60.7577 234.463 56.3069Z" stroke="#9292FF" stroke-opacity="0.45" stroke-width="0.542828"/>
<rect x="247.489" y="43.091" width="31.4189" height="31.4189" rx="7.87101" transform="rotate(-30 247.489 43.091)" stroke="#9292FF" stroke-opacity="0.45" stroke-width="0.542828"/>
<path d="M262.143 40.3265L261.349 35.6786L264.977 38.6901C268.451 41.5739 273.012 42.796 277.463 42.0357L282.111 41.2417L279.099 44.8699C276.215 48.3442 274.993 52.905 275.753 57.3557L276.547 62.0036L272.919 58.9921C269.445 56.1083 264.884 54.8862 260.433 55.6465L255.786 56.4405L258.797 52.8123C261.681 49.338 262.903 44.7772 262.143 40.3265Z" stroke="#9292FF" stroke-opacity="0.45" stroke-width="0.542828"/>
<rect x="275.168" y="27.1101" width="31.4189" height="31.4189" rx="7.87101" transform="rotate(-30 275.168 27.1101)" stroke="#9292FF" stroke-opacity="0.45" stroke-width="0.542828"/>
<path d="M289.822 24.3455L289.028 19.6976L292.657 22.7091C296.131 25.5929 300.692 26.815 305.142 26.0547L309.79 25.2608L306.779 28.8889C303.895 32.3633 302.673 36.924 303.433 41.3748L304.227 46.0227L300.599 43.0111C297.125 40.1273 292.564 38.9053 288.113 39.6656L283.465 40.4595L286.477 36.8313C289.361 33.357 290.583 28.7962 289.822 24.3455Z" stroke="#9292FF" stroke-opacity="0.45" stroke-width="0.542828"/>
<rect x="302.848" y="11.1291" width="31.4189" height="31.4189" rx="7.87101" transform="rotate(-30 302.848 11.1291)" stroke="#9292FF" stroke-opacity="0.45" stroke-width="0.542828"/>
<path d="M317.502 8.36454L316.708 3.71667L320.336 6.72819C323.81 9.61199 328.371 10.8341 332.822 10.0738L337.47 9.2798L334.458 12.908C331.574 16.3823 330.352 20.9431 331.113 25.3938L331.907 30.0417L328.278 27.0302C324.804 24.1464 320.243 22.9243 315.793 23.6846L311.145 24.4786L314.156 20.8504C317.04 17.3761 318.262 12.8153 317.502 8.36454Z" stroke="#9292FF" stroke-opacity="0.45" stroke-width="0.542828"/>
<rect x="330.527" y="-4.85183" width="31.4189" height="31.4189" rx="7.87101" transform="rotate(-30 330.527 -4.85183)" stroke="#9292FF" stroke-opacity="0.45" stroke-width="0.542828"/>
<path d="M345.182 -7.61642L344.388 -12.2643L348.016 -9.25277C351.49 -6.36897 356.051 -5.14691 360.502 -5.90719L365.15 -6.70115L362.138 -3.07296C359.254 0.401347 358.032 4.96213 358.792 9.41287L359.586 14.0607L355.958 11.0492C352.484 8.16542 347.923 6.94336 343.472 7.70365L338.824 8.49761L341.836 4.86942C344.72 1.39511 345.942 -3.16568 345.182 -7.61642Z" stroke="#9292FF" stroke-opacity="0.45" stroke-width="0.542828"/>
<rect x="-17.6091" y="159.239" width="31.4189" height="31.4189" rx="7.87101" transform="rotate(-30 -17.6091 159.239)" stroke="#9292FF" stroke-opacity="0.45" stroke-width="0.542828"/>
<path d="M-2.95503 156.474L-3.74899 151.827L-0.120798 154.838C3.35351 157.722 7.91429 158.944 12.365 158.184L17.0129 157.39L14.0014 161.018C11.1176 164.492 9.89553 169.053 10.6558 173.504L11.4498 178.152L7.82158 175.14C4.34727 172.256 -0.213508 171.034 -4.66425 171.794L-9.31212 172.588L-6.3006 168.96C-3.4168 165.486 -2.19474 160.925 -2.95503 156.474Z" stroke="#9292FF" stroke-opacity="0.45" stroke-width="0.542828"/>
<rect x="10.0706" y="143.258" width="31.4189" height="31.4189" rx="7.87101" transform="rotate(-30 10.0706 143.258)" stroke="#9292FF" stroke-opacity="0.45" stroke-width="0.542828"/>
<path d="M24.7247 140.493L23.9307 135.846L27.5589 138.857C31.0332 141.741 35.594 142.963 40.0447 142.203L44.6926 141.409L41.6811 145.037C38.7973 148.511 37.5752 153.072 38.3355 157.523L39.1295 162.171L35.5013 159.159C32.027 156.275 27.4662 155.053 23.0154 155.814L18.3676 156.607L21.3791 152.979C24.2629 149.505 25.4849 144.944 24.7247 140.493Z" stroke="#9292FF" stroke-opacity="0.45" stroke-width="0.542828"/>
<rect x="37.7502" y="127.277" width="31.4189" height="31.4189" rx="7.87101" transform="rotate(-30 37.7502 127.277)" stroke="#9292FF" stroke-opacity="0.45" stroke-width="0.542828"/>
<path d="M52.4042 124.512L51.6103 119.865L55.2385 122.876C58.7128 125.76 63.2735 126.982 67.7243 126.222L72.3722 125.428L69.3606 129.056C66.4768 132.53 65.2548 137.091 66.0151 141.542L66.809 146.19L63.1808 143.178C59.7065 140.294 55.1457 139.072 50.695 139.833L46.0471 140.627L49.0587 136.998C51.9425 133.524 53.1645 128.963 52.4042 124.512Z" stroke="#9292FF" stroke-opacity="0.45" stroke-width="0.542828"/>
<rect x="65.4298" y="111.296" width="31.4189" height="31.4189" rx="7.87101" transform="rotate(-30 65.4298 111.296)" stroke="#9292FF" stroke-opacity="0.45" stroke-width="0.542828"/>
<path d="M80.0839 108.532L79.29 103.884L82.9181 106.895C86.3925 109.779 90.9532 111.001 95.404 110.241L100.052 109.447L97.0403 113.075C94.1565 116.549 92.9345 121.11 93.6948 125.561L94.4887 130.209L90.8605 127.197C87.3862 124.313 82.8254 123.091 78.3747 123.852L73.7268 124.646L76.7383 121.017C79.6221 117.543 80.8442 112.982 80.0839 108.532Z" stroke="#9292FF" stroke-opacity="0.45" stroke-width="0.542828"/>
<rect x="93.1095" y="95.3152" width="31.4189" height="31.4189" rx="7.87101" transform="rotate(-30 93.1095 95.3152)" stroke="#9292FF" stroke-opacity="0.45" stroke-width="0.542828"/>
<path d="M107.764 92.5506L106.97 87.9027L110.598 90.9142C114.072 93.798 118.633 95.0201 123.084 94.2598L127.732 93.4658L124.72 97.094C121.836 100.568 120.614 105.129 121.374 109.58L122.168 114.228L118.54 111.216C115.066 108.332 110.505 107.11 106.054 107.871L101.407 108.665L104.418 105.036C107.302 101.562 108.524 97.0013 107.764 92.5506Z" stroke="#9292FF" stroke-opacity="0.45" stroke-width="0.542828"/>
<rect x="120.789" y="79.3347" width="31.4189" height="31.4189" rx="7.87101" transform="rotate(-30 120.789 79.3347)" stroke="#9292FF" stroke-opacity="0.45" stroke-width="0.542828"/>
<path d="M135.443 76.5701L134.649 71.9222L138.277 74.9338C141.752 77.8176 146.312 79.0396 150.763 78.2793L155.411 77.4854L152.4 81.1136C149.516 84.5879 148.294 89.1487 149.054 93.5994L149.848 98.2473L146.22 95.2357C142.745 92.3519 138.185 91.1299 133.734 91.8902L129.086 92.6841L132.098 89.0559C134.981 85.5816 136.203 81.0208 135.443 76.5701Z" stroke="#9292FF" stroke-opacity="0.45" stroke-width="0.542828"/>
<rect x="148.469" y="63.3537" width="31.4189" height="31.4189" rx="7.87101" transform="rotate(-30 148.469 63.3537)" stroke="#9292FF" stroke-opacity="0.45" stroke-width="0.542828"/>
<path d="M163.123 60.5891L162.329 55.9413L165.957 58.9528C169.431 61.8366 173.992 63.0587 178.443 62.2984L183.091 61.5044L180.079 65.1326C177.195 68.6069 175.973 73.1677 176.734 77.6184L177.528 82.2663L173.899 79.2548C170.425 76.371 165.864 75.1489 161.414 75.9092L156.766 76.7032L159.777 73.075C162.661 69.6007 163.883 65.0399 163.123 60.5891Z" stroke="#9292FF" stroke-opacity="0.45" stroke-width="0.542828"/>
<rect x="176.148" y="47.3728" width="31.4189" height="31.4189" rx="7.87101" transform="rotate(-30 176.148 47.3728)" stroke="#9292FF" stroke-opacity="0.45" stroke-width="0.542828"/>
<path d="M190.803 44.6082L190.009 39.9603L193.637 42.9718C197.111 45.8556 201.672 47.0777 206.123 46.3174L210.77 45.5235L207.759 49.1516C204.875 52.626 203.653 57.1867 204.413 61.6375L205.207 66.2853L201.579 63.2738C198.105 60.39 193.544 59.168 189.093 59.9283L184.445 60.7222L187.457 57.094C190.341 53.6197 191.563 49.0589 190.803 44.6082Z" stroke="#9292FF" stroke-opacity="0.45" stroke-width="0.542828"/>
<rect x="203.828" y="31.3918" width="31.4189" height="31.4189" rx="7.87101" transform="rotate(-30 203.828 31.3918)" stroke="#9292FF" stroke-opacity="0.45" stroke-width="0.542828"/>
<path d="M218.482 28.6272L217.688 23.9794L221.316 26.9909C224.791 29.8747 229.351 31.0967 233.802 30.3365L238.45 29.5425L235.439 33.1707C232.555 36.645 231.333 41.2058 232.093 45.6565L232.887 50.3044L229.259 47.2929C225.784 44.4091 221.224 43.187 216.773 43.9473L212.125 44.7413L215.137 41.1131C218.02 37.6388 219.242 33.078 218.482 28.6272Z" stroke="#9292FF" stroke-opacity="0.45" stroke-width="0.542828"/>
<rect x="231.508" y="15.4114" width="31.4189" height="31.4189" rx="7.87101" transform="rotate(-30 231.508 15.4114)" stroke="#9292FF" stroke-opacity="0.45" stroke-width="0.542828"/>
<path d="M246.162 12.6468L245.368 7.9989L248.996 11.0104C252.47 13.8942 257.031 15.1163 261.482 14.356L266.13 13.562L263.118 17.1902C260.234 20.6645 259.012 25.2253 259.773 29.6761L260.567 34.3239L256.938 31.3124C253.464 28.4286 248.903 27.2065 244.453 27.9668L239.805 28.7608L242.816 25.1326C245.7 21.6583 246.922 17.0975 246.162 12.6468Z" stroke="#9292FF" stroke-opacity="0.45" stroke-width="0.542828"/>
<rect x="259.187" y="-0.569601" width="31.4189" height="31.4189" rx="7.87101" transform="rotate(-30 259.187 -0.569601)" stroke="#9292FF" stroke-opacity="0.45" stroke-width="0.542828"/>
<path d="M273.841 -3.33419L273.048 -7.98206L276.676 -4.97054C280.15 -2.08674 284.711 -0.86468 289.162 -1.62497L293.809 -2.41893L290.798 1.20926C287.914 4.68357 286.692 9.24435 287.452 13.6951L288.246 18.343L284.618 15.3314C281.144 12.4476 276.583 11.2256 272.132 11.9859L267.484 12.7798L270.496 9.15165C273.38 5.67733 274.602 1.11655 273.841 -3.33419Z" stroke="#9292FF" stroke-opacity="0.45" stroke-width="0.542828"/>
<rect x="286.867" y="-16.5506" width="31.4189" height="31.4189" rx="7.87101" transform="rotate(-30 286.867 -16.5506)" stroke="#9292FF" stroke-opacity="0.45" stroke-width="0.542828"/>
<path d="M301.521 -19.3151L300.727 -23.963L304.355 -20.9515C307.83 -18.0677 312.39 -16.8456 316.841 -17.6059L321.489 -18.3999L318.477 -14.7717C315.594 -11.2974 314.372 -6.7366 315.132 -2.28586L315.926 2.36201L312.298 -0.649513C308.823 -3.53331 304.263 -4.75537 299.812 -3.99508L295.164 -3.20112L298.175 -6.82931C301.059 -10.3036 302.281 -14.8644 301.521 -19.3151Z" stroke="#9292FF" stroke-opacity="0.45" stroke-width="0.542828"/>
<rect x="-33.5897" y="131.559" width="31.4189" height="31.4189" rx="7.87101" transform="rotate(-30 -33.5897 131.559)" stroke="#9292FF" stroke-opacity="0.45" stroke-width="0.542828"/>
<path d="M-18.9356 128.795L-19.7296 124.147L-16.1014 127.158C-12.6271 130.042 -8.0663 131.264 -3.61555 130.504L1.03232 129.71L-1.97921 133.338C-4.86301 136.812 -6.08507 141.373 -5.32478 145.824L-4.53082 150.472L-8.15901 147.46C-11.6333 144.577 -16.1941 143.354 -20.6448 144.115L-25.2927 144.909L-22.2812 141.281C-19.3974 137.806 -18.1753 133.245 -18.9356 128.795Z" stroke="#9292FF" stroke-opacity="0.45" stroke-width="0.542828"/>
<rect x="-5.91013" y="115.578" width="31.4189" height="31.4189" rx="7.87101" transform="rotate(-30 -5.91013 115.578)" stroke="#9292FF" stroke-opacity="0.45" stroke-width="0.542828"/>
<path d="M8.74395 112.814L7.94999 108.166L11.5782 111.177C15.0525 114.061 19.6133 115.283 24.064 114.523L28.7119 113.729L25.7004 117.357C22.8166 120.832 21.5945 125.392 22.3548 129.843L23.1487 134.491L19.5206 131.479C16.0462 128.596 11.4855 127.374 7.03472 128.134L2.38685 128.928L5.39838 125.3C8.28217 121.825 9.50423 117.264 8.74395 112.814Z" stroke="#9292FF" stroke-opacity="0.45" stroke-width="0.542828"/>
<rect x="21.7697" y="99.5974" width="31.4189" height="31.4189" rx="7.87101" transform="rotate(-30 21.7697 99.5974)" stroke="#9292FF" stroke-opacity="0.45" stroke-width="0.542828"/>
<path d="M36.4238 96.8328L35.6298 92.1849L39.258 95.1965C42.7323 98.0803 47.2931 99.3023 51.7438 98.542L56.3917 97.7481L53.3802 101.376C50.4964 104.851 49.2743 109.411 50.0346 113.862L50.8286 118.51L47.2004 115.498C43.7261 112.615 39.1653 111.393 34.7145 112.153L30.0667 112.947L33.0782 109.319C35.962 105.844 37.184 101.284 36.4238 96.8328Z" stroke="#9292FF" stroke-opacity="0.45" stroke-width="0.542828"/>
<rect x="49.4491" y="83.6164" width="31.4189" height="31.4189" rx="7.87101" transform="rotate(-30 49.4491 83.6164)" stroke="#9292FF" stroke-opacity="0.45" stroke-width="0.542828"/>
<path d="M64.1032 80.8518L63.3092 76.204L66.9374 79.2155C70.4117 82.0993 74.9725 83.3214 79.4233 82.5611L84.0711 81.7671L81.0596 85.3953C78.1758 88.8696 76.9538 93.4304 77.714 97.8811L78.508 102.529L74.8798 99.5175C71.4055 96.6337 66.8447 95.4116 62.394 96.1719L57.7461 96.9659L60.7576 93.3377C63.6414 89.8634 64.8635 85.3026 64.1032 80.8518Z" stroke="#9292FF" stroke-opacity="0.45" stroke-width="0.542828"/>
<rect x="77.1289" y="67.636" width="31.4189" height="31.4189" rx="7.87101" transform="rotate(-30 77.1289 67.636)" stroke="#9292FF" stroke-opacity="0.45" stroke-width="0.542828"/>
<path d="M91.783 64.8714L90.989 60.2235L94.6172 63.235C98.0916 66.1188 102.652 67.3409 107.103 66.5806L111.751 65.7866L108.739 69.4148C105.856 72.8891 104.634 77.4499 105.394 81.9007L106.188 86.5485L102.56 83.537C99.0853 80.6532 94.5245 79.4312 90.0738 80.1914L85.4259 80.9854L88.4374 77.3572C91.3212 73.8829 92.5433 69.3221 91.783 64.8714Z" stroke="#9292FF" stroke-opacity="0.45" stroke-width="0.542828"/>
<rect x="104.809" y="51.655" width="31.4189" height="31.4189" rx="7.87101" transform="rotate(-30 104.809 51.655)" stroke="#9292FF" stroke-opacity="0.45" stroke-width="0.542828"/>
<path d="M119.463 48.8904L118.669 44.2425L122.297 47.2541C125.771 50.1379 130.332 51.3599 134.783 50.5996L139.431 49.8057L136.419 53.4339C133.535 56.9082 132.313 61.469 133.074 65.9197L133.867 70.5676L130.239 67.5561C126.765 64.6723 122.204 63.4502 117.753 64.2105L113.106 65.0044L116.117 61.3763C119.001 57.9019 120.223 53.3412 119.463 48.8904Z" stroke="#9292FF" stroke-opacity="0.45" stroke-width="0.542828"/>
<rect x="132.488" y="35.6741" width="31.4189" height="31.4189" rx="7.87101" transform="rotate(-30 132.488 35.6741)" stroke="#9292FF" stroke-opacity="0.45" stroke-width="0.542828"/>
<path d="M147.142 32.9095L146.348 28.2616L149.976 31.2731C153.451 34.1569 158.012 35.379 162.462 34.6187L167.11 33.8247L164.099 37.4529C161.215 40.9272 159.993 45.488 160.753 49.9387L161.547 54.5866L157.919 51.5751C154.445 48.6913 149.884 47.4692 145.433 48.2295L140.785 49.0235L143.797 45.3953C146.68 41.921 147.903 37.3602 147.142 32.9095Z" stroke="#9292FF" stroke-opacity="0.45" stroke-width="0.542828"/>
<rect x="160.168" y="19.6931" width="31.4189" height="31.4189" rx="7.87101" transform="rotate(-30 160.168 19.6931)" stroke="#9292FF" stroke-opacity="0.45" stroke-width="0.542828"/>
<path d="M174.822 16.9285L174.028 12.2806L177.656 15.2922C181.13 18.176 185.691 19.398 190.142 18.6377L194.79 17.8438L191.778 21.472C188.895 24.9463 187.673 29.507 188.433 33.9578L189.227 38.6057L185.599 35.5941C182.124 32.7103 177.563 31.4883 173.113 32.2486L168.465 33.0425L171.476 29.4143C174.36 25.94 175.582 21.3792 174.822 16.9285Z" stroke="#9292FF" stroke-opacity="0.45" stroke-width="0.542828"/>
<rect x="187.848" y="3.71214" width="31.4189" height="31.4189" rx="7.87101" transform="rotate(-30 187.848 3.71214)" stroke="#9292FF" stroke-opacity="0.45" stroke-width="0.542828"/>
<path d="M202.502 0.947546L201.708 -3.70032L205.336 -0.688801C208.81 2.195 213.371 3.41706 217.822 2.65677L222.47 1.86281L219.458 5.491C216.574 8.96531 215.352 13.5261 216.112 17.9768L216.906 22.6247L213.278 19.6132C209.804 16.7294 205.243 15.5073 200.792 16.2676L196.145 17.0616L199.156 13.4334C202.04 9.95907 203.262 5.39829 202.502 0.947546Z" stroke="#9292FF" stroke-opacity="0.45" stroke-width="0.542828"/>
<rect x="215.527" y="-12.2683" width="31.4189" height="31.4189" rx="7.87101" transform="rotate(-30 215.527 -12.2683)" stroke="#9292FF" stroke-opacity="0.45" stroke-width="0.542828"/>
<path d="M230.181 -15.0329L229.387 -19.6808L233.015 -16.6693C236.49 -13.7855 241.051 -12.5634 245.501 -13.3237L250.149 -14.1177L247.138 -10.4895C244.254 -7.01516 243.032 -2.45438 243.792 1.99636L244.586 6.64424L240.958 3.63271C237.484 0.748914 232.923 -0.473145 228.472 0.287143L223.824 1.0811L226.836 -2.54708C229.719 -6.0214 230.941 -10.5822 230.181 -15.0329Z" stroke="#9292FF" stroke-opacity="0.45" stroke-width="0.542828"/>
<rect x="-21.891" y="87.8991" width="31.4189" height="31.4189" rx="7.87101" transform="rotate(-30 -21.891 87.8991)" stroke="#9292FF" stroke-opacity="0.45" stroke-width="0.542828"/>
<path d="M-7.23689 85.1346L-8.03085 80.4867L-4.40266 83.4982C-0.928347 86.382 3.63243 87.6041 8.08318 86.8438L12.731 86.0498L9.71952 89.678C6.83572 93.1523 5.61367 97.7131 6.37395 102.164L7.16791 106.812L3.53972 103.8C0.0654112 100.916 -4.49537 99.6943 -8.94611 100.455L-13.594 101.249L-10.5825 97.6204C-7.69866 94.1461 -6.4766 89.5853 -7.23689 85.1346Z" stroke="#9292FF" stroke-opacity="0.45" stroke-width="0.542828"/>
<rect x="5.78873" y="71.9182" width="31.4189" height="31.4189" rx="7.87101" transform="rotate(-30 5.78873 71.9182)" stroke="#9292FF" stroke-opacity="0.45" stroke-width="0.542828"/>
<path d="M20.4428 69.1536L19.6488 64.5057L23.277 67.5173C26.7513 70.4011 31.3121 71.6231 35.7629 70.8628L40.4107 70.0689L37.3992 73.6971C34.5154 77.1714 33.2934 81.7321 34.0536 86.1829L34.8476 90.8308L31.2194 87.8192C27.7451 84.9354 23.1843 83.7134 18.7336 84.4737L14.0857 85.2676L17.0972 81.6394C19.981 78.1651 21.2031 73.6043 20.4428 69.1536Z" stroke="#9292FF" stroke-opacity="0.45" stroke-width="0.542828"/>
<rect x="33.4684" y="55.9372" width="31.4189" height="31.4189" rx="7.87101" transform="rotate(-30 33.4684 55.9372)" stroke="#9292FF" stroke-opacity="0.45" stroke-width="0.542828"/>
<path d="M48.1225 53.1726L47.3285 48.5248L50.9567 51.5363C54.431 54.4201 58.9918 55.6422 63.4426 54.8819L68.0904 54.0879L65.0789 57.7161C62.1951 61.1904 60.973 65.7512 61.7333 70.2019L62.5273 74.8498L58.8991 71.8383C55.4248 68.9545 50.864 67.7324 46.4133 68.4927L41.7654 69.2867L44.7769 65.6585C47.6607 62.1842 48.8828 57.6234 48.1225 53.1726Z" stroke="#9292FF" stroke-opacity="0.45" stroke-width="0.542828"/>
<rect x="61.1481" y="39.9563" width="31.4189" height="31.4189" rx="7.87101" transform="rotate(-30 61.1481 39.9563)" stroke="#9292FF" stroke-opacity="0.45" stroke-width="0.542828"/>
<path d="M75.8022 37.1917L75.0082 32.5438L78.6364 35.5553C82.1107 38.4391 86.6715 39.6612 91.1222 38.9009L95.7701 38.107L92.7586 41.7351C89.8748 45.2095 88.6527 49.7702 89.413 54.221L90.207 58.8688L86.5788 55.8573C83.1045 52.9735 78.5437 51.7515 74.093 52.5118L69.4451 53.3057L72.4566 49.6775C75.3404 46.2032 76.5625 41.6424 75.8022 37.1917Z" stroke="#9292FF" stroke-opacity="0.45" stroke-width="0.542828"/>
<rect x="88.8277" y="23.9758" width="31.4189" height="31.4189" rx="7.87101" transform="rotate(-30 88.8277 23.9758)" stroke="#9292FF" stroke-opacity="0.45" stroke-width="0.542828"/>
<path d="M103.482 21.2112L102.688 16.5633L106.316 19.5749C109.79 22.4587 114.351 23.6807 118.802 22.9204L123.45 22.1265L120.438 25.7547C117.554 29.229 116.332 33.7898 117.093 38.2405L117.887 42.8884L114.258 39.8769C110.784 36.9931 106.223 35.771 101.773 36.5313L97.1246 37.3252L100.136 33.6971C103.02 30.2227 104.242 25.662 103.482 21.2112Z" stroke="#9292FF" stroke-opacity="0.45" stroke-width="0.542828"/>
<rect x="116.507" y="7.99485" width="31.4189" height="31.4189" rx="7.87101" transform="rotate(-30 116.507 7.99485)" stroke="#9292FF" stroke-opacity="0.45" stroke-width="0.542828"/>
<path d="M131.161 5.23026L130.367 0.582392L133.996 3.59391C137.47 6.47771 142.031 7.69977 146.481 6.93949L151.129 6.14552L148.118 9.77372C145.234 13.248 144.012 17.8088 144.772 22.2595L145.566 26.9074L141.938 23.8959C138.464 21.0121 133.903 19.79 129.452 20.5503L124.804 21.3443L127.816 17.7161C130.7 14.2418 131.922 9.681 131.161 5.23026Z" stroke="#9292FF" stroke-opacity="0.45" stroke-width="0.542828"/>
<rect x="144.187" y="-7.9861" width="31.4189" height="31.4189" rx="7.87101" transform="rotate(-30 144.187 -7.9861)" stroke="#9292FF" stroke-opacity="0.45" stroke-width="0.542828"/>
<path d="M158.841 -10.7507L158.047 -15.3986L161.675 -12.387C165.15 -9.50324 169.71 -8.28118 174.161 -9.04147L178.809 -9.83543L175.798 -6.20724C172.914 -2.73293 171.692 1.82785 172.452 6.27859L173.246 10.9265L169.618 7.91494C166.143 5.03114 161.583 3.80908 157.132 4.56937L152.484 5.36333L155.496 1.73514C158.379 -1.73917 159.601 -6.29995 158.841 -10.7507Z" stroke="#9292FF" stroke-opacity="0.45" stroke-width="0.542828"/>
<rect x="171.867" y="-23.9671" width="31.4189" height="31.4189" rx="7.87101" transform="rotate(-30 171.867 -23.9671)" stroke="#9292FF" stroke-opacity="0.45" stroke-width="0.542828"/>
<path d="M186.521 -26.7317L185.727 -31.3795L189.355 -28.368C192.829 -25.4842 197.39 -24.2621 201.841 -25.0224L206.489 -25.8164L203.477 -22.1882C200.593 -18.7139 199.371 -14.1531 200.132 -9.70237L200.925 -5.05449L197.297 -8.06602C193.823 -10.9498 189.262 -12.1719 184.811 -11.4116L180.164 -10.6176L183.175 -14.2458C186.059 -17.7201 187.281 -22.2809 186.521 -26.7317Z" stroke="#9292FF" stroke-opacity="0.45" stroke-width="0.542828"/>
<rect x="-37.8718" y="60.2195" width="31.4189" height="31.4189" rx="7.87101" transform="rotate(-30 -37.8718 60.2195)" stroke="#9292FF" stroke-opacity="0.45" stroke-width="0.542828"/>
<path d="M-23.2177 57.4549L-24.0117 52.807L-20.3835 55.8185C-16.9092 58.7023 -12.3484 59.9244 -7.89766 59.1641L-3.24979 58.3701L-6.26131 61.9983C-9.14511 65.4726 -10.3672 70.0334 -9.60688 74.4842L-8.81292 79.132L-12.4411 76.1205C-15.9154 73.2367 -20.4762 72.0146 -24.9269 72.7749L-29.5748 73.5689L-26.5633 69.9407C-23.6795 66.4664 -22.4574 61.9056 -23.2177 57.4549Z" stroke="#9292FF" stroke-opacity="0.45" stroke-width="0.542828"/>
<rect x="-10.1922" y="44.2385" width="31.4189" height="31.4189" rx="7.87101" transform="rotate(-30 -10.1922 44.2385)" stroke="#9292FF" stroke-opacity="0.45" stroke-width="0.542828"/>
<path d="M4.46184 41.4739L3.66788 36.826L7.29607 39.8376C10.7704 42.7214 15.3312 43.9434 19.7819 43.1831L24.4298 42.3892L21.4183 46.0174C18.5345 49.4917 17.3124 54.0525 18.0727 58.5032L18.8666 63.1511L15.2385 60.1395C11.7641 57.2557 7.20336 56.0337 2.75262 56.794L-1.89525 57.5879L1.11627 53.9598C4.00007 50.4854 5.22213 45.9247 4.46184 41.4739Z" stroke="#9292FF" stroke-opacity="0.45" stroke-width="0.542828"/>
<rect x="17.4876" y="28.2575" width="31.4189" height="31.4189" rx="7.87101" transform="rotate(-30 17.4876 28.2575)" stroke="#9292FF" stroke-opacity="0.45" stroke-width="0.542828"/>
<path d="M32.1417 25.493L31.3477 20.8451L34.9759 23.8566C38.4502 26.7404 43.011 27.9625 47.4617 27.2022L52.1096 26.4082L49.0981 30.0364C46.2143 33.5107 44.9922 38.0715 45.7525 42.5222L46.5465 47.1701L42.9183 44.1586C39.444 41.2748 34.8832 40.0527 30.4324 40.813L25.7846 41.607L28.7961 37.9788C31.6799 34.5045 32.9019 29.9437 32.1417 25.493Z" stroke="#9292FF" stroke-opacity="0.45" stroke-width="0.542828"/>
<rect x="45.1671" y="12.2766" width="31.4189" height="31.4189" rx="7.87101" transform="rotate(-30 45.1671 12.2766)" stroke="#9292FF" stroke-opacity="0.45" stroke-width="0.542828"/>
<path d="M59.8212 9.512L59.0273 4.86413L62.6554 7.87565C66.1298 10.7595 70.6905 11.9815 75.1413 11.2212L79.7892 10.4273L76.7776 14.0555C73.8938 17.5298 72.6718 22.0905 73.4321 26.5413L74.226 31.1892L70.5978 28.1776C67.1235 25.2938 62.5627 24.0718 58.112 24.8321L53.4641 25.626L56.4756 21.9978C59.3594 18.5235 60.5815 13.9627 59.8212 9.512Z" stroke="#9292FF" stroke-opacity="0.45" stroke-width="0.542828"/>
<rect x="72.8468" y="-3.70388" width="31.4189" height="31.4189" rx="7.87101" transform="rotate(-30 72.8468 -3.70388)" stroke="#9292FF" stroke-opacity="0.45" stroke-width="0.542828"/>
<path d="M87.5009 -6.46847L86.7069 -11.1163L90.3351 -8.10482C93.8094 -5.22102 98.3702 -3.99896 102.821 -4.75924L107.469 -5.55321L104.457 -1.92502C101.574 1.5493 100.351 6.11008 101.112 10.5608L101.906 15.2087L98.2775 12.1972C94.8032 9.31337 90.2424 8.09131 85.7917 8.8516L81.1438 9.64556L84.1553 6.01737C87.0391 2.54305 88.2612 -2.01773 87.5009 -6.46847Z" stroke="#9292FF" stroke-opacity="0.45" stroke-width="0.542828"/>
<rect x="100.527" y="-19.6848" width="31.4189" height="31.4189" rx="7.87101" transform="rotate(-30 100.527 -19.6848)" stroke="#9292FF" stroke-opacity="0.45" stroke-width="0.542828"/>
<path d="M115.181 -22.4494L114.387 -27.0973L118.015 -24.0858C121.489 -21.202 126.05 -19.9799 130.501 -20.7402L135.149 -21.5342L132.137 -17.906C129.253 -14.4317 128.031 -9.87088 128.791 -5.42014L129.585 -0.772268L125.957 -3.78379C122.483 -6.66759 117.922 -7.88965 113.471 -7.12936L108.823 -6.3354L111.835 -9.96359C114.719 -13.4379 115.941 -17.9987 115.181 -22.4494Z" stroke="#9292FF" stroke-opacity="0.45" stroke-width="0.542828"/>
<rect x="-26.1731" y="16.5588" width="31.4189" height="31.4189" rx="7.87101" transform="rotate(-30 -26.1731 16.5588)" stroke="#9292FF" stroke-opacity="0.45" stroke-width="0.542828"/>
<path d="M-11.519 13.7942L-12.313 9.14636L-8.68476 12.1579C-5.21045 15.0417 -0.649671 16.2637 3.80107 15.5035L8.44894 14.7095L5.43742 18.3377C2.55362 21.812 1.33156 26.3728 2.09185 30.8235L2.88581 35.4714L-0.742381 32.4599C-4.21669 29.5761 -8.77747 28.354 -13.2282 29.1143L-17.8761 29.9083L-14.8646 26.2801C-11.9808 22.8058 -10.7587 18.245 -11.519 13.7942Z" stroke="#9292FF" stroke-opacity="0.45" stroke-width="0.542828"/>
<rect x="1.50662" y="0.57786" width="31.4189" height="31.4189" rx="7.87101" transform="rotate(-30 1.50662 0.57786)" stroke="#9292FF" stroke-opacity="0.45" stroke-width="0.542828"/>
<path d="M16.1607 -2.18673L15.3667 -6.8346L18.9949 -3.82308C22.4692 -0.939279 27.03 0.282781 31.4808 -0.477506L36.1286 -1.27147L33.1171 2.35672C30.2333 5.83103 29.0112 10.3918 29.7715 14.8426L30.5655 19.4904L26.9373 16.4789C23.463 13.5951 18.9022 12.373 14.4515 13.1333L9.8036 13.9273L12.8151 10.2991C15.6989 6.82479 16.921 2.26401 16.1607 -2.18673Z" stroke="#9292FF" stroke-opacity="0.45" stroke-width="0.542828"/>
<rect x="29.1863" y="-15.4031" width="31.4189" height="31.4189" rx="7.87101" transform="rotate(-30 29.1863 -15.4031)" stroke="#9292FF" stroke-opacity="0.45" stroke-width="0.542828"/>
<path d="M43.8404 -18.1677L43.0464 -22.8156L46.6746 -19.804C50.1489 -16.9202 54.7097 -15.6982 59.1604 -16.4585L63.8083 -17.2524L60.7968 -13.6242C57.913 -10.1499 56.6909 -5.58914 57.4512 -1.1384L58.2452 3.50947L54.617 0.497948C51.1427 -2.38585 46.5819 -3.60791 42.1312 -2.84762L37.4833 -2.05366L40.4948 -5.68185C43.3786 -9.15616 44.6007 -13.7169 43.8404 -18.1677Z" stroke="#9292FF" stroke-opacity="0.45" stroke-width="0.542828"/>
</g>
<path d="M177.973 49.9376C180.372 48.1873 183.628 48.1873 186.027 49.9376L209.088 66.7593C210.261 67.6149 211.676 68.0747 213.128 68.072L241.672 68.0176C244.642 68.012 247.275 69.9254 248.188 72.7517L256.957 99.9155C257.403 101.297 258.277 102.501 259.453 103.352L282.578 120.086C284.984 121.827 285.99 124.923 285.067 127.746L276.195 154.876C275.743 156.256 275.743 157.744 276.195 159.124L285.067 186.254C285.99 189.077 284.984 192.173 282.578 193.914L259.453 210.648C258.277 211.499 257.403 212.703 256.957 214.085L248.188 241.248C247.275 244.075 244.642 245.988 241.672 245.982L213.128 245.928C211.676 245.925 210.261 246.385 209.088 247.241L186.027 264.062C183.628 265.813 180.372 265.813 177.973 264.062L154.912 247.241C153.739 246.385 152.324 245.925 150.872 245.928L122.328 245.982C119.358 245.988 116.725 244.075 115.812 241.248L107.043 214.085C106.597 212.703 105.723 211.499 104.547 210.648L81.422 193.914C79.0159 192.173 78.01 189.077 78.9331 186.254L87.8054 159.124C88.2567 157.744 88.2567 156.256 87.8054 154.876L78.9331 127.746C78.01 124.923 79.0159 121.827 81.422 120.086L104.547 103.352C105.723 102.501 106.597 101.297 107.043 99.9155L115.812 72.7517C116.725 69.9254 119.358 68.012 122.328 68.0176L150.872 68.072C152.324 68.0747 153.739 67.6149 154.912 66.7593L177.973 49.9376Z" fill="#9494EC"/>
<path d="M192.5 122C194.958 122 197.373 122.647 199.501 123.876C201.63 125.105 203.398 126.872 204.627 129.001C205.855 131.13 206.502 133.545 206.502 136.003C206.501 138.461 205.854 140.875 204.624 143.004L220.5 143V150H213.5V185C213.5 185.928 213.131 186.819 212.475 187.475C211.818 188.131 210.928 188.5 210 188.5H154C153.072 188.5 152.182 188.131 151.525 187.475C150.869 186.819 150.5 185.928 150.5 185V150H143.5V143L159.376 143.004C157.64 139.997 157.082 136.452 157.813 133.057C158.543 129.663 160.509 126.661 163.329 124.634C166.148 122.607 169.62 121.701 173.071 122.091C176.521 122.48 179.703 124.138 182 126.743C183.311 125.249 184.926 124.054 186.737 123.236C188.548 122.418 190.513 121.997 192.5 122ZM178.5 150H157.5V181.5H178.5V150ZM206.5 150H185.5V181.5H206.5V150ZM171.5 129C169.684 128.992 167.935 129.69 166.624 130.947C165.313 132.205 164.542 133.922 164.474 135.737C164.405 137.552 165.046 139.323 166.259 140.675C167.472 142.027 169.163 142.854 170.975 142.983L171.5 143H178.5V136C178.5 134.327 177.901 132.71 176.812 131.44C175.722 130.171 174.214 129.334 172.561 129.081L172.021 129.018L171.5 129ZM192.5 129C190.734 128.999 189.033 129.666 187.738 130.867C186.443 132.068 185.65 133.714 185.518 135.475L185.5 136V143H192.5C194.266 143.001 195.967 142.334 197.262 141.133C198.557 139.932 199.35 138.286 199.483 136.525L199.5 136C199.5 134.144 198.763 132.363 197.45 131.05C196.137 129.738 194.357 129 192.5 129Z" fill="black" fill-opacity="0.2"/>
</svg>
