<svg width="364" height="314" viewBox="0 0 364 314" fill="none" xmlns="http://www.w3.org/2000/svg">
<rect width="364" height="314" rx="10" fill="#2A6BCC"/>
<mask id="mask0_3582_227745" style="mask-type:alpha" maskUnits="userSpaceOnUse" x="0" y="0" width="364" height="314">
<rect width="364" height="314" rx="10" fill="#A02600"/>
</mask>
<g mask="url(#mask0_3582_227745)">
<rect x="359.099" y="319.766" width="27.1288" height="27.1288" rx="6.65719" transform="rotate(-45 359.099 319.766)" stroke="#2660B8" stroke-width="0.5"/>
<rect x="339.622" y="319.766" width="13.3144" height="13.3144" rx="6.65719" transform="rotate(-45 339.622 319.766)" stroke="#2660B8" stroke-width="0.5"/>
<rect x="329.853" y="319.766" width="27.1288" height="27.1288" rx="6.65719" transform="rotate(-45 329.853 319.766)" stroke="#2660B8" stroke-width="0.5"/>
<rect x="310.376" y="319.766" width="13.3144" height="13.3144" rx="6.65719" transform="rotate(-45 310.376 319.766)" stroke="#2660B8" stroke-width="0.5"/>
<rect x="300.607" y="319.766" width="27.1288" height="27.1288" rx="6.65719" transform="rotate(-45 300.607 319.766)" stroke="#2660B8" stroke-width="0.5"/>
<rect x="281.13" y="319.766" width="13.3144" height="13.3144" rx="6.65719" transform="rotate(-45 281.13 319.766)" stroke="#2660B8" stroke-width="0.5"/>
<rect x="271.362" y="319.766" width="27.1288" height="27.1288" rx="6.65719" transform="rotate(-45 271.362 319.766)" stroke="#2660B8" stroke-width="0.5"/>
<rect x="251.884" y="319.766" width="13.3144" height="13.3144" rx="6.65719" transform="rotate(-45 251.884 319.766)" stroke="#2660B8" stroke-width="0.5"/>
<rect x="242.116" y="319.766" width="27.1288" height="27.1288" rx="6.65719" transform="rotate(-45 242.116 319.766)" stroke="#2660B8" stroke-width="0.5"/>
<rect x="222.639" y="319.766" width="13.3144" height="13.3144" rx="6.65719" transform="rotate(-45 222.639 319.766)" stroke="#2660B8" stroke-width="0.5"/>
<rect x="212.871" y="319.766" width="27.1288" height="27.1288" rx="6.65719" transform="rotate(-45 212.871 319.766)" stroke="#2660B8" stroke-width="0.5"/>
<rect x="193.393" y="319.766" width="13.3144" height="13.3144" rx="6.65719" transform="rotate(-45 193.393 319.766)" stroke="#2660B8" stroke-width="0.5"/>
<rect x="183.625" y="319.766" width="27.1288" height="27.1288" rx="6.65719" transform="rotate(-45 183.625 319.766)" stroke="#2660B8" stroke-width="0.5"/>
<rect x="164.148" y="319.766" width="13.3144" height="13.3144" rx="6.65719" transform="rotate(-45 164.148 319.766)" stroke="#2660B8" stroke-width="0.5"/>
<rect x="154.38" y="319.766" width="27.1288" height="27.1288" rx="6.65719" transform="rotate(-45 154.38 319.766)" stroke="#2660B8" stroke-width="0.5"/>
<rect x="134.902" y="319.766" width="13.3144" height="13.3144" rx="6.65719" transform="rotate(-45 134.902 319.766)" stroke="#2660B8" stroke-width="0.5"/>
<rect x="125.134" y="319.766" width="27.1288" height="27.1288" rx="6.65719" transform="rotate(-45 125.134 319.766)" stroke="#2660B8" stroke-width="0.5"/>
<rect x="105.657" y="319.766" width="13.3144" height="13.3144" rx="6.65719" transform="rotate(-45 105.657 319.766)" stroke="#2660B8" stroke-width="0.5"/>
<rect x="95.8888" y="319.766" width="27.1288" height="27.1288" rx="6.65719" transform="rotate(-45 95.8888 319.766)" stroke="#2660B8" stroke-width="0.5"/>
<rect x="76.4119" y="319.766" width="13.3144" height="13.3144" rx="6.65719" transform="rotate(-45 76.4119 319.766)" stroke="#2660B8" stroke-width="0.5"/>
<rect x="66.6433" y="319.766" width="27.1288" height="27.1288" rx="6.65719" transform="rotate(-45 66.6433 319.766)" stroke="#2660B8" stroke-width="0.5"/>
<rect x="47.1664" y="319.766" width="13.3144" height="13.3144" rx="6.65719" transform="rotate(-45 47.1664 319.766)" stroke="#2660B8" stroke-width="0.5"/>
<rect x="37.3978" y="319.766" width="27.1288" height="27.1288" rx="6.65719" transform="rotate(-45 37.3978 319.766)" stroke="#2660B8" stroke-width="0.5"/>
<rect x="17.9204" y="319.766" width="13.3144" height="13.3144" rx="6.65719" transform="rotate(-45 17.9204 319.766)" stroke="#2660B8" stroke-width="0.5"/>
<rect x="8.15223" y="319.766" width="27.1288" height="27.1288" rx="6.65719" transform="rotate(-45 8.15223 319.766)" stroke="#2660B8" stroke-width="0.5"/>
<rect x="-11.3251" y="319.766" width="13.3144" height="13.3144" rx="6.65719" transform="rotate(-45 -11.3251 319.766)" stroke="#2660B8" stroke-width="0.5"/>
<rect x="-21.0933" y="319.766" width="27.1288" height="27.1288" rx="6.65719" transform="rotate(-45 -21.0933 319.766)" stroke="#2660B8" stroke-width="0.5"/>
<rect x="359.099" y="290.734" width="27.1288" height="27.1288" rx="6.65719" transform="rotate(-45 359.099 290.734)" stroke="#2660B8" stroke-width="0.5"/>
<rect x="339.621" y="290.734" width="13.3144" height="13.3144" rx="6.65719" transform="rotate(-45 339.621 290.734)" stroke="#2660B8" stroke-width="0.5"/>
<rect x="329.853" y="290.734" width="27.1288" height="27.1288" rx="6.65719" transform="rotate(-45 329.853 290.734)" stroke="#2660B8" stroke-width="0.5"/>
<rect x="310.376" y="290.734" width="13.3144" height="13.3144" rx="6.65719" transform="rotate(-45 310.376 290.734)" stroke="#2660B8" stroke-width="0.5"/>
<rect x="300.608" y="290.734" width="27.1288" height="27.1288" rx="6.65719" transform="rotate(-45 300.608 290.734)" stroke="#2660B8" stroke-width="0.5"/>
<rect x="281.13" y="290.734" width="13.3144" height="13.3144" rx="6.65719" transform="rotate(-45 281.13 290.734)" stroke="#2660B8" stroke-width="0.5"/>
<rect x="271.362" y="290.734" width="27.1288" height="27.1288" rx="6.65719" transform="rotate(-45 271.362 290.734)" stroke="#2660B8" stroke-width="0.5"/>
<rect x="251.885" y="290.734" width="13.3144" height="13.3144" rx="6.65719" transform="rotate(-45 251.885 290.734)" stroke="#2660B8" stroke-width="0.5"/>
<rect x="242.116" y="290.734" width="27.1288" height="27.1288" rx="6.65719" transform="rotate(-45 242.116 290.734)" stroke="#2660B8" stroke-width="0.5"/>
<rect x="222.64" y="290.734" width="13.3144" height="13.3144" rx="6.65719" transform="rotate(-45 222.64 290.734)" stroke="#2660B8" stroke-width="0.5"/>
<rect x="212.871" y="290.734" width="27.1288" height="27.1288" rx="6.65719" transform="rotate(-45 212.871 290.734)" stroke="#2660B8" stroke-width="0.5"/>
<rect x="193.394" y="290.734" width="13.3144" height="13.3144" rx="6.65719" transform="rotate(-45 193.394 290.734)" stroke="#2660B8" stroke-width="0.5"/>
<rect x="183.625" y="290.734" width="27.1288" height="27.1288" rx="6.65719" transform="rotate(-45 183.625 290.734)" stroke="#2660B8" stroke-width="0.5"/>
<rect x="164.148" y="290.734" width="13.3144" height="13.3144" rx="6.65719" transform="rotate(-45 164.148 290.734)" stroke="#2660B8" stroke-width="0.5"/>
<rect x="154.38" y="290.734" width="27.1288" height="27.1288" rx="6.65719" transform="rotate(-45 154.38 290.734)" stroke="#2660B8" stroke-width="0.5"/>
<rect x="134.903" y="290.734" width="13.3144" height="13.3144" rx="6.65719" transform="rotate(-45 134.903 290.734)" stroke="#2660B8" stroke-width="0.5"/>
<rect x="125.134" y="290.734" width="27.1288" height="27.1288" rx="6.65719" transform="rotate(-45 125.134 290.734)" stroke="#2660B8" stroke-width="0.5"/>
<rect x="105.657" y="290.734" width="13.3144" height="13.3144" rx="6.65719" transform="rotate(-45 105.657 290.734)" stroke="#2660B8" stroke-width="0.5"/>
<rect x="95.8889" y="290.734" width="27.1288" height="27.1288" rx="6.65719" transform="rotate(-45 95.8889 290.734)" stroke="#2660B8" stroke-width="0.5"/>
<rect x="76.4117" y="290.734" width="13.3144" height="13.3144" rx="6.65719" transform="rotate(-45 76.4117 290.734)" stroke="#2660B8" stroke-width="0.5"/>
<rect x="66.6434" y="290.734" width="27.1288" height="27.1288" rx="6.65719" transform="rotate(-45 66.6434 290.734)" stroke="#2660B8" stroke-width="0.5"/>
<rect x="47.1662" y="290.734" width="13.3144" height="13.3144" rx="6.65719" transform="rotate(-45 47.1662 290.734)" stroke="#2660B8" stroke-width="0.5"/>
<rect x="37.3979" y="290.734" width="27.1288" height="27.1288" rx="6.65719" transform="rotate(-45 37.3979 290.734)" stroke="#2660B8" stroke-width="0.5"/>
<rect x="17.9207" y="290.734" width="13.3144" height="13.3144" rx="6.65719" transform="rotate(-45 17.9207 290.734)" stroke="#2660B8" stroke-width="0.5"/>
<rect x="8.15186" y="290.734" width="27.1288" height="27.1288" rx="6.65719" transform="rotate(-45 8.15186 290.734)" stroke="#2660B8" stroke-width="0.5"/>
<rect x="-11.3252" y="290.734" width="13.3144" height="13.3144" rx="6.65719" transform="rotate(-45 -11.3252 290.734)" stroke="#2660B8" stroke-width="0.5"/>
<rect x="-21.0932" y="290.734" width="27.1288" height="27.1288" rx="6.65719" transform="rotate(-45 -21.0932 290.734)" stroke="#2660B8" stroke-width="0.5"/>
<rect x="359.099" y="261.703" width="27.1288" height="27.1288" rx="6.65719" transform="rotate(-45 359.099 261.703)" stroke="#2660B8" stroke-width="0.5"/>
<rect x="339.622" y="261.703" width="13.3144" height="13.3144" rx="6.65719" transform="rotate(-45 339.622 261.703)" stroke="#2660B8" stroke-width="0.5"/>
<rect x="329.853" y="261.703" width="27.1288" height="27.1288" rx="6.65719" transform="rotate(-45 329.853 261.703)" stroke="#2660B8" stroke-width="0.5"/>
<rect x="310.376" y="261.703" width="13.3144" height="13.3144" rx="6.65719" transform="rotate(-45 310.376 261.703)" stroke="#2660B8" stroke-width="0.5"/>
<rect x="300.608" y="261.703" width="27.1288" height="27.1288" rx="6.65719" transform="rotate(-45 300.608 261.703)" stroke="#2660B8" stroke-width="0.5"/>
<rect x="281.13" y="261.703" width="13.3144" height="13.3144" rx="6.65719" transform="rotate(-45 281.13 261.703)" stroke="#2660B8" stroke-width="0.5"/>
<rect x="271.362" y="261.703" width="27.1288" height="27.1288" rx="6.65719" transform="rotate(-45 271.362 261.703)" stroke="#2660B8" stroke-width="0.5"/>
<rect x="251.885" y="261.703" width="13.3144" height="13.3144" rx="6.65719" transform="rotate(-45 251.885 261.703)" stroke="#2660B8" stroke-width="0.5"/>
<rect x="242.117" y="261.703" width="27.1288" height="27.1288" rx="6.65719" transform="rotate(-45 242.117 261.703)" stroke="#2660B8" stroke-width="0.5"/>
<rect x="222.639" y="261.703" width="13.3144" height="13.3144" rx="6.65719" transform="rotate(-45 222.639 261.703)" stroke="#2660B8" stroke-width="0.5"/>
<rect x="212.871" y="261.703" width="27.1288" height="27.1288" rx="6.65719" transform="rotate(-45 212.871 261.703)" stroke="#2660B8" stroke-width="0.5"/>
<rect x="193.394" y="261.703" width="13.3144" height="13.3144" rx="6.65719" transform="rotate(-45 193.394 261.703)" stroke="#2660B8" stroke-width="0.5"/>
<rect x="183.626" y="261.703" width="27.1288" height="27.1288" rx="6.65719" transform="rotate(-45 183.626 261.703)" stroke="#2660B8" stroke-width="0.5"/>
<rect x="164.149" y="261.703" width="13.3144" height="13.3144" rx="6.65719" transform="rotate(-45 164.149 261.703)" stroke="#2660B8" stroke-width="0.5"/>
<rect x="154.38" y="261.703" width="27.1288" height="27.1288" rx="6.65719" transform="rotate(-45 154.38 261.703)" stroke="#2660B8" stroke-width="0.5"/>
<rect x="134.903" y="261.703" width="13.3144" height="13.3144" rx="6.65719" transform="rotate(-45 134.903 261.703)" stroke="#2660B8" stroke-width="0.5"/>
<rect x="125.134" y="261.703" width="27.1288" height="27.1288" rx="6.65719" transform="rotate(-45 125.134 261.703)" stroke="#2660B8" stroke-width="0.5"/>
<rect x="105.657" y="261.703" width="13.3144" height="13.3144" rx="6.65719" transform="rotate(-45 105.657 261.703)" stroke="#2660B8" stroke-width="0.5"/>
<rect x="95.889" y="261.703" width="27.1288" height="27.1288" rx="6.65719" transform="rotate(-45 95.889 261.703)" stroke="#2660B8" stroke-width="0.5"/>
<rect x="76.4116" y="261.703" width="13.3144" height="13.3144" rx="6.65719" transform="rotate(-45 76.4116 261.703)" stroke="#2660B8" stroke-width="0.5"/>
<rect x="66.6435" y="261.703" width="27.1288" height="27.1288" rx="6.65719" transform="rotate(-45 66.6435 261.703)" stroke="#2660B8" stroke-width="0.5"/>
<rect x="47.1661" y="261.703" width="13.3144" height="13.3144" rx="6.65719" transform="rotate(-45 47.1661 261.703)" stroke="#2660B8" stroke-width="0.5"/>
<rect x="37.3975" y="261.703" width="27.1288" height="27.1288" rx="6.65719" transform="rotate(-45 37.3975 261.703)" stroke="#2660B8" stroke-width="0.5"/>
<rect x="17.9206" y="261.703" width="13.3144" height="13.3144" rx="6.65719" transform="rotate(-45 17.9206 261.703)" stroke="#2660B8" stroke-width="0.5"/>
<rect x="8.15247" y="261.703" width="27.1288" height="27.1288" rx="6.65719" transform="rotate(-45 8.15247 261.703)" stroke="#2660B8" stroke-width="0.5"/>
<rect x="-11.3249" y="261.703" width="13.3144" height="13.3144" rx="6.65719" transform="rotate(-45 -11.3249 261.703)" stroke="#2660B8" stroke-width="0.5"/>
<rect x="-21.093" y="261.703" width="27.1288" height="27.1288" rx="6.65719" transform="rotate(-45 -21.093 261.703)" stroke="#2660B8" stroke-width="0.5"/>
<rect x="359.099" y="232.664" width="27.1288" height="27.1288" rx="6.65719" transform="rotate(-45 359.099 232.664)" stroke="#2660B8" stroke-width="0.5"/>
<rect x="339.621" y="232.664" width="13.3144" height="13.3144" rx="6.65719" transform="rotate(-45 339.621 232.664)" stroke="#2660B8" stroke-width="0.5"/>
<rect x="329.853" y="232.664" width="27.1288" height="27.1288" rx="6.65719" transform="rotate(-45 329.853 232.664)" stroke="#2660B8" stroke-width="0.5"/>
<rect x="310.376" y="232.664" width="13.3144" height="13.3144" rx="6.65719" transform="rotate(-45 310.376 232.664)" stroke="#2660B8" stroke-width="0.5"/>
<rect x="300.608" y="232.664" width="27.1288" height="27.1288" rx="6.65719" transform="rotate(-45 300.608 232.664)" stroke="#2660B8" stroke-width="0.5"/>
<rect x="281.13" y="232.664" width="13.3144" height="13.3144" rx="6.65719" transform="rotate(-45 281.13 232.664)" stroke="#2660B8" stroke-width="0.5"/>
<rect x="271.362" y="232.664" width="27.1288" height="27.1288" rx="6.65719" transform="rotate(-45 271.362 232.664)" stroke="#2660B8" stroke-width="0.5"/>
<rect x="251.885" y="232.664" width="13.3144" height="13.3144" rx="6.65719" transform="rotate(-45 251.885 232.664)" stroke="#2660B8" stroke-width="0.5"/>
<rect x="242.117" y="232.664" width="27.1288" height="27.1288" rx="6.65719" transform="rotate(-45 242.117 232.664)" stroke="#2660B8" stroke-width="0.5"/>
<rect x="222.639" y="232.664" width="13.3144" height="13.3144" rx="6.65719" transform="rotate(-45 222.639 232.664)" stroke="#2660B8" stroke-width="0.5"/>
<rect x="212.871" y="232.664" width="27.1288" height="27.1288" rx="6.65719" transform="rotate(-45 212.871 232.664)" stroke="#2660B8" stroke-width="0.5"/>
<rect x="193.394" y="232.664" width="13.3144" height="13.3144" rx="6.65719" transform="rotate(-45 193.394 232.664)" stroke="#2660B8" stroke-width="0.5"/>
<rect x="183.626" y="232.664" width="27.1288" height="27.1288" rx="6.65719" transform="rotate(-45 183.626 232.664)" stroke="#2660B8" stroke-width="0.5"/>
<rect x="164.148" y="232.664" width="13.3144" height="13.3144" rx="6.65719" transform="rotate(-45 164.148 232.664)" stroke="#2660B8" stroke-width="0.5"/>
<rect x="154.38" y="232.664" width="27.1288" height="27.1288" rx="6.65719" transform="rotate(-45 154.38 232.664)" stroke="#2660B8" stroke-width="0.5"/>
<rect x="134.903" y="232.664" width="13.3144" height="13.3144" rx="6.65719" transform="rotate(-45 134.903 232.664)" stroke="#2660B8" stroke-width="0.5"/>
<rect x="125.135" y="232.664" width="27.1288" height="27.1288" rx="6.65719" transform="rotate(-45 125.135 232.664)" stroke="#2660B8" stroke-width="0.5"/>
<rect x="105.657" y="232.664" width="13.3144" height="13.3144" rx="6.65719" transform="rotate(-45 105.657 232.664)" stroke="#2660B8" stroke-width="0.5"/>
<rect x="95.8886" y="232.664" width="27.1288" height="27.1288" rx="6.65719" transform="rotate(-45 95.8886 232.664)" stroke="#2660B8" stroke-width="0.5"/>
<rect x="76.4119" y="232.664" width="13.3144" height="13.3144" rx="6.65719" transform="rotate(-45 76.4119 232.664)" stroke="#2660B8" stroke-width="0.5"/>
<rect x="66.6431" y="232.664" width="27.1288" height="27.1288" rx="6.65719" transform="rotate(-45 66.6431 232.664)" stroke="#2660B8" stroke-width="0.5"/>
<rect x="47.1659" y="232.664" width="13.3144" height="13.3144" rx="6.65719" transform="rotate(-45 47.1659 232.664)" stroke="#2660B8" stroke-width="0.5"/>
<rect x="37.3976" y="232.664" width="27.1288" height="27.1288" rx="6.65719" transform="rotate(-45 37.3976 232.664)" stroke="#2660B8" stroke-width="0.5"/>
<rect x="17.9204" y="232.664" width="13.3144" height="13.3144" rx="6.65719" transform="rotate(-45 17.9204 232.664)" stroke="#2660B8" stroke-width="0.5"/>
<rect x="8.15205" y="232.664" width="27.1288" height="27.1288" rx="6.65719" transform="rotate(-45 8.15205 232.664)" stroke="#2660B8" stroke-width="0.5"/>
<rect x="-11.325" y="232.664" width="13.3144" height="13.3144" rx="6.65719" transform="rotate(-45 -11.325 232.664)" stroke="#2660B8" stroke-width="0.5"/>
<rect x="-21.0934" y="232.664" width="27.1288" height="27.1288" rx="6.65719" transform="rotate(-45 -21.0934 232.664)" stroke="#2660B8" stroke-width="0.5"/>
<rect x="359.099" y="203.633" width="27.1288" height="27.1288" rx="6.65719" transform="rotate(-45 359.099 203.633)" stroke="#2660B8" stroke-width="0.5"/>
<rect x="339.622" y="203.633" width="13.3144" height="13.3144" rx="6.65719" transform="rotate(-45 339.622 203.633)" stroke="#2660B8" stroke-width="0.5"/>
<rect x="329.853" y="203.633" width="27.1288" height="27.1288" rx="6.65719" transform="rotate(-45 329.853 203.633)" stroke="#2660B8" stroke-width="0.5"/>
<rect x="310.376" y="203.633" width="13.3144" height="13.3144" rx="6.65719" transform="rotate(-45 310.376 203.633)" stroke="#2660B8" stroke-width="0.5"/>
<rect x="300.607" y="203.633" width="27.1288" height="27.1288" rx="6.65719" transform="rotate(-45 300.607 203.633)" stroke="#2660B8" stroke-width="0.5"/>
<rect x="281.131" y="203.633" width="13.3144" height="13.3144" rx="6.65719" transform="rotate(-45 281.131 203.633)" stroke="#2660B8" stroke-width="0.5"/>
<rect x="271.362" y="203.633" width="27.1288" height="27.1288" rx="6.65719" transform="rotate(-45 271.362 203.633)" stroke="#2660B8" stroke-width="0.5"/>
<rect x="251.885" y="203.633" width="13.3144" height="13.3144" rx="6.65719" transform="rotate(-45 251.885 203.633)" stroke="#2660B8" stroke-width="0.5"/>
<rect x="242.116" y="203.633" width="27.1288" height="27.1288" rx="6.65719" transform="rotate(-45 242.116 203.633)" stroke="#2660B8" stroke-width="0.5"/>
<rect x="222.639" y="203.633" width="13.3144" height="13.3144" rx="6.65719" transform="rotate(-45 222.639 203.633)" stroke="#2660B8" stroke-width="0.5"/>
<rect x="212.871" y="203.633" width="27.1288" height="27.1288" rx="6.65719" transform="rotate(-45 212.871 203.633)" stroke="#2660B8" stroke-width="0.5"/>
<rect x="193.394" y="203.633" width="13.3144" height="13.3144" rx="6.65719" transform="rotate(-45 193.394 203.633)" stroke="#2660B8" stroke-width="0.5"/>
<rect x="183.625" y="203.633" width="27.1288" height="27.1288" rx="6.65719" transform="rotate(-45 183.625 203.633)" stroke="#2660B8" stroke-width="0.5"/>
<rect x="164.148" y="203.633" width="13.3144" height="13.3144" rx="6.65719" transform="rotate(-45 164.148 203.633)" stroke="#2660B8" stroke-width="0.5"/>
<rect x="154.38" y="203.633" width="27.1288" height="27.1288" rx="6.65719" transform="rotate(-45 154.38 203.633)" stroke="#2660B8" stroke-width="0.5"/>
<rect x="134.902" y="203.633" width="13.3144" height="13.3144" rx="6.65719" transform="rotate(-45 134.902 203.633)" stroke="#2660B8" stroke-width="0.5"/>
<rect x="125.134" y="203.633" width="27.1288" height="27.1288" rx="6.65719" transform="rotate(-45 125.134 203.633)" stroke="#2660B8" stroke-width="0.5"/>
<rect x="105.657" y="203.633" width="13.3144" height="13.3144" rx="6.65719" transform="rotate(-45 105.657 203.633)" stroke="#2660B8" stroke-width="0.5"/>
<rect x="95.8887" y="203.633" width="27.1288" height="27.1288" rx="6.65719" transform="rotate(-45 95.8887 203.633)" stroke="#2660B8" stroke-width="0.5"/>
<rect x="76.4118" y="203.633" width="13.3144" height="13.3144" rx="6.65719" transform="rotate(-45 76.4118 203.633)" stroke="#2660B8" stroke-width="0.5"/>
<rect x="66.6432" y="203.633" width="27.1288" height="27.1288" rx="6.65719" transform="rotate(-45 66.6432 203.633)" stroke="#2660B8" stroke-width="0.5"/>
<rect x="47.1658" y="203.633" width="13.3144" height="13.3144" rx="6.65719" transform="rotate(-45 47.1658 203.633)" stroke="#2660B8" stroke-width="0.5"/>
<rect x="37.3977" y="203.633" width="27.1288" height="27.1288" rx="6.65719" transform="rotate(-45 37.3977 203.633)" stroke="#2660B8" stroke-width="0.5"/>
<rect x="17.9203" y="203.633" width="13.3144" height="13.3144" rx="6.65719" transform="rotate(-45 17.9203 203.633)" stroke="#2660B8" stroke-width="0.5"/>
<rect x="8.15217" y="203.633" width="27.1288" height="27.1288" rx="6.65719" transform="rotate(-45 8.15217 203.633)" stroke="#2660B8" stroke-width="0.5"/>
<rect x="-11.3252" y="203.633" width="13.3144" height="13.3144" rx="6.65719" transform="rotate(-45 -11.3252 203.633)" stroke="#2660B8" stroke-width="0.5"/>
<rect x="-21.0933" y="203.633" width="27.1288" height="27.1288" rx="6.65719" transform="rotate(-45 -21.0933 203.633)" stroke="#2660B8" stroke-width="0.5"/>
<rect x="359.099" y="174.602" width="27.1288" height="27.1288" rx="6.65719" transform="rotate(-45 359.099 174.602)" stroke="#2660B8" stroke-width="0.5"/>
<rect x="339.622" y="174.602" width="13.3144" height="13.3144" rx="6.65719" transform="rotate(-45 339.622 174.602)" stroke="#2660B8" stroke-width="0.5"/>
<rect x="329.853" y="174.602" width="27.1288" height="27.1288" rx="6.65719" transform="rotate(-45 329.853 174.602)" stroke="#2660B8" stroke-width="0.5"/>
<rect x="310.376" y="174.602" width="13.3144" height="13.3144" rx="6.65719" transform="rotate(-45 310.376 174.602)" stroke="#2660B8" stroke-width="0.5"/>
<rect x="300.607" y="174.602" width="27.1288" height="27.1288" rx="6.65719" transform="rotate(-45 300.607 174.602)" stroke="#2660B8" stroke-width="0.5"/>
<rect x="281.131" y="174.602" width="13.3144" height="13.3144" rx="6.65719" transform="rotate(-45 281.131 174.602)" stroke="#2660B8" stroke-width="0.5"/>
<rect x="271.362" y="174.602" width="27.1288" height="27.1288" rx="6.65719" transform="rotate(-45 271.362 174.602)" stroke="#2660B8" stroke-width="0.5"/>
<rect x="251.885" y="174.602" width="13.3144" height="13.3144" rx="6.65719" transform="rotate(-45 251.885 174.602)" stroke="#2660B8" stroke-width="0.5"/>
<rect x="242.116" y="174.602" width="27.1288" height="27.1288" rx="6.65719" transform="rotate(-45 242.116 174.602)" stroke="#2660B8" stroke-width="0.5"/>
<rect x="222.639" y="174.602" width="13.3144" height="13.3144" rx="6.65719" transform="rotate(-45 222.639 174.602)" stroke="#2660B8" stroke-width="0.5"/>
<rect x="212.871" y="174.602" width="27.1288" height="27.1288" rx="6.65719" transform="rotate(-45 212.871 174.602)" stroke="#2660B8" stroke-width="0.5"/>
<rect x="193.394" y="174.602" width="13.3144" height="13.3144" rx="6.65719" transform="rotate(-45 193.394 174.602)" stroke="#2660B8" stroke-width="0.5"/>
<rect x="183.625" y="174.602" width="27.1288" height="27.1288" rx="6.65719" transform="rotate(-45 183.625 174.602)" stroke="#2660B8" stroke-width="0.5"/>
<rect x="164.148" y="174.602" width="13.3144" height="13.3144" rx="6.65719" transform="rotate(-45 164.148 174.602)" stroke="#2660B8" stroke-width="0.5"/>
<rect x="154.38" y="174.602" width="27.1288" height="27.1288" rx="6.65719" transform="rotate(-45 154.38 174.602)" stroke="#2660B8" stroke-width="0.5"/>
<rect x="134.903" y="174.602" width="13.3144" height="13.3144" rx="6.65719" transform="rotate(-45 134.903 174.602)" stroke="#2660B8" stroke-width="0.5"/>
<rect x="125.134" y="174.602" width="27.1288" height="27.1288" rx="6.65719" transform="rotate(-45 125.134 174.602)" stroke="#2660B8" stroke-width="0.5"/>
<rect x="105.657" y="174.602" width="13.3144" height="13.3144" rx="6.65719" transform="rotate(-45 105.657 174.602)" stroke="#2660B8" stroke-width="0.5"/>
<rect x="95.8888" y="174.602" width="27.1288" height="27.1288" rx="6.65719" transform="rotate(-45 95.8888 174.602)" stroke="#2660B8" stroke-width="0.5"/>
<rect x="76.4121" y="174.602" width="13.3144" height="13.3144" rx="6.65719" transform="rotate(-45 76.4121 174.602)" stroke="#2660B8" stroke-width="0.5"/>
<rect x="66.6433" y="174.602" width="27.1288" height="27.1288" rx="6.65719" transform="rotate(-45 66.6433 174.602)" stroke="#2660B8" stroke-width="0.5"/>
<rect x="47.1666" y="174.602" width="13.3144" height="13.3144" rx="6.65719" transform="rotate(-45 47.1666 174.602)" stroke="#2660B8" stroke-width="0.5"/>
<rect x="37.3978" y="174.602" width="27.1288" height="27.1288" rx="6.65719" transform="rotate(-45 37.3978 174.602)" stroke="#2660B8" stroke-width="0.5"/>
<rect x="17.9206" y="174.602" width="13.3144" height="13.3144" rx="6.65719" transform="rotate(-45 17.9206 174.602)" stroke="#2660B8" stroke-width="0.5"/>
<rect x="8.15229" y="174.602" width="27.1288" height="27.1288" rx="6.65719" transform="rotate(-45 8.15229 174.602)" stroke="#2660B8" stroke-width="0.5"/>
<rect x="-11.3249" y="174.602" width="13.3144" height="13.3144" rx="6.65719" transform="rotate(-45 -11.3249 174.602)" stroke="#2660B8" stroke-width="0.5"/>
<rect x="-21.0932" y="174.602" width="27.1288" height="27.1288" rx="6.65719" transform="rotate(-45 -21.0932 174.602)" stroke="#2660B8" stroke-width="0.5"/>
<rect x="359.099" y="145.562" width="27.1288" height="27.1288" rx="6.65719" transform="rotate(-45 359.099 145.562)" stroke="#2660B8" stroke-width="0.5"/>
<rect x="339.621" y="145.562" width="13.3144" height="13.3144" rx="6.65719" transform="rotate(-45 339.621 145.562)" stroke="#2660B8" stroke-width="0.5"/>
<rect x="329.853" y="145.562" width="27.1288" height="27.1288" rx="6.65719" transform="rotate(-45 329.853 145.562)" stroke="#2660B8" stroke-width="0.5"/>
<rect x="310.376" y="145.562" width="13.3144" height="13.3144" rx="6.65719" transform="rotate(-45 310.376 145.562)" stroke="#2660B8" stroke-width="0.5"/>
<rect x="300.608" y="145.562" width="27.1288" height="27.1288" rx="6.65719" transform="rotate(-45 300.608 145.562)" stroke="#2660B8" stroke-width="0.5"/>
<rect x="281.131" y="145.562" width="13.3144" height="13.3144" rx="6.65719" transform="rotate(-45 281.131 145.562)" stroke="#2660B8" stroke-width="0.5"/>
<rect x="271.362" y="145.562" width="27.1288" height="27.1288" rx="6.65719" transform="rotate(-45 271.362 145.562)" stroke="#2660B8" stroke-width="0.5"/>
<rect x="251.885" y="145.562" width="13.3144" height="13.3144" rx="6.65719" transform="rotate(-45 251.885 145.562)" stroke="#2660B8" stroke-width="0.5"/>
<rect x="242.117" y="145.562" width="27.1288" height="27.1288" rx="6.65719" transform="rotate(-45 242.117 145.562)" stroke="#2660B8" stroke-width="0.5"/>
<rect x="222.639" y="145.562" width="13.3144" height="13.3144" rx="6.65719" transform="rotate(-45 222.639 145.562)" stroke="#2660B8" stroke-width="0.5"/>
<rect x="212.871" y="145.562" width="27.1288" height="27.1288" rx="6.65719" transform="rotate(-45 212.871 145.562)" stroke="#2660B8" stroke-width="0.5"/>
<rect x="193.393" y="145.562" width="13.3144" height="13.3144" rx="6.65719" transform="rotate(-45 193.393 145.562)" stroke="#2660B8" stroke-width="0.5"/>
<rect x="183.626" y="145.562" width="27.1288" height="27.1288" rx="6.65719" transform="rotate(-45 183.626 145.562)" stroke="#2660B8" stroke-width="0.5"/>
<rect x="164.148" y="145.562" width="13.3144" height="13.3144" rx="6.65719" transform="rotate(-45 164.148 145.562)" stroke="#2660B8" stroke-width="0.5"/>
<rect x="154.38" y="145.562" width="27.1288" height="27.1288" rx="6.65719" transform="rotate(-45 154.38 145.562)" stroke="#2660B8" stroke-width="0.5"/>
<rect x="134.902" y="145.562" width="13.3144" height="13.3144" rx="6.65719" transform="rotate(-45 134.902 145.562)" stroke="#2660B8" stroke-width="0.5"/>
<rect x="125.134" y="145.562" width="27.1288" height="27.1288" rx="6.65719" transform="rotate(-45 125.134 145.562)" stroke="#2660B8" stroke-width="0.5"/>
<rect x="105.657" y="145.562" width="13.3144" height="13.3144" rx="6.65719" transform="rotate(-45 105.657 145.562)" stroke="#2660B8" stroke-width="0.5"/>
<rect x="95.889" y="145.562" width="27.1288" height="27.1288" rx="6.65719" transform="rotate(-45 95.889 145.562)" stroke="#2660B8" stroke-width="0.5"/>
<rect x="76.4114" y="145.562" width="13.3144" height="13.3144" rx="6.65719" transform="rotate(-45 76.4114 145.562)" stroke="#2660B8" stroke-width="0.5"/>
<rect x="66.6434" y="145.562" width="27.1288" height="27.1288" rx="6.65719" transform="rotate(-45 66.6434 145.562)" stroke="#2660B8" stroke-width="0.5"/>
<rect x="47.166" y="145.562" width="13.3144" height="13.3144" rx="6.65719" transform="rotate(-45 47.166 145.562)" stroke="#2660B8" stroke-width="0.5"/>
<rect x="37.3979" y="145.562" width="27.1288" height="27.1288" rx="6.65719" transform="rotate(-45 37.3979 145.562)" stroke="#2660B8" stroke-width="0.5"/>
<rect x="17.9205" y="145.562" width="13.3144" height="13.3144" rx="6.65719" transform="rotate(-45 17.9205 145.562)" stroke="#2660B8" stroke-width="0.5"/>
<rect x="8.15192" y="145.562" width="27.1288" height="27.1288" rx="6.65719" transform="rotate(-45 8.15192 145.562)" stroke="#2660B8" stroke-width="0.5"/>
<rect x="-11.325" y="145.562" width="13.3144" height="13.3144" rx="6.65719" transform="rotate(-45 -11.325 145.562)" stroke="#2660B8" stroke-width="0.5"/>
<rect x="-21.0931" y="145.562" width="27.1288" height="27.1288" rx="6.65719" transform="rotate(-45 -21.0931 145.562)" stroke="#2660B8" stroke-width="0.5"/>
<rect x="359.099" y="116.531" width="27.1288" height="27.1288" rx="6.65719" transform="rotate(-45 359.099 116.531)" stroke="#2660B8" stroke-width="0.5"/>
<rect x="339.621" y="116.531" width="13.3144" height="13.3144" rx="6.65719" transform="rotate(-45 339.621 116.531)" stroke="#2660B8" stroke-width="0.5"/>
<rect x="329.853" y="116.531" width="27.1288" height="27.1288" rx="6.65719" transform="rotate(-45 329.853 116.531)" stroke="#2660B8" stroke-width="0.5"/>
<rect x="310.376" y="116.531" width="13.3144" height="13.3144" rx="6.65719" transform="rotate(-45 310.376 116.531)" stroke="#2660B8" stroke-width="0.5"/>
<rect x="300.608" y="116.531" width="27.1288" height="27.1288" rx="6.65719" transform="rotate(-45 300.608 116.531)" stroke="#2660B8" stroke-width="0.5"/>
<rect x="281.13" y="116.531" width="13.3144" height="13.3144" rx="6.65719" transform="rotate(-45 281.13 116.531)" stroke="#2660B8" stroke-width="0.5"/>
<rect x="271.362" y="116.531" width="27.1288" height="27.1288" rx="6.65719" transform="rotate(-45 271.362 116.531)" stroke="#2660B8" stroke-width="0.5"/>
<rect x="251.885" y="116.531" width="13.3144" height="13.3144" rx="6.65719" transform="rotate(-45 251.885 116.531)" stroke="#2660B8" stroke-width="0.5"/>
<rect x="242.117" y="116.531" width="27.1288" height="27.1288" rx="6.65719" transform="rotate(-45 242.117 116.531)" stroke="#2660B8" stroke-width="0.5"/>
<rect x="222.639" y="116.531" width="13.3144" height="13.3144" rx="6.65719" transform="rotate(-45 222.639 116.531)" stroke="#2660B8" stroke-width="0.5"/>
<rect x="212.871" y="116.531" width="27.1288" height="27.1288" rx="6.65719" transform="rotate(-45 212.871 116.531)" stroke="#2660B8" stroke-width="0.5"/>
<rect x="193.394" y="116.531" width="13.3144" height="13.3144" rx="6.65719" transform="rotate(-45 193.394 116.531)" stroke="#2660B8" stroke-width="0.5"/>
<rect x="183.626" y="116.531" width="27.1288" height="27.1288" rx="6.65719" transform="rotate(-45 183.626 116.531)" stroke="#2660B8" stroke-width="0.5"/>
<rect x="164.148" y="116.531" width="13.3144" height="13.3144" rx="6.65719" transform="rotate(-45 164.148 116.531)" stroke="#2660B8" stroke-width="0.5"/>
<rect x="154.38" y="116.531" width="27.1288" height="27.1288" rx="6.65719" transform="rotate(-45 154.38 116.531)" stroke="#2660B8" stroke-width="0.5"/>
<rect x="134.903" y="116.531" width="13.3144" height="13.3144" rx="6.65719" transform="rotate(-45 134.903 116.531)" stroke="#2660B8" stroke-width="0.5"/>
<rect x="125.134" y="116.531" width="27.1288" height="27.1288" rx="6.65719" transform="rotate(-45 125.134 116.531)" stroke="#2660B8" stroke-width="0.5"/>
<rect x="105.657" y="116.531" width="13.3144" height="13.3144" rx="6.65719" transform="rotate(-45 105.657 116.531)" stroke="#2660B8" stroke-width="0.5"/>
<rect x="95.8891" y="116.531" width="27.1288" height="27.1288" rx="6.65719" transform="rotate(-45 95.8891 116.531)" stroke="#2660B8" stroke-width="0.5"/>
<rect x="76.4118" y="116.531" width="13.3144" height="13.3144" rx="6.65719" transform="rotate(-45 76.4118 116.531)" stroke="#2660B8" stroke-width="0.5"/>
<rect x="66.6435" y="116.531" width="27.1288" height="27.1288" rx="6.65719" transform="rotate(-45 66.6435 116.531)" stroke="#2660B8" stroke-width="0.5"/>
<rect x="47.1663" y="116.531" width="13.3144" height="13.3144" rx="6.65719" transform="rotate(-45 47.1663 116.531)" stroke="#2660B8" stroke-width="0.5"/>
<rect x="37.3975" y="116.531" width="27.1288" height="27.1288" rx="6.65719" transform="rotate(-45 37.3975 116.531)" stroke="#2660B8" stroke-width="0.5"/>
<rect x="17.9208" y="116.531" width="13.3144" height="13.3144" rx="6.65719" transform="rotate(-45 17.9208 116.531)" stroke="#2660B8" stroke-width="0.5"/>
<rect x="8.15199" y="116.531" width="27.1288" height="27.1288" rx="6.65719" transform="rotate(-45 8.15199 116.531)" stroke="#2660B8" stroke-width="0.5"/>
<rect x="-11.3252" y="116.531" width="13.3144" height="13.3144" rx="6.65719" transform="rotate(-45 -11.3252 116.531)" stroke="#2660B8" stroke-width="0.5"/>
<rect x="-21.0935" y="116.531" width="27.1288" height="27.1288" rx="6.65719" transform="rotate(-45 -21.0935 116.531)" stroke="#2660B8" stroke-width="0.5"/>
<rect x="359.098" y="87.5" width="27.1288" height="27.1288" rx="6.65719" transform="rotate(-45 359.098 87.5)" stroke="#2660B8" stroke-width="0.5"/>
<rect x="339.622" y="87.5" width="13.3144" height="13.3144" rx="6.65719" transform="rotate(-45 339.622 87.5)" stroke="#2660B8" stroke-width="0.5"/>
<rect x="329.853" y="87.5" width="27.1288" height="27.1288" rx="6.65719" transform="rotate(-45 329.853 87.5)" stroke="#2660B8" stroke-width="0.5"/>
<rect x="310.376" y="87.5" width="13.3144" height="13.3144" rx="6.65719" transform="rotate(-45 310.376 87.5)" stroke="#2660B8" stroke-width="0.5"/>
<rect x="300.608" y="87.5" width="27.1288" height="27.1288" rx="6.65719" transform="rotate(-45 300.608 87.5)" stroke="#2660B8" stroke-width="0.5"/>
<rect x="281.131" y="87.5" width="13.3144" height="13.3144" rx="6.65719" transform="rotate(-45 281.131 87.5)" stroke="#2660B8" stroke-width="0.5"/>
<rect x="271.362" y="87.5" width="27.1288" height="27.1288" rx="6.65719" transform="rotate(-45 271.362 87.5)" stroke="#2660B8" stroke-width="0.5"/>
<rect x="251.885" y="87.5" width="13.3144" height="13.3144" rx="6.65719" transform="rotate(-45 251.885 87.5)" stroke="#2660B8" stroke-width="0.5"/>
<rect x="242.117" y="87.5" width="27.1288" height="27.1288" rx="6.65719" transform="rotate(-45 242.117 87.5)" stroke="#2660B8" stroke-width="0.5"/>
<rect x="222.639" y="87.5" width="13.3144" height="13.3144" rx="6.65719" transform="rotate(-45 222.639 87.5)" stroke="#2660B8" stroke-width="0.5"/>
<rect x="212.871" y="87.5" width="27.1288" height="27.1288" rx="6.65719" transform="rotate(-45 212.871 87.5)" stroke="#2660B8" stroke-width="0.5"/>
<rect x="193.394" y="87.5" width="13.3144" height="13.3144" rx="6.65719" transform="rotate(-45 193.394 87.5)" stroke="#2660B8" stroke-width="0.5"/>
<rect x="183.626" y="87.5" width="27.1288" height="27.1288" rx="6.65719" transform="rotate(-45 183.626 87.5)" stroke="#2660B8" stroke-width="0.5"/>
<rect x="164.148" y="87.5" width="13.3144" height="13.3144" rx="6.65719" transform="rotate(-45 164.148 87.5)" stroke="#2660B8" stroke-width="0.5"/>
<rect x="154.38" y="87.5" width="27.1288" height="27.1288" rx="6.65719" transform="rotate(-45 154.38 87.5)" stroke="#2660B8" stroke-width="0.5"/>
<rect x="134.903" y="87.5" width="13.3144" height="13.3144" rx="6.65719" transform="rotate(-45 134.903 87.5)" stroke="#2660B8" stroke-width="0.5"/>
<rect x="125.134" y="87.5" width="27.1288" height="27.1288" rx="6.65719" transform="rotate(-45 125.134 87.5)" stroke="#2660B8" stroke-width="0.5"/>
<rect x="105.657" y="87.5" width="13.3144" height="13.3144" rx="6.65719" transform="rotate(-45 105.657 87.5)" stroke="#2660B8" stroke-width="0.5"/>
<rect x="95.8886" y="87.5" width="27.1288" height="27.1288" rx="6.65719" transform="rotate(-45 95.8886 87.5)" stroke="#2660B8" stroke-width="0.5"/>
<rect x="76.4112" y="87.5" width="13.3144" height="13.3144" rx="6.65719" transform="rotate(-45 76.4112 87.5)" stroke="#2660B8" stroke-width="0.5"/>
<rect x="66.6431" y="87.5" width="27.1288" height="27.1288" rx="6.65719" transform="rotate(-45 66.6431 87.5)" stroke="#2660B8" stroke-width="0.5"/>
<rect x="47.1657" y="87.5" width="13.3144" height="13.3144" rx="6.65719" transform="rotate(-45 47.1657 87.5)" stroke="#2660B8" stroke-width="0.5"/>
<rect x="37.3977" y="87.5" width="27.1288" height="27.1288" rx="6.65719" transform="rotate(-45 37.3977 87.5)" stroke="#2660B8" stroke-width="0.5"/>
<rect x="17.9202" y="87.5" width="13.3144" height="13.3144" rx="6.65719" transform="rotate(-45 17.9202 87.5)" stroke="#2660B8" stroke-width="0.5"/>
<rect x="8.15215" y="87.5" width="27.1288" height="27.1288" rx="6.65719" transform="rotate(-45 8.15215 87.5)" stroke="#2660B8" stroke-width="0.5"/>
<rect x="-11.3253" y="87.5" width="13.3144" height="13.3144" rx="6.65719" transform="rotate(-45 -11.3253 87.5)" stroke="#2660B8" stroke-width="0.5"/>
<rect x="-21.0934" y="87.5" width="27.1288" height="27.1288" rx="6.65719" transform="rotate(-45 -21.0934 87.5)" stroke="#2660B8" stroke-width="0.5"/>
<rect x="359.098" y="58.4609" width="27.1288" height="27.1288" rx="6.65719" transform="rotate(-45 359.098 58.4609)" stroke="#2660B8" stroke-width="0.5"/>
<rect x="339.621" y="58.4609" width="13.3144" height="13.3144" rx="6.65719" transform="rotate(-45 339.621 58.4609)" stroke="#2660B8" stroke-width="0.5"/>
<rect x="329.853" y="58.4609" width="27.1288" height="27.1288" rx="6.65719" transform="rotate(-45 329.853 58.4609)" stroke="#2660B8" stroke-width="0.5"/>
<rect x="310.375" y="58.4609" width="13.3144" height="13.3144" rx="6.65719" transform="rotate(-45 310.375 58.4609)" stroke="#2660B8" stroke-width="0.5"/>
<rect x="300.607" y="58.4609" width="27.1288" height="27.1288" rx="6.65719" transform="rotate(-45 300.607 58.4609)" stroke="#2660B8" stroke-width="0.5"/>
<rect x="281.13" y="58.4609" width="13.3144" height="13.3144" rx="6.65719" transform="rotate(-45 281.13 58.4609)" stroke="#2660B8" stroke-width="0.5"/>
<rect x="271.362" y="58.4609" width="27.1288" height="27.1288" rx="6.65719" transform="rotate(-45 271.362 58.4609)" stroke="#2660B8" stroke-width="0.5"/>
<rect x="251.884" y="58.4609" width="13.3144" height="13.3144" rx="6.65719" transform="rotate(-45 251.884 58.4609)" stroke="#2660B8" stroke-width="0.5"/>
<rect x="242.116" y="58.4609" width="27.1288" height="27.1288" rx="6.65719" transform="rotate(-45 242.116 58.4609)" stroke="#2660B8" stroke-width="0.5"/>
<rect x="222.639" y="58.4609" width="13.3144" height="13.3144" rx="6.65719" transform="rotate(-45 222.639 58.4609)" stroke="#2660B8" stroke-width="0.5"/>
<rect x="212.871" y="58.4609" width="27.1288" height="27.1288" rx="6.65719" transform="rotate(-45 212.871 58.4609)" stroke="#2660B8" stroke-width="0.5"/>
<rect x="193.394" y="58.4609" width="13.3144" height="13.3144" rx="6.65719" transform="rotate(-45 193.394 58.4609)" stroke="#2660B8" stroke-width="0.5"/>
<rect x="183.625" y="58.4609" width="27.1288" height="27.1288" rx="6.65719" transform="rotate(-45 183.625 58.4609)" stroke="#2660B8" stroke-width="0.5"/>
<rect x="164.148" y="58.4609" width="13.3144" height="13.3144" rx="6.65719" transform="rotate(-45 164.148 58.4609)" stroke="#2660B8" stroke-width="0.5"/>
<rect x="154.38" y="58.4609" width="27.1288" height="27.1288" rx="6.65719" transform="rotate(-45 154.38 58.4609)" stroke="#2660B8" stroke-width="0.5"/>
<rect x="134.902" y="58.4609" width="13.3144" height="13.3144" rx="6.65719" transform="rotate(-45 134.902 58.4609)" stroke="#2660B8" stroke-width="0.5"/>
<rect x="125.134" y="58.4609" width="27.1288" height="27.1288" rx="6.65719" transform="rotate(-45 125.134 58.4609)" stroke="#2660B8" stroke-width="0.5"/>
<rect x="105.657" y="58.4609" width="13.3144" height="13.3144" rx="6.65719" transform="rotate(-45 105.657 58.4609)" stroke="#2660B8" stroke-width="0.5"/>
<rect x="95.8888" y="58.4609" width="27.1288" height="27.1288" rx="6.65719" transform="rotate(-45 95.8888 58.4609)" stroke="#2660B8" stroke-width="0.5"/>
<rect x="76.4115" y="58.4609" width="13.3144" height="13.3144" rx="6.65719" transform="rotate(-45 76.4115 58.4609)" stroke="#2660B8" stroke-width="0.5"/>
<rect x="66.6433" y="58.4609" width="27.1288" height="27.1288" rx="6.65719" transform="rotate(-45 66.6433 58.4609)" stroke="#2660B8" stroke-width="0.5"/>
<rect x="47.166" y="58.4609" width="13.3144" height="13.3144" rx="6.65719" transform="rotate(-45 47.166 58.4609)" stroke="#2660B8" stroke-width="0.5"/>
<rect x="37.3977" y="58.4609" width="27.1288" height="27.1288" rx="6.65719" transform="rotate(-45 37.3977 58.4609)" stroke="#2660B8" stroke-width="0.5"/>
<rect x="17.9205" y="58.4609" width="13.3144" height="13.3144" rx="6.65719" transform="rotate(-45 17.9205 58.4609)" stroke="#2660B8" stroke-width="0.5"/>
<rect x="8.15223" y="58.4609" width="27.1288" height="27.1288" rx="6.65719" transform="rotate(-45 8.15223 58.4609)" stroke="#2660B8" stroke-width="0.5"/>
<rect x="-11.325" y="58.4609" width="13.3144" height="13.3144" rx="6.65719" transform="rotate(-45 -11.325 58.4609)" stroke="#2660B8" stroke-width="0.5"/>
<rect x="-21.0933" y="58.4609" width="27.1288" height="27.1288" rx="6.65719" transform="rotate(-45 -21.0933 58.4609)" stroke="#2660B8" stroke-width="0.5"/>
<rect x="359.099" y="29.4297" width="27.1288" height="27.1288" rx="6.65719" transform="rotate(-45 359.099 29.4297)" stroke="#2660B8" stroke-width="0.5"/>
<rect x="339.622" y="29.4297" width="13.3144" height="13.3144" rx="6.65719" transform="rotate(-45 339.622 29.4297)" stroke="#2660B8" stroke-width="0.5"/>
<rect x="329.853" y="29.4297" width="27.1288" height="27.1288" rx="6.65719" transform="rotate(-45 329.853 29.4297)" stroke="#2660B8" stroke-width="0.5"/>
<rect x="310.376" y="29.4297" width="13.3144" height="13.3144" rx="6.65719" transform="rotate(-45 310.376 29.4297)" stroke="#2660B8" stroke-width="0.5"/>
<rect x="300.608" y="29.4297" width="27.1288" height="27.1288" rx="6.65719" transform="rotate(-45 300.608 29.4297)" stroke="#2660B8" stroke-width="0.5"/>
<rect x="281.131" y="29.4297" width="13.3144" height="13.3144" rx="6.65719" transform="rotate(-45 281.131 29.4297)" stroke="#2660B8" stroke-width="0.5"/>
<rect x="271.362" y="29.4297" width="27.1288" height="27.1288" rx="6.65719" transform="rotate(-45 271.362 29.4297)" stroke="#2660B8" stroke-width="0.5"/>
<rect x="251.885" y="29.4297" width="13.3144" height="13.3144" rx="6.65719" transform="rotate(-45 251.885 29.4297)" stroke="#2660B8" stroke-width="0.5"/>
<rect x="242.116" y="29.4297" width="27.1288" height="27.1288" rx="6.65719" transform="rotate(-45 242.116 29.4297)" stroke="#2660B8" stroke-width="0.5"/>
<rect x="222.639" y="29.4297" width="13.3144" height="13.3144" rx="6.65719" transform="rotate(-45 222.639 29.4297)" stroke="#2660B8" stroke-width="0.5"/>
<rect x="212.871" y="29.4297" width="27.1288" height="27.1288" rx="6.65719" transform="rotate(-45 212.871 29.4297)" stroke="#2660B8" stroke-width="0.5"/>
<rect x="193.394" y="29.4297" width="13.3144" height="13.3144" rx="6.65719" transform="rotate(-45 193.394 29.4297)" stroke="#2660B8" stroke-width="0.5"/>
<rect x="183.625" y="29.4297" width="27.1288" height="27.1288" rx="6.65719" transform="rotate(-45 183.625 29.4297)" stroke="#2660B8" stroke-width="0.5"/>
<rect x="164.148" y="29.4297" width="13.3144" height="13.3144" rx="6.65719" transform="rotate(-45 164.148 29.4297)" stroke="#2660B8" stroke-width="0.5"/>
<rect x="154.38" y="29.4297" width="27.1288" height="27.1288" rx="6.65719" transform="rotate(-45 154.38 29.4297)" stroke="#2660B8" stroke-width="0.5"/>
<rect x="134.902" y="29.4297" width="13.3144" height="13.3144" rx="6.65719" transform="rotate(-45 134.902 29.4297)" stroke="#2660B8" stroke-width="0.5"/>
<rect x="125.134" y="29.4297" width="27.1288" height="27.1288" rx="6.65719" transform="rotate(-45 125.134 29.4297)" stroke="#2660B8" stroke-width="0.5"/>
<rect x="105.657" y="29.4297" width="13.3144" height="13.3144" rx="6.65719" transform="rotate(-45 105.657 29.4297)" stroke="#2660B8" stroke-width="0.5"/>
<rect x="95.8889" y="29.4297" width="27.1288" height="27.1288" rx="6.65719" transform="rotate(-45 95.8889 29.4297)" stroke="#2660B8" stroke-width="0.5"/>
<rect x="76.4113" y="29.4297" width="13.3144" height="13.3144" rx="6.65719" transform="rotate(-45 76.4113 29.4297)" stroke="#2660B8" stroke-width="0.5"/>
<rect x="66.6429" y="29.4297" width="27.1288" height="27.1288" rx="6.65719" transform="rotate(-45 66.6429 29.4297)" stroke="#2660B8" stroke-width="0.5"/>
<rect x="47.1659" y="29.4297" width="13.3144" height="13.3144" rx="6.65719" transform="rotate(-45 47.1659 29.4297)" stroke="#2660B8" stroke-width="0.5"/>
<rect x="37.3978" y="29.4297" width="27.1288" height="27.1288" rx="6.65719" transform="rotate(-45 37.3978 29.4297)" stroke="#2660B8" stroke-width="0.5"/>
<rect x="17.9204" y="29.4297" width="13.3144" height="13.3144" rx="6.65719" transform="rotate(-45 17.9204 29.4297)" stroke="#2660B8" stroke-width="0.5"/>
<rect x="8.15234" y="29.4297" width="27.1288" height="27.1288" rx="6.65719" transform="rotate(-45 8.15234 29.4297)" stroke="#2660B8" stroke-width="0.5"/>
<rect x="-11.3251" y="29.4297" width="13.3144" height="13.3144" rx="6.65719" transform="rotate(-45 -11.3251 29.4297)" stroke="#2660B8" stroke-width="0.5"/>
<rect x="-21.0932" y="29.4297" width="27.1288" height="27.1288" rx="6.65719" transform="rotate(-45 -21.0932 29.4297)" stroke="#2660B8" stroke-width="0.5"/>
<rect x="359.099" y="0.398438" width="27.1288" height="27.1288" rx="6.65719" transform="rotate(-45 359.099 0.398438)" stroke="#2660B8" stroke-width="0.5"/>
<rect x="339.621" y="0.398438" width="13.3144" height="13.3144" rx="6.65719" transform="rotate(-45 339.621 0.398438)" stroke="#2660B8" stroke-width="0.5"/>
<rect x="329.853" y="0.398438" width="27.1288" height="27.1288" rx="6.65719" transform="rotate(-45 329.853 0.398438)" stroke="#2660B8" stroke-width="0.5"/>
<rect x="310.376" y="0.398438" width="13.3144" height="13.3144" rx="6.65719" transform="rotate(-45 310.376 0.398438)" stroke="#2660B8" stroke-width="0.5"/>
<rect x="300.608" y="0.398438" width="27.1288" height="27.1288" rx="6.65719" transform="rotate(-45 300.608 0.398438)" stroke="#2660B8" stroke-width="0.5"/>
<rect x="281.13" y="0.398438" width="13.3144" height="13.3144" rx="6.65719" transform="rotate(-45 281.13 0.398438)" stroke="#2660B8" stroke-width="0.5"/>
<rect x="271.362" y="0.398438" width="27.1288" height="27.1288" rx="6.65719" transform="rotate(-45 271.362 0.398438)" stroke="#2660B8" stroke-width="0.5"/>
<rect x="251.885" y="0.398438" width="13.3144" height="13.3144" rx="6.65719" transform="rotate(-45 251.885 0.398438)" stroke="#2660B8" stroke-width="0.5"/>
<rect x="242.117" y="0.398438" width="27.1288" height="27.1288" rx="6.65719" transform="rotate(-45 242.117 0.398438)" stroke="#2660B8" stroke-width="0.5"/>
<rect x="222.639" y="0.398438" width="13.3144" height="13.3144" rx="6.65719" transform="rotate(-45 222.639 0.398438)" stroke="#2660B8" stroke-width="0.5"/>
<rect x="212.871" y="0.398438" width="27.1288" height="27.1288" rx="6.65719" transform="rotate(-45 212.871 0.398438)" stroke="#2660B8" stroke-width="0.5"/>
<rect x="193.394" y="0.398438" width="13.3144" height="13.3144" rx="6.65719" transform="rotate(-45 193.394 0.398438)" stroke="#2660B8" stroke-width="0.5"/>
<rect x="183.626" y="0.398438" width="27.1288" height="27.1288" rx="6.65719" transform="rotate(-45 183.626 0.398438)" stroke="#2660B8" stroke-width="0.5"/>
<rect x="164.148" y="0.398438" width="13.3144" height="13.3144" rx="6.65719" transform="rotate(-45 164.148 0.398438)" stroke="#2660B8" stroke-width="0.5"/>
<rect x="154.38" y="0.398438" width="27.1288" height="27.1288" rx="6.65719" transform="rotate(-45 154.38 0.398438)" stroke="#2660B8" stroke-width="0.5"/>
<rect x="134.903" y="0.398438" width="13.3144" height="13.3144" rx="6.65719" transform="rotate(-45 134.903 0.398438)" stroke="#2660B8" stroke-width="0.5"/>
<rect x="125.135" y="0.398438" width="27.1288" height="27.1288" rx="6.65719" transform="rotate(-45 125.135 0.398438)" stroke="#2660B8" stroke-width="0.5"/>
<rect x="105.657" y="0.398438" width="13.3144" height="13.3144" rx="6.65719" transform="rotate(-45 105.657 0.398438)" stroke="#2660B8" stroke-width="0.5"/>
<rect x="95.8885" y="0.398438" width="27.1288" height="27.1288" rx="6.65719" transform="rotate(-45 95.8885 0.398438)" stroke="#2660B8" stroke-width="0.5"/>
<rect x="76.4117" y="0.398438" width="13.3144" height="13.3144" rx="6.65719" transform="rotate(-45 76.4117 0.398438)" stroke="#2660B8" stroke-width="0.5"/>
<rect x="66.6435" y="0.398438" width="27.1288" height="27.1288" rx="6.65719" transform="rotate(-45 66.6435 0.398438)" stroke="#2660B8" stroke-width="0.5"/>
<rect x="47.1662" y="0.398438" width="13.3144" height="13.3144" rx="6.65719" transform="rotate(-45 47.1662 0.398438)" stroke="#2660B8" stroke-width="0.5"/>
<rect x="37.398" y="0.398438" width="27.1288" height="27.1288" rx="6.65719" transform="rotate(-45 37.398 0.398438)" stroke="#2660B8" stroke-width="0.5"/>
<rect x="17.9202" y="0.398438" width="13.3144" height="13.3144" rx="6.65719" transform="rotate(-45 17.9202 0.398438)" stroke="#2660B8" stroke-width="0.5"/>
<rect x="8.15197" y="0.398438" width="27.1288" height="27.1288" rx="6.65719" transform="rotate(-45 8.15197 0.398438)" stroke="#2660B8" stroke-width="0.5"/>
<rect x="-11.3248" y="0.398438" width="13.3144" height="13.3144" rx="6.65719" transform="rotate(-45 -11.3248 0.398438)" stroke="#2660B8" stroke-width="0.5"/>
<rect x="-21.0935" y="0.398438" width="27.1288" height="27.1288" rx="6.65719" transform="rotate(-45 -21.0935 0.398438)" stroke="#2660B8" stroke-width="0.5"/>
</g>
<path d="M177.973 49.9376C180.372 48.1873 183.628 48.1873 186.027 49.9376L209.088 66.7593C210.261 67.6149 211.676 68.0747 213.128 68.072L241.672 68.0176C244.642 68.012 247.275 69.9254 248.188 72.7517L256.957 99.9155C257.403 101.297 258.277 102.501 259.453 103.352L282.578 120.086C284.984 121.827 285.99 124.923 285.067 127.746L276.195 154.876C275.743 156.256 275.743 157.744 276.195 159.124L285.067 186.254C285.99 189.077 284.984 192.173 282.578 193.914L259.453 210.648C258.277 211.499 257.403 212.703 256.957 214.085L248.188 241.248C247.275 244.075 244.642 245.988 241.672 245.982L213.128 245.928C211.676 245.925 210.261 246.385 209.088 247.241L186.027 264.062C183.628 265.813 180.372 265.813 177.973 264.062L154.912 247.241C153.739 246.385 152.324 245.925 150.872 245.928L122.328 245.982C119.358 245.988 116.725 244.075 115.812 241.248L107.043 214.085C106.597 212.703 105.723 211.499 104.547 210.648L81.422 193.914C79.0159 192.173 78.01 189.077 78.9331 186.254L87.8054 159.124C88.2567 157.744 88.2567 156.256 87.8054 154.876L78.9331 127.746C78.01 124.923 79.0159 121.827 81.422 120.086L104.547 103.352C105.723 102.501 106.597 101.297 107.043 99.9155L115.812 72.7517C116.725 69.9254 119.358 68.012 122.328 68.0176L150.872 68.072C152.324 68.0747 153.739 67.6149 154.912 66.7593L177.973 49.9376Z" fill="#2660B8"/>
<path d="M190.5 122C192.958 122 195.373 122.647 197.501 123.876C199.63 125.105 201.398 126.872 202.627 129.001C203.855 131.13 204.502 133.545 204.502 136.003C204.501 138.461 203.854 140.875 202.624 143.004L218.5 143V150H211.5V185C211.5 185.928 211.131 186.819 210.475 187.475C209.818 188.131 208.928 188.5 208 188.5H152C151.072 188.5 150.182 188.131 149.525 187.475C148.869 186.819 148.5 185.928 148.5 185V150H141.5V143L157.376 143.004C155.64 139.997 155.082 136.452 155.813 133.057C156.543 129.663 158.509 126.661 161.329 124.634C164.148 122.607 167.62 121.701 171.071 122.091C174.521 122.48 177.703 124.138 180 126.743C181.311 125.249 182.926 124.054 184.737 123.236C186.548 122.418 188.513 121.997 190.5 122ZM176.5 150H155.5V181.5H176.5V150ZM204.5 150H183.5V181.5H204.5V150ZM169.5 129C167.684 128.992 165.935 129.69 164.624 130.947C163.313 132.205 162.542 133.922 162.474 135.737C162.405 137.552 163.046 139.323 164.259 140.675C165.472 142.027 167.163 142.854 168.975 142.983L169.5 143H176.5V136C176.5 134.327 175.901 132.71 174.812 131.44C173.722 130.171 172.214 129.334 170.561 129.081L170.021 129.018L169.5 129ZM190.5 129C188.734 128.999 187.033 129.666 185.738 130.867C184.443 132.068 183.65 133.714 183.518 135.475L183.5 136V143H190.5C192.266 143.001 193.967 142.334 195.262 141.133C196.557 139.932 197.35 138.286 197.483 136.525L197.5 136C197.5 134.144 196.763 132.363 195.45 131.05C194.137 129.738 192.357 129 190.5 129Z" fill="black" fill-opacity="0.2"/>
</svg>
