<svg width="364" height="314" viewBox="0 0 364 314" fill="none" xmlns="http://www.w3.org/2000/svg">
<rect width="364" height="314" rx="10" fill="#2AACAC"/>
<mask id="mask0_3582_227108" style="mask-type:alpha" maskUnits="userSpaceOnUse" x="0" y="0" width="364" height="314">
<rect width="364" height="314" rx="10" fill="#2AACAC"/>
</mask>
<g mask="url(#mask0_3582_227108)">
<rect x="6.93616" y="329.599" width="31.4189" height="31.4189" rx="7.87101" transform="rotate(-30 6.93616 329.599)" stroke="#0FA4A4" stroke-width="0.542828"/>
<path d="M21.5902 326.835L20.7963 322.187L24.4245 325.198C27.8988 328.082 32.4596 329.304 36.9103 328.544L41.5582 327.75L38.5466 331.378C35.6628 334.853 34.4408 339.413 35.2011 343.864L35.995 348.512L32.3668 345.5C28.8925 342.617 24.3317 341.395 19.881 342.155L15.2331 342.949L18.2447 339.321C21.1285 335.846 22.3505 331.285 21.5902 326.835Z" stroke="#0FA4A4" stroke-width="0.542828"/>
<rect x="34.6158" y="313.623" width="31.4189" height="31.4189" rx="7.87101" transform="rotate(-30 34.6158 313.623)" stroke="#0FA4A4" stroke-width="0.542828"/>
<path d="M49.2699 310.858L48.4759 306.21L52.1041 309.222C55.5784 312.106 60.1392 313.328 64.59 312.567L69.2378 311.773L66.2263 315.402C63.3425 318.876 62.1204 323.437 62.8807 327.887L63.6747 332.535L60.0465 329.524C56.5722 326.64 52.0114 325.418 47.5607 326.178L42.9128 326.972L45.9243 323.344C48.8081 319.87 50.0302 315.309 49.2699 310.858Z" stroke="#0FA4A4" stroke-width="0.542828"/>
<rect x="62.2955" y="297.638" width="31.4189" height="31.4189" rx="7.87101" transform="rotate(-30 62.2955 297.638)" stroke="#0FA4A4" stroke-width="0.542828"/>
<path d="M76.9495 294.874L76.1556 290.226L79.7838 293.237C83.2581 296.121 87.8189 297.343 92.2696 296.583L96.9175 295.789L93.906 299.417C91.0222 302.892 89.8001 307.452 90.5604 311.903L91.3543 316.551L87.7262 313.539C84.2518 310.656 79.6911 309.434 75.2403 310.194L70.5925 310.988L73.604 307.36C76.4878 303.885 77.7098 299.325 76.9495 294.874Z" stroke="#0FA4A4" stroke-width="0.542828"/>
<rect x="89.9751" y="281.662" width="31.4189" height="31.4189" rx="7.87101" transform="rotate(-30 89.9751 281.662)" stroke="#0FA4A4" stroke-width="0.542828"/>
<path d="M104.629 278.897L103.835 274.249L107.463 277.261C110.938 280.145 115.499 281.367 119.949 280.606L124.597 279.813L121.586 283.441C118.702 286.915 117.48 291.476 118.24 295.927L119.034 300.574L115.406 297.563C111.932 294.679 107.371 293.457 102.92 294.217L98.2721 295.011L101.284 291.383C104.167 287.909 105.389 283.348 104.629 278.897Z" stroke="#0FA4A4" stroke-width="0.542828"/>
<rect x="117.655" y="265.677" width="31.4189" height="31.4189" rx="7.87101" transform="rotate(-30 117.655 265.677)" stroke="#0FA4A4" stroke-width="0.542828"/>
<path d="M132.309 262.913L131.515 258.265L135.143 261.277C138.617 264.16 143.178 265.382 147.629 264.622L152.277 263.828L149.265 267.456C146.381 270.931 145.159 275.491 145.92 279.942L146.714 284.59L143.085 281.579C139.611 278.695 135.05 277.473 130.6 278.233L125.952 279.027L128.963 275.399C131.847 271.924 133.069 267.364 132.309 262.913Z" stroke="#0FA4A4" stroke-width="0.542828"/>
<rect x="145.334" y="249.701" width="31.4189" height="31.4189" rx="7.87101" transform="rotate(-30 145.334 249.701)" stroke="#0FA4A4" stroke-width="0.542828"/>
<path d="M159.988 246.936L159.194 242.288L162.823 245.3C166.297 248.184 170.858 249.406 175.309 248.646L179.956 247.852L176.945 251.48C174.061 254.954 172.839 259.515 173.599 263.966L174.393 268.613L170.765 265.602C167.291 262.718 162.73 261.496 158.279 262.256L153.631 263.05L156.643 259.422C159.527 255.948 160.749 251.387 159.988 246.936Z" stroke="#0FA4A4" stroke-width="0.542828"/>
<rect x="173.014" y="233.717" width="31.4189" height="31.4189" rx="7.87101" transform="rotate(-30 173.014 233.717)" stroke="#0FA4A4" stroke-width="0.542828"/>
<path d="M187.668 230.952L186.874 226.304L190.502 229.316C193.977 232.199 198.537 233.421 202.988 232.661L207.636 231.867L204.625 235.495C201.741 238.97 200.519 243.53 201.279 247.981L202.073 252.629L198.445 249.618C194.97 246.734 190.41 245.512 185.959 246.272L181.311 247.066L184.323 243.438C187.206 239.963 188.428 235.403 187.668 230.952Z" stroke="#0FA4A4" stroke-width="0.542828"/>
<rect x="200.694" y="217.74" width="31.4189" height="31.4189" rx="7.87101" transform="rotate(-30 200.694 217.74)" stroke="#0FA4A4" stroke-width="0.542828"/>
<path d="M215.348 214.975L214.554 210.328L218.182 213.339C221.656 216.223 226.217 217.445 230.668 216.685L235.316 215.891L232.304 219.519C229.42 222.993 228.198 227.554 228.959 232.005L229.753 236.653L226.124 233.641C222.65 230.757 218.089 229.535 213.639 230.295L208.991 231.089L212.002 227.461C214.886 223.987 216.108 219.426 215.348 214.975Z" stroke="#0FA4A4" stroke-width="0.542828"/>
<rect x="228.373" y="201.756" width="31.4189" height="31.4189" rx="7.87101" transform="rotate(-30 228.373 201.756)" stroke="#0FA4A4" stroke-width="0.542828"/>
<path d="M243.027 198.991L242.233 194.343L245.862 197.355C249.336 200.238 253.897 201.461 258.347 200.7L262.995 199.906L259.984 203.534C257.1 207.009 255.878 211.57 256.638 216.02L257.432 220.668L253.804 217.657C250.33 214.773 245.769 213.551 241.318 214.311L236.67 215.105L239.682 211.477C242.566 208.003 243.788 203.442 243.027 198.991Z" stroke="#0FA4A4" stroke-width="0.542828"/>
<rect x="256.053" y="185.779" width="31.4189" height="31.4189" rx="7.87101" transform="rotate(-30 256.053 185.779)" stroke="#0FA4A4" stroke-width="0.542828"/>
<path d="M270.707 183.014L269.913 178.367L273.541 181.378C277.016 184.262 281.576 185.484 286.027 184.724L290.675 183.93L287.664 187.558C284.78 191.032 283.558 195.593 284.318 200.044L285.112 204.692L281.484 201.68C278.009 198.796 273.449 197.574 268.998 198.335L264.35 199.128L267.362 195.5C270.245 192.026 271.467 187.465 270.707 183.014Z" stroke="#0FA4A4" stroke-width="0.542828"/>
<rect x="283.733" y="169.795" width="31.4189" height="31.4189" rx="7.87101" transform="rotate(-30 283.733 169.795)" stroke="#0FA4A4" stroke-width="0.542828"/>
<path d="M298.387 167.03L297.593 162.382L301.221 165.394C304.695 168.278 309.256 169.5 313.707 168.739L318.355 167.945L315.343 171.574C312.459 175.048 311.237 179.609 311.998 184.059L312.791 188.707L309.163 185.696C305.689 182.812 301.128 181.59 296.677 182.35L292.03 183.144L295.041 179.516C297.925 176.042 299.147 171.481 298.387 167.03Z" stroke="#0FA4A4" stroke-width="0.542828"/>
<rect x="311.412" y="153.81" width="31.4189" height="31.4189" rx="7.87101" transform="rotate(-30 311.412 153.81)" stroke="#0FA4A4" stroke-width="0.542828"/>
<path d="M326.066 151.046L325.272 146.398L328.901 149.409C332.375 152.293 336.936 153.515 341.386 152.755L346.034 151.961L343.023 155.589C340.139 159.063 338.917 163.624 339.677 168.075L340.471 172.723L336.843 169.711C333.369 166.828 328.808 165.605 324.357 166.366L319.709 167.16L322.721 163.532C325.605 160.057 326.827 155.496 326.066 151.046Z" stroke="#0FA4A4" stroke-width="0.542828"/>
<rect x="339.092" y="137.834" width="31.4189" height="31.4189" rx="7.87101" transform="rotate(-30 339.092 137.834)" stroke="#0FA4A4" stroke-width="0.542828"/>
<path d="M353.746 135.069L352.952 130.421L356.58 133.433C360.055 136.317 364.615 137.539 369.066 136.778L373.714 135.984L370.702 139.613C367.819 143.087 366.597 147.648 367.357 152.098L368.151 156.746L364.523 153.735C361.048 150.851 356.488 149.629 352.037 150.389L347.389 151.183L350.4 147.555C353.284 144.081 354.506 139.52 353.746 135.069Z" stroke="#0FA4A4" stroke-width="0.542828"/>
<rect x="89.9746" y="317.912" width="31.4189" height="31.4189" rx="7.87101" transform="rotate(-30 89.9746 317.912)" stroke="#0FA4A4" stroke-width="0.542828"/>
<path d="M104.629 315.147L103.835 310.499L107.463 313.511C110.937 316.395 115.498 317.617 119.949 316.856L124.597 316.063L121.585 319.691C118.701 323.165 117.479 327.726 118.24 332.177L119.033 336.824L115.405 333.813C111.931 330.929 107.37 329.707 102.919 330.467L98.2716 331.261L101.283 327.633C104.167 324.159 105.389 319.598 104.629 315.147Z" stroke="#0FA4A4" stroke-width="0.542828"/>
<rect x="117.654" y="301.927" width="31.4189" height="31.4189" rx="7.87101" transform="rotate(-30 117.654 301.927)" stroke="#0FA4A4" stroke-width="0.542828"/>
<path d="M132.308 299.163L131.514 294.515L135.143 297.527C138.617 300.41 143.178 301.632 147.628 300.872L152.276 300.078L149.265 303.706C146.381 307.181 145.159 311.741 145.919 316.192L146.713 320.84L143.085 317.829C139.611 314.945 135.05 313.723 130.599 314.483L125.951 315.277L128.963 311.649C131.847 308.174 133.069 303.614 132.308 299.163Z" stroke="#0FA4A4" stroke-width="0.542828"/>
<rect x="145.334" y="285.951" width="31.4189" height="31.4189" rx="7.87101" transform="rotate(-30 145.334 285.951)" stroke="#0FA4A4" stroke-width="0.542828"/>
<path d="M159.988 283.186L159.194 278.538L162.822 281.55C166.296 284.434 170.857 285.656 175.308 284.896L179.956 284.102L176.944 287.73C174.061 291.204 172.838 295.765 173.599 300.216L174.393 304.863L170.765 301.852C167.29 298.968 162.729 297.746 158.279 298.506L153.631 299.3L156.642 295.672C159.526 292.198 160.748 287.637 159.988 283.186Z" stroke="#0FA4A4" stroke-width="0.542828"/>
<rect x="173.014" y="269.967" width="31.4189" height="31.4189" rx="7.87101" transform="rotate(-30 173.014 269.967)" stroke="#0FA4A4" stroke-width="0.542828"/>
<path d="M187.668 267.202L186.874 262.554L190.502 265.566C193.976 268.449 198.537 269.671 202.988 268.911L207.636 268.117L204.624 271.745C201.74 275.22 200.518 279.78 201.278 284.231L202.072 288.879L198.444 285.868C194.97 282.984 190.409 281.762 185.958 282.522L181.31 283.316L184.322 279.688C187.206 276.213 188.428 271.653 187.668 267.202Z" stroke="#0FA4A4" stroke-width="0.542828"/>
<rect x="200.693" y="253.99" width="31.4189" height="31.4189" rx="7.87101" transform="rotate(-30 200.693 253.99)" stroke="#0FA4A4" stroke-width="0.542828"/>
<path d="M215.347 251.225L214.553 246.578L218.181 249.589C221.656 252.473 226.217 253.695 230.667 252.935L235.315 252.141L232.304 255.769C229.42 259.243 228.198 263.804 228.958 268.255L229.752 272.903L226.124 269.891C222.65 267.007 218.089 265.785 213.638 266.545L208.99 267.339L212.002 263.711C214.885 260.237 216.108 255.676 215.347 251.225Z" stroke="#0FA4A4" stroke-width="0.542828"/>
<rect x="228.373" y="238.006" width="31.4189" height="31.4189" rx="7.87101" transform="rotate(-30 228.373 238.006)" stroke="#0FA4A4" stroke-width="0.542828"/>
<path d="M243.027 235.241L242.233 230.593L245.861 233.605C249.335 236.488 253.896 237.711 258.347 236.95L262.995 236.156L259.983 239.784C257.1 243.259 255.877 247.82 256.638 252.27L257.432 256.918L253.804 253.907C250.329 251.023 245.768 249.801 241.318 250.561L236.67 251.355L239.681 247.727C242.565 244.253 243.787 239.692 243.027 235.241Z" stroke="#0FA4A4" stroke-width="0.542828"/>
<rect x="256.053" y="222.029" width="31.4189" height="31.4189" rx="7.87101" transform="rotate(-30 256.053 222.029)" stroke="#0FA4A4" stroke-width="0.542828"/>
<path d="M270.707 219.264L269.913 214.617L273.541 217.628C277.015 220.512 281.576 221.734 286.027 220.974L290.675 220.18L287.663 223.808C284.779 227.282 283.557 231.843 284.317 236.294L285.111 240.942L281.483 237.93C278.009 235.046 273.448 233.824 268.997 234.585L264.35 235.378L267.361 231.75C270.245 228.276 271.467 223.715 270.707 219.264Z" stroke="#0FA4A4" stroke-width="0.542828"/>
<rect x="283.732" y="206.045" width="31.4189" height="31.4189" rx="7.87101" transform="rotate(-30 283.732 206.045)" stroke="#0FA4A4" stroke-width="0.542828"/>
<path d="M298.386 203.28L297.592 198.632L301.22 201.644C304.695 204.528 309.255 205.75 313.706 204.989L318.354 204.195L315.343 207.824C312.459 211.298 311.237 215.859 311.997 220.309L312.791 224.957L309.163 221.946C305.688 219.062 301.128 217.84 296.677 218.6L292.029 219.394L295.041 215.766C297.924 212.292 299.146 207.731 298.386 203.28Z" stroke="#0FA4A4" stroke-width="0.542828"/>
<rect x="311.412" y="190.06" width="31.4189" height="31.4189" rx="7.87101" transform="rotate(-30 311.412 190.06)" stroke="#0FA4A4" stroke-width="0.542828"/>
<path d="M326.066 187.296L325.272 182.648L328.9 185.659C332.374 188.543 336.935 189.765 341.386 189.005L346.034 188.211L343.022 191.839C340.138 195.313 338.916 199.874 339.677 204.325L340.471 208.973L336.842 205.961C333.368 203.078 328.807 201.855 324.357 202.616L319.709 203.41L322.72 199.782C325.604 196.307 326.826 191.746 326.066 187.296Z" stroke="#0FA4A4" stroke-width="0.542828"/>
<rect x="339.091" y="174.084" width="31.4189" height="31.4189" rx="7.87101" transform="rotate(-30 339.091 174.084)" stroke="#0FA4A4" stroke-width="0.542828"/>
<path d="M353.745 171.319L352.952 166.671L356.58 169.683C360.054 172.567 364.615 173.789 369.066 173.028L373.713 172.234L370.702 175.863C367.818 179.337 366.596 183.898 367.356 188.348L368.15 192.996L364.522 189.985C361.048 187.101 356.487 185.879 352.036 186.639L347.388 187.433L350.4 183.805C353.284 180.331 354.506 175.77 353.745 171.319Z" stroke="#0FA4A4" stroke-width="0.542828"/>
<rect x="145.333" y="321.951" width="31.4189" height="31.4189" rx="7.87101" transform="rotate(-30 145.333 321.951)" stroke="#0FA4A4" stroke-width="0.542828"/>
<path d="M159.987 319.186L159.193 314.538L162.821 317.55C166.295 320.434 170.856 321.656 175.307 320.896L179.955 320.102L176.943 323.73C174.06 327.204 172.837 331.765 173.598 336.216L174.392 340.863L170.764 337.852C167.289 334.968 162.728 333.746 158.278 334.506L153.63 335.3L156.641 331.672C159.525 328.198 160.747 323.637 159.987 319.186Z" stroke="#0FA4A4" stroke-width="0.542828"/>
<rect x="173.013" y="305.967" width="31.4189" height="31.4189" rx="7.87101" transform="rotate(-30 173.013 305.967)" stroke="#0FA4A4" stroke-width="0.542828"/>
<path d="M187.667 303.202L186.873 298.554L190.501 301.566C193.975 304.449 198.536 305.671 202.987 304.911L207.635 304.117L204.623 307.745C201.739 311.22 200.517 315.78 201.277 320.231L202.071 324.879L198.443 321.868C194.969 318.984 190.408 317.762 185.957 318.522L181.309 319.316L184.321 315.688C187.205 312.213 188.427 307.653 187.667 303.202Z" stroke="#0FA4A4" stroke-width="0.542828"/>
<rect x="200.692" y="289.99" width="31.4189" height="31.4189" rx="7.87101" transform="rotate(-30 200.692 289.99)" stroke="#0FA4A4" stroke-width="0.542828"/>
<path d="M215.346 287.225L214.552 282.578L218.18 285.589C221.655 288.473 226.216 289.695 230.666 288.935L235.314 288.141L232.303 291.769C229.419 295.243 228.197 299.804 228.957 304.255L229.751 308.903L226.123 305.891C222.649 303.007 218.088 301.785 213.637 302.545L208.989 303.339L212.001 299.711C214.884 296.237 216.107 291.676 215.346 287.225Z" stroke="#0FA4A4" stroke-width="0.542828"/>
<rect x="228.372" y="274.006" width="31.4189" height="31.4189" rx="7.87101" transform="rotate(-30 228.372 274.006)" stroke="#0FA4A4" stroke-width="0.542828"/>
<path d="M243.026 271.241L242.232 266.593L245.86 269.605C249.334 272.488 253.895 273.711 258.346 272.95L262.994 272.156L259.982 275.784C257.099 279.259 255.876 283.82 256.637 288.27L257.431 292.918L253.803 289.907C250.328 287.023 245.767 285.801 241.317 286.561L236.669 287.355L239.68 283.727C242.564 280.253 243.786 275.692 243.026 271.241Z" stroke="#0FA4A4" stroke-width="0.542828"/>
<rect x="256.052" y="258.029" width="31.4189" height="31.4189" rx="7.87101" transform="rotate(-30 256.052 258.029)" stroke="#0FA4A4" stroke-width="0.542828"/>
<path d="M270.706 255.264L269.912 250.617L273.54 253.628C277.014 256.512 281.575 257.734 286.026 256.974L290.674 256.18L287.662 259.808C284.778 263.282 283.556 267.843 284.316 272.294L285.11 276.942L281.482 273.93C278.008 271.046 273.447 269.824 268.996 270.585L264.349 271.378L267.36 267.75C270.244 264.276 271.466 259.715 270.706 255.264Z" stroke="#0FA4A4" stroke-width="0.542828"/>
<rect x="283.731" y="242.045" width="31.4189" height="31.4189" rx="7.87101" transform="rotate(-30 283.731 242.045)" stroke="#0FA4A4" stroke-width="0.542828"/>
<path d="M298.385 239.28L297.591 234.632L301.219 237.644C304.694 240.528 309.254 241.75 313.705 240.989L318.353 240.195L315.342 243.824C312.458 247.298 311.236 251.859 311.996 256.309L312.79 260.957L309.162 257.946C305.687 255.062 301.127 253.84 296.676 254.6L292.028 255.394L295.04 251.766C297.923 248.292 299.145 243.731 298.385 239.28Z" stroke="#0FA4A4" stroke-width="0.542828"/>
<rect x="311.411" y="226.06" width="31.4189" height="31.4189" rx="7.87101" transform="rotate(-30 311.411 226.06)" stroke="#0FA4A4" stroke-width="0.542828"/>
<path d="M326.065 223.296L325.271 218.648L328.899 221.659C332.373 224.543 336.934 225.765 341.385 225.005L346.033 224.211L343.021 227.839C340.137 231.313 338.915 235.874 339.676 240.325L340.47 244.973L336.841 241.961C333.367 239.078 328.806 237.855 324.356 238.616L319.708 239.41L322.719 235.782C325.603 232.307 326.825 227.746 326.065 223.296Z" stroke="#0FA4A4" stroke-width="0.542828"/>
<rect x="339.09" y="210.084" width="31.4189" height="31.4189" rx="7.87101" transform="rotate(-30 339.09 210.084)" stroke="#0FA4A4" stroke-width="0.542828"/>
<path d="M353.744 207.319L352.951 202.671L356.579 205.683C360.053 208.567 364.614 209.789 369.065 209.028L373.712 208.234L370.701 211.863C367.817 215.337 366.595 219.898 367.355 224.348L368.149 228.996L364.521 225.985C361.047 223.101 356.486 221.879 352.035 222.639L347.387 223.433L350.399 219.805C353.283 216.331 354.505 211.77 353.744 207.319Z" stroke="#0FA4A4" stroke-width="0.542828"/>
<rect x="200.693" y="325.99" width="31.4189" height="31.4189" rx="7.87101" transform="rotate(-30 200.693 325.99)" stroke="#0FA4A4" stroke-width="0.542828"/>
<path d="M215.347 323.225L214.553 318.578L218.181 321.589C221.656 324.473 226.216 325.695 230.667 324.935L235.315 324.141L232.303 327.769C229.42 331.243 228.198 335.804 228.958 340.255L229.752 344.903L226.124 341.891C222.649 339.007 218.088 337.785 213.638 338.545L208.99 339.339L212.001 335.711C214.885 332.237 216.107 327.676 215.347 323.225Z" stroke="#0FA4A4" stroke-width="0.542828"/>
<rect x="228.373" y="310.006" width="31.4189" height="31.4189" rx="7.87101" transform="rotate(-30 228.373 310.006)" stroke="#0FA4A4" stroke-width="0.542828"/>
<path d="M243.027 307.241L242.233 302.593L245.861 305.605C249.335 308.488 253.896 309.711 258.347 308.95L262.995 308.156L259.983 311.784C257.099 315.259 255.877 319.82 256.637 324.27L257.431 328.918L253.803 325.907C250.329 323.023 245.768 321.801 241.317 322.561L236.67 323.355L239.681 319.727C242.565 316.253 243.787 311.692 243.027 307.241Z" stroke="#0FA4A4" stroke-width="0.542828"/>
<rect x="256.052" y="294.029" width="31.4189" height="31.4189" rx="7.87101" transform="rotate(-30 256.052 294.029)" stroke="#0FA4A4" stroke-width="0.542828"/>
<path d="M270.706 291.264L269.912 286.617L273.541 289.628C277.015 292.512 281.576 293.734 286.026 292.974L290.674 292.18L287.663 295.808C284.779 299.282 283.557 303.843 284.317 308.294L285.111 312.942L281.483 309.93C278.009 307.046 273.448 305.824 268.997 306.585L264.349 307.378L267.361 303.75C270.245 300.276 271.467 295.715 270.706 291.264Z" stroke="#0FA4A4" stroke-width="0.542828"/>
<rect x="283.732" y="278.045" width="31.4189" height="31.4189" rx="7.87101" transform="rotate(-30 283.732 278.045)" stroke="#0FA4A4" stroke-width="0.542828"/>
<path d="M298.386 275.28L297.592 270.632L301.22 273.644C304.694 276.528 309.255 277.75 313.706 276.989L318.354 276.195L315.342 279.824C312.459 283.298 311.236 287.859 311.997 292.309L312.791 296.957L309.163 293.946C305.688 291.062 301.127 289.84 296.677 290.6L292.029 291.394L295.04 287.766C297.924 284.292 299.146 279.731 298.386 275.28Z" stroke="#0FA4A4" stroke-width="0.542828"/>
<rect x="311.411" y="262.06" width="31.4189" height="31.4189" rx="7.87101" transform="rotate(-30 311.411 262.06)" stroke="#0FA4A4" stroke-width="0.542828"/>
<path d="M326.066 259.296L325.272 254.648L328.9 257.659C332.374 260.543 336.935 261.765 341.386 261.005L346.033 260.211L343.022 263.839C340.138 267.313 338.916 271.874 339.676 276.325L340.47 280.973L336.842 277.961C333.368 275.078 328.807 273.855 324.356 274.616L319.708 275.41L322.72 271.782C325.604 268.307 326.826 263.746 326.066 259.296Z" stroke="#0FA4A4" stroke-width="0.542828"/>
<rect x="339.091" y="246.084" width="31.4189" height="31.4189" rx="7.87101" transform="rotate(-30 339.091 246.084)" stroke="#0FA4A4" stroke-width="0.542828"/>
<path d="M353.745 243.319L352.951 238.671L356.579 241.683C360.054 244.567 364.615 245.789 369.065 245.028L373.713 244.234L370.702 247.863C367.818 251.337 366.596 255.898 367.356 260.348L368.15 264.996L364.522 261.985C361.048 259.101 356.487 257.879 352.036 258.639L347.388 259.433L350.4 255.805C353.283 252.331 354.505 247.77 353.745 243.319Z" stroke="#0FA4A4" stroke-width="0.542828"/>
<rect x="256.052" y="330.029" width="31.4189" height="31.4189" rx="7.87101" transform="rotate(-30 256.052 330.029)" stroke="#0FA4A4" stroke-width="0.542828"/>
<path d="M270.707 327.264L269.913 322.617L273.541 325.628C277.015 328.512 281.576 329.734 286.027 328.974L290.675 328.18L287.663 331.808C284.779 335.282 283.557 339.843 284.317 344.294L285.111 348.942L281.483 345.93C278.009 343.046 273.448 341.824 268.997 342.585L264.349 343.378L267.361 339.75C270.245 336.276 271.467 331.715 270.707 327.264Z" stroke="#0FA4A4" stroke-width="0.542828"/>
<rect x="283.732" y="314.045" width="31.4189" height="31.4189" rx="7.87101" transform="rotate(-30 283.732 314.045)" stroke="#0FA4A4" stroke-width="0.542828"/>
<path d="M298.386 311.28L297.592 306.632L301.22 309.644C304.695 312.528 309.255 313.75 313.706 312.989L318.354 312.195L315.343 315.824C312.459 319.298 311.237 323.859 311.997 328.309L312.791 332.957L309.163 329.946C305.688 327.062 301.128 325.84 296.677 326.6L292.029 327.394L295.041 323.766C297.924 320.292 299.146 315.731 298.386 311.28Z" stroke="#0FA4A4" stroke-width="0.542828"/>
<rect x="311.412" y="298.06" width="31.4189" height="31.4189" rx="7.87101" transform="rotate(-30 311.412 298.06)" stroke="#0FA4A4" stroke-width="0.542828"/>
<path d="M326.066 295.296L325.272 290.648L328.9 293.659C332.374 296.543 336.935 297.765 341.386 297.005L346.034 296.211L343.022 299.839C340.138 303.313 338.916 307.874 339.677 312.325L340.471 316.973L336.842 313.961C333.368 311.078 328.807 309.855 324.357 310.616L319.709 311.41L322.72 307.782C325.604 304.307 326.826 299.746 326.066 295.296Z" stroke="#0FA4A4" stroke-width="0.542828"/>
<rect x="339.091" y="282.084" width="31.4189" height="31.4189" rx="7.87101" transform="rotate(-30 339.091 282.084)" stroke="#0FA4A4" stroke-width="0.542828"/>
<path d="M353.745 279.319L352.951 274.671L356.58 277.683C360.054 280.567 364.615 281.789 369.065 281.028L373.713 280.234L370.702 283.863C367.818 287.337 366.596 291.898 367.356 296.348L368.15 300.996L364.522 297.985C361.048 295.101 356.487 293.879 352.036 294.639L347.388 295.433L350.4 291.805C353.284 288.331 354.506 283.77 353.745 279.319Z" stroke="#0FA4A4" stroke-width="0.542828"/>
<rect x="-36.7245" y="317.904" width="31.4189" height="31.4189" rx="7.87101" transform="rotate(-30 -36.7245 317.904)" stroke="#0FA4A4" stroke-width="0.542828"/>
<path d="M-22.0704 315.139L-22.8643 310.492L-19.2362 313.503C-15.7618 316.387 -11.2011 317.609 -6.75032 316.849L-2.10245 316.055L-5.11397 319.683C-7.99777 323.157 -9.21983 327.718 -8.45954 332.169L-7.66558 336.817L-11.2938 333.805C-14.7681 330.921 -19.3289 329.699 -23.7796 330.46L-28.4275 331.253L-25.416 327.625C-22.5322 324.151 -21.3101 319.59 -22.0704 315.139Z" stroke="#0FA4A4" stroke-width="0.542828"/>
<rect x="-9.0448" y="301.92" width="31.4189" height="31.4189" rx="7.87101" transform="rotate(-30 -9.0448 301.92)" stroke="#0FA4A4" stroke-width="0.542828"/>
<path d="M5.60927 299.155L4.81531 294.507L8.4435 297.519C11.9178 300.403 16.4786 301.625 20.9293 300.864L25.5772 300.07L22.5657 303.699C19.6819 307.173 18.4598 311.734 19.2201 316.184L20.0141 320.832L16.3859 317.821C12.9116 314.937 8.35079 313.715 3.90005 314.475L-0.747821 315.269L2.2637 311.641C5.1475 308.167 6.36956 303.606 5.60927 299.155Z" stroke="#0FA4A4" stroke-width="0.542828"/>
<rect x="18.6348" y="285.943" width="31.4189" height="31.4189" rx="7.87101" transform="rotate(-30 18.6348 285.943)" stroke="#0FA4A4" stroke-width="0.542828"/>
<path d="M33.2889 283.179L32.4949 278.531L36.1231 281.542C39.5974 284.426 44.1582 285.648 48.609 284.888L53.2568 284.094L50.2453 287.722C47.3615 291.196 46.1395 295.757 46.8997 300.208L47.6937 304.856L44.0655 301.844C40.5912 298.96 36.0304 297.738 31.5797 298.499L26.9318 299.293L29.9433 295.664C32.8271 292.19 34.0492 287.629 33.2889 283.179Z" stroke="#0FA4A4" stroke-width="0.542828"/>
<rect x="46.3145" y="269.959" width="31.4189" height="31.4189" rx="7.87101" transform="rotate(-30 46.3145 269.959)" stroke="#0FA4A4" stroke-width="0.542828"/>
<path d="M60.9686 267.194L60.1746 262.546L63.8028 265.558C67.2771 268.442 71.8379 269.664 76.2886 268.903L80.9365 268.109L77.925 271.738C75.0412 275.212 73.8191 279.773 74.5794 284.223L75.3734 288.871L71.7452 285.86C68.2709 282.976 63.7101 281.754 59.2593 282.514L54.6115 283.308L57.623 279.68C60.5068 276.206 61.7288 271.645 60.9686 267.194Z" stroke="#0FA4A4" stroke-width="0.542828"/>
<rect x="73.9941" y="253.982" width="31.4189" height="31.4189" rx="7.87101" transform="rotate(-30 73.9941 253.982)" stroke="#0FA4A4" stroke-width="0.542828"/>
<path d="M88.6482 251.218L87.8543 246.57L91.4824 249.581C94.9568 252.465 99.5175 253.687 103.968 252.927L108.616 252.133L105.605 255.761C102.721 259.235 101.499 263.796 102.259 268.247L103.053 272.895L99.4248 269.883C95.9505 266.999 91.3897 265.777 86.939 266.538L82.2911 267.332L85.3026 263.703C88.1864 260.229 89.4085 255.668 88.6482 251.218Z" stroke="#0FA4A4" stroke-width="0.542828"/>
<rect x="101.674" y="237.998" width="31.4189" height="31.4189" rx="7.87101" transform="rotate(-30 101.674 237.998)" stroke="#0FA4A4" stroke-width="0.542828"/>
<path d="M116.328 235.233L115.534 230.585L119.162 233.597C122.636 236.481 127.197 237.703 131.648 236.942L136.296 236.148L133.284 239.777C130.4 243.251 129.178 247.812 129.939 252.262L130.733 256.91L127.104 253.899C123.63 251.015 119.069 249.793 114.619 250.553L109.971 251.347L112.982 247.719C115.866 244.245 117.088 239.684 116.328 235.233Z" stroke="#0FA4A4" stroke-width="0.542828"/>
<rect x="129.354" y="222.021" width="31.4189" height="31.4189" rx="7.87101" transform="rotate(-30 129.354 222.021)" stroke="#0FA4A4" stroke-width="0.542828"/>
<path d="M144.008 219.257L143.214 214.609L146.842 217.62C150.316 220.504 154.877 221.726 159.328 220.966L163.976 220.172L160.964 223.8C158.08 227.274 156.858 231.835 157.618 236.286L158.412 240.934L154.784 237.922C151.31 235.038 146.749 233.816 142.298 234.577L137.65 235.371L140.662 231.742C143.546 228.268 144.768 223.707 144.008 219.257Z" stroke="#0FA4A4" stroke-width="0.542828"/>
<rect x="157.033" y="206.037" width="31.4189" height="31.4189" rx="7.87101" transform="rotate(-30 157.033 206.037)" stroke="#0FA4A4" stroke-width="0.542828"/>
<path d="M171.687 203.272L170.893 198.624L174.521 201.636C177.996 204.52 182.556 205.742 187.007 204.981L191.655 204.188L188.644 207.816C185.76 211.29 184.538 215.851 185.298 220.302L186.092 224.949L182.464 221.938C178.989 219.054 174.429 217.832 169.978 218.592L165.33 219.386L168.342 215.758C171.225 212.284 172.447 207.723 171.687 203.272Z" stroke="#0FA4A4" stroke-width="0.542828"/>
<rect x="184.713" y="190.06" width="31.4189" height="31.4189" rx="7.87101" transform="rotate(-30 184.713 190.06)" stroke="#0FA4A4" stroke-width="0.542828"/>
<path d="M199.367 187.296L198.573 182.648L202.201 185.659C205.675 188.543 210.236 189.765 214.687 189.005L219.335 188.211L216.323 191.839C213.439 195.313 212.217 199.874 212.978 204.325L213.772 208.973L210.143 205.961C206.669 203.078 202.108 201.855 197.658 202.616L193.01 203.41L196.021 199.782C198.905 196.307 200.127 191.746 199.367 187.296Z" stroke="#0FA4A4" stroke-width="0.542828"/>
<rect x="212.392" y="174.076" width="31.4189" height="31.4189" rx="7.87101" transform="rotate(-30 212.392 174.076)" stroke="#0FA4A4" stroke-width="0.542828"/>
<path d="M227.046 171.311L226.252 166.663L229.881 169.675C233.355 172.559 237.916 173.781 242.367 173.021L247.014 172.227L244.003 175.855C241.119 179.329 239.897 183.89 240.657 188.341L241.451 192.988L237.823 189.977C234.349 187.093 229.788 185.871 225.337 186.631L220.689 187.425L223.701 183.797C226.585 180.323 227.807 175.762 227.046 171.311Z" stroke="#0FA4A4" stroke-width="0.542828"/>
<rect x="240.072" y="158.099" width="31.4189" height="31.4189" rx="7.87101" transform="rotate(-30 240.072 158.099)" stroke="#0FA4A4" stroke-width="0.542828"/>
<path d="M254.726 155.335L253.932 150.687L257.56 153.698C261.035 156.582 265.595 157.804 270.046 157.044L274.694 156.25L271.682 159.878C268.799 163.353 267.577 167.913 268.337 172.364L269.131 177.012L265.503 174C262.028 171.117 257.468 169.895 253.017 170.655L248.369 171.449L251.381 167.821C254.264 164.346 255.486 159.785 254.726 155.335Z" stroke="#0FA4A4" stroke-width="0.542828"/>
<rect x="267.752" y="142.115" width="31.4189" height="31.4189" rx="7.87101" transform="rotate(-30 267.752 142.115)" stroke="#0FA4A4" stroke-width="0.542828"/>
<path d="M282.406 139.35L281.612 134.703L285.24 137.714C288.714 140.598 293.275 141.82 297.726 141.06L302.374 140.266L299.362 143.894C296.478 147.368 295.256 151.929 296.017 156.38L296.811 161.028L293.182 158.016C289.708 155.132 285.147 153.91 280.697 154.67L276.049 155.464L279.06 151.836C281.944 148.362 283.166 143.801 282.406 139.35Z" stroke="#0FA4A4" stroke-width="0.542828"/>
<rect x="295.431" y="126.131" width="31.4189" height="31.4189" rx="7.87101" transform="rotate(-30 295.431 126.131)" stroke="#0FA4A4" stroke-width="0.542828"/>
<path d="M310.085 123.366L309.291 118.718L312.92 121.73C316.394 124.613 320.955 125.836 325.405 125.075L330.053 124.281L327.042 127.909C324.158 131.384 322.936 135.945 323.696 140.395L324.49 145.043L320.862 142.032C317.388 139.148 312.827 137.926 308.376 138.686L303.728 139.48L306.74 135.852C309.624 132.378 310.846 127.817 310.085 123.366Z" stroke="#0FA4A4" stroke-width="0.542828"/>
<rect x="323.111" y="110.154" width="31.4189" height="31.4189" rx="7.87101" transform="rotate(-30 323.111 110.154)" stroke="#0FA4A4" stroke-width="0.542828"/>
<path d="M337.765 107.389L336.971 102.742L340.599 105.753C344.074 108.637 348.634 109.859 353.085 109.099L357.733 108.305L354.721 111.933C351.838 115.407 350.616 119.968 351.376 124.419L352.17 129.067L348.542 126.055C345.067 123.171 340.507 121.949 336.056 122.71L331.408 123.503L334.419 119.875C337.303 116.401 338.525 111.84 337.765 107.389Z" stroke="#0FA4A4" stroke-width="0.542828"/>
<rect x="350.791" y="94.1697" width="31.4189" height="31.4189" rx="7.87101" transform="rotate(-30 350.791 94.1697)" stroke="#0FA4A4" stroke-width="0.542828"/>
<path d="M365.445 91.4051L364.651 86.7572L368.279 89.7687C371.753 92.6525 376.314 93.8746 380.765 93.1143L385.413 92.3203L382.401 95.9485C379.517 99.4228 378.295 103.984 379.055 108.434L379.849 113.082L376.221 110.071C372.747 107.187 368.186 105.965 363.735 106.725L359.088 107.519L362.099 103.891C364.983 100.417 366.205 95.8558 365.445 91.4051Z" stroke="#0FA4A4" stroke-width="0.542828"/>
<rect x="-25.0255" y="274.24" width="31.4189" height="31.4189" rx="7.87101" transform="rotate(-30 -25.0255 274.24)" stroke="#0FA4A4" stroke-width="0.542828"/>
<path d="M-10.3714 271.475L-11.1654 266.828L-7.53718 269.839C-4.06287 272.723 0.497912 273.945 4.94866 273.185L9.59652 272.391L6.585 276.019C3.7012 279.493 2.47914 284.054 3.23943 288.505L4.03339 293.153L0.405202 290.141C-3.06911 287.257 -7.62989 286.035 -12.0806 286.795L-16.7285 287.589L-13.717 283.961C-10.8332 280.487 -9.61112 275.926 -10.3714 271.475Z" stroke="#0FA4A4" stroke-width="0.542828"/>
<rect x="2.65414" y="258.263" width="31.4189" height="31.4189" rx="7.87101" transform="rotate(-30 2.65414 258.263)" stroke="#0FA4A4" stroke-width="0.542828"/>
<path d="M17.3082 255.499L16.5143 250.851L20.1424 253.862C23.6168 256.746 28.1775 257.968 32.6283 257.208L37.2762 256.414L34.2646 260.042C31.3808 263.517 30.1588 268.077 30.9191 272.528L31.713 277.176L28.0848 274.164C24.6105 271.281 20.0497 270.059 15.599 270.819L10.9511 271.613L13.9626 267.985C16.8464 264.51 18.0685 259.95 17.3082 255.499Z" stroke="#0FA4A4" stroke-width="0.542828"/>
<rect x="30.3338" y="242.279" width="31.4189" height="31.4189" rx="7.87101" transform="rotate(-30 30.3338 242.279)" stroke="#0FA4A4" stroke-width="0.542828"/>
<path d="M44.9879 239.514L44.1939 234.867L47.8221 237.878C51.2964 240.762 55.8572 241.984 60.3079 241.224L64.9558 240.43L61.9443 244.058C59.0605 247.532 57.8384 252.093 58.5987 256.544L59.3927 261.192L55.7645 258.18C52.2902 255.296 47.7294 254.074 43.2787 254.835L38.6308 255.628L41.6423 252C44.5261 248.526 45.7482 243.965 44.9879 239.514Z" stroke="#0FA4A4" stroke-width="0.542828"/>
<rect x="58.0135" y="226.302" width="31.4189" height="31.4189" rx="7.87101" transform="rotate(-30 58.0135 226.302)" stroke="#0FA4A4" stroke-width="0.542828"/>
<path d="M72.6675 223.538L71.8736 218.89L75.5018 221.902C78.9761 224.785 83.5369 226.007 87.9876 225.247L92.6355 224.453L89.6239 228.081C86.7401 231.556 85.5181 236.116 86.2784 240.567L87.0723 245.215L83.4441 242.204C79.9698 239.32 75.4091 238.098 70.9583 238.858L66.3104 239.652L69.322 236.024C72.2058 232.549 73.4278 227.989 72.6675 223.538Z" stroke="#0FA4A4" stroke-width="0.542828"/>
<rect x="85.6931" y="210.318" width="31.4189" height="31.4189" rx="7.87101" transform="rotate(-30 85.6931 210.318)" stroke="#0FA4A4" stroke-width="0.542828"/>
<path d="M100.347 207.554L99.5532 202.906L103.181 205.917C106.656 208.801 111.216 210.023 115.667 209.263L120.315 208.469L117.304 212.097C114.42 215.571 113.198 220.132 113.958 224.583L114.752 229.231L111.124 226.219C107.649 223.335 103.089 222.113 98.638 222.874L93.9901 223.668L97.0016 220.039C99.8854 216.565 101.107 212.004 100.347 207.554Z" stroke="#0FA4A4" stroke-width="0.542828"/>
<rect x="113.373" y="194.342" width="31.4189" height="31.4189" rx="7.87101" transform="rotate(-30 113.373 194.342)" stroke="#0FA4A4" stroke-width="0.542828"/>
<path d="M128.027 191.577L127.233 186.929L130.861 189.941C134.335 192.824 138.896 194.046 143.347 193.286L147.995 192.492L144.983 196.12C142.099 199.595 140.877 204.155 141.638 208.606L142.432 213.254L138.803 210.243C135.329 207.359 130.768 206.137 126.318 206.897L121.67 207.691L124.681 204.063C127.565 200.588 128.787 196.028 128.027 191.577Z" stroke="#0FA4A4" stroke-width="0.542828"/>
<rect x="141.052" y="178.357" width="31.4189" height="31.4189" rx="7.87101" transform="rotate(-30 141.052 178.357)" stroke="#0FA4A4" stroke-width="0.542828"/>
<path d="M155.706 175.593L154.913 170.945L158.541 173.956C162.015 176.84 166.576 178.062 171.027 177.302L175.674 176.508L172.663 180.136C169.779 183.61 168.557 188.171 169.317 192.622L170.111 197.27L166.483 194.258C163.009 191.374 158.448 190.152 153.997 190.913L149.349 191.707L152.361 188.078C155.245 184.604 156.467 180.043 155.706 175.593Z" stroke="#0FA4A4" stroke-width="0.542828"/>
<rect x="168.732" y="162.381" width="31.4189" height="31.4189" rx="7.87101" transform="rotate(-30 168.732 162.381)" stroke="#0FA4A4" stroke-width="0.542828"/>
<path d="M183.386 159.616L182.592 154.968L186.22 157.98C189.695 160.863 194.255 162.086 198.706 161.325L203.354 160.531L200.343 164.159C197.459 167.634 196.237 172.195 196.997 176.645L197.791 181.293L194.163 178.282C190.688 175.398 186.128 174.176 181.677 174.936L177.029 175.73L180.041 172.102C182.924 168.628 184.146 164.067 183.386 159.616Z" stroke="#0FA4A4" stroke-width="0.542828"/>
<rect x="196.412" y="146.396" width="31.4189" height="31.4189" rx="7.87101" transform="rotate(-30 196.412 146.396)" stroke="#0FA4A4" stroke-width="0.542828"/>
<path d="M211.066 143.632L210.272 138.984L213.9 141.995C217.374 144.879 221.935 146.101 226.386 145.341L231.034 144.547L228.022 148.175C225.138 151.649 223.916 156.21 224.677 160.661L225.471 165.309L221.842 162.297C218.368 159.413 213.807 158.191 209.357 158.952L204.709 159.746L207.72 156.117C210.604 152.643 211.826 148.082 211.066 143.632Z" stroke="#0FA4A4" stroke-width="0.542828"/>
<rect x="224.091" y="130.42" width="31.4189" height="31.4189" rx="7.87101" transform="rotate(-30 224.091 130.42)" stroke="#0FA4A4" stroke-width="0.542828"/>
<path d="M238.745 127.655L237.951 123.007L241.58 126.019C245.054 128.903 249.615 130.125 254.065 129.364L258.713 128.57L255.702 132.199C252.818 135.673 251.596 140.234 252.356 144.684L253.15 149.332L249.522 146.321C246.048 143.437 241.487 142.215 237.036 142.975L232.388 143.769L235.4 140.141C238.284 136.667 239.506 132.106 238.745 127.655Z" stroke="#0FA4A4" stroke-width="0.542828"/>
<rect x="251.771" y="114.435" width="31.4189" height="31.4189" rx="7.87101" transform="rotate(-30 251.771 114.435)" stroke="#0FA4A4" stroke-width="0.542828"/>
<path d="M266.425 111.671L265.631 107.023L269.259 110.034C272.734 112.918 277.294 114.14 281.745 113.38L286.393 112.586L283.381 116.214C280.498 119.688 279.276 124.249 280.036 128.7L280.83 133.348L277.202 130.336C273.727 127.453 269.167 126.23 264.716 126.991L260.068 127.785L263.079 124.157C265.963 120.682 267.185 116.121 266.425 111.671Z" stroke="#0FA4A4" stroke-width="0.542828"/>
<rect x="279.451" y="98.4509" width="31.4189" height="31.4189" rx="7.87101" transform="rotate(-30 279.451 98.4509)" stroke="#0FA4A4" stroke-width="0.542828"/>
<path d="M294.105 95.6863L293.311 91.0384L296.939 94.05C300.413 96.9338 304.974 98.1558 309.425 97.3955L314.073 96.6016L311.061 100.23C308.177 103.704 306.955 108.265 307.716 112.716L308.509 117.363L304.881 114.352C301.407 111.468 296.846 110.246 292.395 111.006L287.748 111.8L290.759 108.172C293.643 104.698 294.865 100.137 294.105 95.6863Z" stroke="#0FA4A4" stroke-width="0.542828"/>
<rect x="307.13" y="82.4743" width="31.4189" height="31.4189" rx="7.87101" transform="rotate(-30 307.13 82.4743)" stroke="#0FA4A4" stroke-width="0.542828"/>
<path d="M321.784 79.7098L320.99 75.0619L324.619 78.0734C328.093 80.9572 332.654 82.1793 337.104 81.419L341.752 80.625L338.741 84.2532C335.857 87.7275 334.635 92.2883 335.395 96.739L336.189 101.387L332.561 98.3754C329.087 95.4916 324.526 94.2695 320.075 95.0298L315.427 95.8238L318.439 92.1956C321.323 88.7213 322.545 84.1605 321.784 79.7098Z" stroke="#0FA4A4" stroke-width="0.542828"/>
<rect x="334.81" y="66.49" width="31.4189" height="31.4189" rx="7.87101" transform="rotate(-30 334.81 66.49)" stroke="#0FA4A4" stroke-width="0.542828"/>
<path d="M349.464 63.7254L348.67 59.0775L352.298 62.089C355.773 64.9728 360.333 66.1949 364.784 65.4346L369.432 64.6406L366.42 68.2688C363.537 71.7431 362.315 76.3039 363.075 80.7547L363.869 85.4025L360.241 82.391C356.766 79.5072 352.205 78.2852 347.755 79.0454L343.107 79.8394L346.118 76.2112C349.002 72.7369 350.224 68.1761 349.464 63.7254Z" stroke="#0FA4A4" stroke-width="0.542828"/>
<rect x="-41.0065" y="246.56" width="31.4189" height="31.4189" rx="7.87101" transform="rotate(-30 -41.0065 246.56)" stroke="#0FA4A4" stroke-width="0.542828"/>
<path d="M-26.3525 243.796L-27.1464 239.148L-23.5182 242.159C-20.0439 245.043 -15.4831 246.265 -11.0324 245.505L-6.38452 244.711L-9.39605 248.339C-12.2798 251.813 -13.5019 256.374 -12.7416 260.825L-11.9477 265.473L-15.5758 262.461C-19.0502 259.578 -23.6109 258.355 -28.0617 259.116L-32.7096 259.91L-29.698 256.282C-26.8142 252.807 -25.5922 248.246 -26.3525 243.796Z" stroke="#0FA4A4" stroke-width="0.542828"/>
<rect x="-13.3269" y="230.584" width="31.4189" height="31.4189" rx="7.87101" transform="rotate(-30 -13.3269 230.584)" stroke="#0FA4A4" stroke-width="0.542828"/>
<path d="M1.32717 227.819L0.533208 223.171L4.1614 226.183C7.63571 229.067 12.1965 230.289 16.6472 229.528L21.2951 228.734L18.2836 232.363C15.3998 235.837 14.1777 240.398 14.938 244.848L15.732 249.496L12.1038 246.485C8.62947 243.601 4.06869 242.379 -0.382054 243.139L-5.02993 243.933L-2.0184 240.305C0.865396 236.831 2.08746 232.27 1.32717 227.819Z" stroke="#0FA4A4" stroke-width="0.542828"/>
<rect x="14.3528" y="214.599" width="31.4189" height="31.4189" rx="7.87101" transform="rotate(-30 14.3528 214.599)" stroke="#0FA4A4" stroke-width="0.542828"/>
<path d="M29.0068 211.835L28.2129 207.187L31.8411 210.198C35.3154 213.082 39.8761 214.304 44.3269 213.544L48.9748 212.75L45.9632 216.378C43.0794 219.853 41.8574 224.413 42.6177 228.864L43.4116 233.512L39.7834 230.5C36.3091 227.617 31.7483 226.395 27.2976 227.155L22.6497 227.949L25.6613 224.321C28.5451 220.846 29.7671 216.285 29.0068 211.835Z" stroke="#0FA4A4" stroke-width="0.542828"/>
<rect x="42.0324" y="198.623" width="31.4189" height="31.4189" rx="7.87101" transform="rotate(-30 42.0324 198.623)" stroke="#0FA4A4" stroke-width="0.542828"/>
<path d="M56.6865 195.858L55.8925 191.21L59.5207 194.222C62.995 197.106 67.5558 198.328 72.0065 197.567L76.6544 196.773L73.6429 200.402C70.7591 203.876 69.537 208.437 70.2973 212.887L71.0913 217.535L67.4631 214.524C63.9888 211.64 59.428 210.418 54.9773 211.178L50.3294 211.972L53.3409 208.344C56.2247 204.87 57.4468 200.309 56.6865 195.858Z" stroke="#0FA4A4" stroke-width="0.542828"/>
<rect x="69.7121" y="182.638" width="31.4189" height="31.4189" rx="7.87101" transform="rotate(-30 69.7121 182.638)" stroke="#0FA4A4" stroke-width="0.542828"/>
<path d="M84.3661 179.874L83.5722 175.226L87.2004 178.237C90.6747 181.121 95.2355 182.343 99.6862 181.583L104.334 180.789L101.323 184.417C98.4388 187.892 97.2167 192.452 97.977 196.903L98.7709 201.551L95.1428 198.539C91.6684 195.656 87.1077 194.434 82.6569 195.194L78.009 195.988L81.0206 192.36C83.9044 188.885 85.1264 184.325 84.3661 179.874Z" stroke="#0FA4A4" stroke-width="0.542828"/>
<rect x="97.3917" y="166.662" width="31.4189" height="31.4189" rx="7.87101" transform="rotate(-30 97.3917 166.662)" stroke="#0FA4A4" stroke-width="0.542828"/>
<path d="M112.046 163.897L111.252 159.249L114.88 162.261C118.354 165.145 122.915 166.367 127.366 165.606L132.014 164.813L129.002 168.441C126.118 171.915 124.896 176.476 125.657 180.927L126.451 185.574L122.822 182.563C119.348 179.679 114.787 178.457 110.337 179.217L105.689 180.011L108.7 176.383C111.584 172.909 112.806 168.348 112.046 163.897Z" stroke="#0FA4A4" stroke-width="0.542828"/>
<rect x="125.071" y="150.677" width="31.4189" height="31.4189" rx="7.87101" transform="rotate(-30 125.071 150.677)" stroke="#0FA4A4" stroke-width="0.542828"/>
<path d="M139.725 147.913L138.931 143.265L142.56 146.277C146.034 149.16 150.595 150.382 155.045 149.622L159.693 148.828L156.682 152.456C153.798 155.931 152.576 160.491 153.336 164.942L154.13 169.59L150.502 166.579C147.028 163.695 142.467 162.473 138.016 163.233L133.368 164.027L136.38 160.399C139.264 156.924 140.486 152.364 139.725 147.913Z" stroke="#0FA4A4" stroke-width="0.542828"/>
<rect x="152.751" y="134.701" width="31.4189" height="31.4189" rx="7.87101" transform="rotate(-30 152.751 134.701)" stroke="#0FA4A4" stroke-width="0.542828"/>
<path d="M167.405 131.936L166.611 127.288L170.239 130.3C173.714 133.184 178.274 134.406 182.725 133.646L187.373 132.852L184.361 136.48C181.478 139.954 180.256 144.515 181.016 148.966L181.81 153.613L178.182 150.602C174.707 147.718 170.147 146.496 165.696 147.256L161.048 148.05L164.059 144.422C166.943 140.948 168.165 136.387 167.405 131.936Z" stroke="#0FA4A4" stroke-width="0.542828"/>
<rect x="180.431" y="118.717" width="31.4189" height="31.4189" rx="7.87101" transform="rotate(-30 180.431 118.717)" stroke="#0FA4A4" stroke-width="0.542828"/>
<path d="M195.085 115.952L194.291 111.304L197.919 114.316C201.393 117.199 205.954 118.421 210.405 117.661L215.053 116.867L212.041 120.495C209.157 123.97 207.935 128.53 208.696 132.981L209.49 137.629L205.861 134.618C202.387 131.734 197.826 130.512 193.375 131.272L188.728 132.066L191.739 128.438C194.623 124.963 195.845 120.403 195.085 115.952Z" stroke="#0FA4A4" stroke-width="0.542828"/>
<rect x="208.11" y="102.74" width="31.4189" height="31.4189" rx="7.87101" transform="rotate(-30 208.11 102.74)" stroke="#0FA4A4" stroke-width="0.542828"/>
<path d="M222.764 99.9754L221.97 95.3275L225.599 98.339C229.073 101.223 233.634 102.445 238.084 101.685L242.732 100.891L239.721 104.519C236.837 107.993 235.615 112.554 236.375 117.005L237.169 121.653L233.541 118.641C230.067 115.757 225.506 114.535 221.055 115.295L216.407 116.089L219.419 112.461C222.303 108.987 223.525 104.426 222.764 99.9754Z" stroke="#0FA4A4" stroke-width="0.542828"/>
<rect x="235.79" y="86.7556" width="31.4189" height="31.4189" rx="7.87101" transform="rotate(-30 235.79 86.7556)" stroke="#0FA4A4" stroke-width="0.542828"/>
<path d="M250.444 83.991L249.65 79.3431L253.278 82.3547C256.753 85.2385 261.313 86.4605 265.764 85.7002L270.412 84.9063L267.4 88.5345C264.517 92.0088 263.295 96.5695 264.055 101.02L264.849 105.668L261.221 102.657C257.746 99.7728 253.186 98.5508 248.735 99.3111L244.087 100.105L247.098 96.4768C249.982 93.0025 251.204 88.4417 250.444 83.991Z" stroke="#0FA4A4" stroke-width="0.542828"/>
<rect x="263.47" y="70.7712" width="31.4189" height="31.4189" rx="7.87101" transform="rotate(-30 263.47 70.7712)" stroke="#0FA4A4" stroke-width="0.542828"/>
<path d="M278.124 68.0066L277.33 63.3588L280.958 66.3703C284.432 69.2541 288.993 70.4761 293.444 69.7159L298.092 68.9219L295.08 72.5501C292.196 76.0244 290.974 80.5852 291.734 85.0359L292.528 89.6838L288.9 86.6723C285.426 83.7885 280.865 82.5664 276.414 83.3267L271.767 84.1207L274.778 80.4925C277.662 77.0182 278.884 72.4574 278.124 68.0066Z" stroke="#0FA4A4" stroke-width="0.542828"/>
<rect x="291.149" y="54.7947" width="31.4189" height="31.4189" rx="7.87101" transform="rotate(-30 291.149 54.7947)" stroke="#0FA4A4" stroke-width="0.542828"/>
<path d="M305.803 52.0301L305.009 47.3822L308.638 50.3937C312.112 53.2775 316.673 54.4996 321.123 53.7393L325.771 52.9453L322.76 56.5735C319.876 60.0478 318.654 64.6086 319.414 69.0594L320.208 73.7072L316.58 70.6957C313.106 67.8119 308.545 66.5898 304.094 67.3501L299.446 68.1441L302.458 64.5159C305.342 61.0416 306.564 56.4808 305.803 52.0301Z" stroke="#0FA4A4" stroke-width="0.542828"/>
<rect x="318.829" y="38.8103" width="31.4189" height="31.4189" rx="7.87101" transform="rotate(-30 318.829 38.8103)" stroke="#0FA4A4" stroke-width="0.542828"/>
<path d="M333.483 36.0457L332.689 31.3978L336.317 34.4093C339.791 37.2931 344.352 38.5152 348.803 37.7549L353.451 36.961L350.439 40.5891C347.556 44.0635 346.333 48.6242 347.094 53.075L347.888 57.7228L344.26 54.7113C340.785 51.8275 336.224 50.6055 331.774 51.3658L327.126 52.1597L330.137 48.5315C333.021 45.0572 334.243 40.4964 333.483 36.0457Z" stroke="#0FA4A4" stroke-width="0.542828"/>
<rect x="346.508" y="22.8337" width="31.4189" height="31.4189" rx="7.87101" transform="rotate(-30 346.508 22.8337)" stroke="#0FA4A4" stroke-width="0.542828"/>
<path d="M361.163 20.0691L360.369 15.4213L363.997 18.4328C367.471 21.3166 372.032 22.5386 376.483 21.7784L381.131 20.9844L378.119 24.6126C375.235 28.0869 374.013 32.6477 374.773 37.0984L375.567 41.7463L371.939 38.7348C368.465 35.851 363.904 34.6289 359.453 35.3892L354.805 36.1832L357.817 32.555C360.701 29.0807 361.923 24.5199 361.163 20.0691Z" stroke="#0FA4A4" stroke-width="0.542828"/>
<rect x="-29.3078" y="202.904" width="31.4189" height="31.4189" rx="7.87101" transform="rotate(-30 -29.3078 202.904)" stroke="#0FA4A4" stroke-width="0.542828"/>
<path d="M-14.6538 200.139L-15.4477 195.492L-11.8195 198.503C-8.34522 201.387 -3.78444 202.609 0.666307 201.849L5.31418 201.055L2.30265 204.683C-0.581146 208.157 -1.8032 212.718 -1.04292 217.169L-0.248957 221.817L-3.87715 218.805C-7.35146 215.921 -11.9122 214.699 -16.363 215.46L-21.0109 216.253L-17.9993 212.625C-15.1155 209.151 -13.8935 204.59 -14.6538 200.139Z" stroke="#0FA4A4" stroke-width="0.542828"/>
<rect x="-1.62817" y="186.92" width="31.4189" height="31.4189" rx="7.87101" transform="rotate(-30 -1.62817 186.92)" stroke="#0FA4A4" stroke-width="0.542828"/>
<path d="M13.0259 184.155L12.2319 179.507L15.8601 182.519C19.3344 185.403 23.8952 186.625 28.346 185.864L32.9938 185.07L29.9823 188.699C27.0985 192.173 25.8765 196.734 26.6367 201.184L27.4307 205.832L23.8025 202.821C20.3282 199.937 15.7674 198.715 11.3167 199.475L6.66881 200.269L9.68033 196.641C12.5641 193.167 13.7862 188.606 13.0259 184.155Z" stroke="#0FA4A4" stroke-width="0.542828"/>
<rect x="26.0515" y="170.943" width="31.4189" height="31.4189" rx="7.87101" transform="rotate(-30 26.0515 170.943)" stroke="#0FA4A4" stroke-width="0.542828"/>
<path d="M40.7056 168.179L39.9116 163.531L43.5398 166.542C47.0141 169.426 51.5749 170.648 56.0256 169.888L60.6735 169.094L57.662 172.722C54.7782 176.196 53.5561 180.757 54.3164 185.208L55.1104 189.856L51.4822 186.844C48.0079 183.96 43.4471 182.738 38.9963 183.499L34.3485 184.293L37.36 180.664C40.2438 177.19 41.4658 172.629 40.7056 168.179Z" stroke="#0FA4A4" stroke-width="0.542828"/>
<rect x="53.7311" y="154.959" width="31.4189" height="31.4189" rx="7.87101" transform="rotate(-30 53.7311 154.959)" stroke="#0FA4A4" stroke-width="0.542828"/>
<path d="M68.3852 152.194L67.5913 147.546L71.2194 150.558C74.6938 153.442 79.2545 154.664 83.7053 153.903L88.3531 153.109L85.3416 156.738C82.4578 160.212 81.2358 164.773 81.9961 169.223L82.79 173.871L79.1618 170.86C75.6875 167.976 71.1267 166.754 66.676 167.514L62.0281 168.308L65.0396 164.68C67.9234 161.206 69.1455 156.645 68.3852 152.194Z" stroke="#0FA4A4" stroke-width="0.542828"/>
<rect x="81.4108" y="138.982" width="31.4189" height="31.4189" rx="7.87101" transform="rotate(-30 81.4108 138.982)" stroke="#0FA4A4" stroke-width="0.542828"/>
<path d="M96.0649 136.218L95.2709 131.57L98.8991 134.581C102.373 137.465 106.934 138.687 111.385 137.927L116.033 137.133L113.021 140.761C110.137 144.235 108.915 148.796 109.676 153.247L110.47 157.895L106.841 154.883C103.367 151.999 98.8064 150.777 94.3556 151.538L89.7078 152.332L92.7193 148.703C95.6031 145.229 96.8251 140.668 96.0649 136.218Z" stroke="#0FA4A4" stroke-width="0.542828"/>
<rect x="109.09" y="122.998" width="31.4189" height="31.4189" rx="7.87101" transform="rotate(-30 109.09 122.998)" stroke="#0FA4A4" stroke-width="0.542828"/>
<path d="M123.744 120.233L122.951 115.585L126.579 118.597C130.053 121.481 134.614 122.703 139.065 121.942L143.712 121.148L140.701 124.777C137.817 128.251 136.595 132.812 137.355 137.262L138.149 141.91L134.521 138.899C131.047 136.015 126.486 134.793 122.035 135.553L117.387 136.347L120.399 132.719C123.283 129.245 124.505 124.684 123.744 120.233Z" stroke="#0FA4A4" stroke-width="0.542828"/>
<rect x="136.77" y="107.021" width="31.4189" height="31.4189" rx="7.87101" transform="rotate(-30 136.77 107.021)" stroke="#0FA4A4" stroke-width="0.542828"/>
<path d="M151.424 104.257L150.63 99.6088L154.258 102.62C157.733 105.504 162.293 106.726 166.744 105.966L171.392 105.172L168.381 108.8C165.497 112.274 164.275 116.835 165.035 121.286L165.829 125.934L162.201 122.922C158.726 120.038 154.166 118.816 149.715 119.577L145.067 120.371L148.079 116.742C150.962 113.268 152.184 108.707 151.424 104.257Z" stroke="#0FA4A4" stroke-width="0.542828"/>
<rect x="164.45" y="91.0368" width="31.4189" height="31.4189" rx="7.87101" transform="rotate(-30 164.45 91.0368)" stroke="#0FA4A4" stroke-width="0.542828"/>
<path d="M179.104 88.2723L178.31 83.6244L181.938 86.6359C185.412 89.5197 189.973 90.7418 194.424 89.9815L199.072 89.1875L196.06 92.8157C193.176 96.29 191.954 100.851 192.715 105.302L193.509 109.949L189.88 106.938C186.406 104.054 181.845 102.832 177.395 103.592L172.747 104.386L175.758 100.758C178.642 97.2838 179.864 92.723 179.104 88.2723Z" stroke="#0FA4A4" stroke-width="0.542828"/>
<rect x="192.129" y="75.0603" width="31.4189" height="31.4189" rx="7.87101" transform="rotate(-30 192.129 75.0603)" stroke="#0FA4A4" stroke-width="0.542828"/>
<path d="M206.783 72.2957L205.989 67.6478L209.618 70.6593C213.092 73.5431 217.653 74.7652 222.103 74.0049L226.751 73.211L223.74 76.8391C220.856 80.3135 219.634 84.8742 220.394 89.325L221.188 93.9728L217.56 90.9613C214.086 88.0775 209.525 86.8555 205.074 87.6158L200.426 88.4097L203.438 84.7815C206.322 81.3072 207.544 76.7464 206.783 72.2957Z" stroke="#0FA4A4" stroke-width="0.542828"/>
<rect x="219.809" y="59.0759" width="31.4189" height="31.4189" rx="7.87101" transform="rotate(-30 219.809 59.0759)" stroke="#0FA4A4" stroke-width="0.542828"/>
<path d="M234.463 56.3113L233.669 51.6634L237.297 54.675C240.772 57.5588 245.332 58.7808 249.783 58.0205L254.431 57.2266L251.419 60.8548C248.536 64.3291 247.314 68.8899 248.074 73.3406L248.868 77.9885L245.24 74.977C241.765 72.0932 237.205 70.8711 232.754 71.6314L228.106 72.4253L231.117 68.7972C234.001 65.3228 235.223 60.7621 234.463 56.3113Z" stroke="#0FA4A4" stroke-width="0.542828"/>
<rect x="247.489" y="43.0915" width="31.4189" height="31.4189" rx="7.87101" transform="rotate(-30 247.489 43.0915)" stroke="#0FA4A4" stroke-width="0.542828"/>
<path d="M262.143 40.3269L261.349 35.6791L264.977 38.6906C268.451 41.5744 273.012 42.7965 277.463 42.0362L282.111 41.2422L279.099 44.8704C276.215 48.3447 274.993 52.9055 275.754 57.3562L276.548 62.0041L272.919 58.9926C269.445 56.1088 264.884 54.8867 260.433 55.647L255.786 56.441L258.797 52.8128C261.681 49.3385 262.903 44.7777 262.143 40.3269Z" stroke="#0FA4A4" stroke-width="0.542828"/>
<rect x="275.168" y="27.115" width="31.4189" height="31.4189" rx="7.87101" transform="rotate(-30 275.168 27.115)" stroke="#0FA4A4" stroke-width="0.542828"/>
<path d="M289.822 24.3504L289.028 19.7025L292.657 22.714C296.131 25.5978 300.692 26.8199 305.142 26.0596L309.79 25.2656L306.779 28.8938C303.895 32.3681 302.673 36.9289 303.433 41.3797L304.227 46.0275L300.599 43.016C297.125 40.1322 292.564 38.9102 288.113 39.6704L283.465 40.4644L286.477 36.8362C289.361 33.3619 290.583 28.8011 289.822 24.3504Z" stroke="#0FA4A4" stroke-width="0.542828"/>
<rect x="302.848" y="11.1306" width="31.4189" height="31.4189" rx="7.87101" transform="rotate(-30 302.848 11.1306)" stroke="#0FA4A4" stroke-width="0.542828"/>
<path d="M317.502 8.366L316.708 3.71813L320.336 6.72966C323.811 9.61346 328.371 10.8355 332.822 10.0752L337.47 9.28127L334.458 12.9095C331.575 16.3838 330.353 20.9445 331.113 25.3953L331.907 30.0432L328.279 27.0316C324.804 24.1478 320.244 22.9258 315.793 23.6861L311.145 24.48L314.156 20.8518C317.04 17.3775 318.262 12.8167 317.502 8.366Z" stroke="#0FA4A4" stroke-width="0.542828"/>
<rect x="330.528" y="-4.84597" width="31.4189" height="31.4189" rx="7.87101" transform="rotate(-30 330.528 -4.84597)" stroke="#0FA4A4" stroke-width="0.542828"/>
<path d="M345.182 -7.61056L344.388 -12.2584L348.016 -9.24691C351.49 -6.36311 356.051 -5.14105 360.502 -5.90133L365.15 -6.6953L362.138 -3.06711C359.254 0.407206 358.032 4.96799 358.792 9.41873L359.586 14.0666L355.958 11.0551C352.484 8.17128 347.923 6.94922 343.472 7.70951L338.825 8.50347L341.836 4.87528C344.72 1.40096 345.942 -3.15982 345.182 -7.61056Z" stroke="#0FA4A4" stroke-width="0.542828"/>
<rect x="-17.6091" y="159.24" width="31.4189" height="31.4189" rx="7.87101" transform="rotate(-30 -17.6091 159.24)" stroke="#0FA4A4" stroke-width="0.542828"/>
<path d="M-2.955 156.475L-3.74896 151.828L-0.120768 154.839C3.35354 157.723 7.91432 158.945 12.3651 158.185L17.0129 157.391L14.0014 161.019C11.1176 164.493 9.89556 169.054 10.6558 173.505L11.4498 178.153L7.82161 175.141C4.3473 172.257 -0.213477 171.035 -4.66422 171.795L-9.31209 172.589L-6.30057 168.961C-3.41677 165.487 -2.19471 160.926 -2.955 156.475Z" stroke="#0FA4A4" stroke-width="0.542828"/>
<rect x="10.0706" y="143.263" width="31.4189" height="31.4189" rx="7.87101" transform="rotate(-30 10.0706 143.263)" stroke="#0FA4A4" stroke-width="0.542828"/>
<path d="M24.7247 140.499L23.9307 135.851L27.5589 138.862C31.0332 141.746 35.594 142.968 40.0447 142.208L44.6926 141.414L41.6811 145.042C38.7973 148.517 37.5752 153.077 38.3355 157.528L39.1295 162.176L35.5013 159.164C32.027 156.281 27.4662 155.059 23.0154 155.819L18.3676 156.613L21.3791 152.985C24.2629 149.51 25.4849 144.95 24.7247 140.499Z" stroke="#0FA4A4" stroke-width="0.542828"/>
<rect x="37.7502" y="127.279" width="31.4189" height="31.4189" rx="7.87101" transform="rotate(-30 37.7502 127.279)" stroke="#0FA4A4" stroke-width="0.542828"/>
<path d="M52.4043 124.514L51.6104 119.867L55.2385 122.878C58.7129 125.762 63.2736 126.984 67.7244 126.224L72.3723 125.43L69.3607 129.058C66.4769 132.532 65.2549 137.093 66.0152 141.544L66.8091 146.192L63.1809 143.18C59.7066 140.296 55.1458 139.074 50.6951 139.835L46.0472 140.628L49.0587 137C51.9425 133.526 53.1646 128.965 52.4043 124.514Z" stroke="#0FA4A4" stroke-width="0.542828"/>
<rect x="65.4299" y="111.302" width="31.4189" height="31.4189" rx="7.87101" transform="rotate(-30 65.4299 111.302)" stroke="#0FA4A4" stroke-width="0.542828"/>
<path d="M80.0839 108.538L79.29 103.89L82.9182 106.902C86.3925 109.785 90.9533 111.007 95.404 110.247L100.052 109.453L97.0404 113.081C94.1566 116.556 92.9345 121.116 93.6948 125.567L94.4887 130.215L90.8606 127.204C87.3862 124.32 82.8255 123.098 78.3747 123.858L73.7268 124.652L76.7384 121.024C79.6222 117.549 80.8442 112.989 80.0839 108.538Z" stroke="#0FA4A4" stroke-width="0.542828"/>
<rect x="93.1095" y="95.3181" width="31.4189" height="31.4189" rx="7.87101" transform="rotate(-30 93.1095 95.3181)" stroke="#0FA4A4" stroke-width="0.542828"/>
<path d="M107.764 92.5535L106.97 87.9056L110.598 90.9172C114.072 93.801 118.633 95.023 123.084 94.2627L127.732 93.4688L124.72 97.097C121.836 100.571 120.614 105.132 121.374 109.583L122.168 114.231L118.54 111.219C115.066 108.335 110.505 107.113 106.054 107.874L101.407 108.668L104.418 105.039C107.302 101.565 108.524 97.0042 107.764 92.5535Z" stroke="#0FA4A4" stroke-width="0.542828"/>
<rect x="120.789" y="79.3415" width="31.4189" height="31.4189" rx="7.87101" transform="rotate(-30 120.789 79.3415)" stroke="#0FA4A4" stroke-width="0.542828"/>
<path d="M135.443 76.5769L134.649 71.9291L138.277 74.9406C141.752 77.8244 146.313 79.0465 150.763 78.2862L155.411 77.4922L152.4 81.1204C149.516 84.5947 148.294 89.1555 149.054 93.6062L149.848 98.2541L146.22 95.2426C142.746 92.3588 138.185 91.1367 133.734 91.897L129.086 92.691L132.098 89.0628C134.981 85.5885 136.204 81.0277 135.443 76.5769Z" stroke="#0FA4A4" stroke-width="0.542828"/>
<rect x="148.469" y="63.3572" width="31.4189" height="31.4189" rx="7.87101" transform="rotate(-30 148.469 63.3572)" stroke="#0FA4A4" stroke-width="0.542828"/>
<path d="M163.123 60.5926L162.329 55.9447L165.957 58.9562C169.431 61.84 173.992 63.0621 178.443 62.3018L183.091 61.5078L180.079 65.136C177.195 68.6103 175.973 73.1711 176.734 77.6219L177.528 82.2697L173.899 79.2582C170.425 76.3744 165.864 75.1523 161.414 75.9126L156.766 76.7066L159.777 73.0784C162.661 69.6041 163.883 65.0433 163.123 60.5926Z" stroke="#0FA4A4" stroke-width="0.542828"/>
<rect x="176.148" y="47.3806" width="31.4189" height="31.4189" rx="7.87101" transform="rotate(-30 176.148 47.3806)" stroke="#0FA4A4" stroke-width="0.542828"/>
<path d="M190.803 44.616L190.009 39.9681L193.637 42.9797C197.111 45.8635 201.672 47.0855 206.123 46.3252L210.77 45.5313L207.759 49.1595C204.875 52.6338 203.653 57.1945 204.413 61.6453L205.207 66.2932L201.579 63.2816C198.105 60.3978 193.544 59.1758 189.093 59.9361L184.445 60.73L187.457 57.1018C190.341 53.6275 191.563 49.0667 190.803 44.616Z" stroke="#0FA4A4" stroke-width="0.542828"/>
<rect x="203.828" y="31.3962" width="31.4189" height="31.4189" rx="7.87101" transform="rotate(-30 203.828 31.3962)" stroke="#0FA4A4" stroke-width="0.542828"/>
<path d="M218.482 28.6316L217.688 23.9838L221.316 26.9953C224.791 29.8791 229.351 31.1011 233.802 30.3409L238.45 29.5469L235.439 33.1751C232.555 36.6494 231.333 41.2102 232.093 45.6609L232.887 50.3088L229.259 47.2973C225.784 44.4135 221.224 43.1914 216.773 43.9517L212.125 44.7457L215.137 41.1175C218.02 37.6432 219.242 33.0824 218.482 28.6316Z" stroke="#0FA4A4" stroke-width="0.542828"/>
<rect x="231.508" y="15.4118" width="31.4189" height="31.4189" rx="7.87101" transform="rotate(-30 231.508 15.4118)" stroke="#0FA4A4" stroke-width="0.542828"/>
<path d="M246.162 12.6473L245.368 7.99938L248.996 11.0109C252.47 13.8947 257.031 15.1168 261.482 14.3565L266.13 13.5625L263.118 17.1907C260.234 20.665 259.012 25.2258 259.773 29.6765L260.567 34.3244L256.938 31.3129C253.464 28.4291 248.903 27.207 244.453 27.9673L239.805 28.7613L242.816 25.1331C245.7 21.6588 246.922 17.098 246.162 12.6473Z" stroke="#0FA4A4" stroke-width="0.542828"/>
<rect x="259.187" y="-0.564718" width="31.4189" height="31.4189" rx="7.87101" transform="rotate(-30 259.187 -0.564718)" stroke="#0FA4A4" stroke-width="0.542828"/>
<path d="M273.841 -3.32931L273.047 -7.97718L276.676 -4.96566C280.15 -2.08186 284.711 -0.859798 289.162 -1.62008L293.809 -2.41405L290.798 1.21414C287.914 4.68846 286.692 9.24924 287.452 13.7L288.246 18.3478L284.618 15.3363C281.144 12.4525 276.583 11.2305 272.132 11.9908L267.484 12.7847L270.496 9.15653C273.38 5.68221 274.602 1.12143 273.841 -3.32931Z" stroke="#0FA4A4" stroke-width="0.542828"/>
<rect x="286.867" y="-16.5491" width="31.4189" height="31.4189" rx="7.87101" transform="rotate(-30 286.867 -16.5491)" stroke="#0FA4A4" stroke-width="0.542828"/>
<path d="M301.521 -19.3137L300.727 -23.9616L304.355 -20.95C307.83 -18.0662 312.39 -16.8442 316.841 -17.6045L321.489 -18.3984L318.478 -14.7702C315.594 -11.2959 314.372 -6.73514 315.132 -2.2844L315.926 2.36347L312.298 -0.648048C308.823 -3.53185 304.263 -4.75391 299.812 -3.99362L295.164 -3.19966L298.176 -6.82785C301.059 -10.3022 302.281 -14.8629 301.521 -19.3137Z" stroke="#0FA4A4" stroke-width="0.542828"/>
<rect x="-33.5896" y="131.56" width="31.4189" height="31.4189" rx="7.87101" transform="rotate(-30 -33.5896 131.56)" stroke="#0FA4A4" stroke-width="0.542828"/>
<path d="M-18.9356 128.796L-19.7295 124.148L-16.1013 127.159C-12.627 130.043 -8.06624 131.265 -3.61549 130.505L1.03238 129.711L-1.97915 133.339C-4.86295 136.813 -6.085 141.374 -5.32472 145.825L-4.53076 150.473L-8.15895 147.461C-11.6333 144.578 -16.194 143.355 -20.6448 144.116L-25.2927 144.91L-22.2811 141.282C-19.3973 137.807 -18.1753 133.246 -18.9356 128.796Z" stroke="#0FA4A4" stroke-width="0.542828"/>
<rect x="-5.91003" y="115.584" width="31.4189" height="31.4189" rx="7.87101" transform="rotate(-30 -5.91003 115.584)" stroke="#0FA4A4" stroke-width="0.542828"/>
<path d="M8.74404 112.819L7.95008 108.171L11.5783 111.183C15.0526 114.067 19.6134 115.289 24.0641 114.528L28.712 113.734L25.7005 117.363C22.8167 120.837 21.5946 125.398 22.3549 129.848L23.1488 134.496L19.5207 131.485C16.0463 128.601 11.4856 127.379 7.03482 128.139L2.38694 128.933L5.39847 125.305C8.28227 121.831 9.50433 117.27 8.74404 112.819Z" stroke="#0FA4A4" stroke-width="0.542828"/>
<rect x="21.7697" y="99.5993" width="31.4189" height="31.4189" rx="7.87101" transform="rotate(-30 21.7697 99.5993)" stroke="#0FA4A4" stroke-width="0.542828"/>
<path d="M36.4238 96.8348L35.6298 92.1869L39.258 95.1984C42.7323 98.0822 47.2931 99.3043 51.7438 98.544L56.3917 97.75L53.3802 101.378C50.4964 104.853 49.2743 109.413 50.0346 113.864L50.8286 118.512L47.2004 115.5C43.7261 112.617 39.1653 111.395 34.7145 112.155L30.0667 112.949L33.0782 109.321C35.962 105.846 37.184 101.285 36.4238 96.8348Z" stroke="#0FA4A4" stroke-width="0.542828"/>
<rect x="49.4492" y="83.6228" width="31.4189" height="31.4189" rx="7.87101" transform="rotate(-30 49.4492 83.6228)" stroke="#0FA4A4" stroke-width="0.542828"/>
<path d="M64.1033 80.8582L63.3093 76.2103L66.9375 79.2218C70.4118 82.1056 74.9726 83.3277 79.4234 82.5674L84.0712 81.7735L81.0597 85.4016C78.1759 88.876 76.9538 93.4367 77.7141 97.8875L78.5081 102.535L74.8799 99.5238C71.4056 96.64 66.8448 95.418 62.3941 96.1783L57.7462 96.9722L60.7577 93.344C63.6415 89.8697 64.8636 85.3089 64.1033 80.8582Z" stroke="#0FA4A4" stroke-width="0.542828"/>
<rect x="77.1289" y="67.6384" width="31.4189" height="31.4189" rx="7.87101" transform="rotate(-30 77.1289 67.6384)" stroke="#0FA4A4" stroke-width="0.542828"/>
<path d="M91.783 64.8738L90.989 60.2259L94.6172 63.2375C98.0916 66.1213 102.652 67.3433 107.103 66.583L111.751 65.7891L108.739 69.4173C105.856 72.8916 104.634 77.4524 105.394 81.9031L106.188 86.551L102.56 83.5395C99.0853 80.6557 94.5245 79.4336 90.0738 80.1939L85.4259 80.9878L88.4374 77.3597C91.3212 73.8853 92.5433 69.3246 91.783 64.8738Z" stroke="#0FA4A4" stroke-width="0.542828"/>
<rect x="104.809" y="51.6618" width="31.4189" height="31.4189" rx="7.87101" transform="rotate(-30 104.809 51.6618)" stroke="#0FA4A4" stroke-width="0.542828"/>
<path d="M119.463 48.8973L118.669 44.2494L122.297 47.2609C125.771 50.1447 130.332 51.3668 134.783 50.6065L139.431 49.8125L136.419 53.4407C133.535 56.915 132.313 61.4758 133.074 65.9265L133.867 70.5744L130.239 67.5629C126.765 64.6791 122.204 63.457 117.753 64.2173L113.106 65.0113L116.117 61.3831C119.001 57.9088 120.223 53.348 119.463 48.8973Z" stroke="#0FA4A4" stroke-width="0.542828"/>
<rect x="132.488" y="35.6775" width="31.4189" height="31.4189" rx="7.87101" transform="rotate(-30 132.488 35.6775)" stroke="#0FA4A4" stroke-width="0.542828"/>
<path d="M147.142 32.9129L146.348 28.265L149.976 31.2765C153.451 34.1603 158.012 35.3824 162.462 34.6221L167.11 33.8281L164.099 37.4563C161.215 40.9306 159.993 45.4914 160.753 49.9422L161.547 54.59L157.919 51.5785C154.445 48.6947 149.884 47.4727 145.433 48.2329L140.785 49.0269L143.797 45.3987C146.68 41.9244 147.903 37.3636 147.142 32.9129Z" stroke="#0FA4A4" stroke-width="0.542828"/>
<rect x="160.168" y="19.7009" width="31.4189" height="31.4189" rx="7.87101" transform="rotate(-30 160.168 19.7009)" stroke="#0FA4A4" stroke-width="0.542828"/>
<path d="M174.822 16.9363L174.028 12.2884L177.656 15.3C181.131 18.1838 185.691 19.4058 190.142 18.6455L194.79 17.8516L191.778 21.4798C188.895 24.9541 187.673 29.5149 188.433 33.9656L189.227 38.6135L185.599 35.602C182.124 32.7182 177.564 31.4961 173.113 32.2564L168.465 33.0503L171.476 29.4222C174.36 25.9478 175.582 21.3871 174.822 16.9363Z" stroke="#0FA4A4" stroke-width="0.542828"/>
<rect x="187.848" y="3.71653" width="31.4189" height="31.4189" rx="7.87101" transform="rotate(-30 187.848 3.71653)" stroke="#0FA4A4" stroke-width="0.542828"/>
<path d="M202.502 0.95194L201.708 -3.69593L205.336 -0.684407C208.81 2.19939 213.371 3.42145 217.822 2.66117L222.47 1.8672L219.458 5.49539C216.574 8.96971 215.352 13.5305 216.112 17.9812L216.906 22.6291L213.278 19.6176C209.804 16.7338 205.243 15.5117 200.792 16.272L196.145 17.066L199.156 13.4378C202.04 9.96346 203.262 5.40268 202.502 0.95194Z" stroke="#0FA4A4" stroke-width="0.542828"/>
<rect x="215.527" y="-12.2678" width="31.4189" height="31.4189" rx="7.87101" transform="rotate(-30 215.527 -12.2678)" stroke="#0FA4A4" stroke-width="0.542828"/>
<path d="M230.181 -15.0324L229.387 -19.6803L233.015 -16.6688C236.49 -13.785 241.051 -12.5629 245.501 -13.3232L250.149 -14.1172L247.138 -10.489C244.254 -7.01467 243.032 -2.45389 243.792 1.99685L244.586 6.64472L240.958 3.6332C237.484 0.749402 232.923 -0.472657 228.472 0.287631L223.824 1.08159L226.836 -2.5466C229.719 -6.02091 230.942 -10.5817 230.181 -15.0324Z" stroke="#0FA4A4" stroke-width="0.542828"/>
<rect x="-21.8909" y="87.904" width="31.4189" height="31.4189" rx="7.87101" transform="rotate(-30 -21.8909 87.904)" stroke="#0FA4A4" stroke-width="0.542828"/>
<path d="M-7.2368 85.1394L-8.03076 80.4916L-4.40257 83.5031C-0.928256 86.3869 3.63253 87.609 8.08327 86.8487L12.7311 86.0547L9.71962 89.6829C6.83582 93.1572 5.61376 97.718 6.37404 102.169L7.168 106.817L3.53982 103.805C0.0655028 100.921 -4.49528 99.6992 -8.94602 100.46L-13.5939 101.253L-10.5824 97.6253C-7.69857 94.151 -6.47651 89.5902 -7.2368 85.1394Z" stroke="#0FA4A4" stroke-width="0.542828"/>
<rect x="5.78879" y="71.9197" width="31.4189" height="31.4189" rx="7.87101" transform="rotate(-30 5.78879 71.9197)" stroke="#0FA4A4" stroke-width="0.542828"/>
<path d="M20.4429 69.1551L19.6489 64.5072L23.2771 67.5187C26.7514 70.4025 31.3122 71.6246 35.7629 70.8643L40.4108 70.0703L37.3993 73.6985C34.5155 77.1728 33.2934 81.7336 34.0537 86.1844L34.8477 90.8322L31.2195 87.8207C27.7452 84.9369 23.1844 83.7148 18.7336 84.4751L14.0858 85.2691L17.0973 81.6409C19.9811 78.1666 21.2031 73.6058 20.4429 69.1551Z" stroke="#0FA4A4" stroke-width="0.542828"/>
<rect x="33.4684" y="55.9431" width="31.4189" height="31.4189" rx="7.87101" transform="rotate(-30 33.4684 55.9431)" stroke="#0FA4A4" stroke-width="0.542828"/>
<path d="M48.1225 53.1785L47.3286 48.5306L50.9567 51.5422C54.4311 54.426 58.9918 55.648 63.4426 54.8877L68.0905 54.0938L65.0789 57.722C62.1951 61.1963 60.9731 65.757 61.7334 70.2078L62.5273 74.8557L58.8991 71.8441C55.4248 68.9603 50.864 67.7383 46.4133 68.4986L41.7654 69.2925L44.7769 65.6643C47.6607 62.19 48.8828 57.6292 48.1225 53.1785Z" stroke="#0FA4A4" stroke-width="0.542828"/>
<rect x="61.1481" y="39.9587" width="31.4189" height="31.4189" rx="7.87101" transform="rotate(-30 61.1481 39.9587)" stroke="#0FA4A4" stroke-width="0.542828"/>
<path d="M75.8022 37.1941L75.0082 32.5463L78.6364 35.5578C82.1107 38.4416 86.6715 39.6636 91.1222 38.9034L95.7701 38.1094L92.7586 41.7376C89.8748 45.2119 88.6527 49.7727 89.413 54.2234L90.207 58.8713L86.5788 55.8598C83.1045 52.976 78.5437 51.7539 74.093 52.5142L69.4451 53.3082L72.4566 49.68C75.3404 46.2057 76.5625 41.6449 75.8022 37.1941Z" stroke="#0FA4A4" stroke-width="0.542828"/>
<rect x="88.8277" y="23.9822" width="31.4189" height="31.4189" rx="7.87101" transform="rotate(-30 88.8277 23.9822)" stroke="#0FA4A4" stroke-width="0.542828"/>
<path d="M103.482 21.2176L102.688 16.5697L106.316 19.5812C109.79 22.465 114.351 23.6871 118.802 22.9268L123.45 22.1328L120.438 25.761C117.554 29.2353 116.332 33.7961 117.093 38.2469L117.887 42.8947L114.258 39.8832C110.784 36.9994 106.223 35.7773 101.773 36.5376L97.1247 37.3316L100.136 33.7034C103.02 30.2291 104.242 25.6683 103.482 21.2176Z" stroke="#0FA4A4" stroke-width="0.542828"/>
<rect x="116.507" y="7.99778" width="31.4189" height="31.4189" rx="7.87101" transform="rotate(-30 116.507 7.99778)" stroke="#0FA4A4" stroke-width="0.542828"/>
<path d="M131.161 5.23319L130.367 0.585322L133.996 3.59684C137.47 6.48064 142.031 7.7027 146.481 6.94242L151.129 6.14845L148.118 9.77664C145.234 13.251 144.012 17.8117 144.772 22.2625L145.566 26.9103L141.938 23.8988C138.464 21.015 133.903 19.793 129.452 20.5533L124.804 21.3472L127.816 17.719C130.7 14.2447 131.922 9.68393 131.161 5.23319Z" stroke="#0FA4A4" stroke-width="0.542828"/>
<rect x="144.187" y="-7.97878" width="31.4189" height="31.4189" rx="7.87101" transform="rotate(-30 144.187 -7.97878)" stroke="#0FA4A4" stroke-width="0.542828"/>
<path d="M158.841 -10.7434L158.047 -15.3912L161.675 -12.3797C165.15 -9.49592 169.71 -8.27386 174.161 -9.03415L178.809 -9.82811L175.798 -6.19992C172.914 -2.72561 171.692 1.83517 172.452 6.28591L173.246 10.9338L169.618 7.92226C166.143 5.03846 161.583 3.81641 157.132 4.57669L152.484 5.37065L155.496 1.74247C158.379 -1.73185 159.601 -6.29263 158.841 -10.7434Z" stroke="#0FA4A4" stroke-width="0.542828"/>
<rect x="171.867" y="-23.9632" width="31.4189" height="31.4189" rx="7.87101" transform="rotate(-30 171.867 -23.9632)" stroke="#0FA4A4" stroke-width="0.542828"/>
<path d="M186.521 -26.7277L185.727 -31.3756L189.355 -28.3641C192.829 -25.4803 197.39 -24.2582 201.841 -25.0185L206.489 -25.8125L203.477 -22.1843C200.593 -18.71 199.371 -14.1492 200.132 -9.69846L200.926 -5.05059L197.297 -8.06211C193.823 -10.9459 189.262 -12.168 184.812 -11.4077L180.164 -10.6137L183.175 -14.2419C186.059 -17.7162 187.281 -22.277 186.521 -26.7277Z" stroke="#0FA4A4" stroke-width="0.542828"/>
<rect x="-37.8717" y="60.2243" width="31.4189" height="31.4189" rx="7.87101" transform="rotate(-30 -37.8717 60.2243)" stroke="#0FA4A4" stroke-width="0.542828"/>
<path d="M-23.2176 57.4598L-24.0116 52.8119L-20.3834 55.8234C-16.9091 58.7072 -12.3483 59.9293 -7.89757 59.169L-3.2497 58.375L-6.26122 62.0032C-9.14502 65.4775 -10.3671 70.0383 -9.60679 74.489L-8.81283 79.1369L-12.441 76.1254C-15.9153 73.2416 -20.4761 72.0195 -24.9269 72.7798L-29.5747 73.5738L-26.5632 69.9456C-23.6794 66.4713 -22.4573 61.9105 -23.2176 57.4598Z" stroke="#0FA4A4" stroke-width="0.542828"/>
<rect x="-10.1921" y="44.24" width="31.4189" height="31.4189" rx="7.87101" transform="rotate(-30 -10.1921 44.24)" stroke="#0FA4A4" stroke-width="0.542828"/>
<path d="M4.46196 41.4754L3.668 36.8275L7.29619 39.839C10.7705 42.7228 15.3313 43.9449 19.782 43.1846L24.4299 42.3906L21.4184 46.0188C18.5346 49.4931 17.3125 54.0539 18.0728 58.5047L18.8668 63.1525L15.2386 60.141C11.7643 57.2572 7.20348 56.0352 2.75274 56.7954L-1.89513 57.5894L1.11639 53.9612C4.00019 50.4869 5.22225 45.9261 4.46196 41.4754Z" stroke="#0FA4A4" stroke-width="0.542828"/>
<rect x="17.4876" y="28.2634" width="31.4189" height="31.4189" rx="7.87101" transform="rotate(-30 17.4876 28.2634)" stroke="#0FA4A4" stroke-width="0.542828"/>
<path d="M32.1417 25.4988L31.3477 20.8509L34.9759 23.8625C38.4502 26.7463 43.011 27.9683 47.4617 27.208L52.1096 26.4141L49.0981 30.0423C46.2143 33.5166 44.9922 38.0774 45.7525 42.5281L46.5465 47.176L42.9183 44.1645C39.444 41.2807 34.8832 40.0586 30.4325 40.8189L25.7846 41.6128L28.7961 37.9847C31.6799 34.5103 32.902 29.9496 32.1417 25.4988Z" stroke="#0FA4A4" stroke-width="0.542828"/>
<rect x="45.1672" y="12.279" width="31.4189" height="31.4189" rx="7.87101" transform="rotate(-30 45.1672 12.279)" stroke="#0FA4A4" stroke-width="0.542828"/>
<path d="M59.8213 9.51444L59.0273 4.86657L62.6555 7.87809C66.1298 10.7619 70.6906 11.984 75.1413 11.2237L79.7892 10.4297L76.7777 14.0579C73.8939 17.5322 72.6718 22.093 73.4321 26.5437L74.2261 31.1916L70.5979 28.1801C67.1236 25.2963 62.5628 24.0742 58.1121 24.8345L53.4642 25.6285L56.4757 22.0003C59.3595 18.526 60.5816 13.9652 59.8213 9.51444Z" stroke="#0FA4A4" stroke-width="0.542828"/>
<rect x="72.8469" y="-3.69753" width="31.4189" height="31.4189" rx="7.87101" transform="rotate(-30 72.8469 -3.69753)" stroke="#0FA4A4" stroke-width="0.542828"/>
<path d="M87.5009 -6.46212L86.707 -11.11L90.3352 -8.09847C93.8095 -5.21467 98.3703 -3.99261 102.821 -4.7529L107.469 -5.54686L104.457 -1.91867C101.574 1.55564 100.351 6.11642 101.112 10.5672L101.906 15.215L98.2775 12.2035C94.8032 9.31971 90.2425 8.09766 85.7917 8.85794L81.1438 9.6519L84.1554 6.02372C87.0392 2.5494 88.2612 -2.01138 87.5009 -6.46212Z" stroke="#0FA4A4" stroke-width="0.542828"/>
<rect x="100.527" y="-19.6819" width="31.4189" height="31.4189" rx="7.87101" transform="rotate(-30 100.527 -19.6819)" stroke="#0FA4A4" stroke-width="0.542828"/>
<path d="M115.181 -22.4465L114.387 -27.0944L118.015 -24.0828C121.489 -21.199 126.05 -19.977 130.501 -20.7373L135.149 -21.5312L132.137 -17.903C129.253 -14.4287 128.031 -9.86795 128.792 -5.41721L129.585 -0.769338L125.957 -3.78086C122.483 -6.66466 117.922 -7.88672 113.471 -7.12643L108.824 -6.33247L111.835 -9.96066C114.719 -13.435 115.941 -17.9958 115.181 -22.4465Z" stroke="#0FA4A4" stroke-width="0.542828"/>
<rect x="-26.1729" y="16.5603" width="31.4189" height="31.4189" rx="7.87101" transform="rotate(-30 -26.1729 16.5603)" stroke="#0FA4A4" stroke-width="0.542828"/>
<path d="M-11.5189 13.7957L-12.3128 9.14782L-8.68464 12.1593C-5.21033 15.0431 -0.649549 16.2652 3.80119 15.5049L8.44906 14.711L5.43754 18.3391C2.55374 21.8135 1.33168 26.3742 2.09197 30.825L2.88593 35.4728L-0.742259 32.4613C-4.21657 29.5775 -8.77735 28.3555 -13.2281 29.1158L-17.876 29.9097L-14.8644 26.2815C-11.9806 22.8072 -10.7586 18.2464 -11.5189 13.7957Z" stroke="#0FA4A4" stroke-width="0.542828"/>
<rect x="1.50674" y="0.583719" width="31.4189" height="31.4189" rx="7.87101" transform="rotate(-30 1.50674 0.583719)" stroke="#0FA4A4" stroke-width="0.542828"/>
<path d="M16.1608 -2.18087L15.3669 -6.82874L18.995 -3.81722C22.4694 -0.93342 27.0301 0.28864 31.4809 -0.471647L36.1288 -1.26561L33.1172 2.36258C30.2334 5.83689 29.0114 10.3977 29.7717 14.8484L30.5656 19.4963L26.9374 16.4848C23.4631 13.601 18.9023 12.3789 14.4516 13.1392L9.80372 13.9332L12.8152 10.305C15.699 6.83065 16.9211 2.26987 16.1608 -2.18087Z" stroke="#0FA4A4" stroke-width="0.542828"/>
<rect x="29.1864" y="-15.4007" width="31.4189" height="31.4189" rx="7.87101" transform="rotate(-30 29.1864 -15.4007)" stroke="#0FA4A4" stroke-width="0.542828"/>
<path d="M43.8404 -18.1652L43.0465 -22.8131L46.6747 -19.8016C50.149 -16.9178 54.7098 -15.6957 59.1605 -16.456L63.8084 -17.25L60.7969 -13.6218C57.9131 -10.1475 56.691 -5.5867 57.4513 -1.13596L58.2452 3.51191L54.6171 0.500389C51.1427 -2.38341 46.582 -3.60547 42.1312 -2.84518L37.4834 -2.05122L40.4949 -5.67941C43.3787 -9.15372 44.6007 -13.7145 43.8404 -18.1652Z" stroke="#0FA4A4" stroke-width="0.542828"/>
</g>
<path d="M177.973 49.9376C180.372 48.1873 183.628 48.1873 186.027 49.9376L209.088 66.7593C210.261 67.6149 211.676 68.0747 213.128 68.072L241.672 68.0176C244.642 68.012 247.275 69.9254 248.188 72.7517L256.957 99.9155C257.403 101.297 258.277 102.501 259.453 103.352L282.578 120.086C284.984 121.827 285.99 124.923 285.067 127.746L276.195 154.876C275.743 156.256 275.743 157.744 276.195 159.124L285.067 186.254C285.99 189.077 284.984 192.173 282.578 193.914L259.453 210.648C258.277 211.499 257.403 212.703 256.957 214.085L248.188 241.248C247.275 244.075 244.642 245.988 241.672 245.982L213.128 245.928C211.676 245.925 210.261 246.385 209.088 247.241L186.027 264.062C183.628 265.813 180.372 265.813 177.973 264.062L154.912 247.241C153.739 246.385 152.324 245.925 150.872 245.928L122.328 245.982C119.358 245.988 116.725 244.075 115.812 241.248L107.043 214.085C106.597 212.703 105.723 211.499 104.547 210.648L81.422 193.914C79.0159 192.173 78.01 189.077 78.9331 186.254L87.8054 159.124C88.2567 157.744 88.2567 156.256 87.8054 154.876L78.9331 127.746C78.01 124.923 79.0159 121.827 81.422 120.086L104.547 103.352C105.723 102.501 106.597 101.297 107.043 99.9155L115.812 72.7517C116.725 69.9254 119.358 68.012 122.328 68.0176L150.872 68.072C152.324 68.0747 153.739 67.6149 154.912 66.7593L177.973 49.9376Z" fill="#249292"/>
<path d="M192.5 122C194.958 122 197.373 122.647 199.501 123.876C201.63 125.105 203.398 126.872 204.627 129.001C205.855 131.13 206.502 133.545 206.502 136.003C206.501 138.461 205.854 140.875 204.624 143.004L220.5 143V150H213.5V185C213.5 185.928 213.131 186.819 212.475 187.475C211.818 188.131 210.928 188.5 210 188.5H154C153.072 188.5 152.182 188.131 151.525 187.475C150.869 186.819 150.5 185.928 150.5 185V150H143.5V143L159.376 143.004C157.64 139.997 157.082 136.452 157.813 133.057C158.543 129.663 160.509 126.661 163.329 124.634C166.148 122.607 169.62 121.701 173.071 122.091C176.521 122.48 179.703 124.138 182 126.743C183.311 125.249 184.926 124.054 186.737 123.236C188.548 122.418 190.513 121.997 192.5 122ZM178.5 150H157.5V181.5H178.5V150ZM206.5 150H185.5V181.5H206.5V150ZM171.5 129C169.684 128.992 167.935 129.69 166.624 130.947C165.313 132.205 164.542 133.922 164.474 135.737C164.405 137.552 165.046 139.323 166.259 140.675C167.472 142.027 169.163 142.854 170.975 142.983L171.5 143H178.5V136C178.5 134.327 177.901 132.71 176.812 131.44C175.722 130.171 174.214 129.334 172.561 129.081L172.021 129.018L171.5 129ZM192.5 129C190.734 128.999 189.033 129.666 187.738 130.867C186.443 132.068 185.65 133.714 185.518 135.475L185.5 136V143H192.5C194.266 143.001 195.967 142.334 197.262 141.133C198.557 139.932 199.35 138.286 199.483 136.525L199.5 136C199.5 134.144 198.763 132.363 197.45 131.05C196.137 129.738 194.357 129 192.5 129Z" fill="black" fill-opacity="0.2"/>
</svg>
