<svg width="364" height="314" viewBox="0 0 364 314" fill="none" xmlns="http://www.w3.org/2000/svg">
<rect width="364" height="314" rx="10" fill="#8576B5"/>
<mask id="mask0_3582_229410" style="mask-type:alpha" maskUnits="userSpaceOnUse" x="0" y="0" width="364" height="314">
<rect width="364" height="314" rx="10" fill="#8576B5"/>
</mask>
<g mask="url(#mask0_3582_229410)">
<circle cx="314.258" cy="287.18" r="11.75" transform="rotate(-45 314.258 287.18)" stroke="#7A69B0" stroke-width="0.5"/>
<circle cx="328.4" cy="287.181" r="11.75" transform="rotate(45 328.4 287.181)" stroke="#7A69B0" stroke-width="0.5"/>
<circle cx="328.4" cy="301.32" r="11.75" transform="rotate(-45 328.4 301.32)" stroke="#7A69B0" stroke-width="0.5"/>
<circle cx="314.258" cy="301.322" r="11.75" transform="rotate(45 314.258 301.322)" stroke="#7A69B0" stroke-width="0.5"/>
<circle cx="259.103" cy="232.031" r="11.75" transform="rotate(-45 259.103 232.031)" stroke="#7A69B0" stroke-width="0.5"/>
<circle cx="273.245" cy="232.033" r="11.75" transform="rotate(45 273.245 232.033)" stroke="#7A69B0" stroke-width="0.5"/>
<circle cx="273.245" cy="246.172" r="11.75" transform="rotate(-45 273.245 246.172)" stroke="#7A69B0" stroke-width="0.5"/>
<circle cx="259.103" cy="246.174" r="11.75" transform="rotate(45 259.103 246.174)" stroke="#7A69B0" stroke-width="0.5"/>
<circle cx="203.949" cy="176.875" r="11.75" transform="rotate(-45 203.949 176.875)" stroke="#7A69B0" stroke-width="0.5"/>
<circle cx="218.091" cy="176.877" r="11.75" transform="rotate(45 218.091 176.877)" stroke="#7A69B0" stroke-width="0.5"/>
<circle cx="218.091" cy="191.016" r="11.75" transform="rotate(-45 218.091 191.016)" stroke="#7A69B0" stroke-width="0.5"/>
<circle cx="203.949" cy="191.017" r="11.75" transform="rotate(45 203.949 191.017)" stroke="#7A69B0" stroke-width="0.5"/>
<circle cx="148.795" cy="121.719" r="11.75" transform="rotate(-45 148.795 121.719)" stroke="#7A69B0" stroke-width="0.5"/>
<circle cx="162.937" cy="121.721" r="11.75" transform="rotate(45 162.937 121.721)" stroke="#7A69B0" stroke-width="0.5"/>
<circle cx="162.937" cy="135.859" r="11.75" transform="rotate(-45 162.937 135.859)" stroke="#7A69B0" stroke-width="0.5"/>
<circle cx="148.795" cy="135.861" r="11.75" transform="rotate(45 148.795 135.861)" stroke="#7A69B0" stroke-width="0.5"/>
<circle cx="93.6404" cy="66.5625" r="11.75" transform="rotate(-45 93.6404 66.5625)" stroke="#7A69B0" stroke-width="0.5"/>
<circle cx="107.783" cy="66.5643" r="11.75" transform="rotate(45 107.783 66.5643)" stroke="#7A69B0" stroke-width="0.5"/>
<circle cx="107.783" cy="80.7031" r="11.75" transform="rotate(-45 107.783 80.7031)" stroke="#7A69B0" stroke-width="0.5"/>
<circle cx="93.6404" cy="80.7049" r="11.75" transform="rotate(45 93.6404 80.7049)" stroke="#7A69B0" stroke-width="0.5"/>
<circle cx="38.486" cy="11.4141" r="11.75" transform="rotate(-45 38.486 11.4141)" stroke="#7A69B0" stroke-width="0.5"/>
<circle cx="52.6282" cy="11.4159" r="11.75" transform="rotate(45 52.6282 11.4159)" stroke="#7A69B0" stroke-width="0.5"/>
<circle cx="52.6282" cy="25.5547" r="11.75" transform="rotate(-45 52.6282 25.5547)" stroke="#7A69B0" stroke-width="0.5"/>
<circle cx="38.486" cy="25.5565" r="11.75" transform="rotate(45 38.486 25.5565)" stroke="#7A69B0" stroke-width="0.5"/>
<circle cx="341.835" cy="314.758" r="11.75" transform="rotate(-45 341.835 314.758)" stroke="#7A69B0" stroke-width="0.5"/>
<circle cx="355.977" cy="314.76" r="11.75" transform="rotate(45 355.977 314.76)" stroke="#7A69B0" stroke-width="0.5"/>
<circle cx="355.977" cy="328.898" r="11.75" transform="rotate(-45 355.977 328.898)" stroke="#7A69B0" stroke-width="0.5"/>
<circle cx="341.835" cy="328.9" r="11.75" transform="rotate(45 341.835 328.9)" stroke="#7A69B0" stroke-width="0.5"/>
<circle cx="286.68" cy="259.609" r="11.75" transform="rotate(-45 286.68 259.609)" stroke="#7A69B0" stroke-width="0.5"/>
<circle cx="300.823" cy="259.611" r="11.75" transform="rotate(45 300.823 259.611)" stroke="#7A69B0" stroke-width="0.5"/>
<circle cx="300.823" cy="273.75" r="11.75" transform="rotate(-45 300.823 273.75)" stroke="#7A69B0" stroke-width="0.5"/>
<circle cx="286.68" cy="273.752" r="11.75" transform="rotate(45 286.68 273.752)" stroke="#7A69B0" stroke-width="0.5"/>
<circle cx="231.526" cy="204.453" r="11.75" transform="rotate(-45 231.526 204.453)" stroke="#7A69B0" stroke-width="0.5"/>
<circle cx="245.668" cy="204.455" r="11.75" transform="rotate(45 245.668 204.455)" stroke="#7A69B0" stroke-width="0.5"/>
<circle cx="245.668" cy="218.594" r="11.75" transform="rotate(-45 245.668 218.594)" stroke="#7A69B0" stroke-width="0.5"/>
<circle cx="231.526" cy="218.596" r="11.75" transform="rotate(45 231.526 218.596)" stroke="#7A69B0" stroke-width="0.5"/>
<circle cx="176.372" cy="149.297" r="11.75" transform="rotate(-45 176.372 149.297)" stroke="#7A69B0" stroke-width="0.5"/>
<circle cx="190.514" cy="149.299" r="11.75" transform="rotate(45 190.514 149.299)" stroke="#7A69B0" stroke-width="0.5"/>
<circle cx="190.514" cy="163.438" r="11.75" transform="rotate(-45 190.514 163.438)" stroke="#7A69B0" stroke-width="0.5"/>
<circle cx="176.372" cy="163.439" r="11.75" transform="rotate(45 176.372 163.439)" stroke="#7A69B0" stroke-width="0.5"/>
<circle cx="121.218" cy="94.1406" r="11.75" transform="rotate(-45 121.218 94.1406)" stroke="#7A69B0" stroke-width="0.5"/>
<circle cx="135.36" cy="94.1424" r="11.75" transform="rotate(45 135.36 94.1424)" stroke="#7A69B0" stroke-width="0.5"/>
<circle cx="135.36" cy="108.281" r="11.75" transform="rotate(-45 135.36 108.281)" stroke="#7A69B0" stroke-width="0.5"/>
<circle cx="121.218" cy="108.283" r="11.75" transform="rotate(45 121.218 108.283)" stroke="#7A69B0" stroke-width="0.5"/>
<circle cx="66.0632" cy="38.9922" r="11.75" transform="rotate(-45 66.0632 38.9922)" stroke="#7A69B0" stroke-width="0.5"/>
<circle cx="80.2053" cy="38.994" r="11.75" transform="rotate(45 80.2053 38.994)" stroke="#7A69B0" stroke-width="0.5"/>
<circle cx="80.2053" cy="53.1328" r="11.75" transform="rotate(-45 80.2053 53.1328)" stroke="#7A69B0" stroke-width="0.5"/>
<circle cx="66.0632" cy="53.1346" r="11.75" transform="rotate(45 66.0632 53.1346)" stroke="#7A69B0" stroke-width="0.5"/>
<circle cx="10.9089" cy="-16.1641" r="11.75" transform="rotate(-45 10.9089 -16.1641)" stroke="#7A69B0" stroke-width="0.5"/>
<circle cx="25.051" cy="-16.1623" r="11.75" transform="rotate(45 25.051 -16.1623)" stroke="#7A69B0" stroke-width="0.5"/>
<circle cx="25.051" cy="-2.02344" r="11.75" transform="rotate(-45 25.051 -2.02344)" stroke="#7A69B0" stroke-width="0.5"/>
<circle cx="10.9088" cy="-2.02163" r="11.75" transform="rotate(45 10.9088 -2.02163)" stroke="#7A69B0" stroke-width="0.5"/>
<circle cx="-6.06168" cy="290.721" r="11.75" transform="rotate(45 -6.06168 290.721)" stroke="#7A69B0" stroke-width="0.5"/>
<circle cx="-6.06169" cy="304.859" r="11.75" transform="rotate(-45 -6.06169 304.859)" stroke="#7A69B0" stroke-width="0.5"/>
<circle cx="342.542" cy="258.898" r="11.75" transform="rotate(-45 342.542 258.898)" stroke="#7A69B0" stroke-width="0.5"/>
<circle cx="356.684" cy="258.9" r="11.75" transform="rotate(45 356.684 258.9)" stroke="#7A69B0" stroke-width="0.5"/>
<circle cx="356.684" cy="273.039" r="11.75" transform="rotate(-45 356.684 273.039)" stroke="#7A69B0" stroke-width="0.5"/>
<circle cx="342.542" cy="273.041" r="11.75" transform="rotate(45 342.542 273.041)" stroke="#7A69B0" stroke-width="0.5"/>
<circle cx="287.388" cy="203.742" r="11.75" transform="rotate(-45 287.388 203.742)" stroke="#7A69B0" stroke-width="0.5"/>
<circle cx="301.53" cy="203.744" r="11.75" transform="rotate(45 301.53 203.744)" stroke="#7A69B0" stroke-width="0.5"/>
<circle cx="301.53" cy="217.883" r="11.75" transform="rotate(-45 301.53 217.883)" stroke="#7A69B0" stroke-width="0.5"/>
<circle cx="287.388" cy="217.885" r="11.75" transform="rotate(45 287.388 217.885)" stroke="#7A69B0" stroke-width="0.5"/>
<circle cx="232.233" cy="148.594" r="11.75" transform="rotate(-45 232.233 148.594)" stroke="#7A69B0" stroke-width="0.5"/>
<circle cx="246.375" cy="148.596" r="11.75" transform="rotate(45 246.375 148.596)" stroke="#7A69B0" stroke-width="0.5"/>
<circle cx="246.375" cy="162.734" r="11.75" transform="rotate(-45 246.375 162.734)" stroke="#7A69B0" stroke-width="0.5"/>
<circle cx="232.233" cy="162.736" r="11.75" transform="rotate(45 232.233 162.736)" stroke="#7A69B0" stroke-width="0.5"/>
<circle cx="177.079" cy="93.4375" r="11.75" transform="rotate(-45 177.079 93.4375)" stroke="#7A69B0" stroke-width="0.5"/>
<circle cx="191.221" cy="93.4393" r="11.75" transform="rotate(45 191.221 93.4393)" stroke="#7A69B0" stroke-width="0.5"/>
<circle cx="191.221" cy="107.578" r="11.75" transform="rotate(-45 191.221 107.578)" stroke="#7A69B0" stroke-width="0.5"/>
<circle cx="177.079" cy="107.58" r="11.75" transform="rotate(45 177.079 107.58)" stroke="#7A69B0" stroke-width="0.5"/>
<circle cx="121.925" cy="38.2812" r="11.75" transform="rotate(-45 121.925 38.2812)" stroke="#7A69B0" stroke-width="0.5"/>
<circle cx="136.067" cy="38.2831" r="11.75" transform="rotate(45 136.067 38.2831)" stroke="#7A69B0" stroke-width="0.5"/>
<circle cx="136.067" cy="52.4219" r="11.75" transform="rotate(-45 136.067 52.4219)" stroke="#7A69B0" stroke-width="0.5"/>
<circle cx="121.925" cy="52.4237" r="11.75" transform="rotate(45 121.925 52.4237)" stroke="#7A69B0" stroke-width="0.5"/>
<circle cx="66.7702" cy="-16.875" r="11.75" transform="rotate(-45 66.7702 -16.875)" stroke="#7A69B0" stroke-width="0.5"/>
<circle cx="80.9124" cy="-16.8732" r="11.75" transform="rotate(45 80.9124 -16.8732)" stroke="#7A69B0" stroke-width="0.5"/>
<circle cx="80.9124" cy="-2.73438" r="11.75" transform="rotate(-45 80.9124 -2.73438)" stroke="#7A69B0" stroke-width="0.5"/>
<circle cx="66.7703" cy="-2.73256" r="11.75" transform="rotate(45 66.7703 -2.73256)" stroke="#7A69B0" stroke-width="0.5"/>
<circle cx="7.37333" cy="318.297" r="11.75" transform="rotate(-45 7.37333 318.297)" stroke="#7A69B0" stroke-width="0.5"/>
<circle cx="21.5155" cy="318.299" r="11.75" transform="rotate(45 21.5155 318.299)" stroke="#7A69B0" stroke-width="0.5"/>
<circle cx="370.119" cy="286.477" r="11.75" transform="rotate(-45 370.119 286.477)" stroke="#7A69B0" stroke-width="0.5"/>
<circle cx="370.119" cy="300.619" r="11.75" transform="rotate(45 370.119 300.619)" stroke="#7A69B0" stroke-width="0.5"/>
<circle cx="314.965" cy="231.32" r="11.75" transform="rotate(-45 314.965 231.32)" stroke="#7A69B0" stroke-width="0.5"/>
<circle cx="329.107" cy="231.322" r="11.75" transform="rotate(45 329.107 231.322)" stroke="#7A69B0" stroke-width="0.5"/>
<circle cx="329.107" cy="245.461" r="11.75" transform="rotate(-45 329.107 245.461)" stroke="#7A69B0" stroke-width="0.5"/>
<circle cx="314.965" cy="245.463" r="11.75" transform="rotate(45 314.965 245.463)" stroke="#7A69B0" stroke-width="0.5"/>
<circle cx="259.81" cy="176.164" r="11.75" transform="rotate(-45 259.81 176.164)" stroke="#7A69B0" stroke-width="0.5"/>
<circle cx="273.953" cy="176.166" r="11.75" transform="rotate(45 273.953 176.166)" stroke="#7A69B0" stroke-width="0.5"/>
<circle cx="273.953" cy="190.305" r="11.75" transform="rotate(-45 273.953 190.305)" stroke="#7A69B0" stroke-width="0.5"/>
<circle cx="259.81" cy="190.307" r="11.75" transform="rotate(45 259.81 190.307)" stroke="#7A69B0" stroke-width="0.5"/>
<circle cx="204.656" cy="121.016" r="11.75" transform="rotate(-45 204.656 121.016)" stroke="#7A69B0" stroke-width="0.5"/>
<circle cx="218.798" cy="121.017" r="11.75" transform="rotate(45 218.798 121.017)" stroke="#7A69B0" stroke-width="0.5"/>
<circle cx="218.798" cy="135.156" r="11.75" transform="rotate(-45 218.798 135.156)" stroke="#7A69B0" stroke-width="0.5"/>
<circle cx="204.656" cy="135.158" r="11.75" transform="rotate(45 204.656 135.158)" stroke="#7A69B0" stroke-width="0.5"/>
<circle cx="149.502" cy="65.8594" r="11.75" transform="rotate(-45 149.502 65.8594)" stroke="#7A69B0" stroke-width="0.5"/>
<circle cx="163.644" cy="65.8612" r="11.75" transform="rotate(45 163.644 65.8612)" stroke="#7A69B0" stroke-width="0.5"/>
<circle cx="163.644" cy="80" r="11.75" transform="rotate(-45 163.644 80)" stroke="#7A69B0" stroke-width="0.5"/>
<circle cx="149.502" cy="80.0018" r="11.75" transform="rotate(45 149.502 80.0018)" stroke="#7A69B0" stroke-width="0.5"/>
<circle cx="94.3475" cy="10.7031" r="11.75" transform="rotate(-45 94.3475 10.7031)" stroke="#7A69B0" stroke-width="0.5"/>
<circle cx="108.49" cy="10.7049" r="11.75" transform="rotate(45 108.49 10.7049)" stroke="#7A69B0" stroke-width="0.5"/>
<circle cx="108.49" cy="24.8438" r="11.75" transform="rotate(-45 108.49 24.8438)" stroke="#7A69B0" stroke-width="0.5"/>
<circle cx="94.3475" cy="24.8456" r="11.75" transform="rotate(45 94.3475 24.8456)" stroke="#7A69B0" stroke-width="0.5"/>
<circle cx="63.2347" cy="317.586" r="11.75" transform="rotate(-45 63.2347 317.586)" stroke="#7A69B0" stroke-width="0.5"/>
<circle cx="77.3769" cy="317.588" r="11.75" transform="rotate(45 77.3769 317.588)" stroke="#7A69B0" stroke-width="0.5"/>
<circle cx="8.08046" cy="262.438" r="11.75" transform="rotate(-45 8.08046 262.438)" stroke="#7A69B0" stroke-width="0.5"/>
<circle cx="22.2226" cy="262.439" r="11.75" transform="rotate(45 22.2226 262.439)" stroke="#7A69B0" stroke-width="0.5"/>
<circle cx="22.2226" cy="276.578" r="11.75" transform="rotate(-45 22.2226 276.578)" stroke="#7A69B0" stroke-width="0.5"/>
<circle cx="8.08044" cy="276.58" r="11.75" transform="rotate(45 8.08044 276.58)" stroke="#7A69B0" stroke-width="0.5"/>
<circle cx="370.826" cy="230.617" r="11.75" transform="rotate(-45 370.826 230.617)" stroke="#7A69B0" stroke-width="0.5"/>
<circle cx="370.826" cy="244.76" r="11.75" transform="rotate(45 370.826 244.76)" stroke="#7A69B0" stroke-width="0.5"/>
<circle cx="315.672" cy="175.461" r="11.75" transform="rotate(-45 315.672 175.461)" stroke="#7A69B0" stroke-width="0.5"/>
<circle cx="329.814" cy="175.463" r="11.75" transform="rotate(45 329.814 175.463)" stroke="#7A69B0" stroke-width="0.5"/>
<circle cx="329.814" cy="189.602" r="11.75" transform="rotate(-45 329.814 189.602)" stroke="#7A69B0" stroke-width="0.5"/>
<circle cx="315.672" cy="189.603" r="11.75" transform="rotate(45 315.672 189.603)" stroke="#7A69B0" stroke-width="0.5"/>
<circle cx="260.518" cy="120.305" r="11.75" transform="rotate(-45 260.518 120.305)" stroke="#7A69B0" stroke-width="0.5"/>
<circle cx="274.66" cy="120.307" r="11.75" transform="rotate(45 274.66 120.307)" stroke="#7A69B0" stroke-width="0.5"/>
<circle cx="274.66" cy="134.445" r="11.75" transform="rotate(-45 274.66 134.445)" stroke="#7A69B0" stroke-width="0.5"/>
<circle cx="260.518" cy="134.447" r="11.75" transform="rotate(45 260.518 134.447)" stroke="#7A69B0" stroke-width="0.5"/>
<circle cx="205.363" cy="65.1484" r="11.75" transform="rotate(-45 205.363 65.1484)" stroke="#7A69B0" stroke-width="0.5"/>
<circle cx="219.505" cy="65.1503" r="11.75" transform="rotate(45 219.505 65.1503)" stroke="#7A69B0" stroke-width="0.5"/>
<circle cx="219.505" cy="79.2891" r="11.75" transform="rotate(-45 219.505 79.2891)" stroke="#7A69B0" stroke-width="0.5"/>
<circle cx="205.363" cy="79.2909" r="11.75" transform="rotate(45 205.363 79.2909)" stroke="#7A69B0" stroke-width="0.5"/>
<circle cx="150.209" cy="10" r="11.75" transform="rotate(-45 150.209 10)" stroke="#7A69B0" stroke-width="0.5"/>
<circle cx="164.351" cy="10.0018" r="11.75" transform="rotate(45 164.351 10.0018)" stroke="#7A69B0" stroke-width="0.5"/>
<circle cx="164.351" cy="24.1406" r="11.75" transform="rotate(-45 164.351 24.1406)" stroke="#7A69B0" stroke-width="0.5"/>
<circle cx="150.209" cy="24.1424" r="11.75" transform="rotate(45 150.209 24.1424)" stroke="#7A69B0" stroke-width="0.5"/>
<circle cx="35.6576" cy="290.016" r="11.75" transform="rotate(-45 35.6576 290.016)" stroke="#7A69B0" stroke-width="0.5"/>
<circle cx="49.7997" cy="290.017" r="11.75" transform="rotate(45 49.7997 290.017)" stroke="#7A69B0" stroke-width="0.5"/>
<circle cx="49.7997" cy="304.156" r="11.75" transform="rotate(-45 49.7997 304.156)" stroke="#7A69B0" stroke-width="0.5"/>
<circle cx="35.6576" cy="304.158" r="11.75" transform="rotate(45 35.6576 304.158)" stroke="#7A69B0" stroke-width="0.5"/>
<circle cx="-5.35459" cy="234.861" r="11.75" transform="rotate(45 -5.35459 234.861)" stroke="#7A69B0" stroke-width="0.5"/>
<circle cx="-5.3546" cy="249" r="11.75" transform="rotate(-45 -5.3546 249)" stroke="#7A69B0" stroke-width="0.5"/>
<circle cx="343.249" cy="203.039" r="11.75" transform="rotate(-45 343.249 203.039)" stroke="#7A69B0" stroke-width="0.5"/>
<circle cx="357.391" cy="203.041" r="11.75" transform="rotate(45 357.391 203.041)" stroke="#7A69B0" stroke-width="0.5"/>
<circle cx="357.391" cy="217.18" r="11.75" transform="rotate(-45 357.391 217.18)" stroke="#7A69B0" stroke-width="0.5"/>
<circle cx="343.249" cy="217.182" r="11.75" transform="rotate(45 343.249 217.182)" stroke="#7A69B0" stroke-width="0.5"/>
<circle cx="288.095" cy="147.883" r="11.75" transform="rotate(-45 288.095 147.883)" stroke="#7A69B0" stroke-width="0.5"/>
<circle cx="302.237" cy="147.885" r="11.75" transform="rotate(45 302.237 147.885)" stroke="#7A69B0" stroke-width="0.5"/>
<circle cx="302.237" cy="162.023" r="11.75" transform="rotate(-45 302.237 162.023)" stroke="#7A69B0" stroke-width="0.5"/>
<circle cx="288.095" cy="162.025" r="11.75" transform="rotate(45 288.095 162.025)" stroke="#7A69B0" stroke-width="0.5"/>
<circle cx="232.94" cy="92.7266" r="11.75" transform="rotate(-45 232.94 92.7266)" stroke="#7A69B0" stroke-width="0.5"/>
<circle cx="247.083" cy="92.7284" r="11.75" transform="rotate(45 247.083 92.7284)" stroke="#7A69B0" stroke-width="0.5"/>
<circle cx="247.083" cy="106.867" r="11.75" transform="rotate(-45 247.083 106.867)" stroke="#7A69B0" stroke-width="0.5"/>
<circle cx="232.94" cy="106.869" r="11.75" transform="rotate(45 232.94 106.869)" stroke="#7A69B0" stroke-width="0.5"/>
<circle cx="177.786" cy="37.5781" r="11.75" transform="rotate(-45 177.786 37.5781)" stroke="#7A69B0" stroke-width="0.5"/>
<circle cx="191.928" cy="37.5799" r="11.75" transform="rotate(45 191.928 37.5799)" stroke="#7A69B0" stroke-width="0.5"/>
<circle cx="191.928" cy="51.7188" r="11.75" transform="rotate(-45 191.928 51.7188)" stroke="#7A69B0" stroke-width="0.5"/>
<circle cx="177.786" cy="51.7206" r="11.75" transform="rotate(45 177.786 51.7206)" stroke="#7A69B0" stroke-width="0.5"/>
<circle cx="136.774" cy="-3.4375" r="11.75" transform="rotate(-45 136.774 -3.4375)" stroke="#7A69B0" stroke-width="0.5"/>
<circle cx="122.632" cy="-3.43569" r="11.75" transform="rotate(45 122.632 -3.43569)" stroke="#7A69B0" stroke-width="0.5"/>
<circle cx="91.519" cy="289.305" r="11.75" transform="rotate(-45 91.519 289.305)" stroke="#7A69B0" stroke-width="0.5"/>
<circle cx="105.661" cy="289.306" r="11.75" transform="rotate(45 105.661 289.306)" stroke="#7A69B0" stroke-width="0.5"/>
<circle cx="105.661" cy="303.445" r="11.75" transform="rotate(-45 105.661 303.445)" stroke="#7A69B0" stroke-width="0.5"/>
<circle cx="91.519" cy="303.447" r="11.75" transform="rotate(45 91.519 303.447)" stroke="#7A69B0" stroke-width="0.5"/>
<circle cx="36.3647" cy="234.148" r="11.75" transform="rotate(-45 36.3647 234.148)" stroke="#7A69B0" stroke-width="0.5"/>
<circle cx="50.5068" cy="234.15" r="11.75" transform="rotate(45 50.5068 234.15)" stroke="#7A69B0" stroke-width="0.5"/>
<circle cx="50.5068" cy="248.289" r="11.75" transform="rotate(-45 50.5068 248.289)" stroke="#7A69B0" stroke-width="0.5"/>
<circle cx="36.3647" cy="248.291" r="11.75" transform="rotate(45 36.3647 248.291)" stroke="#7A69B0" stroke-width="0.5"/>
<circle cx="-4.64746" cy="178.994" r="11.75" transform="rotate(45 -4.64746 178.994)" stroke="#7A69B0" stroke-width="0.5"/>
<circle cx="-4.64748" cy="193.133" r="11.75" transform="rotate(-45 -4.64748 193.133)" stroke="#7A69B0" stroke-width="0.5"/>
<circle cx="343.956" cy="147.18" r="11.75" transform="rotate(-45 343.956 147.18)" stroke="#7A69B0" stroke-width="0.5"/>
<circle cx="358.098" cy="147.182" r="11.75" transform="rotate(45 358.098 147.182)" stroke="#7A69B0" stroke-width="0.5"/>
<circle cx="358.098" cy="161.32" r="11.75" transform="rotate(-45 358.098 161.32)" stroke="#7A69B0" stroke-width="0.5"/>
<circle cx="343.956" cy="161.322" r="11.75" transform="rotate(45 343.956 161.322)" stroke="#7A69B0" stroke-width="0.5"/>
<circle cx="288.802" cy="92.0234" r="11.75" transform="rotate(-45 288.802 92.0234)" stroke="#7A69B0" stroke-width="0.5"/>
<circle cx="302.944" cy="92.0253" r="11.75" transform="rotate(45 302.944 92.0253)" stroke="#7A69B0" stroke-width="0.5"/>
<circle cx="302.944" cy="106.164" r="11.75" transform="rotate(-45 302.944 106.164)" stroke="#7A69B0" stroke-width="0.5"/>
<circle cx="288.802" cy="106.166" r="11.75" transform="rotate(45 288.802 106.166)" stroke="#7A69B0" stroke-width="0.5"/>
<circle cx="233.647" cy="36.8672" r="11.75" transform="rotate(-45 233.647 36.8672)" stroke="#7A69B0" stroke-width="0.5"/>
<circle cx="247.79" cy="36.869" r="11.75" transform="rotate(45 247.79 36.869)" stroke="#7A69B0" stroke-width="0.5"/>
<circle cx="247.79" cy="51.0078" r="11.75" transform="rotate(-45 247.79 51.0078)" stroke="#7A69B0" stroke-width="0.5"/>
<circle cx="233.647" cy="51.0096" r="11.75" transform="rotate(45 233.647 51.0096)" stroke="#7A69B0" stroke-width="0.5"/>
<circle cx="192.635" cy="-4.14844" r="11.75" transform="rotate(-45 192.635 -4.14844)" stroke="#7A69B0" stroke-width="0.5"/>
<circle cx="178.493" cy="-4.14663" r="11.75" transform="rotate(45 178.493 -4.14663)" stroke="#7A69B0" stroke-width="0.5"/>
<circle cx="119.096" cy="316.883" r="11.75" transform="rotate(-45 119.096 316.883)" stroke="#7A69B0" stroke-width="0.5"/>
<circle cx="133.238" cy="316.885" r="11.75" transform="rotate(45 133.238 316.885)" stroke="#7A69B0" stroke-width="0.5"/>
<circle cx="63.9419" cy="261.727" r="11.75" transform="rotate(-45 63.9419 261.727)" stroke="#7A69B0" stroke-width="0.5"/>
<circle cx="78.084" cy="261.728" r="11.75" transform="rotate(45 78.084 261.728)" stroke="#7A69B0" stroke-width="0.5"/>
<circle cx="78.084" cy="275.867" r="11.75" transform="rotate(-45 78.084 275.867)" stroke="#7A69B0" stroke-width="0.5"/>
<circle cx="63.9419" cy="275.869" r="11.75" transform="rotate(45 63.9419 275.869)" stroke="#7A69B0" stroke-width="0.5"/>
<circle cx="8.78755" cy="206.57" r="11.75" transform="rotate(-45 8.78755 206.57)" stroke="#7A69B0" stroke-width="0.5"/>
<circle cx="22.9297" cy="206.572" r="11.75" transform="rotate(45 22.9297 206.572)" stroke="#7A69B0" stroke-width="0.5"/>
<circle cx="22.9297" cy="220.711" r="11.75" transform="rotate(-45 22.9297 220.711)" stroke="#7A69B0" stroke-width="0.5"/>
<circle cx="8.78753" cy="220.713" r="11.75" transform="rotate(45 8.78753 220.713)" stroke="#7A69B0" stroke-width="0.5"/>
<circle cx="371.533" cy="174.75" r="11.75" transform="rotate(-45 371.533 174.75)" stroke="#7A69B0" stroke-width="0.5"/>
<circle cx="371.533" cy="188.892" r="11.75" transform="rotate(45 371.533 188.892)" stroke="#7A69B0" stroke-width="0.5"/>
<circle cx="316.379" cy="119.602" r="11.75" transform="rotate(-45 316.379 119.602)" stroke="#7A69B0" stroke-width="0.5"/>
<circle cx="330.521" cy="119.603" r="11.75" transform="rotate(45 330.521 119.603)" stroke="#7A69B0" stroke-width="0.5"/>
<circle cx="330.521" cy="133.742" r="11.75" transform="rotate(-45 330.521 133.742)" stroke="#7A69B0" stroke-width="0.5"/>
<circle cx="316.379" cy="133.744" r="11.75" transform="rotate(45 316.379 133.744)" stroke="#7A69B0" stroke-width="0.5"/>
<circle cx="261.225" cy="64.4453" r="11.75" transform="rotate(-45 261.225 64.4453)" stroke="#7A69B0" stroke-width="0.5"/>
<circle cx="275.367" cy="64.4471" r="11.75" transform="rotate(45 275.367 64.4471)" stroke="#7A69B0" stroke-width="0.5"/>
<circle cx="275.367" cy="78.5859" r="11.75" transform="rotate(-45 275.367 78.5859)" stroke="#7A69B0" stroke-width="0.5"/>
<circle cx="261.225" cy="78.5878" r="11.75" transform="rotate(45 261.225 78.5878)" stroke="#7A69B0" stroke-width="0.5"/>
<circle cx="206.07" cy="9.28906" r="11.75" transform="rotate(-45 206.07 9.28906)" stroke="#7A69B0" stroke-width="0.5"/>
<circle cx="220.212" cy="9.29087" r="11.75" transform="rotate(45 220.212 9.29087)" stroke="#7A69B0" stroke-width="0.5"/>
<circle cx="220.212" cy="23.4297" r="11.75" transform="rotate(-45 220.212 23.4297)" stroke="#7A69B0" stroke-width="0.5"/>
<circle cx="206.07" cy="23.4315" r="11.75" transform="rotate(45 206.07 23.4315)" stroke="#7A69B0" stroke-width="0.5"/>
<circle cx="174.958" cy="316.172" r="11.75" transform="rotate(-45 174.958 316.172)" stroke="#7A69B0" stroke-width="0.5"/>
<circle cx="189.1" cy="316.174" r="11.75" transform="rotate(45 189.1 316.174)" stroke="#7A69B0" stroke-width="0.5"/>
<circle cx="189.1" cy="330.312" r="11.75" transform="rotate(-45 189.1 330.312)" stroke="#7A69B0" stroke-width="0.5"/>
<circle cx="174.958" cy="330.314" r="11.75" transform="rotate(45 174.958 330.314)" stroke="#7A69B0" stroke-width="0.5"/>
<circle cx="119.803" cy="261.023" r="11.75" transform="rotate(-45 119.803 261.023)" stroke="#7A69B0" stroke-width="0.5"/>
<circle cx="133.945" cy="261.025" r="11.75" transform="rotate(45 133.945 261.025)" stroke="#7A69B0" stroke-width="0.5"/>
<circle cx="133.945" cy="275.164" r="11.75" transform="rotate(-45 133.945 275.164)" stroke="#7A69B0" stroke-width="0.5"/>
<circle cx="119.803" cy="275.166" r="11.75" transform="rotate(45 119.803 275.166)" stroke="#7A69B0" stroke-width="0.5"/>
<circle cx="64.649" cy="205.867" r="11.75" transform="rotate(-45 64.649 205.867)" stroke="#7A69B0" stroke-width="0.5"/>
<circle cx="78.7911" cy="205.869" r="11.75" transform="rotate(45 78.7911 205.869)" stroke="#7A69B0" stroke-width="0.5"/>
<circle cx="78.7911" cy="220.008" r="11.75" transform="rotate(-45 78.7911 220.008)" stroke="#7A69B0" stroke-width="0.5"/>
<circle cx="64.649" cy="220.01" r="11.75" transform="rotate(45 64.649 220.01)" stroke="#7A69B0" stroke-width="0.5"/>
<circle cx="9.49467" cy="150.711" r="11.75" transform="rotate(-45 9.49467 150.711)" stroke="#7A69B0" stroke-width="0.5"/>
<circle cx="23.6368" cy="150.713" r="11.75" transform="rotate(45 23.6368 150.713)" stroke="#7A69B0" stroke-width="0.5"/>
<circle cx="23.6368" cy="164.852" r="11.75" transform="rotate(-45 23.6368 164.852)" stroke="#7A69B0" stroke-width="0.5"/>
<circle cx="9.49466" cy="164.853" r="11.75" transform="rotate(45 9.49466 164.853)" stroke="#7A69B0" stroke-width="0.5"/>
<circle cx="372.24" cy="118.891" r="11.75" transform="rotate(-45 372.24 118.891)" stroke="#7A69B0" stroke-width="0.5"/>
<circle cx="372.24" cy="133.033" r="11.75" transform="rotate(45 372.24 133.033)" stroke="#7A69B0" stroke-width="0.5"/>
<circle cx="317.086" cy="63.7344" r="11.75" transform="rotate(-45 317.086 63.7344)" stroke="#7A69B0" stroke-width="0.5"/>
<circle cx="331.228" cy="63.7362" r="11.75" transform="rotate(45 331.228 63.7362)" stroke="#7A69B0" stroke-width="0.5"/>
<circle cx="331.228" cy="77.875" r="11.75" transform="rotate(-45 331.228 77.875)" stroke="#7A69B0" stroke-width="0.5"/>
<circle cx="317.086" cy="77.8768" r="11.75" transform="rotate(45 317.086 77.8768)" stroke="#7A69B0" stroke-width="0.5"/>
<circle cx="261.932" cy="8.58594" r="11.75" transform="rotate(-45 261.932 8.58594)" stroke="#7A69B0" stroke-width="0.5"/>
<circle cx="276.074" cy="8.58775" r="11.75" transform="rotate(45 276.074 8.58775)" stroke="#7A69B0" stroke-width="0.5"/>
<circle cx="276.074" cy="22.7266" r="11.75" transform="rotate(-45 276.074 22.7266)" stroke="#7A69B0" stroke-width="0.5"/>
<circle cx="261.932" cy="22.7284" r="11.75" transform="rotate(45 261.932 22.7284)" stroke="#7A69B0" stroke-width="0.5"/>
<circle cx="147.38" cy="288.594" r="11.75" transform="rotate(-45 147.38 288.594)" stroke="#7A69B0" stroke-width="0.5"/>
<circle cx="161.523" cy="288.596" r="11.75" transform="rotate(45 161.523 288.596)" stroke="#7A69B0" stroke-width="0.5"/>
<circle cx="161.523" cy="302.734" r="11.75" transform="rotate(-45 161.523 302.734)" stroke="#7A69B0" stroke-width="0.5"/>
<circle cx="147.38" cy="302.736" r="11.75" transform="rotate(45 147.38 302.736)" stroke="#7A69B0" stroke-width="0.5"/>
<circle cx="92.2261" cy="233.445" r="11.75" transform="rotate(-45 92.2261 233.445)" stroke="#7A69B0" stroke-width="0.5"/>
<circle cx="106.368" cy="233.447" r="11.75" transform="rotate(45 106.368 233.447)" stroke="#7A69B0" stroke-width="0.5"/>
<circle cx="106.368" cy="247.586" r="11.75" transform="rotate(-45 106.368 247.586)" stroke="#7A69B0" stroke-width="0.5"/>
<circle cx="92.2261" cy="247.588" r="11.75" transform="rotate(45 92.2261 247.588)" stroke="#7A69B0" stroke-width="0.5"/>
<circle cx="37.0718" cy="178.289" r="11.75" transform="rotate(-45 37.0718 178.289)" stroke="#7A69B0" stroke-width="0.5"/>
<circle cx="51.2139" cy="178.291" r="11.75" transform="rotate(45 51.2139 178.291)" stroke="#7A69B0" stroke-width="0.5"/>
<circle cx="51.214" cy="192.43" r="11.75" transform="rotate(-45 51.214 192.43)" stroke="#7A69B0" stroke-width="0.5"/>
<circle cx="37.0718" cy="192.432" r="11.75" transform="rotate(45 37.0718 192.432)" stroke="#7A69B0" stroke-width="0.5"/>
<circle cx="-3.94037" cy="123.135" r="11.75" transform="rotate(45 -3.94037 123.135)" stroke="#7A69B0" stroke-width="0.5"/>
<circle cx="-3.94039" cy="137.273" r="11.75" transform="rotate(-45 -3.94039 137.273)" stroke="#7A69B0" stroke-width="0.5"/>
<circle cx="344.663" cy="91.3125" r="11.75" transform="rotate(-45 344.663 91.3125)" stroke="#7A69B0" stroke-width="0.5"/>
<circle cx="358.805" cy="91.3143" r="11.75" transform="rotate(45 358.805 91.3143)" stroke="#7A69B0" stroke-width="0.5"/>
<circle cx="358.805" cy="105.453" r="11.75" transform="rotate(-45 358.805 105.453)" stroke="#7A69B0" stroke-width="0.5"/>
<circle cx="344.663" cy="105.455" r="11.75" transform="rotate(45 344.663 105.455)" stroke="#7A69B0" stroke-width="0.5"/>
<circle cx="289.509" cy="36.1641" r="11.75" transform="rotate(-45 289.509 36.1641)" stroke="#7A69B0" stroke-width="0.5"/>
<circle cx="303.651" cy="36.1659" r="11.75" transform="rotate(45 303.651 36.1659)" stroke="#7A69B0" stroke-width="0.5"/>
<circle cx="303.651" cy="50.3047" r="11.75" transform="rotate(-45 303.651 50.3047)" stroke="#7A69B0" stroke-width="0.5"/>
<circle cx="289.509" cy="50.3065" r="11.75" transform="rotate(45 289.509 50.3065)" stroke="#7A69B0" stroke-width="0.5"/>
<circle cx="248.497" cy="-4.85156" r="11.75" transform="rotate(-45 248.497 -4.85156)" stroke="#7A69B0" stroke-width="0.5"/>
<circle cx="234.355" cy="-4.84975" r="11.75" transform="rotate(45 234.355 -4.84975)" stroke="#7A69B0" stroke-width="0.5"/>
<circle cx="203.242" cy="287.891" r="11.75" transform="rotate(-45 203.242 287.891)" stroke="#7A69B0" stroke-width="0.5"/>
<circle cx="217.384" cy="287.892" r="11.75" transform="rotate(45 217.384 287.892)" stroke="#7A69B0" stroke-width="0.5"/>
<circle cx="217.384" cy="302.031" r="11.75" transform="rotate(-45 217.384 302.031)" stroke="#7A69B0" stroke-width="0.5"/>
<circle cx="203.242" cy="302.033" r="11.75" transform="rotate(45 203.242 302.033)" stroke="#7A69B0" stroke-width="0.5"/>
<circle cx="148.088" cy="232.734" r="11.75" transform="rotate(-45 148.088 232.734)" stroke="#7A69B0" stroke-width="0.5"/>
<circle cx="162.23" cy="232.736" r="11.75" transform="rotate(45 162.23 232.736)" stroke="#7A69B0" stroke-width="0.5"/>
<circle cx="162.23" cy="246.875" r="11.75" transform="rotate(-45 162.23 246.875)" stroke="#7A69B0" stroke-width="0.5"/>
<circle cx="148.088" cy="246.877" r="11.75" transform="rotate(45 148.088 246.877)" stroke="#7A69B0" stroke-width="0.5"/>
<circle cx="92.9332" cy="177.578" r="11.75" transform="rotate(-45 92.9332 177.578)" stroke="#7A69B0" stroke-width="0.5"/>
<circle cx="107.075" cy="177.58" r="11.75" transform="rotate(45 107.075 177.58)" stroke="#7A69B0" stroke-width="0.5"/>
<circle cx="107.075" cy="191.719" r="11.75" transform="rotate(-45 107.075 191.719)" stroke="#7A69B0" stroke-width="0.5"/>
<circle cx="92.9332" cy="191.721" r="11.75" transform="rotate(45 92.9332 191.721)" stroke="#7A69B0" stroke-width="0.5"/>
<circle cx="37.7789" cy="122.43" r="11.75" transform="rotate(-45 37.7789 122.43)" stroke="#7A69B0" stroke-width="0.5"/>
<circle cx="51.9211" cy="122.432" r="11.75" transform="rotate(45 51.9211 122.432)" stroke="#7A69B0" stroke-width="0.5"/>
<circle cx="51.9211" cy="136.57" r="11.75" transform="rotate(-45 51.9211 136.57)" stroke="#7A69B0" stroke-width="0.5"/>
<circle cx="37.7789" cy="136.572" r="11.75" transform="rotate(45 37.7789 136.572)" stroke="#7A69B0" stroke-width="0.5"/>
<circle cx="-3.23325" cy="67.2753" r="11.75" transform="rotate(45 -3.23325 67.2753)" stroke="#7A69B0" stroke-width="0.5"/>
<circle cx="-3.23326" cy="81.4141" r="11.75" transform="rotate(-45 -3.23326 81.4141)" stroke="#7A69B0" stroke-width="0.5"/>
<circle cx="345.37" cy="35.4531" r="11.75" transform="rotate(-45 345.37 35.4531)" stroke="#7A69B0" stroke-width="0.5"/>
<circle cx="359.513" cy="35.4549" r="11.75" transform="rotate(45 359.513 35.4549)" stroke="#7A69B0" stroke-width="0.5"/>
<circle cx="359.512" cy="49.5938" r="11.75" transform="rotate(-45 359.512 49.5938)" stroke="#7A69B0" stroke-width="0.5"/>
<circle cx="345.37" cy="49.5956" r="11.75" transform="rotate(45 345.37 49.5956)" stroke="#7A69B0" stroke-width="0.5"/>
<circle cx="304.358" cy="-5.5625" r="11.75" transform="rotate(-45 304.358 -5.5625)" stroke="#7A69B0" stroke-width="0.5"/>
<circle cx="290.216" cy="-5.56069" r="11.75" transform="rotate(45 290.216 -5.56069)" stroke="#7A69B0" stroke-width="0.5"/>
<circle cx="230.819" cy="315.469" r="11.75" transform="rotate(-45 230.819 315.469)" stroke="#7A69B0" stroke-width="0.5"/>
<circle cx="244.961" cy="315.471" r="11.75" transform="rotate(45 244.961 315.471)" stroke="#7A69B0" stroke-width="0.5"/>
<circle cx="244.961" cy="329.609" r="11.75" transform="rotate(-45 244.961 329.609)" stroke="#7A69B0" stroke-width="0.5"/>
<circle cx="230.819" cy="329.611" r="11.75" transform="rotate(45 230.819 329.611)" stroke="#7A69B0" stroke-width="0.5"/>
<circle cx="175.665" cy="260.312" r="11.75" transform="rotate(-45 175.665 260.312)" stroke="#7A69B0" stroke-width="0.5"/>
<circle cx="189.807" cy="260.314" r="11.75" transform="rotate(45 189.807 260.314)" stroke="#7A69B0" stroke-width="0.5"/>
<circle cx="189.807" cy="274.453" r="11.75" transform="rotate(-45 189.807 274.453)" stroke="#7A69B0" stroke-width="0.5"/>
<circle cx="175.665" cy="274.455" r="11.75" transform="rotate(45 175.665 274.455)" stroke="#7A69B0" stroke-width="0.5"/>
<circle cx="120.51" cy="205.156" r="11.75" transform="rotate(-45 120.51 205.156)" stroke="#7A69B0" stroke-width="0.5"/>
<circle cx="134.653" cy="205.158" r="11.75" transform="rotate(45 134.653 205.158)" stroke="#7A69B0" stroke-width="0.5"/>
<circle cx="134.653" cy="219.297" r="11.75" transform="rotate(-45 134.653 219.297)" stroke="#7A69B0" stroke-width="0.5"/>
<circle cx="120.51" cy="219.299" r="11.75" transform="rotate(45 120.51 219.299)" stroke="#7A69B0" stroke-width="0.5"/>
<circle cx="65.3561" cy="150.008" r="11.75" transform="rotate(-45 65.3561 150.008)" stroke="#7A69B0" stroke-width="0.5"/>
<circle cx="79.4982" cy="150.01" r="11.75" transform="rotate(45 79.4982 150.01)" stroke="#7A69B0" stroke-width="0.5"/>
<circle cx="79.4982" cy="164.148" r="11.75" transform="rotate(-45 79.4982 164.148)" stroke="#7A69B0" stroke-width="0.5"/>
<circle cx="65.3561" cy="164.15" r="11.75" transform="rotate(45 65.3561 164.15)" stroke="#7A69B0" stroke-width="0.5"/>
<circle cx="10.2018" cy="94.8516" r="11.75" transform="rotate(-45 10.2018 94.8516)" stroke="#7A69B0" stroke-width="0.5"/>
<circle cx="24.3439" cy="94.8534" r="11.75" transform="rotate(45 24.3439 94.8534)" stroke="#7A69B0" stroke-width="0.5"/>
<circle cx="24.3439" cy="108.992" r="11.75" transform="rotate(-45 24.3439 108.992)" stroke="#7A69B0" stroke-width="0.5"/>
<circle cx="10.2017" cy="108.994" r="11.75" transform="rotate(45 10.2017 108.994)" stroke="#7A69B0" stroke-width="0.5"/>
<circle cx="372.947" cy="63.0312" r="11.75" transform="rotate(-45 372.947 63.0312)" stroke="#7A69B0" stroke-width="0.5"/>
<circle cx="372.948" cy="77.1737" r="11.75" transform="rotate(45 372.948 77.1737)" stroke="#7A69B0" stroke-width="0.5"/>
<circle cx="317.793" cy="7.875" r="11.75" transform="rotate(-45 317.793 7.875)" stroke="#7A69B0" stroke-width="0.5"/>
<circle cx="331.935" cy="7.87681" r="11.75" transform="rotate(45 331.935 7.87681)" stroke="#7A69B0" stroke-width="0.5"/>
<circle cx="331.935" cy="22.0156" r="11.75" transform="rotate(-45 331.935 22.0156)" stroke="#7A69B0" stroke-width="0.5"/>
<circle cx="317.793" cy="22.0174" r="11.75" transform="rotate(45 317.793 22.0174)" stroke="#7A69B0" stroke-width="0.5"/>
<circle cx="286.68" cy="314.758" r="11.75" transform="rotate(-45 286.68 314.758)" stroke="#7A69B0" stroke-width="0.5"/>
<circle cx="300.823" cy="314.76" r="11.75" transform="rotate(45 300.823 314.76)" stroke="#7A69B0" stroke-width="0.5"/>
<circle cx="300.823" cy="328.898" r="11.75" transform="rotate(-45 300.823 328.898)" stroke="#7A69B0" stroke-width="0.5"/>
<circle cx="286.68" cy="328.9" r="11.75" transform="rotate(45 286.68 328.9)" stroke="#7A69B0" stroke-width="0.5"/>
<circle cx="231.526" cy="259.609" r="11.75" transform="rotate(-45 231.526 259.609)" stroke="#7A69B0" stroke-width="0.5"/>
<circle cx="245.668" cy="259.611" r="11.75" transform="rotate(45 245.668 259.611)" stroke="#7A69B0" stroke-width="0.5"/>
<circle cx="245.668" cy="273.75" r="11.75" transform="rotate(-45 245.668 273.75)" stroke="#7A69B0" stroke-width="0.5"/>
<circle cx="231.526" cy="273.752" r="11.75" transform="rotate(45 231.526 273.752)" stroke="#7A69B0" stroke-width="0.5"/>
<circle cx="176.372" cy="204.453" r="11.75" transform="rotate(-45 176.372 204.453)" stroke="#7A69B0" stroke-width="0.5"/>
<circle cx="190.514" cy="204.455" r="11.75" transform="rotate(45 190.514 204.455)" stroke="#7A69B0" stroke-width="0.5"/>
<circle cx="190.514" cy="218.594" r="11.75" transform="rotate(-45 190.514 218.594)" stroke="#7A69B0" stroke-width="0.5"/>
<circle cx="176.372" cy="218.596" r="11.75" transform="rotate(45 176.372 218.596)" stroke="#7A69B0" stroke-width="0.5"/>
<circle cx="121.218" cy="149.297" r="11.75" transform="rotate(-45 121.218 149.297)" stroke="#7A69B0" stroke-width="0.5"/>
<circle cx="135.36" cy="149.299" r="11.75" transform="rotate(45 135.36 149.299)" stroke="#7A69B0" stroke-width="0.5"/>
<circle cx="135.36" cy="163.438" r="11.75" transform="rotate(-45 135.36 163.438)" stroke="#7A69B0" stroke-width="0.5"/>
<circle cx="121.218" cy="163.439" r="11.75" transform="rotate(45 121.218 163.439)" stroke="#7A69B0" stroke-width="0.5"/>
<circle cx="66.0632" cy="94.1406" r="11.75" transform="rotate(-45 66.0632 94.1406)" stroke="#7A69B0" stroke-width="0.5"/>
<circle cx="80.2053" cy="94.1424" r="11.75" transform="rotate(45 80.2053 94.1424)" stroke="#7A69B0" stroke-width="0.5"/>
<circle cx="80.2053" cy="108.281" r="11.75" transform="rotate(-45 80.2053 108.281)" stroke="#7A69B0" stroke-width="0.5"/>
<circle cx="66.0632" cy="108.283" r="11.75" transform="rotate(45 66.0632 108.283)" stroke="#7A69B0" stroke-width="0.5"/>
<circle cx="10.9089" cy="38.9922" r="11.75" transform="rotate(-45 10.9089 38.9922)" stroke="#7A69B0" stroke-width="0.5"/>
<circle cx="25.051" cy="38.994" r="11.75" transform="rotate(45 25.051 38.994)" stroke="#7A69B0" stroke-width="0.5"/>
<circle cx="25.051" cy="53.1328" r="11.75" transform="rotate(-45 25.051 53.1328)" stroke="#7A69B0" stroke-width="0.5"/>
<circle cx="10.9088" cy="53.1346" r="11.75" transform="rotate(45 10.9088 53.1346)" stroke="#7A69B0" stroke-width="0.5"/>
<circle cx="373.655" cy="7.17188" r="11.75" transform="rotate(-45 373.655 7.17188)" stroke="#7A69B0" stroke-width="0.5"/>
<circle cx="373.655" cy="21.3143" r="11.75" transform="rotate(45 373.655 21.3143)" stroke="#7A69B0" stroke-width="0.5"/>
<circle cx="259.103" cy="287.18" r="11.75" transform="rotate(-45 259.103 287.18)" stroke="#7A69B0" stroke-width="0.5"/>
<circle cx="273.245" cy="287.181" r="11.75" transform="rotate(45 273.245 287.181)" stroke="#7A69B0" stroke-width="0.5"/>
<circle cx="273.245" cy="301.32" r="11.75" transform="rotate(-45 273.245 301.32)" stroke="#7A69B0" stroke-width="0.5"/>
<circle cx="259.103" cy="301.322" r="11.75" transform="rotate(45 259.103 301.322)" stroke="#7A69B0" stroke-width="0.5"/>
<circle cx="203.949" cy="232.031" r="11.75" transform="rotate(-45 203.949 232.031)" stroke="#7A69B0" stroke-width="0.5"/>
<circle cx="218.091" cy="232.033" r="11.75" transform="rotate(45 218.091 232.033)" stroke="#7A69B0" stroke-width="0.5"/>
<circle cx="218.091" cy="246.172" r="11.75" transform="rotate(-45 218.091 246.172)" stroke="#7A69B0" stroke-width="0.5"/>
<circle cx="203.949" cy="246.174" r="11.75" transform="rotate(45 203.949 246.174)" stroke="#7A69B0" stroke-width="0.5"/>
<circle cx="148.795" cy="176.875" r="11.75" transform="rotate(-45 148.795 176.875)" stroke="#7A69B0" stroke-width="0.5"/>
<circle cx="162.937" cy="176.877" r="11.75" transform="rotate(45 162.937 176.877)" stroke="#7A69B0" stroke-width="0.5"/>
<circle cx="162.937" cy="191.016" r="11.75" transform="rotate(-45 162.937 191.016)" stroke="#7A69B0" stroke-width="0.5"/>
<circle cx="148.795" cy="191.017" r="11.75" transform="rotate(45 148.795 191.017)" stroke="#7A69B0" stroke-width="0.5"/>
<circle cx="93.6404" cy="121.719" r="11.75" transform="rotate(-45 93.6404 121.719)" stroke="#7A69B0" stroke-width="0.5"/>
<circle cx="107.783" cy="121.721" r="11.75" transform="rotate(45 107.783 121.721)" stroke="#7A69B0" stroke-width="0.5"/>
<circle cx="107.783" cy="135.859" r="11.75" transform="rotate(-45 107.783 135.859)" stroke="#7A69B0" stroke-width="0.5"/>
<circle cx="93.6404" cy="135.861" r="11.75" transform="rotate(45 93.6404 135.861)" stroke="#7A69B0" stroke-width="0.5"/>
<circle cx="38.486" cy="66.5625" r="11.75" transform="rotate(-45 38.486 66.5625)" stroke="#7A69B0" stroke-width="0.5"/>
<circle cx="52.6282" cy="66.5643" r="11.75" transform="rotate(45 52.6282 66.5643)" stroke="#7A69B0" stroke-width="0.5"/>
<circle cx="52.6282" cy="80.7031" r="11.75" transform="rotate(-45 52.6282 80.7031)" stroke="#7A69B0" stroke-width="0.5"/>
<circle cx="38.486" cy="80.7049" r="11.75" transform="rotate(45 38.486 80.7049)" stroke="#7A69B0" stroke-width="0.5"/>
<circle cx="-16.6683" cy="11.4141" r="11.75" transform="rotate(-45 -16.6683 11.4141)" stroke="#7A69B0" stroke-width="0.5"/>
<circle cx="-2.52615" cy="11.4159" r="11.75" transform="rotate(45 -2.52615 11.4159)" stroke="#7A69B0" stroke-width="0.5"/>
<circle cx="-2.52617" cy="25.5547" r="11.75" transform="rotate(-45 -2.52617 25.5547)" stroke="#7A69B0" stroke-width="0.5"/>
<circle cx="-16.6683" cy="25.5565" r="11.75" transform="rotate(45 -16.6683 25.5565)" stroke="#7A69B0" stroke-width="0.5"/>
<circle cx="360.22" cy="-6.26562" r="11.75" transform="rotate(-45 360.22 -6.26562)" stroke="#7A69B0" stroke-width="0.5"/>
<circle cx="346.077" cy="-6.26381" r="11.75" transform="rotate(45 346.077 -6.26381)" stroke="#7A69B0" stroke-width="0.5"/>
</g>
<path d="M177.973 48.9376C180.372 47.1873 183.628 47.1873 186.027 48.9376L209.088 65.7593C210.261 66.6149 211.676 67.0747 213.128 67.072L241.672 67.0176C244.642 67.012 247.275 68.9254 248.188 71.7517L256.957 98.9155C257.403 100.297 258.277 101.501 259.453 102.352L282.578 119.086C284.984 120.827 285.99 123.923 285.067 126.746L276.195 153.876C275.743 155.256 275.743 156.744 276.195 158.124L285.067 185.254C285.99 188.077 284.984 191.173 282.578 192.914L259.453 209.648C258.277 210.499 257.403 211.703 256.957 213.085L248.188 240.248C247.275 243.075 244.642 244.988 241.672 244.982L213.128 244.928C211.676 244.925 210.261 245.385 209.088 246.241L186.027 263.062C183.628 264.813 180.372 264.813 177.973 263.062L154.912 246.241C153.739 245.385 152.324 244.925 150.872 244.928L122.328 244.982C119.358 244.988 116.725 243.075 115.812 240.248L107.043 213.085C106.597 211.703 105.723 210.499 104.547 209.648L81.422 192.914C79.0159 191.173 78.01 188.077 78.9331 185.254L87.8054 158.124C88.2567 156.744 88.2567 155.256 87.8054 153.876L78.9331 126.746C78.01 123.923 79.0159 120.827 81.422 119.086L104.547 102.352C105.723 101.501 106.597 100.297 107.043 98.9155L115.812 71.7517C116.725 68.9254 119.358 67.012 122.328 67.0176L150.872 67.072C152.324 67.0747 153.739 66.6149 154.912 65.7593L177.973 48.9376Z" fill="#7A69B0"/>
<path d="M192.5 121C194.958 121 197.373 121.647 199.501 122.876C201.63 124.105 203.398 125.872 204.627 128.001C205.855 130.13 206.502 132.545 206.502 135.003C206.501 137.461 205.854 139.875 204.624 142.004L220.5 142V149H213.5V184C213.5 184.928 213.131 185.819 212.475 186.475C211.818 187.131 210.928 187.5 210 187.5H154C153.072 187.5 152.182 187.131 151.525 186.475C150.869 185.819 150.5 184.928 150.5 184V149H143.5V142L159.376 142.004C157.64 138.997 157.082 135.452 157.813 132.057C158.543 128.663 160.509 125.661 163.329 123.634C166.148 121.607 169.62 120.701 173.071 121.091C176.521 121.48 179.703 123.138 182 125.743C183.311 124.249 184.926 123.054 186.737 122.236C188.548 121.418 190.513 120.997 192.5 121ZM178.5 149H157.5V180.5H178.5V149ZM206.5 149H185.5V180.5H206.5V149ZM171.5 128C169.684 127.992 167.935 128.69 166.624 129.947C165.313 131.205 164.542 132.922 164.474 134.737C164.405 136.552 165.046 138.323 166.259 139.675C167.472 141.027 169.163 141.854 170.975 141.983L171.5 142H178.5V135C178.5 133.327 177.901 131.71 176.812 130.44C175.722 129.171 174.214 128.334 172.561 128.081L172.021 128.018L171.5 128ZM192.5 128C190.734 127.999 189.033 128.666 187.738 129.867C186.443 131.068 185.65 132.714 185.518 134.475L185.5 135V142H192.5C194.266 142.001 195.967 141.334 197.262 140.133C198.557 138.932 199.35 137.286 199.483 135.525L199.5 135C199.5 133.144 198.763 131.363 197.45 130.05C196.137 128.738 194.357 128 192.5 128Z" fill="black" fill-opacity="0.2"/>
</svg>
