<svg width="60" height="80" viewBox="0 0 60 80" fill="none" xmlns="http://www.w3.org/2000/svg">
<g clip-path="url(#clip0_1368_6676)">
<path d="M32.7968 68.3311L32.6962 68.2889L32.5969 68.334L7.75 79.612V0.25H59.7505V79.6242L32.7968 68.3311Z" fill="#F9F6EC" stroke="url(#paint0_linear_1368_6676)" stroke-width="0.5"/>
<path d="M0 8L7.50007 0V8H0Z" fill="#693C14"/>
<g clip-path="url(#clip1_1368_6676)">
<path d="M33.8569 19.3432L33.8569 19.3432C36.2724 20.2399 38.195 20.9419 39.7324 21.5033C41.9303 22.3058 43.3409 22.8209 44.2792 23.2063C45.0789 23.5347 45.4807 23.748 45.7224 23.9367C45.9378 24.1048 46.0404 24.2629 46.2002 24.5686L46.2067 24.5812C46.4054 24.9711 46.4917 25.1404 46.5203 25.3929C46.5509 25.6639 46.5146 26.0632 46.3263 26.8752C46.0973 27.8628 45.6704 29.3595 44.9717 31.8086C44.5236 33.3798 43.9635 35.343 43.2723 37.8152L43.2722 37.8152C42.9548 38.9508 42.1673 39.9117 41.112 40.4497L28.5684 46.8432C27.3338 47.4725 25.8238 46.9836 25.2006 45.7609L16.8094 29.2981C16.1864 28.0759 16.6778 26.5663 17.9123 25.937L30.4559 19.5434C31.5112 19.0055 32.7515 18.9329 33.8569 19.3432Z" fill="#FFD422" stroke="#FFA733"/>
<path fill-rule="evenodd" clip-rule="evenodd" d="M27.7581 30.0408C26.9512 28.4579 25.1355 27.761 23.7104 28.4874C22.2854 29.2137 21.7824 31.0925 22.5892 32.6754C23.396 34.2583 25.2118 34.9552 26.6369 34.2288C28.0619 33.5025 28.5649 31.6237 27.7581 30.0408ZM25.8008 32.5885C25.289 32.8494 24.5695 32.5062 24.2296 31.8393C23.8896 31.1723 24.0347 30.3886 24.5465 30.1277C25.0583 29.8668 25.7777 30.21 26.1177 30.8769C26.4577 31.5439 26.3126 32.3276 25.8008 32.5885Z" fill="#FFA733"/>
<path d="M30.0484 25.8151C30.1542 25.7613 30.2722 25.7271 30.398 25.7178C30.9044 25.6801 31.3465 26.061 31.3836 26.5676L32.2415 38.1187C32.27 38.5002 32.0616 38.8441 31.7412 39.0074C31.16 39.3037 30.4546 38.9144 30.4053 38.2556L29.5479 26.7043C29.5197 26.3229 29.7278 25.9784 30.0484 25.8151Z" fill="#FFA733"/>
<path fill-rule="evenodd" clip-rule="evenodd" d="M35.3026 30.7752C33.8776 31.5016 33.3746 33.3803 34.1814 34.9633C34.9882 36.5462 36.804 37.243 38.2291 36.5167C39.6541 35.7903 40.1571 33.9115 39.3503 32.3286C38.5435 30.7457 36.7277 30.0488 35.3026 30.7752ZM37.393 34.8763C36.8812 35.1372 36.1617 34.7941 35.8218 34.1271C35.4818 33.4602 35.6269 32.6764 36.1387 32.4155C36.6505 32.1547 37.37 32.4978 37.7099 33.1648C38.0499 33.8317 37.9048 34.6155 37.393 34.8763Z" fill="#FFA733"/>
<path d="M41.9198 27.9039C40.8351 28.4568 39.9979 26.8136 41.0823 26.2609C42.1669 25.7081 43.0042 27.3512 41.9198 27.9039Z" fill="#FFA733"/>
</g>
</g>
<defs>
<linearGradient id="paint0_linear_1368_6676" x1="33.7502" y1="103.333" x2="-32.649" y2="59.3061" gradientUnits="userSpaceOnUse">
<stop stop-color="#E8C653"/>
<stop offset="0.422541" stop-color="#ECD175"/>
<stop offset="1" stop-color="#D0A71C"/>
</linearGradient>
<clipPath id="clip0_1368_6676">
<rect width="60" height="80" fill="white"/>
</clipPath>
<clipPath id="clip1_1368_6676">
<rect width="32" height="32" fill="white" transform="translate(12 23.8984) rotate(-27.0084)"/>
</clipPath>
</defs>
</svg>
