<svg width="60" height="80" viewBox="0 0 60 80" fill="none" xmlns="http://www.w3.org/2000/svg">
<g clip-path="url(#clip0_1368_6724)">
<path d="M7.75 79.612V0.25H59.7505V79.6242L32.7968 68.3311L32.6962 68.2889L32.5969 68.334L7.75 79.612Z" fill="#F9F6EC" stroke="url(#paint0_linear_1368_6724)" stroke-width="0.5"/>
<path d="M0 8L7.50007 0V8H0Z" fill="#693C14"/>
<g clip-path="url(#clip1_1368_6724)">
<path d="M43.9725 32.225L40.935 31.1187C40.8413 31.0813 40.7288 31.0625 40.6163 31.0625H21.1538C20.6287 31.0625 20.2163 31.4749 20.2163 32V45.1875C20.2163 46.7437 21.4725 48 23.0288 48H41.7789C43.3352 48 44.5914 46.7437 44.5914 45.1875V33.1062C44.5914 32.7125 44.3475 32.3563 43.9725 32.225Z" fill="#FC1A40"/>
<path d="M44.5884 33.1062V45.1875C44.5884 46.7437 43.3322 48 41.7759 48H32.4009V31.0625H40.6134C40.7259 31.0625 40.8384 31.0813 40.9321 31.1187L43.9696 32.225C44.3446 32.3563 44.5884 32.7125 44.5884 33.1062Z" fill="#C60034"/>
<path d="M44.2519 22.1118C43.9332 20.818 42.9769 19.8056 41.6831 19.393C40.4081 18.9992 39.0393 19.2805 38.0456 20.1804L35.8706 22.093L35.4394 19.2243C35.2331 17.9118 34.3894 16.8055 33.1332 16.2806C32.8894 16.1867 32.6457 16.1117 32.4019 16.0742C31.3707 15.868 30.3019 16.093 29.4394 16.7306C28.2956 17.5556 27.7144 18.9431 27.9019 20.3305C28.1082 21.718 29.0457 22.8993 30.3769 23.368L32.4019 24.0993L34.8957 25.018C34.9144 25.018 34.9144 25.018 34.9144 25.018L39.2457 26.6117C39.6769 26.7618 40.1269 26.8368 40.5581 26.8368C41.477 26.8368 42.3769 26.4992 43.0894 25.8618C44.1394 24.9243 44.5894 23.4804 44.2519 22.1118Z" fill="#FE9923"/>
<path d="M47.7971 30.6304L46.5221 34.1554C46.372 34.5305 46.0158 34.7555 45.6408 34.7555C45.5283 34.7555 45.4158 34.7367 45.3221 34.6993L35.6283 31.1743L34.7471 28.268L32.4033 28.7929L30.3409 29.2617L20.647 25.7367C20.1595 25.5492 19.9159 25.0054 20.0845 24.5367L21.3783 21.0118C21.622 20.2993 22.1471 19.7367 22.8221 19.418C23.4971 19.0993 24.2658 19.0617 24.9783 19.3242L32.4034 22.0242L32.9097 22.2117C32.9097 22.2117 34.9346 25.8868 34.9909 25.8868C35.0285 25.8868 35.8347 25.4367 36.6222 25.0054C37.4095 24.5742 38.1971 24.1242 38.1971 24.1242L46.1095 27.0117C46.822 27.2742 47.3845 27.7993 47.7032 28.4743C48.0221 29.1492 48.0595 29.918 47.7971 30.6304Z" fill="#FF3E75"/>
<path d="M47.7947 30.6316L46.5197 34.1566C46.3696 34.5316 46.0134 34.7566 45.6384 34.7566C45.5259 34.7566 45.4134 34.7378 45.3197 34.7004L35.6258 31.1754L34.7446 28.2691L32.4009 28.7941V22.0254L32.9072 22.2128C32.9072 22.2128 34.9321 25.8879 34.9884 25.8879C35.026 25.8879 35.8322 25.4379 36.6197 25.0066C37.4071 24.5753 38.1946 24.1254 38.1946 24.1254L46.1071 27.0128C46.8196 27.2753 47.3821 27.8004 47.7008 28.4754C48.0197 29.1503 48.0571 29.9192 47.7947 30.6316Z" fill="#FC1A40"/>
<path d="M29.5894 31.0625V48H35.2144V31.0625H29.5894Z" fill="#FCBF29"/>
<path d="M32.9081 22.2129L32.4018 23.6004L30.3394 29.263L32.4018 30.013L34.7456 30.8568L35.6267 31.1755L38.1956 24.1255L32.9081 22.2129Z" fill="#FCBF29"/>
</g>
</g>
<defs>
<linearGradient id="paint0_linear_1368_6724" x1="33.7502" y1="103.333" x2="-32.649" y2="59.3061" gradientUnits="userSpaceOnUse">
<stop stop-color="#E8C653"/>
<stop offset="0.422541" stop-color="#ECD175"/>
<stop offset="1" stop-color="#D0A71C"/>
</linearGradient>
<clipPath id="clip0_1368_6724">
<rect width="60" height="80" fill="white"/>
</clipPath>
<clipPath id="clip1_1368_6724">
<rect width="32" height="32" fill="white" transform="translate(18 16)"/>
</clipPath>
</defs>
</svg>
