<svg width="125" height="180" viewBox="0 0 125 180" fill="none" xmlns="http://www.w3.org/2000/svg">
<path d="M93.09 36.7441L105.338 44.0931L89.8228 69.4062L78.3911 62.0572C69.899 65.9766 56.7618 58.1243 51.2547 53.7082C49.3496 51.9357 47.3368 51.9952 46.5471 52.2586C41.6503 53.8903 40.8298 48.1754 39.1969 43.2765C37.8904 39.3571 40.8304 37.2885 42.4637 36.7441C41.1572 32.8247 44.6416 30.7561 46.5471 30.2117C45.2406 25.639 48.7242 23.4071 50.6293 22.8628C48.6696 13.7174 60.7001 14.6972 66.9604 16.3303C67.7769 16.6025 71.5331 17.8001 80.0252 20.4131C88.5173 23.0261 92.2734 32.3892 93.09 36.7441Z" fill="#DCBA9C"/>
<path d="M83.2911 75.1211L41.647 75.9376V82.4701H43.2801L44.0966 108.6L84.1076 106.967L82.4745 82.4701H84.1076L83.2911 75.1211Z" fill="#E8C653"/>
<path d="M89.0072 70.2235L106.155 43.2773C108.06 44.6383 112.361 47.6867 114.32 48.9932C116.28 50.2997 115.137 52.8038 114.32 53.8925C110.51 59.8805 102.399 72.5099 100.439 75.1228C98.4792 77.7358 96.9005 76.7559 96.3562 75.9394L89.0072 70.2235Z" fill="#1B1005"/>
<path d="M106.155 43.2773L106.629 42.6129L105.928 42.1122L105.466 42.839L106.155 43.2773ZM89.0072 70.2235L88.3183 69.7851L87.9194 70.4119L88.5059 70.8681L89.0072 70.2235ZM96.3562 75.9394L97.0356 75.4864L96.9621 75.3762L96.8575 75.2948L96.3562 75.9394ZM100.439 75.1228L99.7857 74.6329L100.439 75.1228ZM114.32 53.8925L113.667 53.4026L113.648 53.4277L113.631 53.4541L114.32 53.8925ZM114.32 48.9932L114.773 48.3138H114.773L114.32 48.9932ZM105.466 42.839L88.3183 69.7851L89.6961 70.6619L106.844 43.7157L105.466 42.839ZM88.5059 70.8681L95.8548 76.5839L96.8575 75.2948L89.5085 69.579L88.5059 70.8681ZM95.6768 76.3923C96.0446 76.944 96.7905 77.603 97.8432 77.6334C98.924 77.6646 100.031 77.0273 101.092 75.6128L99.7857 74.6329C98.8869 75.8313 98.225 76.0106 97.8903 76.001C97.5277 75.9905 97.2121 75.7513 97.0356 75.4864L95.6768 76.3923ZM101.092 75.6128C103.076 72.9673 111.211 60.2997 115.009 54.3309L113.631 53.4541C109.809 59.4614 101.721 72.0524 99.7857 74.6329L101.092 75.6128ZM114.974 54.3824C115.433 53.7695 115.999 52.7479 116.168 51.6491C116.345 50.506 116.09 49.1916 114.773 48.3138L113.867 49.6726C114.51 50.1012 114.664 50.6922 114.554 51.3999C114.438 52.152 114.024 52.9267 113.667 53.4026L114.974 54.3824ZM114.773 48.3138C112.827 47.016 108.537 43.9756 106.629 42.6129L105.68 43.9418C107.583 45.3009 111.895 48.3574 113.867 49.6726L114.773 48.3138Z" fill="#1B1005"/>
<path d="M26.138 127.381L11.4401 141.262C8.84634 143.712 11.4401 146.978 12.2566 146.978C13.0732 146.978 18.7891 152.694 22.8718 157.593C26.138 161.513 28.5877 161.404 29.4042 160.859C29.9486 160.587 32.3438 158.41 37.5697 151.877C42.7957 145.345 54.9895 145.889 60.4332 146.978C80.0304 151.061 92.2786 142.895 99.6276 139.629C105.507 137.016 105.888 132.552 105.343 130.647C109.263 124.114 102.622 124.114 98.8111 124.931C96.8513 120.358 92.0065 121.393 89.829 122.481C89.829 119.215 85.4741 120.032 83.2966 120.848C80.6836 122.155 73.498 124.114 70.2318 124.931C66.3123 122.971 60.9775 123.57 58.8001 124.114C48.3482 113.663 32.6704 121.937 26.138 127.381Z" fill="#B48C69"/>
<circle cx="17.1508" cy="25.3121" r="8.98206" fill="#E8C653"/>
<circle cx="19.6028" cy="26.1284" r="7.75723" stroke="#1B1005" stroke-width="0.816551"/>
<circle cx="97.1738" cy="152.694" r="3.67448" stroke="#1B1005" stroke-width="0.816551"/>
<path d="M116.535 28.6911C116.007 29.8844 115.173 30.7897 114.267 31.297C113.362 31.8043 112.412 31.9036 111.606 31.5472C110.8 31.1908 110.235 30.4209 110.001 29.41C109.768 28.399 109.876 27.1724 110.404 25.9791C110.931 24.7859 111.766 23.8806 112.671 23.3733C113.576 22.866 114.527 22.7666 115.332 23.1231C116.138 23.4795 116.704 24.2494 116.938 25.2603C117.171 26.2713 117.063 27.4979 116.535 28.6911Z" stroke="#1B1005" stroke-width="0.816551"/>
<circle cx="113.503" cy="18.7797" r="2.44965" fill="#E8C653"/>
<path fill-rule="evenodd" clip-rule="evenodd" d="M115.926 158.277C115.943 158.051 115.952 157.823 115.952 157.593C115.952 157.274 115.935 156.958 115.902 156.647L98.2852 155.292C98.148 155.811 98.0562 156.348 98.014 156.899L115.926 158.277ZM115.654 159.894L98.0368 158.539C98.0963 159.108 98.2089 159.661 98.3696 160.193L115.071 161.478C115.313 160.974 115.509 160.444 115.654 159.894ZM100.298 163.607C99.8271 163.085 99.4166 162.508 99.0775 161.885L114.111 163.042C113.683 163.603 113.19 164.111 112.643 164.557L100.298 163.607ZM102.558 165.419C103.861 166.155 105.366 166.575 106.97 166.575C108.084 166.575 109.15 166.373 110.135 166.002L102.558 165.419ZM114.789 153.17C115.111 153.739 115.373 154.346 115.567 154.983L98.8733 153.699C99.1612 153.102 99.5133 152.541 99.9207 152.026L114.789 153.17ZM101.451 150.506L113.506 151.433C111.869 149.696 109.546 148.611 106.97 148.611C104.889 148.611 102.974 149.319 101.451 150.506Z" fill="#E8C653"/>
<path d="M63.6942 106.966V75.1209M63.6942 75.1209L66.9599 70.2216C68.593 67.772 71.533 67.9353 70.2266 71.8547C68.9201 75.7742 65.3273 75.6653 63.6942 75.1209ZM63.6942 75.1209L63.6358 75.0159M63.6358 75.0159L59.6114 67.772C57.9783 65.3223 54.2217 61.5662 52.2619 66.1389C52.223 68.2463 54.4437 72.9721 63.6358 75.0159ZM44.0964 82.4699H81.6578M44.913 95.5347L82.4743 94.7181" stroke="#1B1005" stroke-width="0.816551" stroke-linecap="round" stroke-linejoin="round"/>
<path d="M8.1687 84.9214C8.98525 83.2883 10.1284 79.5321 8.1687 77.5724C8.98525 78.389 11.2716 79.3688 13.8846 76.7559C13.068 78.1168 11.9248 81.3285 13.8846 83.2883C13.068 82.1995 10.7817 81.0019 8.1687 84.9214Z" stroke="#1B1005" stroke-width="0.816551" stroke-linecap="round" stroke-linejoin="round"/>
<path d="M20.4202 71.8558C21.5089 72.9445 24.6662 74.1421 28.5857 70.2227C27.4969 72.1279 25.8094 76.4284 27.7691 78.3882C26.6804 77.0272 23.6864 75.6119 20.4202 80.8378C22.0533 78.9325 24.3396 74.4687 20.4202 71.8558Z" stroke="#1B1005" stroke-width="0.816551" stroke-linecap="round" stroke-linejoin="round"/>
<path d="M15.5173 88.186C16.8783 90.3635 21.2332 92.922 27.7656 85.7363C25.3159 87.9138 21.8864 93.5752 27.7656 98.8011C25.3159 96.8959 19.4368 95.045 15.5173 102.884C17.1504 99.6177 19.4368 92.1054 15.5173 88.186Z" stroke="#1B1005" stroke-width="0.816551" stroke-linecap="round" stroke-linejoin="round"/>
<path d="M94.7214 119.215C96.8989 117.582 100.764 113.009 98.8042 107.783" stroke="#1B1005" stroke-width="0.816551" stroke-linecap="round" stroke-linejoin="round"/>
<path d="M98.8053 121.666C101.799 120.577 107.624 117.093 106.971 111.867" stroke="#1B1005" stroke-width="0.816551" stroke-linecap="round" stroke-linejoin="round"/>
<path d="M63.6927 18.7793V22.0455" stroke="#1B1005" stroke-width="0.816551" stroke-linecap="round" stroke-linejoin="round"/>
<path d="M16.4389 136.364C15.078 135.82 12.5195 135.547 13.1727 138.814C14.5338 142.08 20.5221 150.245 33.5869 156.778C36.3087 157.866 40.9359 158.574 37.6697 152.695M19.7055 149.429L22.1552 146.979M22.1552 151.062L24.6048 148.612M24.6048 152.695L26.2379 150.245M27.0545 154.328L28.6876 151.878" stroke="#1B1005" stroke-width="1.22483" stroke-linecap="round" stroke-linejoin="round"/>
<path d="M93.0911 70.2229C95.5407 71.0395 99.7868 70.8762 97.1738 63.6905C99.3513 65.0515 103.216 65.9769 101.257 58.7912C103.162 59.0634 106.483 58.3013 104.523 53.0754C106.7 53.3476 110.402 52.4221 107.789 46.543" stroke="#FDFDFA" stroke-width="0.816551" stroke-linecap="round" stroke-linejoin="round"/>
<path d="M77.2211 20.4141L61.7067 22.8637C58.1683 23.4081 52.398 25.64 57.6239 30.2127C60.1508 32.4237 66.9606 34.1321 70.2268 33.4789C71.5878 37.2894 75.0987 44.094 82.9376 40.8278M56.808 27.763C60.0742 28.3074 65.9534 28.253 63.3404 23.6803" stroke="#FDFDFA" stroke-width="0.816551" stroke-linecap="round" stroke-linejoin="round"/>
<path d="M50.6299 23.6797L51.4464 31.8452C51.4464 33.2061 52.263 36.0913 55.5292 36.7445L62.0616 38.3776C63.6947 38.6498 66.9609 38.5409 66.9609 35.928C66.9609 35.3836 66.7976 34.1315 66.1444 33.4783M61.245 35.928C61.245 35.3836 61.5717 34.2949 62.8781 34.2949C64.1846 34.2949 65.6 34.2949 66.1444 34.2949" stroke="#FDFDFA" stroke-width="0.816551" stroke-linecap="round" stroke-linejoin="round"/>
<path d="M47.3651 30.2109L48.9982 37.5599C49.2704 39.4652 50.6313 43.2758 53.8975 43.2758L63.6961 44.0923C65.3292 43.8201 68.1055 42.2959 66.1458 38.3764M60.4299 42.4592C60.4299 41.6427 60.9199 40.0096 62.8796 40.0096H66.1458" stroke="#FDFDFA" stroke-width="0.816551" stroke-linecap="round" stroke-linejoin="round"/>
<path d="M63.6927 74.3061V33.4785" stroke="#1B1005" stroke-width="0.816551" stroke-linecap="round" stroke-linejoin="round"/>
<path d="M43.2773 37.5605L44.9104 43.2764C45.1826 44.6373 46.7069 47.5225 50.6263 48.1757C54.5457 48.829 58.2474 48.9923 59.6084 48.9923C61.2415 48.7201 63.8544 47.5225 61.2415 44.9095M57.1587 48.1757C57.1587 47.3592 57.6486 45.7261 59.6084 45.7261L61.9754 45.803" stroke="#FDFDFA" stroke-width="0.816551" stroke-linecap="round" stroke-linejoin="round"/>
<path d="M49.8108 52.2584C52.5326 52.5306 57.9763 53.8915 56.3432 48.9922M53.077 51.4418C53.077 50.6253 53.7302 49.972 56.3432 50.6253" stroke="#FDFDFA" stroke-width="0.816551" stroke-linecap="round" stroke-linejoin="round"/>
<path d="M52.2603 135.547H69.4078M70.2244 125.748C75.1237 129.014 75.9402 129.014 75.9402 132.28C75.9402 134.893 72.1297 135.547 70.2244 135.547H69.4078M69.4078 135.547C68.8635 134.186 69.0812 131.464 74.3071 131.464" stroke="#1B1005" stroke-width="0.816551" stroke-linecap="round" stroke-linejoin="round"/>
<path d="M75.1252 127.382C77.8471 126.837 84.2706 125.259 88.1901 123.299M76.7583 130.648C81.9298 129.559 93.0894 127.055 96.3556 125.748M76.7583 133.914C79.4802 133.914 85.7404 133.587 89.0066 132.281C92.8172 130.648 101.092 128.035 103.705 130.648" stroke="#1B1005" stroke-width="0.816551" stroke-linecap="round" stroke-linejoin="round"/>
</svg>
