<svg width="60" height="80" viewBox="0 0 60 80" fill="none" xmlns="http://www.w3.org/2000/svg">
<g clip-path="url(#clip0_1368_6700)">
<path d="M7.75 79.612V0.25H59.7505V79.6242L32.7968 68.3311L32.6962 68.2889L32.5969 68.334L7.75 79.612Z" fill="#F9F6EC" stroke="url(#paint0_linear_1368_6700)" stroke-width="0.5"/>
<path d="M0 8L7.50007 0V8H0Z" fill="#693C14"/>
<path d="M33.9999 45.619C41.5215 45.619 47.619 39.5215 47.619 31.9999C47.619 24.4783 41.5215 18.3809 33.9999 18.3809C26.4783 18.3809 20.3809 24.4783 20.3809 31.9999C20.3809 39.5215 26.4783 45.619 33.9999 45.619Z" fill="#FFD422"/>
<path d="M34.982 20.5161C35.7546 20.5815 36.5141 20.7256 37.2475 20.9351L36.6451 22.9387C36.0427 22.7684 35.4272 22.6506 34.7987 22.5982L34.982 20.5161Z" fill="#FFA733"/>
<path d="M32.9266 22.6376L32.6909 20.5554C31.9314 20.6471 31.1719 20.8043 30.4385 21.04L31.0802 23.0304C31.6826 22.834 32.2981 22.7031 32.9266 22.6376Z" fill="#FFA733"/>
<path d="M39.3818 21.8126C40.0628 22.1662 40.7044 22.5983 41.2937 23.0828L39.9711 24.7066C39.4866 24.3007 38.9628 23.9471 38.3997 23.659L39.3818 21.8126Z" fill="#FFA733"/>
<path d="M43.3897 31.1886L45.4718 31.0053C45.4064 30.2458 45.2623 29.4862 45.0528 28.7398L43.0361 29.3291C43.2326 29.9446 43.3373 30.56 43.3897 31.1886Z" fill="#FFA733"/>
<path d="M44.1882 26.6186C43.8346 25.9377 43.4024 25.296 42.9179 24.7067L41.2941 26.0293C41.7001 26.5138 42.0405 27.0377 42.3417 27.6008L44.1882 26.6186Z" fill="#FFA733"/>
<path d="M31.3946 43.2233C32.141 43.3935 32.9136 43.4983 33.6732 43.5114L33.7255 41.4162C33.097 41.4031 32.4684 41.3114 31.8529 41.1804L31.3946 43.2233Z" fill="#FFA733"/>
<path d="M27.2302 41.3246C27.8588 41.7829 28.5135 42.1627 29.2207 42.4901L30.0981 40.5782C29.5219 40.3163 28.985 40.002 28.4742 39.6222L27.2302 41.3246Z" fill="#FFA733"/>
<path d="M41.7787 37.3173L43.5073 38.4959C43.9394 37.8673 44.3061 37.1863 44.6073 36.4792L42.6823 35.6542C42.4466 36.2435 42.1454 36.8066 41.7787 37.3173Z" fill="#FFA733"/>
<path d="M35.6103 41.2982L35.9639 43.3673C36.7234 43.2363 37.4698 43.0268 38.177 42.7518L37.4174 40.8006C36.8282 41.0232 36.2258 41.1804 35.6103 41.2982Z" fill="#FFA733"/>
<path d="M39.0938 39.9364L40.233 41.6911C40.8747 41.2721 41.4771 40.8006 42.0271 40.2637L40.5604 38.7578C40.1152 39.203 39.6176 39.5959 39.0938 39.9364Z" fill="#FFA733"/>
<path d="M43.2456 34.4626L45.3016 34.8816C45.4587 34.1221 45.5242 33.3626 45.5242 32.59H43.4289C43.4289 33.2186 43.3635 33.8471 43.2456 34.4626Z" fill="#FFA733"/>
<path d="M26.5352 26.2389L24.8721 24.9556C24.4007 25.5579 23.9947 26.2127 23.6542 26.9068L25.54 27.8365C25.815 27.2734 26.1423 26.7365 26.5352 26.2389Z" fill="#FFA733"/>
<path d="M27.0603 38.3782C26.6281 37.9199 26.2615 37.4091 25.9341 36.8722L24.14 37.9591C24.5329 38.6139 25.0043 39.2294 25.5281 39.7925L27.0603 38.3782Z" fill="#FFA733"/>
<path d="M24.6628 33.3363L22.5938 33.6375C22.6985 34.397 22.8818 35.1434 23.1437 35.8767L25.1211 35.1696C24.9116 34.5803 24.7545 33.9648 24.6628 33.3363Z" fill="#FFA733"/>
<path d="M24.8732 29.604L22.8435 29.0671C22.6471 29.8136 22.5292 30.5731 22.4899 31.3457L24.5851 31.4636C24.6244 30.835 24.7161 30.2064 24.8732 29.604Z" fill="#FFA733"/>
<path d="M29.3645 23.7901L28.33 21.9698C27.6621 22.3496 27.0335 22.7948 26.4574 23.2925L27.8193 24.877C28.3038 24.4579 28.8145 24.1044 29.3645 23.7901Z" fill="#FFA733"/>
<path fill-rule="evenodd" clip-rule="evenodd" d="M48.6668 32.0007C48.6668 40.1066 42.1061 46.6673 34.0002 46.6673C25.9073 46.6542 19.3466 40.0935 19.3335 32.0007C19.3335 23.8947 25.8942 17.334 34.0002 17.334C42.1061 17.334 48.6668 23.8947 48.6668 32.0007ZM46.5716 32.0007C46.5716 25.0602 40.9406 19.4292 34.0002 19.4292C27.0597 19.4423 21.4418 25.0602 21.4287 32.0007C21.4287 38.9411 27.0597 44.5721 34.0002 44.5721C40.9406 44.5721 46.5716 38.9411 46.5716 32.0007Z" fill="#FFA733"/>
</g>
<defs>
<linearGradient id="paint0_linear_1368_6700" x1="33.7502" y1="103.333" x2="-32.649" y2="59.3061" gradientUnits="userSpaceOnUse">
<stop stop-color="#E8C653"/>
<stop offset="0.422541" stop-color="#ECD175"/>
<stop offset="1" stop-color="#D0A71C"/>
</linearGradient>
<clipPath id="clip0_1368_6700">
<rect width="60" height="80" fill="white"/>
</clipPath>
</defs>
</svg>
