<svg width="99" height="120" viewBox="0 0 99 120" fill="none" xmlns="http://www.w3.org/2000/svg">
<g clip-path="url(#clip0_919_1611)">
<path d="M45.3936 92.9567L40.2813 91.0602C40.1235 90.996 39.9342 90.9639 39.7449 90.9639H6.98839C6.10468 90.9639 5.41052 91.6709 5.41052 92.571V115.178C5.41052 117.846 7.52476 120 10.1441 120H41.7015C44.3208 120 46.4351 117.846 46.4351 115.178V94.4673C46.4351 93.7924 46.0247 93.1817 45.3936 92.9567Z" fill="#FC1A40"/>
<path d="M46.4351 94.4673V115.178C46.4351 117.846 44.3209 120 41.7015 120H25.9229V90.9639H39.745C39.9343 90.9639 40.1237 90.996 40.2813 91.0602L45.3936 92.9567C46.0248 93.1817 46.4351 93.7924 46.4351 94.4673Z" fill="#C60034"/>
<path d="M45.867 75.6199C45.3306 73.402 43.7211 71.6664 41.5436 70.9592C39.3977 70.284 37.094 70.7663 35.4215 72.3091L31.7608 75.5877L31.035 70.67C30.6879 68.42 29.2678 66.5234 27.1536 65.6235C26.7434 65.4627 26.3331 65.3341 25.9229 65.2698C24.1872 64.9163 22.3884 65.302 20.9367 66.395C19.0117 67.8092 18.0335 70.1878 18.349 72.5663C18.6962 74.9449 20.2741 76.9699 22.5146 77.7735L25.9229 79.027L30.12 80.6021C30.1515 80.6021 30.1515 80.6021 30.1515 80.6021L37.4413 83.3341C38.167 83.5914 38.9244 83.72 39.6502 83.72C41.1967 83.72 42.7114 83.1412 43.9105 82.0485C45.6777 80.4413 46.435 77.9662 45.867 75.6199Z" fill="#FE9923"/>
<path d="M51.8314 90.2246L49.6855 96.2674C49.433 96.9103 48.8334 97.296 48.2022 97.296C48.0129 97.296 47.8236 97.2639 47.6659 97.1997L31.3506 91.1568L29.8675 86.1747L25.9229 87.0746L22.4517 87.8781L6.13639 81.8353C5.3159 81.5139 4.90576 80.5817 5.18967 79.7781L7.36713 73.7354C7.77738 72.514 8.66109 71.5495 9.79715 71.0032C10.9332 70.4569 12.227 70.3925 13.4261 70.8425L25.923 75.471L26.7751 75.7924C26.7751 75.7924 30.1832 82.0925 30.278 82.0925C30.3412 82.0925 31.6981 81.3211 33.0235 80.5817C34.3486 79.8424 35.6741 79.0711 35.6741 79.0711L48.9912 84.021C50.1904 84.471 51.1371 85.3711 51.6734 86.5282C52.2101 87.6853 52.2731 89.0032 51.8314 90.2246Z" fill="#FF3E75"/>
<path d="M51.8314 90.2247L49.6855 96.2676C49.433 96.9104 48.8334 97.2962 48.2022 97.2962C48.0129 97.2962 47.8236 97.264 47.6659 97.1998L31.3506 91.157L29.8675 86.1748L25.9229 87.0747V75.4712L26.775 75.7925C26.775 75.7925 30.1831 82.0926 30.2779 82.0926C30.3411 82.0926 31.698 81.3212 33.0234 80.5818C34.3486 79.8425 35.6741 79.0712 35.6741 79.0712L48.9912 84.0211C50.1904 84.4711 51.1371 85.3712 51.6734 86.5284C52.2101 87.6854 52.2731 89.0034 51.8314 90.2247Z" fill="#FC1A40"/>
<path d="M21.1892 90.9639V120H30.6564V90.9639H21.1892Z" fill="#FCBF29"/>
<path d="M26.7748 75.7925L25.9226 78.1711L22.4514 87.8783L25.9226 89.1642L29.8673 90.6106L31.3504 91.1569L35.674 79.0712L26.7748 75.7925Z" fill="#FCBF29"/>
</g>
<path d="M18.9842 0L20.2052 2.67156L22.8208 3.91838L20.2052 5.1652L18.9842 7.83675L17.7632 5.1652L15.1475 3.91838L17.7632 2.67156L18.9842 0Z" fill="#B2C2FA"/>
<path d="M61.9021 83.1431L63.1231 85.8146L65.7387 87.0614L63.1231 88.3083L61.9021 90.9798L60.6811 88.3083L58.0654 87.0614L60.6811 85.8146L61.9021 83.1431Z" fill="#B2C2FA"/>
<path d="M60.4542 108L62.2854 112.008L66.2091 113.878L62.2854 115.748L60.4542 119.756L58.623 115.748L54.6992 113.878L58.623 112.008L60.4542 108Z" fill="#FFD422"/>
<path d="M5.75496 35.1426L7.58619 39.1499L11.5099 41.0201L7.58619 42.8904L5.75496 46.8977L3.92373 42.8904L0 41.0201L3.92373 39.1499L5.75496 35.1426Z" fill="#FFD422"/>
<path d="M92.1323 39.8881C92.2016 41.8564 90.985 43.4106 90.801 43.4882C80.4298 54.5084 89.1686 45.223 83.7166 51.0155C69.7239 64.9289 70.1571 65.1125 67.5896 65.2097C64.7542 65.3155 66.9804 66.4956 45.4907 49.4098C43.9963 48.239 42.7952 45.7318 43.2265 43.2868C45.6208 24.8688 45.627 21.0666 49.1021 19.561C49.338 19.4801 47.4041 19.8564 68.0347 16.072C69.7817 15.7739 72.352 16.4587 74.1405 18.1407C74.2089 18.2054 72.9647 16.8255 90.5982 36.4392C91.5409 37.3481 92.0847 38.5704 92.1323 39.8881Z" fill="#FFA733"/>
<path d="M76.3329 30.799L85.1999 52.8755C86.245 55.4776 84.9915 58.4761 82.4055 59.561L53.4601 71.7038C50.8751 72.7883 47.9207 71.555 46.8756 68.9529L38.0086 46.8765C37.1749 44.8007 37.246 42.441 38.2041 40.4019C47.2678 21.1099 46.9789 20.7044 49.289 19.7079C51.9739 18.5815 51.066 18.7569 71.7428 26.3321C73.8264 27.0952 75.4992 28.7233 76.3329 30.799Z" fill="#FFD422"/>
<path d="M54.2252 28.3448C54.9891 30.2573 52.1109 31.4712 51.3471 29.5591C50.5833 27.6468 53.4614 26.4328 54.2252 28.3448Z" fill="#FFA733"/>
<path d="M62.3846 37.291C62.1187 54.1783 62.1958 49.287 62.0755 56.9034C62.0656 57.5513 61.6585 58.1054 61.0886 58.3403C60.0548 58.7666 58.9148 58.0196 58.9318 56.9009C58.9638 54.8828 59.0987 46.3388 59.2419 37.2881C59.2559 36.427 59.9703 35.7294 60.8386 35.7308C61.7055 35.7316 62.399 36.4309 62.3846 37.291Z" fill="#FFA733"/>
<path d="M62.2283 37.2867L62.0015 50.8643L58.9562 43.4447L59.0596 37.2815C59.0744 36.4222 59.7952 35.7267 60.6707 35.7287C61.5448 35.7302 62.2435 36.4284 62.2283 37.2867Z" fill="#FFA733"/>
<path d="M55.8117 42.8575C54.6944 40.0696 51.7501 38.6574 49.2484 39.7094C46.7466 40.7613 45.6203 43.8853 46.7376 46.6731C47.8549 49.461 50.7992 50.8732 53.301 49.8212C55.8027 48.7693 56.929 45.6453 55.8117 42.8575ZM52.1432 46.9323C51.2447 47.3101 50.0881 46.6368 49.6173 45.4622C49.1466 44.2876 49.5077 42.9761 50.4062 42.5983C51.3046 42.2205 52.4612 42.8938 52.932 44.0684C53.4028 45.243 53.0416 46.5545 52.1432 46.9323Z" fill="#FFA733"/>
<path d="M68.2497 44.6884C65.748 45.7403 64.6217 48.8643 65.739 51.6521C66.8562 54.44 69.8006 55.8522 72.3023 54.8003C74.804 53.7483 75.9304 50.6243 74.8131 47.8365C73.6958 45.0487 70.7515 43.6363 68.2497 44.6884ZM71.1445 51.9113C70.246 52.2891 69.0894 51.6159 68.6187 50.4412C68.1479 49.2666 68.5091 47.9551 69.4075 47.5773C70.306 47.1995 71.4626 47.8728 71.9333 49.0474C72.4041 50.2221 72.0429 51.5335 71.1445 51.9113Z" fill="#FFA733"/>
<path d="M29.0825 45.4292L30.3033 48.1007L32.9191 49.3476L30.3033 50.5944L29.0825 53.2659L27.8617 50.5944L25.2458 49.3476L27.8617 48.1007L29.0825 45.4292Z" fill="#FFCDC1"/>
<path d="M94.6041 59.1431L95.5196 61.1467L97.4816 62.0819L95.5196 63.017L94.6041 65.0206L93.6885 63.017L91.7266 62.0819L93.6885 61.1467L94.6041 59.1431Z" fill="#FFA733"/>
<path d="M81.9811 4.28564L82.8967 6.28931L84.8586 7.22443L82.8967 8.15955L81.9811 10.1632L81.0656 8.15955L79.1036 7.22443L81.0656 6.28931L81.9811 4.28564Z" fill="#FFA733"/>
<defs>
<clipPath id="clip0_919_1611">
<rect width="53.8578" height="54.8573" fill="white" transform="translate(1.68304 65.1426)"/>
</clipPath>
</defs>
</svg>
