<svg width="114" height="109" fill="none" xmlns="http://www.w3.org/2000/svg">
    <g filter="url(#a)">
        <path d="M56.223 6 28 71.633l53.572 23.03 28.223-65.632L56.223 6z" fill="#fff"/>
    </g>
    <path d="M96.345 37.04c-.114.255-.424.34-.707.227l-35.626-15.34c-.283-.112-.424-.423-.34-.677.114-.255.425-.34.707-.226l35.655 15.339c.282.14.424.423.31.678zM83.094 33.256c-.113.254-.424.339-.706.226l-23.083-9.916c-.282-.113-.423-.423-.339-.678.085-.254.424-.339.707-.226l23.082 9.916c.282.14.424.452.339.678zM76.596 32.436c-.113.254-.424.339-.706.226l-17.319-7.43c-.282-.113-.424-.423-.34-.678.086-.254.425-.339.707-.226l17.319 7.43c.31.141.452.424.339.678zM92.898 45.091c-.113.255-.424.34-.707.226L56.537 29.98c-.283-.113-.424-.424-.34-.678.114-.255.425-.34.707-.226L92.56 44.413c.31.142.452.424.339.678zM79.619 41.306c-.113.255-.424.34-.707.226L55.83 31.617c-.282-.113-.423-.424-.339-.678.113-.254.424-.339.706-.226l23.083 9.915c.31.142.452.452.339.678zM73.15 40.487c-.114.255-.425.34-.707.227l-17.319-7.43c-.282-.113-.424-.424-.339-.678.113-.254.424-.339.707-.226l17.318 7.43c.283.14.452.423.34.677zM88.885 54.442c-.113.255-.423.34-.706.226L52.525 39.33c-.283-.113-.424-.423-.34-.678.085-.254.424-.339.707-.226l35.654 15.34c.283.14.424.423.34.677zM75.607 50.657c-.113.255-.424.34-.706.226l-23.082-9.915c-.283-.113-.424-.424-.34-.678.114-.254.424-.339.707-.226l23.082 9.915c.283.142.452.424.34.678zM69.137 49.838c-.113.255-.424.34-.706.226l-17.319-7.43c-.282-.112-.424-.423-.339-.677.113-.254.424-.339.706-.226l17.319 7.43c.283.112.424.423.34.677zM80.127 74.781c-.113.254-.424.34-.706.226L43.766 59.668c-.282-.113-.423-.424-.339-.678.113-.254.424-.339.707-.226l35.654 15.34c.283.14.452.451.34.677zM66.849 71.024c-.113.255-.424.34-.707.226L43.06 61.335c-.282-.113-.424-.424-.339-.678.113-.254.424-.339.707-.226l23.082 9.915c.31.113.452.424.339.678zM60.379 70.177c-.113.254-.424.34-.707.226l-17.318-7.43c-.283-.112-.424-.423-.34-.677.085-.254.424-.34.707-.226L60.04 69.5c.282.14.424.451.339.677zM85.439 62.41c-.113.254-.424.338-.707.225L49.078 47.296c-.283-.113-.424-.423-.34-.678.086-.254.425-.339.707-.226L85.1 61.732c.31.14.452.451.339.677zM72.16 58.623c-.113.254-.423.339-.706.226l-23.082-9.916c-.283-.113-.424-.423-.34-.678.114-.254.425-.339.707-.226l23.082 9.916c.311.14.452.452.34.678zM69.957 63.765c-.113.254-.424.339-.707.226l-23.082-9.916c-.282-.113-.424-.423-.339-.678.113-.254.424-.339.706-.226l23.083 9.916c.31.14.452.452.339.678zM65.69 57.804c-.113.254-.424.339-.706.226L47.665 50.6c-.282-.113-.424-.424-.339-.678.085-.254.424-.339.706-.226l17.32 7.43c.31.14.451.423.338.678zM61.82 58.201c-.113.254-.424.34-.706.226L46.93 52.325c-.283-.114-.424-.424-.34-.678.114-.255.425-.34.707-.227l14.183 6.103c.282.141.452.424.339.678z" fill="#ECECF0"/>
    <path d="M91.457 41.476c-.028 0-.056 0-.085-.028-.056-.028-.113-.085-.113-.141l-.621-2.6c-.029-.112.028-.197.113-.254.028 0 .056-.028.084-.028.085 0 .142.028.17.113l.904 1.497 3.39-1.13h.057c.085 0 .17.057.198.113.056.113 0 .226-.085.283l-3.927 2.147c-.029.028-.057.028-.085.028z" fill="#D0A71C"/>
    <path d="m90.835 38.68 1.017 1.667 3.532-1.187-3.927 2.147-.622-2.627zm0-.424c-.056 0-.113 0-.17.028-.197.085-.31.283-.254.48l.622 2.6a.388.388 0 0 0 .226.282c.057.029.113.029.17.029a.523.523 0 0 0 .197-.057l3.927-2.147c.142-.056.227-.226.227-.367 0-.226-.17-.424-.396-.424h-.085c-.028 0-.056 0-.085.028l-3.22 1.074-.791-1.328a.412.412 0 0 0-.368-.198zM75.466 78.653c-.028 0-.057 0-.085-.029-.056-.028-.113-.084-.113-.14l-.621-2.6c-.029-.113.028-.198.112-.254.029 0 .057-.029.085-.029.085 0 .142.029.17.113l.904 1.498 3.39-1.13h.057c.084 0 .17.056.197.113.057.113 0 .226-.084.282l-3.927 2.147c0 .029-.057.029-.085.029z" fill="#D0A71C"/>
    <path d="m74.844 75.827 1.017 1.667 3.532-1.187-3.927 2.148-.622-2.628zm0-.424c-.056 0-.113 0-.17.029-.197.084-.31.282-.254.48l.622 2.6a.388.388 0 0 0 .226.282c.056.028.113.028.17.028a.525.525 0 0 0 .197-.057l3.927-2.147c.142-.056.226-.226.226-.367 0-.226-.17-.424-.395-.424h-.085c-.028 0-.057 0-.085.028l-3.22 1.074-.82-1.356a.44.44 0 0 0-.339-.17zM83.772 59.358c-.028 0-.056 0-.085-.029-.056-.028-.113-.084-.113-.14l-.621-2.6c-.029-.113.028-.198.113-.254.028 0 .056-.029.084-.029.085 0 .142.029.17.113l.904 1.498 3.39-1.13h.057c.085 0 .17.056.198.113.056.113 0 .226-.085.282l-3.927 2.147c-.028.029-.057.029-.085.029z" fill="#D0A71C"/>
    <path d="m83.15 56.532 1.017 1.667 3.532-1.186-3.927 2.147-.622-2.628zm0-.424c-.056 0-.113 0-.17.029-.197.084-.31.282-.254.48l.622 2.6a.389.389 0 0 0 .226.282.36.36 0 0 0 .17.028.523.523 0 0 0 .197-.057l3.927-2.147c.142-.056.226-.226.226-.367 0-.226-.17-.424-.395-.424h-.085c-.028 0-.056 0-.085.028l-3.22 1.074-.82-1.356a.44.44 0 0 0-.339-.17z" fill="#D0A71C"/>
    <g filter="url(#b)">
        <path d="M76.948 98.063a2.49 2.49 0 0 1-2.486 2.486H6.486A2.49 2.49 0 0 1 4 98.063V10.125a2.49 2.49 0 0 1 2.486-2.486h67.947a2.49 2.49 0 0 1 2.487 2.486v87.938h.028z" fill="#422912"/>
        <path d="M76.948 94.984c0 1.327-1.13 2.4-2.486 2.4H6.486c-1.384 0-2.486-1.073-2.486-2.4V10.04c0-1.328 1.13-2.401 2.486-2.401h67.947c1.385 0 2.487 1.073 2.487 2.401v84.944h.028z" fill="#693C14"/>
        <path d="M72.71 12.666H8.238v78.983H72.71V12.666z" fill="#fff"/>
        <path d="M60.985 8.429c0-2.034-1.666-3.701-3.7-3.701h-33.65a3.714 3.714 0 0 0-3.7 3.7v6.498h41.05V8.429z" fill="#B4B3B3"/>
        <path d="M45.1 10.124a5.735 5.735 0 1 0-9.24-6.795 5.735 5.735 0 0 0 9.24 6.795z" fill="#B4B3B3"/>
        <path d="M42.226 4.982a1.76 1.76 0 0 1-1.752 1.752 1.76 1.76 0 0 1-1.751-1.752c0-.96.79-1.751 1.751-1.751.96-.029 1.752.763 1.752 1.751z" fill="#F2EDD9"/>
        <path d="M60.985 10.408h-41.05v4.52h41.05v-4.52z" fill="#D2D2D2"/>
        <path d="M61.437 29.785c0 .283-.254.537-.565.537H17.844c-.31 0-.565-.254-.565-.537 0-.282.254-.537.565-.537h43.028c.311 0 .565.227.565.537zM46.294 31.734c0 .282-.254.537-.565.537H17.844c-.31 0-.565-.255-.565-.537 0-.283.254-.537.565-.537h27.885c.31 0 .565.254.565.537zM39.372 33.74c0 .282-.254.536-.565.536H17.844c-.31 0-.565-.254-.565-.537 0-.282.254-.536.565-.536h20.935c.339 0 .593.226.593.536zM61.748 43.6c0 .31-.255.565-.565.565h-33.96a.567.567 0 0 1-.565-.565v-.537c0-.31.255-.565.565-.565h33.931c.311 0 .565.254.565.565v.537h.029zM61.748 51.99c0 .311-.255.565-.565.565h-33.96a.567.567 0 0 1-.565-.565v-.537c0-.31.255-.565.565-.565h33.931c.311 0 .565.255.565.566v.536h.029zM61.748 60.549c0 .31-.255.565-.565.565h-33.96a.567.567 0 0 1-.565-.565v-.537c0-.311.255-.565.565-.565h33.931c.311 0 .565.254.565.565v.537h.029zM61.748 68.516c0 .31-.255.565-.565.565h-33.96a.567.567 0 0 1-.565-.565v-.537c0-.31.255-.565.565-.565h33.931c.311 0 .565.254.565.565v.537h.029zM23.184 40.321v5.227h-5.227v-5.227h5.227zm.65-.65h-6.555v6.555h6.554v-6.554zM23.184 48.825v5.226h-5.227v-5.226h5.227zm.65-.65h-6.555v6.554h6.554v-6.554zM23.184 57.328v5.226h-5.227v-5.227h5.227zm.65-.679h-6.555v6.555h6.554v-6.555zM23.184 65.916v5.227h-5.227v-5.227h5.227zm.65-.65h-6.555v6.555h6.554v-6.555z" fill="#ECECF0"/>
        <path d="M20.584 44.73c-.056 0-.141-.029-.17-.085l-2.175-2.91a.217.217 0 0 1 .028-.283.216.216 0 0 1 .142-.056c.056 0 .084 0 .113.028l2.006 1.413 3.644-3.278a.216.216 0 0 1 .141-.056c.057 0 .113.028.142.056a.217.217 0 0 1 .028.283l-3.73 4.774c-.028.085-.084.113-.169.113z" fill="#D0A71C"/>
        <path d="m24.341 39.757-3.729 4.775-2.175-2.91 2.147 1.525 3.758-3.39zm0-.424s-.028 0 0 0c-.113 0-.197.057-.282.113l-3.503 3.165-1.865-1.328a.456.456 0 0 0-.254-.085.454.454 0 0 0-.311.141c-.141.141-.17.396-.028.537l2.175 2.91c.085.113.198.17.34.17a.403.403 0 0 0 .338-.17l3.73-4.746c.056-.085.113-.17.113-.283-.029-.226-.226-.424-.453-.424zM20.584 52.582c-.056 0-.141-.028-.17-.085l-2.147-2.91a.217.217 0 0 1 .029-.282.216.216 0 0 1 .14-.057c.057 0 .086 0 .114.028l2.006 1.413 3.644-3.277a.216.216 0 0 1 .142-.057c.056 0 .113.029.14.057a.217.217 0 0 1 .03.282l-3.73 4.775c-.057.085-.113.113-.198.113z" fill="#D0A71C"/>
        <path d="m24.342 47.61-3.73 4.775-2.175-2.91L20.584 51l3.758-3.39zm0-.424a.363.363 0 0 0-.283.113l-3.531 3.136-1.865-1.328a.455.455 0 0 0-.254-.084.454.454 0 0 0-.31.14c-.142.142-.17.397-.03.538l2.176 2.91c.085.113.198.17.34.17a.402.402 0 0 0 .338-.17l3.73-4.747c.056-.084.113-.17.113-.282 0-.226-.198-.396-.424-.396z" fill="#D0A71C"/>
        <path d="M8.238 72.272v19.293h9.38c-.424 0-8.815-9.604-9.38-19.293z" fill="#DDDDE0"/>
        <path d="M18.832 82.44c-2.797-.82-4.83-1.977-6.356-3.277-3.56-3.022-4.153-6.695-4.238-8.248v1.27c.565 9.69 8.984 19.38 9.38 19.38-.424-.51-.622-1.215-.65-1.95-.057-1.78.904-4.209 1.864-7.175z" fill="#ECECF0"/>
    </g>
    <defs>
        <filter id="a" x="24" y="6" width="89.795" height="96.663" filterUnits="userSpaceOnUse" color-interpolation-filters="sRGB">
            <feFlood flood-opacity="0" result="BackgroundImageFix"/>
            <feColorMatrix in="SourceAlpha" values="0 0 0 0 0 0 0 0 0 0 0 0 0 0 0 0 0 0 127 0" result="hardAlpha"/>
            <feOffset dy="4"/>
            <feGaussianBlur stdDeviation="2"/>
            <feComposite in2="hardAlpha" operator="out"/>
            <feColorMatrix values="0 0 0 0 0 0 0 0 0 0 0 0 0 0 0 0 0 0 0.25 0"/>
            <feBlend in2="BackgroundImageFix" result="effect1_dropShadow"/>
            <feBlend in="SourceGraphic" in2="effect1_dropShadow" result="shape"/>
        </filter>
        <filter id="b" x="0" y=".991" width="80.948" height="107.557" filterUnits="userSpaceOnUse" color-interpolation-filters="sRGB">
            <feFlood flood-opacity="0" result="BackgroundImageFix"/>
            <feColorMatrix in="SourceAlpha" values="0 0 0 0 0 0 0 0 0 0 0 0 0 0 0 0 0 0 127 0" result="hardAlpha"/>
            <feOffset dy="4"/>
            <feGaussianBlur stdDeviation="2"/>
            <feComposite in2="hardAlpha" operator="out"/>
            <feColorMatrix values="0 0 0 0 0 0 0 0 0 0 0 0 0 0 0 0 0 0 0.25 0"/>
            <feBlend in2="BackgroundImageFix" result="effect1_dropShadow"/>
            <feBlend in="SourceGraphic" in2="effect1_dropShadow" result="shape"/>
        </filter>
    </defs>
</svg>
