<svg width="143" height="117" fill="none" xmlns="http://www.w3.org/2000/svg">
    <g filter="url(#a)">
        <path d="M65.128 17.421 46.27 100.306l67.589 15.428 18.858-82.885-67.589-15.428z" fill="#fff"/>
    </g>
    <path d="M118.718 45.118c-.078.322-.423.488-.777.416L72.988 35.248c-.355-.071-.587-.404-.542-.72.077-.322.422-.488.777-.417l44.985 10.282c.361.104.587.404.51.726zM102.412 43.539c-.077.322-.422.488-.777.416l-29.12-6.638c-.354-.071-.586-.405-.542-.72.044-.316.422-.488.777-.417l29.12 6.638c.361.105.593.438.542.72zM94.639 43.977c-.077.322-.422.488-.777.417l-21.847-4.97c-.354-.07-.586-.404-.542-.72.044-.315.422-.487.777-.416l21.847 4.969c.393.098.62.399.542.72zM116.422 55.282c-.077.322-.422.488-.777.416l-44.986-10.28c-.354-.072-.586-.406-.542-.721.078-.322.422-.488.777-.417l44.986 10.281c.394.099.619.399.542.72zM100.084 53.709c-.078.322-.423.488-.777.416l-29.12-6.638c-.355-.072-.587-.405-.543-.72.078-.323.423-.489.777-.417l29.12 6.638c.394.099.626.432.543.72zM92.344 54.142c-.078.322-.423.488-.777.417l-21.847-4.97c-.355-.07-.587-.404-.542-.72.077-.322.422-.488.777-.416L91.8 53.422c.361.104.62.398.543.72zM113.746 67.089c-.077.322-.423.488-.777.416L67.983 57.224c-.354-.071-.587-.405-.542-.72.044-.316.422-.488.777-.417l44.986 10.281c.36.105.586.405.542.72zM97.407 65.516c-.077.322-.422.487-.777.416l-29.12-6.638c-.354-.072-.586-.405-.542-.72.078-.323.423-.489.777-.417l29.12 6.638c.36.105.62.399.542.72zM89.667 65.95c-.077.321-.422.487-.777.416l-21.846-4.97c-.355-.07-.587-.404-.543-.72.078-.322.423-.488.777-.416l21.847 4.969c.355.071.587.404.542.72zM107.888 92.776c-.077.322-.422.488-.777.417L62.125 82.912c-.354-.072-.586-.405-.542-.721.077-.322.422-.488.777-.416l44.986 10.28c.36.105.625.432.542.721zM91.555 91.237c-.077.321-.422.487-.777.416l-29.12-6.638c-.354-.072-.586-.405-.542-.72.078-.323.422-.489.777-.417l29.12 6.638c.388.065.62.399.542.72zM83.81 91.637c-.078.322-.423.488-.778.416l-21.846-4.969c-.355-.071-.587-.404-.542-.72.044-.316.422-.488.776-.417l21.847 4.97c.36.104.593.437.543.72zM111.432 77.154c-.077.322-.422.488-.777.417L65.67 67.29c-.355-.072-.587-.405-.543-.72.045-.317.423-.489.777-.417l44.986 10.28c.394.1.626.432.542.721zM95.093 75.58c-.077.321-.422.487-.777.416l-29.12-6.639c-.354-.071-.586-.404-.542-.72.078-.322.423-.488.777-.417l29.12 6.639c.394.098.626.431.542.72zM93.625 82.071c-.077.322-.422.488-.777.417l-29.12-6.639c-.354-.071-.586-.404-.542-.72.077-.322.422-.488.777-.417l29.12 6.639c.394.098.626.431.542.72zM87.354 76.013c-.078.322-.422.488-.777.416L64.73 71.46c-.354-.071-.586-.404-.542-.72.044-.316.422-.488.777-.416l21.846 4.968c.394.099.62.4.543.72zM82.914 77.31c-.077.322-.422.489-.777.417l-17.894-4.09c-.355-.072-.587-.406-.543-.721.078-.322.422-.488.777-.417l17.895 4.09c.36.105.62.4.542.722z" fill="#ECECF0"/>
    <path d="M113.959 51.36c-.033.007-.066.013-.105-.014-.072-.021-.15-.075-.163-.141l-1.286-2.908c-.057-.127-.01-.238.077-.322.033-.007.06-.046.093-.052.099-.018.171.003.223.096l1.379 1.558 3.72-2.052.066-.012a.284.284 0 0 1 .256.09c.09.12.048.264-.038.349l-4.129 3.357c-.027.04-.06.046-.093.052z" fill="#D0A71C"/>
    <path d="m112.63 48.222 1.548 1.732 3.873-2.149-4.128 3.358-1.293-2.941zm-.091-.496a.425.425 0 0 0-.192.07c-.213.14-.303.397-.194.616l1.286 2.908c.064.16.181.24.325.282.073.021.139.009.205-.003a.624.624 0 0 0 .219-.109l4.128-3.358c.153-.096.216-.313.185-.478-.048-.265-.289-.46-.553-.411l-.033.006-.066.012c-.033.006-.067.012-.093.052l-3.534 1.949-1.211-1.384a.49.49 0 0 0-.472-.152zM103.272 98.31c-.033.006-.066.012-.105-.015-.072-.02-.15-.075-.163-.14l-1.286-2.909c-.057-.126-.01-.237.077-.322.033-.006.06-.045.093-.051.099-.018.171.003.223.096l1.379 1.558 3.72-2.052.066-.012a.284.284 0 0 1 .256.09c.09.12.048.264-.038.348l-4.129 3.358c.006.033-.06.045-.093.051z" fill="#D0A71C"/>
    <path d="m101.937 95.137 1.548 1.732 3.873-2.148-4.129 3.358-1.292-2.942zm-.092-.496c-.066.012-.132.024-.192.07-.213.141-.302.397-.193.617l1.286 2.908c.063.159.181.24.325.282.072.02.138.008.204-.004a.624.624 0 0 0 .219-.108l4.129-3.358c.153-.097.215-.313.185-.479-.049-.264-.289-.46-.554-.41l-.033.006-.066.012c-.033.006-.066.012-.093.051l-3.534 1.95-1.25-1.411a.522.522 0 0 0-.433-.126zM108.827 73.942c-.033.006-.066.012-.105-.015-.073-.021-.151-.075-.163-.141l-1.286-2.909c-.058-.126-.01-.237.077-.321.033-.006.06-.046.093-.052.099-.018.171.003.222.096l1.38 1.558 3.72-2.052.066-.012c.099-.018.21.03.255.09.091.12.049.264-.038.349l-4.128 3.357c-.027.04-.06.046-.093.052z" fill="#D0A71C"/>
    <path d="m107.491 70.768 1.548 1.733 3.873-2.15-4.128 3.359-1.293-2.942zm-.091-.496a.425.425 0 0 0-.192.07c-.213.142-.302.398-.194.617l1.287 2.908c.063.16.18.24.325.282.072.021.138.009.204-.003a.624.624 0 0 0 .219-.109l4.129-3.358c.153-.096.215-.313.185-.478-.049-.265-.29-.46-.554-.411l-.033.006-.066.012c-.033.006-.066.012-.093.051l-3.534 1.95-1.25-1.411a.523.523 0 0 0-.433-.126z" fill="#D0A71C"/>
    <g filter="url(#b)">
        <path d="M109.185 120.708a2.961 2.961 0 0 1-2.371 3.444l-79.466 14.624a2.96 2.96 0 0 1-3.442-2.374L4.966 33.484a2.961 2.961 0 0 1 2.37-3.444L86.77 15.422a2.961 2.961 0 0 1 3.442 2.374l18.94 102.918.033-.006z" fill="#422912"/>
        <path d="M108.522 117.104c.286 1.554-.804 3.054-2.389 3.345l-79.467 14.625c-1.618.297-3.137-.722-3.424-2.276L4.947 33.385c-.286-1.554.804-3.053 2.39-3.345L86.77 15.422c1.618-.298 3.138.721 3.424 2.275l18.295 99.413.033-.006z" fill="#693C14"/>
        <path d="m85.838 21.676-75.37 13.87 17.01 92.438 75.372-13.87-17.012-92.438z" fill="#fff"/>
        <path d="M71.219 19.24c-.438-2.381-2.746-3.973-5.124-3.535l-39.337 7.239c-2.378.438-3.968 2.747-3.53 5.127l1.4 7.604 47.99-8.832-1.4-7.604z" fill="#B4B3B3"/>
        <path d="M53.012 24.64a6.83 6.83 0 0 0-3.156-9.12 6.812 6.812 0 0 0-9.11 3.157 6.83 6.83 0 0 0 3.157 9.12 6.812 6.812 0 0 0 9.11-3.156z" fill="#B4B3B3"/>
        <path d="M48.545 19.242a2.094 2.094 0 0 1-1.67 2.427 2.094 2.094 0 0 1-2.425-1.673 2.094 2.094 0 0 1 1.67-2.427c1.117-.24 2.212.516 2.425 1.673z" fill="url(#c)"/>
        <path d="m71.645 21.555-47.99 8.832.973 5.29 47.99-8.831-.973-5.29z" fill="#D2D2D2"/>
        <path d="M76.347 44.137c.06.33-.182.683-.545.75L25.5 54.143c-.364.067-.716-.176-.776-.507-.061-.33.181-.683.544-.75l50.303-9.257c.363-.067.71.143.776.507zM59.063 49.675c.061.33-.181.683-.545.75l-32.599 6c-.363.066-.715-.177-.776-.507-.06-.331.182-.683.545-.75l32.599-6c.363-.066.715.177.776.507zM51.403 53.512c.061.33-.181.682-.545.75l-24.507 4.51c-.363.066-.715-.176-.776-.507-.06-.33.182-.683.545-.75l24.474-4.504c.396-.073.742.137.81.5zM79.685 60.238a.674.674 0 0 1-.538.782l-39.7 7.306a.674.674 0 0 1-.783-.54l-.116-.627a.674.674 0 0 1 .54-.783l39.666-7.3a.674.674 0 0 1 .783.54l.115.628.033-.006zM81.493 70.057a.674.674 0 0 1-.54.783l-39.7 7.306a.674.674 0 0 1-.782-.54l-.115-.628a.674.674 0 0 1 .538-.782l39.668-7.3a.674.674 0 0 1 .782.54l.116.627.033-.006zM83.336 80.074a.674.674 0 0 1-.54.783l-39.7 7.306a.674.674 0 0 1-.781-.54l-.116-.628a.674.674 0 0 1 .539-.783l39.667-7.3a.674.674 0 0 1 .782.54l.116.628.033-.006zM85.052 89.398a.674.674 0 0 1-.539.783l-39.7 7.306a.674.674 0 0 1-.782-.54l-.116-.628a.674.674 0 0 1 .539-.783l39.667-7.3a.674.674 0 0 1 .782.54l.116.628.033-.006zM33.896 64.698l1.126 6.117-6.11 1.124-1.126-6.117 6.11-1.124zm.62-.9-7.663 1.41 1.412 7.67 7.662-1.41-1.411-7.67zM35.727 74.65l1.126 6.116-6.11 1.125-1.126-6.117 6.11-1.125zm.62-.901-7.663 1.41 1.412 7.671 7.662-1.41-1.411-7.671zM37.559 84.6l1.126 6.118-6.11 1.124-1.127-6.117 6.11-1.124zm.613-.933-7.662 1.41 1.412 7.672 7.662-1.41-1.412-7.672zM39.408 94.652l1.126 6.117-6.11 1.125-1.126-6.117 6.11-1.125zm.62-.9-7.663 1.41 1.412 7.671 7.663-1.41-1.412-7.671z" fill="#ECECF0"/>
        <path d="M31.806 70.416c-.066.012-.171-.003-.216-.063l-3.17-2.938a.259.259 0 0 1-.028-.337.257.257 0 0 1 .153-.096c.066-.012.1-.018.138.009l2.65 1.221 3.554-4.62a.256.256 0 0 1 .153-.096.256.256 0 0 1 .178.036.259.259 0 0 1 .093.325l-3.331 6.39c-.015.105-.075.15-.174.169z" fill="#D0A71C"/>
        <path d="m35.128 63.788-3.331 6.39-3.17-2.938 2.838 1.324 3.663-4.776zm-.091-.496s-.033.006 0 0c-.132.024-.22.108-.306.193l-3.414 4.457-2.466-1.153a.541.541 0 0 0-.316-.044.54.54 0 0 0-.332.232c-.135.195-.113.5.082.634l3.17 2.938a.479.479 0 0 0 .433.125.479.479 0 0 0 .36-.271l3.337-6.358c.048-.11.096-.222.072-.354-.082-.259-.356-.448-.62-.4zM33.498 79.606c-.066.012-.171-.003-.217-.063L30.144 76.6a.259.259 0 0 1-.027-.336.256.256 0 0 1 .153-.097c.066-.012.099-.018.138.009l2.65 1.222 3.554-4.62a.256.256 0 0 1 .153-.097.257.257 0 0 1 .177.036c.117.081.142.213.094.325l-3.331 6.39c-.048.111-.108.157-.207.175z" fill="#D0A71C"/>
        <path d="m36.82 72.979-3.332 6.39-3.17-2.938 2.84 1.324 3.662-4.776zm-.092-.496a.431.431 0 0 0-.306.193l-3.453 4.43-2.465-1.153a.54.54 0 0 0-.316-.045.539.539 0 0 0-.333.232c-.135.196-.113.5.083.635l3.17 2.937a.478.478 0 0 0 .433.126.479.479 0 0 0 .36-.271l3.337-6.358c.048-.111.095-.222.071-.355-.049-.264-.316-.42-.58-.371z" fill="#D0A71C"/>
        <path d="m23.305 105.306 4.156 22.58 10.965-2.018c-.495.091-12.373-9.344-15.12-20.562z" fill="#DDDDE0"/>
        <path d="M37.88 114.927c-3.446-.357-6.073-1.275-8.136-2.467-4.813-2.772-6.298-6.942-6.731-8.742l.273 1.487c2.748 11.219 14.677 20.747 15.14 20.662-.605-.504-.989-1.288-1.18-2.141-.45-2.071.15-5.121.635-8.799z" fill="#ECECF0"/>
    </g>
    <defs>
        <filter id="a" x="42.27" y="17.421" width="94.447" height="106.313" filterUnits="userSpaceOnUse" color-interpolation-filters="sRGB">
            <feFlood flood-opacity="0" result="BackgroundImageFix"/>
            <feColorMatrix in="SourceAlpha" values="0 0 0 0 0 0 0 0 0 0 0 0 0 0 0 0 0 0 127 0" result="hardAlpha"/>
            <feOffset dy="4"/>
            <feGaussianBlur stdDeviation="2"/>
            <feComposite in2="hardAlpha" operator="out"/>
            <feColorMatrix values="0 0 0 0 0 0 0 0 0 0 0 0 0 0 0 0 0 0 0.25 0"/>
            <feBlend in2="BackgroundImageFix" result="effect1_dropShadow"/>
            <feBlend in="SourceGraphic" in2="effect1_dropShadow" result="shape"/>
        </filter>
        <filter id="b" x=".902" y="14.833" width="112.333" height="131.992" filterUnits="userSpaceOnUse" color-interpolation-filters="sRGB">
            <feFlood flood-opacity="0" result="BackgroundImageFix"/>
            <feColorMatrix in="SourceAlpha" values="0 0 0 0 0 0 0 0 0 0 0 0 0 0 0 0 0 0 127 0" result="hardAlpha"/>
            <feOffset dy="4"/>
            <feGaussianBlur stdDeviation="2"/>
            <feComposite in2="hardAlpha" operator="out"/>
            <feColorMatrix values="0 0 0 0 0 0 0 0 0 0 0 0 0 0 0 0 0 0 0.25 0"/>
            <feBlend in2="BackgroundImageFix" result="effect1_dropShadow"/>
            <feBlend in="SourceGraphic" in2="effect1_dropShadow" result="shape"/>
        </filter>
        <linearGradient id="c" x1="42.342" y1="16.452" x2="51.464" y2="22.101" gradientUnits="userSpaceOnUse">
            <stop stop-color="#AB6121"/>
            <stop offset=".523" stop-color="#E3BA30"/>
            <stop offset="1" stop-color="#D57A2A"/>
        </linearGradient>
    </defs>
</svg>
