<svg width="110" height="106" viewBox="0 0 110 106" fill="none" xmlns="http://www.w3.org/2000/svg">
<g clip-path="url(#clip0_162_23358)">
<path d="M86.3259 53.2003L78.2943 52.2421C78.0446 52.2046 77.7598 52.2228 77.4858 52.2864L30.0613 63.2805C28.7818 63.5771 28.0117 64.8069 28.3107 66.076L35.8209 97.9506C36.7071 101.712 40.4835 104.039 44.2758 103.16L89.9642 92.5681C93.7564 91.689 96.102 87.9428 95.2157 84.1815L88.3356 54.9806C88.1114 54.029 87.3144 53.3057 86.3259 53.2003Z" fill="#FC1A40"/>
<path d="M88.3357 54.9804L95.2158 84.1813C96.102 87.9426 93.7565 91.6888 89.9642 92.5679L67.12 97.8637L57.4744 56.9253L77.4859 52.2862C77.76 52.2226 78.0448 52.2044 78.2944 52.2419L86.326 53.2001C87.3145 53.3055 88.1115 54.0288 88.3357 54.9804Z" fill="#C60034"/>
<path d="M81.2507 28.5978C79.7374 25.6508 76.8306 23.7439 73.4431 23.4776C70.1121 23.246 66.9369 24.6991 65.028 27.4356L60.8172 33.287L58.1328 26.5969C56.8828 23.541 54.1968 21.3437 50.8369 20.7845C50.1895 20.6954 49.5529 20.6518 48.9376 20.6989C46.3072 20.7829 43.8311 21.9305 42.0924 23.9587C39.7752 26.5989 39.1492 30.2808 40.3961 33.5284C41.689 36.7655 44.6461 39.091 48.1568 39.472L53.5077 40.0956L60.1075 40.9075C60.1532 40.8969 60.1532 40.8969 60.1532 40.8969L71.6147 42.3023C72.7509 42.4214 73.8902 42.3486 74.941 42.105C77.18 41.586 79.1806 40.2615 80.5538 38.3183C82.5783 35.4593 82.8526 31.7153 81.2507 28.5978Z" fill="#FE9923"/>
<path d="M94.7379 47.1871L93.6386 56.4273C93.4865 57.4185 92.7465 58.1636 91.8328 58.3754C91.5586 58.439 91.2738 58.4572 91.0242 58.4196L65.3957 55.3755L61.5935 48.8488L56.1814 51.4415L51.4228 53.7395L25.7943 50.6954C24.4996 50.5178 23.5962 49.341 23.7402 48.1127L24.8854 38.8622C25.0736 37.0024 26.0326 35.3459 27.4959 34.1943C28.9592 33.0427 30.8109 32.5177 32.6965 32.7497L52.3269 35.0814L53.6673 35.2484C53.6673 35.2484 60.6944 42.9873 60.8316 42.9555C60.9232 42.9342 62.6313 41.3912 64.3046 39.9038C65.9775 38.4167 67.6403 36.8843 67.6403 36.8843L88.565 39.3937C90.4507 39.6257 92.1203 40.5771 93.2813 42.0285C94.4427 43.4798 94.9717 45.3168 94.7379 47.1871Z" fill="#FF3E75"/>
<path d="M94.7396 47.1882L93.6403 56.4285C93.4882 57.4196 92.7482 58.1647 91.8344 58.3765C91.5603 58.4401 91.2755 58.4583 91.0259 58.4207L65.3974 55.3766L61.5951 48.8499L56.183 51.4426L52.3284 35.0825L53.6689 35.2496C53.6689 35.2496 60.6959 42.9884 60.8332 42.9566C60.9247 42.9354 62.6329 41.3923 64.3062 39.905C65.9792 38.4179 67.642 36.8855 67.642 36.8855L88.5667 39.3949C90.4523 39.6268 92.122 40.5782 93.283 42.0297C94.4443 43.4809 94.9734 45.318 94.7396 47.1882Z" fill="#FC1A40"/>
<path d="M50.6204 58.5132L60.266 99.4516L73.9725 96.2741L64.3269 55.3357L50.6204 58.5132Z" fill="#FCBF29"/>
<path d="M53.667 35.2482L53.2234 38.8878L51.4226 53.7394L56.8754 54.3873L63.0669 55.1027L65.3956 55.3752L67.6403 36.884L53.667 35.2482Z" fill="#FCBF29"/>
</g>
<path d="M30.6392 21.6021L32.0043 18.6927L34.9295 17.3349L32.0043 15.9771L30.6392 13.0678L29.274 15.9771L26.3489 17.3349L29.274 18.6927L30.6392 21.6021Z" fill="#FFD422"/>
<path d="M4.29029 45.8711L5.65546 42.9618L8.58058 41.604L5.65546 40.2462L4.29029 37.3369L2.92512 40.2462L4.06704e-09 41.604L2.92512 42.9618L4.29029 45.8711Z" fill="#FFD422"/>
<path d="M102.785 16.1792L104.15 19.0885L107.075 20.4463L104.15 21.8041L102.785 24.7134L101.42 21.8041L98.4946 20.4463L101.42 19.0885L102.785 16.1792Z" fill="#FFD422"/>
<path d="M11.6432 15.646L12.5534 13.7064L14.5034 12.8013L12.5534 11.8961L11.6432 9.95652L10.7329 11.8961L8.78296 12.8013L10.7329 13.7064L11.6432 15.646Z" fill="#B2C2FA"/>
<path d="M51.1663 11.29L52.0766 9.35049L54.0265 8.4453L52.0766 7.5401L51.1663 5.60056L50.2561 7.5401L48.3062 8.4453L50.2561 9.35049L51.1663 11.29Z" fill="#B2C2FA"/>
<path d="M73.1239 11.29L74.0341 9.35049L75.9841 8.4453L74.0341 7.5401L73.1239 5.60056L72.2136 7.5401L70.2637 8.4453L72.2136 9.35049L73.1239 11.29Z" fill="#B2C2FA"/>
<path d="M16.9386 26.7588L17.737 25.0617L19.448 24.2696L17.737 23.4776L16.9386 21.7805L16.1402 23.4776L14.4292 24.2696L16.1402 25.0617L16.9386 26.7588Z" fill="#FFA733"/>
<path d="M92.2211 9.95654L93.0195 11.6536L94.7305 12.4457L93.0195 13.2377L92.2211 14.9348L91.4227 13.2377L89.7117 12.4457L91.4227 11.6536L92.2211 9.95654Z" fill="#FFA733"/>
<path d="M14.1527 57.9614L15.0629 56.0219L17.0129 55.1167L15.0629 54.2115L14.1527 52.2719L13.2424 54.2115L11.2925 55.1167L13.2424 56.0219L14.1527 57.9614Z" fill="#B2C2FA"/>
<path d="M101.355 34.8481L102.265 36.7877L104.215 37.6929L102.265 38.5981L101.355 40.5376L100.445 38.5981L98.4946 37.6929L100.445 36.7877L101.355 34.8481Z" fill="#B2C2FA"/>
<path d="M17.9166 40.5376L18.8267 38.5981L20.7768 37.6929L18.8267 36.7877L17.9166 34.8481L17.0065 36.7877L15.0564 37.6929L17.0065 38.5981L17.9166 40.5376Z" fill="#FFCDC1"/>
<path d="M104.492 46.6714L105.402 48.6109L107.352 49.5161L105.402 50.4213L104.492 52.3609L103.581 50.4213L101.631 49.5161L103.581 48.6109L104.492 46.6714Z" fill="#FFCDC1"/>
<path d="M67.4776 18.7573L68.3877 16.8178L70.3378 15.9126L68.3877 15.0074L67.4776 13.0678L66.5675 15.0074L64.6174 15.9126L66.5675 16.8178L67.4776 18.7573Z" fill="#FFCDC1"/>
<path d="M37.992 5.68945L38.9021 3.74991L40.8522 2.84471L38.9021 1.93952L37.992 -2.4316e-05L37.0819 1.93952L35.1318 2.84471L37.0819 3.74991L37.992 5.68945Z" fill="#FFCDC1"/>
<path d="M17.2894 79.1196L18.1995 77.1801L20.1496 76.2749L18.1995 75.3697L17.2894 73.4302L16.3793 75.3697L14.4292 76.2749L16.3793 77.1801L17.2894 79.1196Z" fill="#FFCDC1"/>
<path d="M6.90077 69.0737L7.69918 67.3766L9.41019 66.5846L7.69918 65.7925L6.90077 64.0954L6.10236 65.7925L4.39136 66.5846L6.10236 67.3766L6.90077 69.0737Z" fill="#FFA733"/>
<path d="M89.7116 28.0029L90.51 29.7L92.221 30.4921L90.51 31.2841L89.7116 32.9812L88.9132 31.2841L87.2021 30.4921L88.9132 29.7L89.7116 28.0029Z" fill="#FFA733"/>
<defs>
<clipPath id="clip0_162_23358">
<rect width="80.0425" height="79.4627" fill="white" transform="matrix(0.974166 -0.225834 0.229335 0.973348 13.8018 28.6553)"/>
</clipPath>
</defs>
</svg>
