<svg xmlns="http://www.w3.org/2000/svg" width="1440" height="253" fill="none" viewBox="0 0 1440 253">
    <g opacity=".5">
        <g opacity=".4">
            <path fill="url(#paint0_linear)" d="M720.001-286H568.5v448.676l37.802-22.441 37.949 22.441 37.802 22.441 37.948 22.441V-286z" opacity=".4"/>
            <path fill="url(#paint1_linear)" d="M530.55-286v471.117l37.949-22.441V-286H530.55z" opacity=".4"/>
            <path fill="url(#paint2_linear)" d="M492.603-286H189.453v448.676l37.949 22.441 37.949 22.441 37.802-22.441 37.948-22.441 37.803-22.441 37.948-22.442 37.949 22.442 37.802 22.441 37.949 22.441V-286h-37.949z" opacity=".4"/>
            <path fill="url(#paint3_linear)" d="M151.65-286v471.117l37.803-22.441V-286H151.65z" opacity=".4"/>
            <path fill="url(#paint4_linear)" d="M113.7-286H0v515.999l37.949 22.294 37.802-22.294 37.949-22.441 37.948-22.441V-286H113.7z" opacity=".4"/>
        </g>
        <g opacity=".4">
            <path fill="#D8C149" d="M720.001-16.852l-37.949-22.441V5.589l37.949-22.44z" opacity=".4"/>
            <path fill="#D8C149" d="M682.052 5.59l37.949-22.442v44.883L682.052 5.59zM682.051 5.59l-37.802-22.442v44.883L682.051 5.59z" opacity=".4"/>
            <path fill="#D8C149" d="M644.25-16.852l-37.949-22.441V5.589l37.949-22.44z" opacity=".4"/>
            <path fill="#D8C149" d="M606.301 5.59l37.949-22.442v44.883L606.301 5.59z" opacity=".4"/>
            <path fill="#D8C149" d="M644.249-16.852l37.802-22.441V5.589l-37.802-22.44zM720.001 28.027L682.052 5.586v44.882l37.949-22.44zM682.053 50.476l37.948-22.44v44.882l-37.948-22.442zM682.051 50.476l-37.802-22.44v44.882l37.802-22.442zM644.249 28.027L606.3 5.586v44.882l37.949-22.44zM606.3 50.476l37.949-22.44v44.882L606.3 50.476z" opacity=".4"/>
            <path fill="#B4983E" d="M720.001-16.852l-37.949-22.441V5.589l37.949-22.44z" opacity=".4"/>
            <path fill="#937132" d="M682.052 5.59l37.949-22.442v44.883L682.052 5.59z" opacity=".4"/>
            <path fill="#D8C149" d="M682.051 5.59l-37.802-22.442v44.883L682.051 5.59z" opacity=".4"/>
            <path fill="#D8C149" d="M644.249 28.027l37.802-22.441v44.882l-37.802-22.44zM644.25-16.852l-37.949-22.441V5.589l37.949-22.44z" opacity=".4"/>
            <path fill="#D8C149" d="M606.301 5.59l37.949-22.442v44.883L606.301 5.59z" opacity=".4"/>
            <path fill="#B4983E" d="M644.249-16.852l37.802-22.441V5.589l-37.802-22.44z" opacity=".4"/>
            <path fill="#D8C149" d="M720.001 72.91l-37.948-22.441V95.35l37.948-22.441zM682.052 95.351l37.949-22.44v44.881l-37.949-22.44zM682.051 95.351l-37.802-22.44v44.881l37.802-22.44zM644.249 72.91L606.3 50.469V95.35l37.949-22.441z" opacity=".4"/>
            <path fill="#D8C149" d="M606.301 95.351l37.949-22.44v44.881l-37.949-22.44z" opacity=".4"/>
            <path fill="#937132" d="M720.001 28.027L682.052 5.586v44.882l37.949-22.44z" opacity=".4"/>
            <path fill="#B4983E" d="M682.053 50.476l37.948-22.44v44.882l-37.948-22.442z" opacity=".4"/>
            <path fill="#B3A63D" d="M682.051 50.476l-37.802-22.44v44.882l37.802-22.442z" opacity=".4"/>
            <path fill="#D8C149" d="M644.249 72.91l37.802-22.441V95.35L644.249 72.91zM644.249 28.027L606.3 5.586v44.882l37.949-22.44zM606.3 50.476l37.949-22.44v44.882L606.3 50.476zM644.249 28.027l37.802-22.441v44.882l-37.802-22.44zM720.001 117.793l-37.949-22.441v44.882l37.949-22.441zM682.052 140.234l37.949-22.441v44.882l-37.949-22.441zM682.051 140.234l-37.802-22.441v44.882l37.802-22.441z" opacity=".4"/>
            <path fill="#D8C149" d="M644.25 117.793l-37.949-22.441v44.882l37.949-22.441z" opacity=".4"/>
            <path fill="#D8C149" d="M606.3 140.234l37.949-22.441v44.882L606.3 140.234z" opacity=".4"/>
            <path fill="#fff" d="M720.001 72.91l-37.948-22.441V95.35l37.948-22.441z" opacity=".4"/>
            <path fill="#937132" d="M682.052 95.351l37.949-22.44v44.881l-37.949-22.44z" opacity=".4"/>
            <path fill="#B4983E" d="M682.051 95.351l-37.802-22.44v44.881l37.802-22.44z" opacity=".4"/>
            <path fill="#D8C149" d="M644.249 117.793l37.802-22.441v44.882l-37.802-22.441zM644.249 72.91L606.3 50.469V95.35l37.949-22.441zM606.301 95.351l37.949-22.44v44.881l-37.949-22.44zM644.249 72.91l37.802-22.441V95.35L644.249 72.91z" opacity=".4"/>
            <path fill="#B3A63D" d="M720.001 117.793l-37.949-22.441v44.882l37.949-22.441z" opacity=".4"/>
            <path fill="#B4983E" d="M682.052 140.234l37.949-22.441v44.882l-37.949-22.441z" opacity=".4"/>
            <path fill="#fff" d="M682.051 140.234l-37.802-22.441v44.882l37.802-22.441z" opacity=".4"/>
            <path fill="#D8C149" d="M644.25 117.793l-37.949-22.441v44.882l37.949-22.441z" opacity=".4"/>
            <path fill="#D8C149" d="M606.3 140.234l37.949-22.441v44.882L606.3 140.234zM644.249 117.793l37.802-22.441v44.882l-37.802-22.441z" opacity=".4"/>
            <path fill="#937132" d="M720.001 162.679l-37.949-22.441v44.883l37.949-22.442z" opacity=".4"/>
            <path fill="#fff" d="M682.052 185.113l37.949-22.441v44.882l-37.949-22.441z" opacity=".4"/>
            <path fill="#D8C149" d="M644.249 162.679l37.802-22.441v44.883l-37.802-22.442zM644.25-16.852l-37.949-22.441V5.589l37.949-22.44z" opacity=".4"/>
            <path fill="#D8C149" d="M606.301 5.59l37.949-22.442v44.883L606.301 5.59z" opacity=".4"/>
            <path fill="#D8C149" d="M606.303 5.59l-37.802-22.442v44.883L606.303 5.59zM568.499-16.852L530.55-39.293V5.589l37.949-22.44z" opacity=".4"/>
            <path fill="#D8C149" d="M530.55 5.59l37.949-22.442v44.883L530.55 5.59zM568.501-16.852l37.802-22.441V5.589l-37.802-22.44z" opacity=".4"/>
            <path fill="#D8C149" d="M644.249 28.027L606.3 5.586v44.882l37.949-22.44zM606.3 50.476l37.949-22.44v44.882L606.3 50.476z" opacity=".4"/>
            <path fill="#D8C149" d="M606.303 50.476l-37.802-22.44v44.882l37.802-22.442zM568.498 28.027L530.549 5.586v44.882l37.949-22.44zM530.549 50.476l37.949-22.44v44.882l-37.949-22.442z" opacity=".4"/>
            <path fill="#937132" d="M644.25-16.852l-37.949-22.441V5.589l37.949-22.44z" opacity=".4"/>
            <path fill="#937132" d="M606.301 5.59l37.949-22.442v44.883L606.301 5.59z" opacity=".4"/>
            <path fill="#B3A63D" d="M606.303 5.59l-37.802-22.442v44.883L606.303 5.59z" opacity=".4"/>
            <path fill="#D8C149" d="M568.501 28.027l37.802-22.441v44.882l-37.802-22.44zM568.499-16.852L530.55-39.293V5.589l37.949-22.44z" opacity=".4"/>
            <path fill="#D8C149" d="M530.55 5.59l37.949-22.442v44.883L530.55 5.59zM568.501-16.852l37.802-22.441V5.589l-37.802-22.44zM644.249 72.91L606.3 50.469V95.35l37.949-22.441zM606.301 95.351l37.949-22.44v44.881l-37.949-22.44z" opacity=".4"/>
            <path fill="#D8C149" d="M606.303 95.351l-37.802-22.44v44.881l37.802-22.44zM568.498 72.91l-37.949-22.441V95.35l37.949-22.441zM530.55 95.351l37.949-22.44v44.881l-37.949-22.44z" opacity=".4"/>
            <path fill="#937132" d="M644.249 28.027L606.3 5.586v44.882l37.949-22.44z" opacity=".4"/>
            <path fill="#D8C149" d="M606.3 50.476l37.949-22.44v44.882L606.3 50.476z" opacity=".4"/>
            <path fill="#D8C149" d="M606.303 50.476l-37.802-22.44v44.882l37.802-22.442z" opacity=".4"/>
            <path fill="#D8C149" d="M568.501 72.91l37.802-22.441V95.35L568.501 72.91zM568.498 28.027L530.549 5.586v44.882l37.949-22.44zM530.549 50.476l37.949-22.44v44.882l-37.949-22.442zM568.501 28.027l37.802-22.441v44.882l-37.802-22.44zM644.25 117.793l-37.949-22.441v44.882l37.949-22.441z" opacity=".4"/>
            <path fill="#D8C149" d="M606.3 140.234l37.949-22.441v44.882L606.3 140.234z" opacity=".4"/>
            <path fill="#D8C149" d="M606.303 140.234l-37.802-22.441v44.882l37.802-22.441zM568.499 117.793L530.55 95.352v44.882l37.949-22.441z" opacity=".4"/>
            <path fill="#D8C149" d="M530.549 140.234l37.949-22.441v44.882l-37.949-22.441z" opacity=".4"/>
            <path fill="#937132" d="M644.249 72.91L606.3 50.469V95.35l37.949-22.441z" opacity=".4"/>
            <path fill="#D8C149" d="M606.301 95.351l37.949-22.44v44.881l-37.949-22.44z" opacity=".4"/>
            <path fill="#D8C149" d="M606.303 95.351l-37.802-22.44v44.881l37.802-22.44zM568.501 117.793l37.802-22.441v44.882l-37.802-22.441zM568.498 72.91l-37.949-22.441V95.35l37.949-22.441zM530.55 95.351l37.949-22.44v44.881l-37.949-22.44z" opacity=".4"/>
            <path fill="#937132" d="M568.501 72.91l37.802-22.441V95.35L568.501 72.91z" opacity=".4"/>
            <path fill="#D8C149" d="M568.498 162.679l-37.949-22.441v44.883l37.949-22.442z" opacity=".4"/>
            <path fill="#B4983E" d="M644.25 117.793l-37.949-22.441v44.882l37.949-22.441z" opacity=".4"/>
            <path fill="#937132" d="M606.3 140.234l37.949-22.441v44.882L606.3 140.234z" opacity=".4"/>
            <path fill="#B4983E" d="M606.303 140.234l-37.802-22.441v44.882l37.802-22.441z" opacity=".4"/>
            <path fill="#D8C149" d="M568.499 117.793L530.55 95.352v44.882l37.949-22.441z" opacity=".4"/>
            <path fill="#D8C149" d="M530.549 140.234l37.949-22.441v44.882l-37.949-22.441zM568.501 117.793l37.802-22.441v44.882l-37.802-22.441zM568.498 162.679l-37.949-22.441v44.883l37.949-22.442zM568.499-16.852L530.55-39.293V5.589l37.949-22.44z" opacity=".4"/>
            <path fill="#D8C149" d="M530.55 5.59l37.949-22.442v44.883L530.55 5.59z" opacity=".4"/>
            <path fill="#D8C149" d="M530.552 5.59l-37.949-22.442v44.883L530.552 5.59zM492.601-16.852l-37.802-22.441V5.589l37.802-22.44z" opacity=".4"/>
            <path fill="#D8C149" d="M454.799 5.59l37.802-22.442v44.883L454.799 5.59zM492.603-16.852l37.949-22.441V5.589l-37.949-22.44z" opacity=".4"/>
            <path fill="#D8C149" d="M568.498 28.027L530.549 5.586v44.882l37.949-22.44zM530.549 50.476l37.949-22.44v44.882l-37.949-22.442z" opacity=".4"/>
            <path fill="#D8C149" d="M530.552 50.476l-37.949-22.44v44.882l37.949-22.442zM492.601 28.027L454.798 5.586v44.882l37.803-22.44zM454.798 50.476l37.803-22.44v44.882l-37.803-22.442z" opacity=".4"/>
            <path fill="#937132" d="M568.499-16.852L530.55-39.293V5.589l37.949-22.44z" opacity=".4"/>
            <path fill="#D8C149" d="M530.55 5.59l37.949-22.442v44.883L530.55 5.59z" opacity=".4"/>
            <path fill="#937132" d="M530.552 5.59l-37.949-22.442v44.883L530.552 5.59z" opacity=".4"/>
            <path fill="#D8C149" d="M492.603 28.027l37.949-22.441v44.882l-37.949-22.44zM492.601-16.852l-37.802-22.441V5.589l37.802-22.44z" opacity=".4"/>
            <path fill="#D8C149" d="M454.799 5.59l37.802-22.442v44.883L454.799 5.59z" opacity=".4"/>
            <path fill="#937132" d="M492.603-16.852l37.949-22.441V5.589l-37.949-22.44z" opacity=".4"/>
            <path fill="#D8C149" d="M568.498 72.91l-37.949-22.441V95.35l37.949-22.441zM530.55 95.351l37.949-22.44v44.881l-37.949-22.44z" opacity=".4"/>
            <path fill="#D8C149" d="M530.552 95.351l-37.949-22.44v44.881l37.949-22.44zM492.601 72.91l-37.803-22.441V95.35l37.803-22.441zM454.799 95.351l37.802-22.44v44.881l-37.802-22.44z" opacity=".4"/>
            <path fill="#B3A63D" d="M568.498 28.027L530.549 5.586v44.882l37.949-22.44z" opacity=".4"/>
            <path fill="#B4983E" d="M530.549 50.476l37.949-22.44v44.882l-37.949-22.442z" opacity=".4"/>
            <path fill="#B3A63D" d="M530.552 50.476l-37.949-22.44v44.882l37.949-22.442z" opacity=".4"/>
            <path fill="#D8C149" d="M492.603 72.91l37.949-22.441V95.35L492.603 72.91zM492.601 28.027L454.798 5.586v44.882l37.803-22.44zM454.798 50.476l37.803-22.44v44.882l-37.803-22.442zM492.603 28.027l37.949-22.441v44.882l-37.949-22.44zM568.499 117.793L530.55 95.352v44.882l37.949-22.441z" opacity=".4"/>
            <path fill="#D8C149" d="M530.549 140.234l37.949-22.441v44.882l-37.949-22.441z" opacity=".4"/>
            <path fill="#D8C149" d="M530.552 140.234l-37.949-22.441v44.882l37.949-22.441zM492.601 117.793l-37.802-22.441v44.882l37.802-22.441z" opacity=".4"/>
            <path fill="#D8C149" d="M454.798 140.234l37.803-22.441v44.882l-37.803-22.441zM568.498 72.91l-37.949-22.441V95.35l37.949-22.441z" opacity=".4"/>
            <path fill="#937132" d="M530.55 95.351l37.949-22.44v44.881l-37.949-22.44z" opacity=".4"/>
            <path fill="#D8C149" d="M530.552 95.351l-37.949-22.44v44.881l37.949-22.44zM492.603 117.793l37.949-22.441v44.882l-37.949-22.441zM492.601 72.91l-37.803-22.441V95.35l37.803-22.441zM454.799 95.351l37.802-22.44v44.881l-37.802-22.44z" opacity=".4"/>
            <path fill="#fff" d="M492.603 72.91l37.949-22.441V95.35L492.603 72.91z" opacity=".4"/>
            <path fill="#D8C149" d="M568.498 162.679l-37.949-22.441v44.883l37.949-22.442zM568.499 117.793L530.55 95.352v44.882l37.949-22.441z" opacity=".4"/>
            <path fill="#D8C149" d="M530.549 140.234l37.949-22.441v44.882l-37.949-22.441z" opacity=".45"/>
            <path fill="#D8C149" d="M530.552 140.234l-37.949-22.441v44.882l37.949-22.441zM492.603 162.679l37.949-22.441v44.883l-37.949-22.442zM492.601 117.793l-37.802-22.441v44.882l37.802-22.441z" opacity=".4"/>
            <path fill="#D8C149" d="M454.798 140.234l37.803-22.441v44.882l-37.803-22.441z" opacity=".4"/>
            <path fill="#937132" d="M492.603 117.793l37.949-22.441v44.882l-37.949-22.441z" opacity=".4"/>
            <path fill="#fff" d="M568.498 162.679l-37.949-22.441v44.883l37.949-22.442z" opacity=".4"/>
            <path fill="#937132" d="M492.603 162.679l37.949-22.441v44.883l-37.949-22.442z" opacity=".4"/>
            <path fill="#D8C149" d="M492.601-16.852l-37.802-22.441V5.589l37.802-22.44z" opacity=".4"/>
            <path fill="#D8C149" d="M454.799 5.59l37.802-22.442v44.883L454.799 5.59z" opacity=".4"/>
            <path fill="#D8C149" d="M454.8 5.59l-37.949-22.442v44.883L454.8 5.59zM416.85-16.852l-37.949-22.441V5.589l37.949-22.44z" opacity=".4"/>
            <path fill="#D8C149" d="M378.901 5.59l37.949-22.442v44.883L378.901 5.59zM416.851-16.852L454.8-39.293V5.589l-37.949-22.44z" opacity=".4"/>
            <path fill="#D8C149" d="M492.601 28.027L454.798 5.586v44.882l37.803-22.44zM454.798 50.476l37.803-22.44v44.882l-37.803-22.442z" opacity=".4"/>
            <path fill="#D8C149" d="M454.8 50.476l-37.948-22.44v44.882L454.8 50.476zM416.85 28.027L378.901 5.586v44.882l37.949-22.44zM378.901 50.476l37.949-22.44v44.882l-37.949-22.442z" opacity=".4"/>
            <path fill="#B3A63D" d="M492.601-16.852l-37.802-22.441V5.589l37.802-22.44z" opacity=".4"/>
            <path fill="#D8C149" d="M454.799 5.59l37.802-22.442v44.883L454.799 5.59z" opacity=".4"/>
            <path fill="#D8C149" d="M454.8 5.59l-37.949-22.442v44.883L454.8 5.59z" opacity=".4"/>
            <path fill="#D8C149" d="M416.852 28.027L454.8 5.586v44.882l-37.948-22.44zM416.85-16.852l-37.949-22.441V5.589l37.949-22.44z" opacity=".4"/>
            <path fill="#D8C149" d="M378.901 5.59l37.949-22.442v44.883L378.901 5.59z" opacity=".4"/>
            <path fill="#937132" d="M416.851-16.852L454.8-39.293V5.589l-37.949-22.44z" opacity=".4"/>
            <path fill="#D8C149" d="M492.601 72.91l-37.803-22.441V95.35l37.803-22.441zM454.799 95.351l37.802-22.44v44.881l-37.802-22.44z" opacity=".4"/>
            <path fill="#D8C149" d="M454.8 95.351l-37.949-22.44v44.881l37.949-22.44zM416.85 72.91l-37.949-22.441V95.35L416.85 72.91zM378.901 95.351l37.949-22.44v44.881l-37.949-22.44zM492.601 28.027L454.798 5.586v44.882l37.803-22.44z" opacity=".4"/>
            <path fill="#fff" d="M454.798 50.476l37.803-22.44v44.882l-37.803-22.442z" opacity=".4"/>
            <path fill="#fff" d="M454.8 50.476l-37.948-22.44v44.882L454.8 50.476z" opacity=".4"/>
            <path fill="#D8C149" d="M416.852 72.91L454.8 50.469V95.35L416.852 72.91zM416.85 28.027L378.901 5.586v44.882l37.949-22.44zM378.901 50.476l37.949-22.44v44.882l-37.949-22.442z" opacity=".4"/>
            <path fill="#fff" d="M416.852 28.027L454.8 5.586v44.882l-37.948-22.44z" opacity=".4"/>
            <path fill="#D8C149" d="M492.601 117.793l-37.802-22.441v44.882l37.802-22.441z" opacity=".4"/>
            <path fill="#D8C149" d="M454.798 140.234l37.803-22.441v44.882l-37.803-22.441zM416.85 117.793l-37.949-22.441v44.882l37.949-22.441z" opacity=".4"/>
            <path fill="#B4983E" d="M492.601 72.91l-37.803-22.441V95.35l37.803-22.441z" opacity=".4"/>
            <path fill="#D8C149" d="M454.799 95.351l37.802-22.44v44.881l-37.802-22.44z" opacity=".4"/>
            <path fill="#B4983E" d="M454.8 95.351l-37.949-22.44v44.881l37.949-22.44z" opacity=".4"/>
            <path fill="#D8C149" d="M416.851 117.793L454.8 95.352v44.882l-37.949-22.441zM416.85 72.91l-37.949-22.441V95.35L416.85 72.91zM378.901 95.351l37.949-22.44v44.881l-37.949-22.44zM416.852 72.91L454.8 50.469V95.35L416.852 72.91z" opacity=".4"/>
            <path fill="#937132" d="M492.601 117.793l-37.802-22.441v44.882l37.802-22.441z" opacity=".4"/>
            <path fill="#fff" d="M454.798 140.234l37.803-22.441v44.882l-37.803-22.441z" opacity=".4"/>
            <path fill="#D8C149" d="M416.85 117.793l-37.949-22.441v44.882l37.949-22.441z" opacity=".4"/>
            <path fill="#D8C149" d="M416.851 117.793L454.8 95.352v44.882l-37.949-22.441z" opacity=".45"/>
            <path fill="#D8C149" d="M416.85-16.852l-37.949-22.441V5.589l37.949-22.44z" opacity=".4"/>
            <path fill="#D8C149" d="M378.901 5.59l37.949-22.442v44.883L378.901 5.59z" opacity=".4"/>
            <path fill="#D8C149" d="M378.903 5.59l-37.802-22.442v44.883L378.903 5.59zM341.1-16.852l-37.949-22.441V5.589L341.1-16.85z" opacity=".4"/>
            <path fill="#D8C149" d="M303.151 5.59L341.1-16.852v44.883L303.151 5.59zM341.101-16.852l37.802-22.441V5.589l-37.802-22.44z" opacity=".4"/>
            <path fill="#D8C149" d="M416.85 28.027L378.901 5.586v44.882l37.949-22.44zM378.901 50.476l37.949-22.44v44.882l-37.949-22.442z" opacity=".4"/>
            <path fill="#D8C149" d="M378.904 50.476l-37.802-22.44v44.882l37.802-22.442zM341.1 28.027L303.151 5.586v44.882l37.949-22.44zM303.151 50.476l37.949-22.44v44.882l-37.949-22.442zM416.85-16.852l-37.949-22.441V5.589l37.949-22.44z" opacity=".4"/>
            <path fill="#B4983E" d="M378.901 5.59l37.949-22.442v44.883L378.901 5.59z" opacity=".4"/>
            <path fill="#B4983E" d="M378.903 5.59l-37.802-22.442v44.883L378.903 5.59z" opacity=".4"/>
            <path fill="#fff" d="M341.102 28.027l37.802-22.441v44.882l-37.802-22.44z" opacity=".4"/>
            <path fill="#D8C149" d="M341.1-16.852l-37.949-22.441V5.589L341.1-16.85z" opacity=".4"/>
            <path fill="#D8C149" d="M303.151 5.59L341.1-16.852v44.883L303.151 5.59zM341.101-16.852l37.802-22.441V5.589l-37.802-22.44zM416.85 72.91l-37.949-22.441V95.35L416.85 72.91zM378.901 95.351l37.949-22.44v44.881l-37.949-22.44z" opacity=".4"/>
            <path fill="#D8C149" d="M378.903 95.351l-37.802-22.44v44.881l37.802-22.44zM341.1 72.91l-37.949-22.441V95.35L341.1 72.91zM303.151 95.351l37.949-22.44v44.881l-37.949-22.44z" opacity=".4"/>
            <path fill="#937132" d="M416.85 28.027L378.901 5.586v44.882l37.949-22.44z" opacity=".4"/>
            <path fill="#D8C149" d="M378.901 50.476l37.949-22.44v44.882l-37.949-22.442z" opacity=".4"/>
            <path fill="#B4983E" d="M378.904 50.476l-37.802-22.44v44.882l37.802-22.442z" opacity=".4"/>
            <path fill="#D8C149" d="M341.102 72.91l37.802-22.441V95.35L341.102 72.91zM341.1 28.027L303.151 5.586v44.882l37.949-22.44zM303.151 50.476l37.949-22.44v44.882l-37.949-22.442zM416.85 117.793l-37.949-22.441v44.882l37.949-22.441z" opacity=".4"/>
            <path fill="#D8C149" d="M378.904 140.234l-37.802-22.441v44.882l37.802-22.441zM341.1 117.793l-37.949-22.441v44.882l37.949-22.441zM303.151 140.234l37.949-22.441v44.882l-37.949-22.441z" opacity=".4"/>
            <path fill="#fff" d="M416.85 72.91l-37.949-22.441V95.35L416.85 72.91z" opacity=".4"/>
            <path fill="#D8C149" d="M378.901 95.351l37.949-22.44v44.881l-37.949-22.44z" opacity=".4"/>
            <path fill="#D8C149" d="M378.903 95.351l-37.802-22.44v44.881l37.802-22.44zM341.101 117.793l37.802-22.441v44.882l-37.802-22.441zM341.1 72.91l-37.949-22.441V95.35L341.1 72.91zM303.151 95.351l37.949-22.44v44.881l-37.949-22.44z" opacity=".4"/>
            <path fill="#fff" d="M341.102 72.91l37.802-22.441V95.35L341.102 72.91z" opacity=".4"/>
            <path fill="#D8C149" d="M341.1 162.679l-37.949-22.441v44.883l37.949-22.442z" opacity=".4"/>
            <path fill="#fff" d="M416.85 117.793l-37.949-22.441v44.882l37.949-22.441z" opacity=".4"/>
            <path fill="#D8C149" d="M378.904 140.234l-37.802-22.441v44.882l37.802-22.441z" opacity=".45"/>
            <path fill="#D8C149" d="M341.1 117.793l-37.949-22.441v44.882l37.949-22.441zM303.151 140.234l37.949-22.441v44.882l-37.949-22.441z" opacity=".4"/>
            <path fill="#fff" d="M341.101 117.793l37.802-22.441v44.882l-37.802-22.441z" opacity=".4"/>
            <path fill="#D8C149" d="M341.1 162.679l-37.949-22.441v44.883l37.949-22.442zM341.1-16.852l-37.949-22.441V5.589L341.1-16.85z" opacity=".4"/>
            <path fill="#D8C149" d="M303.151 5.59L341.1-16.852v44.883L303.151 5.59zM303.151 5.59l-37.802-22.442v44.883L303.151 5.59z" opacity=".4"/>
            <path fill="#D8C149" d="M265.351-16.852l-37.949-22.441V5.589l37.949-22.44z" opacity=".4"/>
            <path fill="#D8C149" d="M227.402 5.59l37.949-22.442v44.883L227.402 5.59z" opacity=".4"/>
            <path fill="#D8C149" d="M265.349-16.852l37.802-22.441V5.589l-37.802-22.44zM341.1 28.027L303.151 5.586v44.882l37.949-22.44zM303.151 50.476l37.949-22.44v44.882l-37.949-22.442z" opacity=".4"/>
            <path fill="#D8C149" d="M303.153 50.476l-37.802-22.44v44.882l37.802-22.442zM265.351 28.027L227.402 5.586v44.882l37.949-22.44zM227.402 50.476l37.949-22.44v44.882l-37.949-22.442z" opacity=".4"/>
            <path fill="#665D22" d="M341.1-16.852l-37.949-22.441V5.589L341.1-16.85z" opacity=".4"/>
            <path fill="#B4983E" d="M303.151 5.59L341.1-16.852v44.883L303.151 5.59zM303.151 5.59l-37.802-22.442v44.883L303.151 5.59z" opacity=".4"/>
            <path fill="#D8C149" d="M265.349 28.027l37.802-22.441v44.882l-37.802-22.44zM265.351-16.852l-37.949-22.441V5.589l37.949-22.44z" opacity=".4"/>
            <path fill="#D8C149" d="M227.402 5.59l37.949-22.442v44.883L227.402 5.59z" opacity=".4"/>
            <path fill="#937132" d="M265.349-16.852l37.802-22.441V5.589l-37.802-22.44z" opacity=".4"/>
            <path fill="#D8C149" d="M341.1 72.91l-37.949-22.441V95.35L341.1 72.91zM303.151 95.351l37.949-22.44v44.881l-37.949-22.44zM303.151 95.351l-37.802-22.44v44.881l37.802-22.44z" opacity=".4"/>
            <path fill="#D8C149" d="M265.351 72.91l-37.949-22.441V95.35l37.949-22.441zM227.402 95.351l37.949-22.44v44.881l-37.949-22.44zM341.1 28.027L303.151 5.586v44.882l37.949-22.44z" opacity=".4"/>
            <path fill="#fff" d="M303.151 50.476l37.949-22.44v44.882l-37.949-22.442z" opacity=".4"/>
            <path fill="#D8C149" d="M303.153 50.476l-37.802-22.44v44.882l37.802-22.442z" opacity=".4"/>
            <path fill="#D8C149" d="M265.351 72.91l37.802-22.441V95.35L265.351 72.91zM265.351 28.027L227.402 5.586v44.882l37.949-22.44z" opacity=".4"/>
            <path fill="#D8C149" d="M227.402 50.476l37.949-22.44v44.882l-37.949-22.442z" opacity=".4"/>
            <path fill="#fff" d="M265.349 28.027l37.802-22.441v44.882l-37.802-22.44z" opacity=".4"/>
            <path fill="#D8C149" d="M341.1 117.793l-37.949-22.441v44.882l37.949-22.441zM303.151 140.234l37.949-22.441v44.882l-37.949-22.441zM303.151 140.234l-37.802-22.441v44.882l37.802-22.441z" opacity=".4"/>
            <path fill="#D8C149" d="M265.351 117.793l-37.949-22.441v44.882l37.949-22.441zM227.402 140.234l37.949-22.441v44.882l-37.949-22.441zM341.1 72.91l-37.949-22.441V95.35L341.1 72.91z" opacity=".4"/>
            <path fill="#B4983E" d="M303.151 95.351l37.949-22.44v44.881l-37.949-22.44z" opacity=".4"/>
            <path fill="#D8C149" d="M303.151 95.351l-37.802-22.44v44.881l37.802-22.44zM265.349 117.793l37.802-22.441v44.882l-37.802-22.441z" opacity=".4"/>
            <path fill="#D8C149" d="M265.351 72.91l-37.949-22.441V95.35l37.949-22.441zM227.402 95.351l37.949-22.44v44.881l-37.949-22.44z" opacity=".4"/>
            <path fill="#fff" d="M265.351 72.91l37.802-22.441V95.35L265.351 72.91z" opacity=".4"/>
            <path fill="#D8C149" d="M341.1 162.679l-37.949-22.441v44.883l37.949-22.442z" opacity=".4"/>
            <path fill="#D8C149" d="M303.152 185.113l-37.802-22.441v44.882l37.802-22.441z" opacity=".4"/>
            <path fill="#D8C149" d="M265.351 162.679l-37.949-22.441v44.883l37.949-22.442z" opacity=".4"/>
            <path fill="#D8C149" d="M227.402 185.113l37.949-22.441v44.882l-37.949-22.441zM341.1 117.793l-37.949-22.441v44.882l37.949-22.441z" opacity=".4"/>
            <path fill="#fff" d="M303.151 140.234l37.949-22.441v44.882l-37.949-22.441z" opacity=".4"/>
            <path fill="#D8C149" d="M303.151 140.234l-37.802-22.441v44.882l37.802-22.441z" opacity=".4"/>
            <path fill="#fff" d="M265.351 162.679l37.802-22.441v44.883l-37.802-22.442z" opacity=".4"/>
            <path fill="#D8C149" d="M265.351 117.793l-37.949-22.441v44.882l37.949-22.441zM227.402 140.234l37.949-22.441v44.882l-37.949-22.441z" opacity=".4"/>
            <path fill="#fff" d="M265.349 117.793l37.802-22.441v44.882l-37.802-22.441zM341.1 162.679l-37.949-22.441v44.883l37.949-22.442z" opacity=".4"/>
            <path fill="#FFCB87" d="M303.152 185.113l-37.802-22.441v44.882l37.802-22.441z" opacity=".4"/>
            <path fill="#D8C149" d="M265.351 162.679l-37.949-22.441v44.883l37.949-22.442z" opacity=".4"/>
            <path fill="#D8C149" d="M227.402 185.113l37.949-22.441v44.882l-37.949-22.441zM265.351-16.852l-37.949-22.441V5.589l37.949-22.44z" opacity=".4"/>
            <path fill="#D8C149" d="M227.402 5.59l37.949-22.442v44.883L227.402 5.59zM227.4 5.59l-37.949-22.442v44.883L227.4 5.59z" opacity=".4"/>
            <path fill="#D8C149" d="M189.453-16.852L151.65-39.293V5.589l37.803-22.44z" opacity=".4"/>
            <path fill="#D8C149" d="M151.65 5.59l37.803-22.442v44.883L151.65 5.59z" opacity=".4"/>
            <path fill="#D8C149" d="M189.451-16.852L227.4-39.293V5.589l-37.949-22.44zM265.351 28.027L227.402 5.586v44.882l37.949-22.44zM227.402 50.476l37.949-22.44v44.882l-37.949-22.442zM227.4 50.476l-37.948-22.44v44.882L227.4 50.476zM189.453 28.027L151.65 5.586v44.882l37.803-22.44zM151.65 50.476l37.802-22.44v44.882L151.65 50.476z" opacity=".4"/>
            <path fill="#B3A63D" d="M265.351-16.852l-37.949-22.441V5.589l37.949-22.44z" opacity=".4"/>
            <path fill="#B4983E" d="M227.402 5.59l37.949-22.442v44.883L227.402 5.59z" opacity=".4"/>
            <path fill="#665D22" d="M227.4 5.59l-37.949-22.442v44.883L227.4 5.59z" opacity=".4"/>
            <path fill="#D8C149" d="M189.451 28.027l37.948-22.441v44.882l-37.948-22.44zM189.453-16.852L151.65-39.293V5.589l37.803-22.44z" opacity=".4"/>
            <path fill="#D8C149" d="M151.65 5.59l37.803-22.442v44.883L151.65 5.59z" opacity=".4"/>
            <path fill="#B4983E" d="M189.451-16.852L227.4-39.293V5.589l-37.949-22.44z" opacity=".4"/>
            <path fill="#D8C149" d="M265.351 72.91l-37.949-22.441V95.35l37.949-22.441zM227.402 95.351l37.949-22.44v44.881l-37.949-22.44zM227.4 95.351l-37.949-22.44v44.881l37.949-22.44zM189.452 72.91L151.65 50.469V95.35l37.802-22.441z" opacity=".4"/>
            <path fill="#D8C149" d="M151.65 95.351l37.803-22.44v44.881l-37.803-22.44zM265.351 28.027L227.402 5.586v44.882l37.949-22.44z" opacity=".4"/>
            <path fill="#fff" d="M227.402 50.476l37.949-22.44v44.882l-37.949-22.442z" opacity=".4"/>
            <path fill="#B4983E" d="M227.4 50.476l-37.948-22.44v44.882L227.4 50.476z" opacity=".4"/>
            <path fill="#D8C149" d="M189.452 72.91L227.4 50.469V95.35L189.452 72.91zM189.453 28.027L151.65 5.586v44.882l37.803-22.44z" opacity=".4"/>
            <path fill="#D8C149" d="M151.65 50.476l37.802-22.44v44.882L151.65 50.476zM189.451 28.027l37.948-22.441v44.882l-37.948-22.44zM265.351 117.793l-37.949-22.441v44.882l37.949-22.441zM227.402 140.234l37.949-22.441v44.882l-37.949-22.441zM227.399 140.234l-37.948-22.441v44.882l37.948-22.441z" opacity=".4"/>
            <path fill="#D8C149" d="M189.453 117.793L151.65 95.352v44.882l37.803-22.441zM151.65 140.234l37.803-22.441v44.882l-37.803-22.441z" opacity=".4"/>
            <path fill="#fff" d="M265.351 72.91l-37.949-22.441V95.35l37.949-22.441z" opacity=".4"/>
            <path fill="#D8C149" d="M227.402 95.351l37.949-22.44v44.881l-37.949-22.44zM227.4 95.351l-37.949-22.44v44.881l37.949-22.44z" opacity=".4"/>
            <path fill="#D8C149" d="M189.451 117.793L227.4 95.352v44.882l-37.949-22.441zM189.452 72.91L151.65 50.469V95.35l37.802-22.441z" opacity=".4"/>
            <path fill="#D8C149" d="M151.65 95.351l37.803-22.44v44.881l-37.803-22.44zM189.452 72.91L227.4 50.469V95.35L189.452 72.91zM265.351 162.679l-37.949-22.441v44.883l37.949-22.442z" opacity=".4"/>
            <path fill="#fff" d="M227.402 185.113l37.949-22.441v44.882l-37.949-22.441z" opacity=".4"/>
            <path fill="#D8C149" d="M189.452 162.679l-37.802-22.441v44.883l37.802-22.442zM265.351 117.793l-37.949-22.441v44.882l37.949-22.441z" opacity=".4"/>
            <path fill="#fff" d="M227.402 140.234l37.949-22.441v44.882l-37.949-22.441zM227.399 140.234l-37.948-22.441v44.882l37.948-22.441z" opacity=".4"/>
            <path fill="#D8C149" d="M189.452 162.679l37.948-22.441v44.883l-37.948-22.442zM189.453 117.793L151.65 95.352v44.882l37.803-22.441zM151.65 140.234l37.803-22.441v44.882l-37.803-22.441z" opacity=".4"/>
            <path fill="#fff" d="M189.451 117.793L227.4 95.352v44.882l-37.949-22.441zM265.351 162.679l-37.949-22.441v44.883l37.949-22.442z" opacity=".4"/>
            <path fill="#D8C149" d="M189.452 162.679l-37.802-22.441v44.883l37.802-22.442zM189.452 162.679l37.948-22.441v44.883l-37.948-22.442zM189.453-16.852L151.65-39.293V5.589l37.803-22.44z" opacity=".4"/>
            <path fill="#D8C149" d="M151.65 5.59l37.803-22.442v44.883L151.65 5.59zM151.648 5.59L113.7-16.852v44.883L151.648 5.59z" opacity=".4"/>
            <path fill="#D8C149" d="M113.701-16.852L75.752-39.293V5.589l37.949-22.44z" opacity=".4"/>
            <path fill="#D8C149" d="M75.752 5.59l37.949-22.442v44.883L75.752 5.59z" opacity=".4"/>
            <path fill="#D8C149" d="M113.7-16.852l37.948-22.441V5.589L113.7-16.85zM189.453 28.027L151.65 5.586v44.882l37.803-22.44zM151.65 50.476l37.802-22.44v44.882L151.65 50.476zM151.649 50.476l-37.948-22.44v44.882l37.948-22.442zM113.701 28.027L75.752 5.586v44.882l37.949-22.44zM75.751 50.476l37.949-22.44v44.882L75.751 50.476z" opacity=".4"/>
            <path fill="#665D22" d="M189.453-16.852L151.65-39.293V5.589l37.803-22.44z" opacity=".4"/>
            <path fill="#D8C149" d="M151.65 5.59l37.803-22.442v44.883L151.65 5.59z" opacity=".4"/>
            <path fill="#665D22" d="M151.648 5.59L113.7-16.852v44.883L151.648 5.59z" opacity=".4"/>
            <path fill="#D8C149" d="M113.7 28.027l37.948-22.441v44.882L113.7 28.028zM113.701-16.852L75.752-39.293V5.589l37.949-22.44z" opacity=".4"/>
            <path fill="#D8C149" d="M75.752 5.59l37.949-22.442v44.883L75.752 5.59z" opacity=".4"/>
            <path fill="#B3A63D" d="M113.7-16.852l37.948-22.441V5.589L113.7-16.85z" opacity=".4"/>
            <path fill="#D8C149" d="M189.452 72.91L151.65 50.469V95.35l37.802-22.441zM151.65 95.351l37.803-22.44v44.881l-37.803-22.44zM151.648 95.351L113.7 72.911v44.881l37.948-22.44zM113.7 72.91L75.751 50.469V95.35L113.7 72.91z" opacity=".4"/>
            <path fill="#D8C149" d="M75.752 95.351l37.949-22.44v44.881l-37.949-22.44z" opacity=".4"/>
            <path fill="#665D22" d="M189.453 28.027L151.65 5.586v44.882l37.803-22.44z" opacity=".4"/>
            <path fill="#D8C149" d="M151.65 50.476l37.802-22.44v44.882L151.65 50.476zM151.649 50.476l-37.948-22.44v44.882l37.948-22.442z" opacity=".4"/>
            <path fill="#D8C149" d="M113.701 72.91l37.948-22.441V95.35L113.701 72.91zM113.701 28.027L75.752 5.586v44.882l37.949-22.44zM75.751 50.476l37.949-22.44v44.882L75.751 50.476z" opacity=".4"/>
            <path fill="#D8C149" d="M113.7 28.027l37.948-22.441v44.882L113.7 28.028zM189.453 117.793L151.65 95.352v44.882l37.803-22.441zM151.65 140.234l37.803-22.441v44.882l-37.803-22.441zM151.648 140.234L113.7 117.793v44.882l37.948-22.441z" opacity=".4"/>
            <path fill="#D8C149" d="M113.701 117.793L75.752 95.352v44.882l37.949-22.441zM75.752 140.234l37.949-22.441v44.882l-37.949-22.441zM189.452 72.91L151.65 50.469V95.35l37.802-22.441zM151.65 95.351l37.803-22.44v44.881l-37.803-22.44zM151.648 95.351L113.7 72.911v44.881l37.948-22.44z" opacity=".4"/>
            <path fill="#D8C149" d="M113.7 117.793l37.948-22.441v44.882L113.7 117.793zM113.7 72.91L75.751 50.469V95.35L113.7 72.91zM75.752 95.351l37.949-22.44v44.881l-37.949-22.44z" opacity=".4"/>
            <path fill="#665D22" d="M113.701 72.91l37.948-22.441V95.35L113.701 72.91z" opacity=".4"/>
            <path fill="#D8C149" d="M189.452 162.679l-37.802-22.441v44.883l37.802-22.442zM151.65 185.113l-37.949-22.441v44.882l37.949-22.441zM113.7 162.679l-37.949-22.441v44.883l37.949-22.442z" opacity=".4"/>
            <path fill="#D8C149" d="M75.751 185.113l37.949-22.441v44.882l-37.949-22.441z" opacity=".4"/>
            <path fill="#948533" d="M189.453 117.793L151.65 95.352v44.882l37.803-22.441z" opacity=".4"/>
            <path fill="#D8C149" d="M151.65 140.234l37.803-22.441v44.882l-37.803-22.441z" opacity=".4"/>
            <path fill="#B3A63D" d="M151.648 140.234L113.7 117.793v44.882l37.948-22.441z" opacity=".4"/>
            <path fill="#D8C149" d="M113.701 162.679l37.948-22.441v44.883l-37.948-22.442zM113.701 117.793L75.752 95.352v44.882l37.949-22.441zM75.752 140.234l37.949-22.441v44.882l-37.949-22.441z" opacity=".4"/>
            <path fill="#D8C149" d="M113.7 117.793l37.948-22.441v44.882L113.7 117.793zM113.7 207.554l-37.949-22.441v44.883l37.949-22.442zM189.452 162.679l-37.802-22.441v44.883l37.802-22.442zM151.65 185.113l-37.949-22.441v44.882l37.949-22.441z" opacity=".4"/>
            <path fill="#D8C149" d="M113.7 162.679l-37.949-22.441v44.883l37.949-22.442z" opacity=".4"/>
            <path fill="#D8C149" d="M75.751 185.113l37.949-22.441v44.882l-37.949-22.441z" opacity=".4"/>
            <path fill="#fff" d="M113.701 162.679l37.948-22.441v44.883l-37.948-22.442z" opacity=".4"/>
            <path fill="#D8C149" d="M113.7 207.554l-37.949-22.441v44.883l37.949-22.442zM113.701-16.852L75.752-39.293V5.589l37.949-22.44z" opacity=".4"/>
            <path fill="#D8C149" d="M75.752 5.59l37.949-22.442v44.883L75.752 5.59zM75.752 5.59L37.95-16.852v44.883L75.752 5.59z" opacity=".4"/>
            <path fill="#D8C149" d="M37.95-16.852L.003-39.293V5.589l37.949-22.44z" opacity=".4"/>
            <path fill="#D8C149" d="M.002 5.59l37.949-22.442v44.883L.002 5.59z" opacity=".4"/>
            <path fill="#D8C149" d="M37.95-16.852l37.802-22.441V5.589L37.95-16.85z" opacity=".4"/>
            <path fill="#D8C149" d="M113.701 28.027L75.752 5.586v44.882l37.949-22.44zM75.751 50.476l37.949-22.44v44.882L75.751 50.476z" opacity=".4"/>
            <path fill="#D8C149" d="M75.752 50.476L37.95 28.036v44.882l37.802-22.442zM37.95 28.027L.003 5.586v44.882l37.949-22.44z" opacity=".4"/>
            <path fill="#D8C149" d="M.002 50.476l37.949-22.44v44.882L.002 50.476z" opacity=".4"/>
            <path fill="#937132" d="M113.701-16.852L75.752-39.293V5.589l37.949-22.44z" opacity=".4"/>
            <path fill="#B3A63D" d="M75.752 5.59l37.949-22.442v44.883L75.752 5.59z" opacity=".4"/>
            <path fill="#655821" d="M75.752 5.59L37.95-16.852v44.883L75.752 5.59z" opacity=".4"/>
            <path fill="#D8C149" d="M37.95 28.027L75.752 5.586v44.882L37.95 28.028z" opacity=".4"/>
            <path fill="#655821" d="M37.95-16.852L.003-39.293V5.589l37.949-22.44z" opacity=".4"/>
            <path fill="#948533" d="M.002 5.59l37.949-22.442v44.883L.002 5.59z" opacity=".4"/>
            <path fill="#937132" d="M37.95-16.852l37.802-22.441V5.589L37.95-16.85z" opacity=".4"/>
            <path fill="#D8C149" d="M113.7 72.91L75.751 50.469V95.35L113.7 72.91zM75.752 95.351l37.949-22.44v44.881l-37.949-22.44z" opacity=".4"/>
            <path fill="#D8C149" d="M75.752 95.351L37.95 72.911v44.881l37.802-22.44zM37.95 72.91L.003 50.469V95.35L37.951 72.91z" opacity=".4"/>
            <path fill="#D8C149" d="M.002 95.351l37.949-22.44v44.881L.002 95.352z" opacity=".4"/>
            <path fill="#B3A63D" d="M113.701 28.027L75.752 5.586v44.882l37.949-22.44z" opacity=".4"/>
            <path fill="#948533" d="M75.751 50.476l37.949-22.44v44.882L75.751 50.476z" opacity=".4"/>
            <path fill="#B3A63D" d="M75.752 50.476L37.95 28.036v44.882l37.802-22.442z" opacity=".4"/>
            <path fill="#D8C149" d="M37.95 72.91l37.802-22.441V95.35L37.95 72.91z" opacity=".4"/>
            <path fill="#655821" d="M37.95 28.027L.003 5.586v44.882l37.949-22.44z" opacity=".4"/>
            <path fill="#937132" d="M.002 50.476l37.949-22.44v44.882L.002 50.476zM37.95 28.027L75.752 5.586v44.882L37.95 28.028z" opacity=".4"/>
            <path fill="#D8C149" d="M113.701 117.793L75.752 95.352v44.882l37.949-22.441zM75.752 140.234l37.949-22.441v44.882l-37.949-22.441z" opacity=".4"/>
            <path fill="#D8C149" d="M75.752 140.234L37.95 117.793v44.882l37.802-22.441z" opacity=".4"/>
            <path fill="#D8C149" d="M37.95 117.793L.003 95.352v44.882l37.949-22.441z" opacity=".4"/>
            <path fill="#D8C149" d="M.002 140.234l37.949-22.441v44.882L.002 140.234z" opacity=".4"/>
            <path fill="#B3A63D" d="M113.7 72.91L75.751 50.469V95.35L113.7 72.91zM75.752 95.351l37.949-22.44v44.881l-37.949-22.44z" opacity=".4"/>
            <path fill="#665D22" d="M75.752 95.351L37.95 72.911v44.881l37.802-22.44z" opacity=".4"/>
            <path fill="#D8C149" d="M37.95 117.793l37.802-22.441v44.882L37.95 117.793z" opacity=".4"/>
            <path fill="#948533" d="M37.95 72.91L.003 50.469V95.35L37.951 72.91z" opacity=".4"/>
            <path fill="#655821" d="M.002 95.351l37.949-22.44v44.881L.002 95.352z" opacity=".4"/>
            <path fill="#948533" d="M37.95 72.91l37.802-22.441V95.35L37.95 72.91z" opacity=".4"/>
            <path fill="#D8C149" d="M113.7 162.679l-37.949-22.441v44.883l37.949-22.442z" opacity=".4"/>
            <path fill="#D8C149" d="M75.751 185.113l37.949-22.441v44.882l-37.949-22.441z" opacity=".4"/>
            <path fill="#D8C149" d="M75.752 185.113L37.95 162.672v44.882l37.802-22.441z" opacity=".4"/>
            <path fill="#D8C149" d="M37.95 162.679L.003 140.238v44.883l37.949-22.442z" opacity=".4"/>
            <path fill="#D8C149" d="M.002 185.113l37.949-22.441v44.882L.002 185.113zM113.701 117.793L75.752 95.352v44.882l37.949-22.441z" opacity=".4"/>
            <path fill="#D8C149" d="M75.752 140.234l37.949-22.441v44.882l-37.949-22.441z" opacity=".45"/>
            <path fill="#B3A63D" d="M75.752 140.234L37.95 117.793v44.882l37.802-22.441z" opacity=".4"/>
            <path fill="#D8C149" d="M37.95 162.679l37.802-22.441v44.883L37.95 162.679z" opacity=".4"/>
            <path fill="#937132" d="M37.95 117.793L.003 95.352v44.882l37.949-22.441z" opacity=".4"/>
            <path fill="#948533" d="M.002 140.234l37.949-22.441v44.882L.002 140.234z" opacity=".4"/>
            <path fill="#937132" d="M37.95 117.793l37.802-22.441v44.882L37.95 117.793z" opacity=".4"/>
            <path fill="#D8C149" d="M113.7 207.554l-37.949-22.441v44.883l37.949-22.442z" opacity=".4"/>
            <path fill="#D8C149" d="M75.752 229.996L37.95 207.555v44.734l37.802-22.293z" opacity=".4"/>
            <path fill="#D8C149" d="M37.95 207.554L.003 185.113v44.883l37.949-22.442z" opacity=".4"/>
            <path fill="#D8C149" d="M.002 229.996l37.949-22.441v44.734L.002 229.996z" opacity=".4"/>
            <path fill="#948533" d="M113.7 162.679l-37.949-22.441v44.883l37.949-22.442z" opacity=".4"/>
            <path fill="#D8C149" d="M75.751 185.113l37.949-22.441v44.882l-37.949-22.441z" opacity=".4"/>
            <path fill="#D8C149" d="M75.752 185.113L37.95 162.672v44.882l37.802-22.441zM37.95 207.554l37.802-22.441v44.883L37.95 207.554z" opacity=".4"/>
            <path fill="#fff" d="M37.95 162.679L.003 140.238v44.883l37.949-22.442z" opacity=".4"/>
            <path fill="#948533" d="M.002 185.113l37.949-22.441v44.882L.002 185.113z" opacity=".4"/>
            <path fill="#B3A63D" d="M37.95 162.679l37.802-22.441v44.883L37.95 162.679z" opacity=".4"/>
            <path fill="#B3A63D" d="M113.7 207.554l-37.949-22.441v44.883l37.949-22.442z" opacity=".45"/>
            <path fill="#fff" d="M75.752 229.996L37.95 207.555v44.734l37.802-22.293z" opacity=".4"/>
            <path fill="#FFCB87" d="M37.95 207.554L.003 185.113v44.883l37.949-22.442z" opacity=".4"/>
            <path fill="#fff" d="M.002 229.996l37.949-22.441v44.734L.002 229.996z" opacity=".4"/>
            <path fill="#948533" d="M37.95 207.554l37.802-22.441v44.883L37.95 207.554z" opacity=".4"/>
        </g>
    </g>
    <g opacity=".5">
        <g opacity=".4">
            <path fill="url(#paint5_linear)" d="M720.002-286h151.502v448.676l-37.802-22.441-37.949 22.441-37.802 22.441-37.949 22.441V-286z" opacity=".4"/>
            <path fill="url(#paint6_linear)" d="M909.452-286v471.117l-37.949-22.441V-286h37.949z" opacity=".4"/>
            <path fill="url(#paint7_linear)" d="M947.399-286h303.151v448.676l-37.95 22.441-37.95 22.441-37.8-22.441-37.95-22.441-37.8-22.441-37.95-22.442-37.949 22.442-37.802 22.441-37.949 22.441V-286h37.949z" opacity=".4"/>
            <path fill="url(#paint8_linear)" d="M1288.35-286v471.117l-37.8-22.441V-286h37.8z" opacity=".4"/>
            <path fill="url(#paint9_linear)" d="M1326.3-286H1440v515.999l-37.95 22.294-37.8-22.294-37.95-22.441-37.95-22.441V-286h37.95z" opacity=".4"/>
        </g>
        <g opacity=".4">
            <path fill="#D8C149" d="M720-16.852l37.949-22.441V5.589L720-16.85z" opacity=".4"/>
            <path fill="#D8C149" d="M757.949 5.59L720-16.852v44.883L757.949 5.59zM757.95 5.59l37.802-22.442v44.883L757.95 5.59z" opacity=".4"/>
            <path fill="#D8C149" d="M795.752-16.852l37.949-22.441V5.589l-37.949-22.44z" opacity=".4"/>
            <path fill="#D8C149" d="M833.701 5.59l-37.949-22.442v44.883L833.701 5.59zM795.752-16.852L757.95-39.293V5.589l37.802-22.44zM720 28.027l37.949-22.441v44.882L720 28.028zM757.949 50.476L720 28.036v44.882l37.949-22.442zM757.95 50.476l37.802-22.44v44.882L757.95 50.476z" opacity=".4"/>
            <path fill="#D8C149" d="M795.752 28.027l37.949-22.441v44.882l-37.949-22.44zM833.701 50.476l-37.949-22.44v44.882l37.949-22.442z" opacity=".4"/>
            <path fill="#B4983E" d="M720-16.852l37.949-22.441V5.589L720-16.85z" opacity=".4"/>
            <path fill="#937132" d="M757.949 5.59L720-16.852v44.883L757.949 5.59z" opacity=".4"/>
            <path fill="#D8C149" d="M757.95 5.59l37.802-22.442v44.883L757.95 5.59z" opacity=".4"/>
            <path fill="#D8C149" d="M795.752 28.027L757.95 5.586v44.882l37.802-22.44zM795.752-16.852l37.949-22.441V5.589l-37.949-22.44z" opacity=".4"/>
            <path fill="#D8C149" d="M833.701 5.59l-37.949-22.442v44.883L833.701 5.59z" opacity=".4"/>
            <path fill="#B4983E" d="M795.752-16.852L757.95-39.293V5.589l37.802-22.44z" opacity=".4"/>
            <path fill="#D8C149" d="M720 72.91l37.949-22.441V95.35L720 72.91zM757.949 95.351L720 72.911v44.881l37.949-22.44zM757.95 95.351l37.802-22.44v44.881l-37.802-22.44zM795.752 72.91l37.949-22.441V95.35L795.752 72.91zM833.701 95.351l-37.949-22.44v44.881l37.949-22.44z" opacity=".4"/>
            <path fill="#937132" d="M720 28.027l37.949-22.441v44.882L720 28.028z" opacity=".4"/>
            <path fill="#B4983E" d="M757.949 50.476L720 28.036v44.882l37.949-22.442z" opacity=".4"/>
            <path fill="#B3A63D" d="M757.95 50.476l37.802-22.44v44.882L757.95 50.476z" opacity=".4"/>
            <path fill="#D8C149" d="M795.752 72.91L757.95 50.469V95.35l37.802-22.441zM795.752 28.027l37.949-22.441v44.882l-37.949-22.44z" opacity=".4"/>
            <path fill="#D8C149" d="M833.701 50.476l-37.949-22.44v44.882l37.949-22.442zM795.752 28.027L757.95 5.586v44.882l37.802-22.44zM720 117.793l37.949-22.441v44.882L720 117.793z" opacity=".4"/>
            <path fill="#D8C149" d="M757.949 140.234L720 117.793v44.882l37.949-22.441zM757.95 140.234l37.802-22.441v44.882l-37.802-22.441z" opacity=".4"/>
            <path fill="#D8C149" d="M795.752 117.793l37.949-22.441v44.882l-37.949-22.441z" opacity=".4"/>
            <path fill="#D8C149" d="M833.701 140.234l-37.949-22.441v44.882l37.949-22.441z" opacity=".4"/>
            <path fill="#fff" d="M720 72.91l37.949-22.441V95.35L720 72.91z" opacity=".4"/>
            <path fill="#937132" d="M757.949 95.351L720 72.911v44.881l37.949-22.44z" opacity=".4"/>
            <path fill="#B4983E" d="M757.95 95.351l37.802-22.44v44.881l-37.802-22.44z" opacity=".4"/>
            <path fill="#D8C149" d="M795.752 117.793L757.95 95.352v44.882l37.802-22.441zM795.752 72.91l37.949-22.441V95.35L795.752 72.91zM833.701 95.351l-37.949-22.44v44.881l37.949-22.44zM795.752 72.91L757.95 50.469V95.35l37.802-22.441z" opacity=".4"/>
            <path fill="#B3A63D" d="M720 117.793l37.949-22.441v44.882L720 117.793z" opacity=".4"/>
            <path fill="#B4983E" d="M757.949 140.234L720 117.793v44.882l37.949-22.441z" opacity=".4"/>
            <path fill="#fff" d="M757.95 140.234l37.802-22.441v44.882l-37.802-22.441z" opacity=".4"/>
            <path fill="#D8C149" d="M795.752 117.793l37.949-22.441v44.882l-37.949-22.441z" opacity=".4"/>
            <path fill="#D8C149" d="M833.701 140.234l-37.949-22.441v44.882l37.949-22.441zM795.752 117.793L757.95 95.352v44.882l37.802-22.441z" opacity=".4"/>
            <path fill="#937132" d="M720 162.679l37.949-22.441v44.883L720 162.679z" opacity=".4"/>
            <path fill="#fff" d="M757.949 185.113L720 162.672v44.882l37.949-22.441z" opacity=".4"/>
            <path fill="#D8C149" d="M795.752 162.679l-37.802-22.441v44.883l37.802-22.442zM795.752-16.852l37.949-22.441V5.589l-37.949-22.44z" opacity=".4"/>
            <path fill="#D8C149" d="M833.701 5.59l-37.949-22.442v44.883L833.701 5.59z" opacity=".4"/>
            <path fill="#D8C149" d="M833.698 5.59L871.5-16.852v44.883L833.698 5.59zM871.503-16.852l37.949-22.441V5.589l-37.949-22.44z" opacity=".4"/>
            <path fill="#D8C149" d="M909.452 5.59l-37.949-22.442v44.883L909.452 5.59zM871.5-16.852l-37.802-22.441V5.589L871.5-16.85z" opacity=".4"/>
            <path fill="#D8C149" d="M795.752 28.027l37.949-22.441v44.882l-37.949-22.44zM833.701 50.476l-37.949-22.44v44.882l37.949-22.442z" opacity=".4"/>
            <path fill="#D8C149" d="M833.699 50.476l37.802-22.44v44.882l-37.802-22.442zM871.503 28.027l37.949-22.441v44.882l-37.949-22.44zM909.452 50.476l-37.949-22.44v44.882l37.949-22.442z" opacity=".4"/>
            <path fill="#937132" d="M795.752-16.852l37.949-22.441V5.589l-37.949-22.44z" opacity=".4"/>
            <path fill="#937132" d="M833.701 5.59l-37.949-22.442v44.883L833.701 5.59z" opacity=".4"/>
            <path fill="#B3A63D" d="M833.698 5.59L871.5-16.852v44.883L833.698 5.59z" opacity=".4"/>
            <path fill="#D8C149" d="M871.501 28.027L833.699 5.586v44.882l37.802-22.44zM871.503-16.852l37.949-22.441V5.589l-37.949-22.44z" opacity=".4"/>
            <path fill="#D8C149" d="M909.452 5.59l-37.949-22.442v44.883L909.452 5.59zM871.5-16.852l-37.802-22.441V5.589L871.5-16.85zM795.752 72.91l37.949-22.441V95.35L795.752 72.91zM833.701 95.351l-37.949-22.44v44.881l37.949-22.44z" opacity=".4"/>
            <path fill="#D8C149" d="M833.698 95.351l37.802-22.44v44.881l-37.802-22.44zM871.503 72.91l37.949-22.441V95.35L871.503 72.91zM909.452 95.351l-37.949-22.44v44.881l37.949-22.44z" opacity=".4"/>
            <path fill="#937132" d="M795.752 28.027l37.949-22.441v44.882l-37.949-22.44z" opacity=".4"/>
            <path fill="#D8C149" d="M833.701 50.476l-37.949-22.44v44.882l37.949-22.442z" opacity=".4"/>
            <path fill="#D8C149" d="M833.699 50.476l37.802-22.44v44.882l-37.802-22.442z" opacity=".4"/>
            <path fill="#D8C149" d="M871.501 72.91l-37.802-22.441V95.35l37.802-22.441zM871.503 28.027l37.949-22.441v44.882l-37.949-22.44zM909.452 50.476l-37.949-22.44v44.882l37.949-22.442zM871.501 28.027L833.699 5.586v44.882l37.802-22.44zM795.752 117.793l37.949-22.441v44.882l-37.949-22.441z" opacity=".4"/>
            <path fill="#D8C149" d="M833.701 140.234l-37.949-22.441v44.882l37.949-22.441z" opacity=".4"/>
            <path fill="#D8C149" d="M833.699 140.234l37.802-22.441v44.882l-37.802-22.441zM871.503 117.793l37.949-22.441v44.882l-37.949-22.441z" opacity=".4"/>
            <path fill="#D8C149" d="M909.452 140.234l-37.949-22.441v44.882l37.949-22.441z" opacity=".4"/>
            <path fill="#937132" d="M795.752 72.91l37.949-22.441V95.35L795.752 72.91z" opacity=".4"/>
            <path fill="#D8C149" d="M833.701 95.351l-37.949-22.44v44.881l37.949-22.44z" opacity=".4"/>
            <path fill="#D8C149" d="M833.698 95.351l37.802-22.44v44.881l-37.802-22.44zM871.5 117.793l-37.802-22.441v44.882l37.802-22.441zM871.503 72.91l37.949-22.441V95.35L871.503 72.91zM909.452 95.351l-37.949-22.44v44.881l37.949-22.44z" opacity=".4"/>
            <path fill="#937132" d="M871.501 72.91l-37.802-22.441V95.35l37.802-22.441z" opacity=".4"/>
            <path fill="#D8C149" d="M871.503 162.679l37.949-22.441v44.883l-37.949-22.442z" opacity=".4"/>
            <path fill="#B4983E" d="M795.752 117.793l37.949-22.441v44.882l-37.949-22.441z" opacity=".4"/>
            <path fill="#937132" d="M833.701 140.234l-37.949-22.441v44.882l37.949-22.441z" opacity=".4"/>
            <path fill="#B4983E" d="M833.699 140.234l37.802-22.441v44.882l-37.802-22.441z" opacity=".4"/>
            <path fill="#D8C149" d="M871.503 117.793l37.949-22.441v44.882l-37.949-22.441z" opacity=".4"/>
            <path fill="#D8C149" d="M909.452 140.234l-37.949-22.441v44.882l37.949-22.441zM871.5 117.793l-37.802-22.441v44.882l37.802-22.441zM871.503 162.679l37.949-22.441v44.883l-37.949-22.442zM871.503-16.852l37.949-22.441V5.589l-37.949-22.44z" opacity=".4"/>
            <path fill="#D8C149" d="M909.452 5.59l-37.949-22.442v44.883L909.452 5.59z" opacity=".4"/>
            <path fill="#D8C149" d="M909.45 5.59l37.949-22.442v44.883L909.45 5.59zM947.4-16.852l37.803-22.441V5.589L947.4-16.85z" opacity=".4"/>
            <path fill="#D8C149" d="M985.203 5.59L947.4-16.852v44.883L985.203 5.59zM947.399-16.852L909.45-39.293V5.589l37.949-22.44z" opacity=".4"/>
            <path fill="#D8C149" d="M871.503 28.027l37.949-22.441v44.882l-37.949-22.44zM909.452 50.476l-37.949-22.44v44.882l37.949-22.442z" opacity=".4"/>
            <path fill="#D8C149" d="M909.45 50.476l37.949-22.44v44.882L909.45 50.476zM947.4 28.027l37.803-22.441v44.882L947.4 28.028zM985.203 50.476L947.4 28.036v44.882l37.803-22.442z" opacity=".4"/>
            <path fill="#937132" d="M871.503-16.852l37.949-22.441V5.589l-37.949-22.44z" opacity=".4"/>
            <path fill="#D8C149" d="M909.452 5.59l-37.949-22.442v44.883L909.452 5.59z" opacity=".4"/>
            <path fill="#937132" d="M909.45 5.59l37.949-22.442v44.883L909.45 5.59z" opacity=".4"/>
            <path fill="#D8C149" d="M947.399 28.027L909.45 5.586v44.882l37.949-22.44zM947.4-16.852l37.803-22.441V5.589L947.4-16.85z" opacity=".4"/>
            <path fill="#D8C149" d="M985.203 5.59L947.4-16.852v44.883L985.203 5.59z" opacity=".4"/>
            <path fill="#937132" d="M947.399-16.852L909.45-39.293V5.589l37.949-22.44z" opacity=".4"/>
            <path fill="#D8C149" d="M871.503 72.91l37.949-22.441V95.35L871.503 72.91zM909.452 95.351l-37.949-22.44v44.881l37.949-22.44z" opacity=".4"/>
            <path fill="#D8C149" d="M909.45 95.351l37.949-22.44v44.881l-37.949-22.44zM947.4 72.91l37.803-22.441V95.35L947.4 72.91zM985.203 95.351L947.4 72.911v44.881l37.803-22.44z" opacity=".4"/>
            <path fill="#B3A63D" d="M871.503 28.027l37.949-22.441v44.882l-37.949-22.44z" opacity=".4"/>
            <path fill="#B4983E" d="M909.452 50.476l-37.949-22.44v44.882l37.949-22.442z" opacity=".4"/>
            <path fill="#B3A63D" d="M909.45 50.476l37.949-22.44v44.882L909.45 50.476z" opacity=".4"/>
            <path fill="#D8C149" d="M947.399 72.91L909.45 50.469V95.35l37.949-22.441zM947.4 28.027l37.803-22.441v44.882L947.4 28.028zM985.203 50.476L947.4 28.036v44.882l37.803-22.442zM947.399 28.027L909.45 5.586v44.882l37.949-22.44zM871.503 117.793l37.949-22.441v44.882l-37.949-22.441z" opacity=".4"/>
            <path fill="#D8C149" d="M909.452 140.234l-37.949-22.441v44.882l37.949-22.441z" opacity=".4"/>
            <path fill="#D8C149" d="M909.45 140.234l37.949-22.441v44.882l-37.949-22.441zM947.4 117.793l37.803-22.441v44.882L947.4 117.793z" opacity=".4"/>
            <path fill="#D8C149" d="M985.203 140.234L947.4 117.793v44.882l37.803-22.441zM871.503 72.91l37.949-22.441V95.35L871.503 72.91z" opacity=".4"/>
            <path fill="#937132" d="M909.452 95.351l-37.949-22.44v44.881l37.949-22.44z" opacity=".4"/>
            <path fill="#D8C149" d="M909.45 95.351l37.949-22.44v44.881l-37.949-22.44zM947.399 117.793L909.45 95.352v44.882l37.949-22.441zM947.4 72.91l37.803-22.441V95.35L947.4 72.91zM985.203 95.351L947.4 72.911v44.881l37.803-22.44z" opacity=".4"/>
            <path fill="#fff" d="M947.399 72.91L909.45 50.469V95.35l37.949-22.441z" opacity=".4"/>
            <path fill="#D8C149" d="M871.503 162.679l37.949-22.441v44.883l-37.949-22.442zM871.503 117.793l37.949-22.441v44.882l-37.949-22.441z" opacity=".4"/>
            <path fill="#D8C149" d="M909.452 140.234l-37.949-22.441v44.882l37.949-22.441z" opacity=".45"/>
            <path fill="#D8C149" d="M909.45 140.234l37.949-22.441v44.882l-37.949-22.441zM947.399 162.679l-37.949-22.441v44.883l37.949-22.442zM947.4 117.793l37.803-22.441v44.882L947.4 117.793z" opacity=".4"/>
            <path fill="#D8C149" d="M985.203 140.234L947.4 117.793v44.882l37.803-22.441z" opacity=".4"/>
            <path fill="#937132" d="M947.399 117.793L909.45 95.352v44.882l37.949-22.441z" opacity=".4"/>
            <path fill="#fff" d="M871.503 162.679l37.949-22.441v44.883l-37.949-22.442z" opacity=".4"/>
            <path fill="#937132" d="M947.399 162.679l-37.949-22.441v44.883l37.949-22.442z" opacity=".4"/>
            <path fill="#D8C149" d="M947.4-16.852l37.803-22.441V5.589L947.4-16.85z" opacity=".4"/>
            <path fill="#D8C149" d="M985.203 5.59L947.4-16.852v44.883L985.203 5.59z" opacity=".4"/>
            <path fill="#D8C149" d="M985.202 5.59l37.948-22.442v44.883L985.202 5.59z" opacity=".4"/>
            <path fill="#D8C149" d="M1023.15-16.852l37.95-22.441V5.589l-37.95-22.44z" opacity=".4"/>
            <path fill="#D8C149" d="M1061.1 5.59l-37.95-22.442v44.883L1061.1 5.59z" opacity=".4"/>
            <path fill="#D8C149" d="M1023.15-16.852l-37.948-22.441V5.589l37.948-22.44z" opacity=".4"/>
            <path fill="#D8C149" d="M947.4 28.027l37.803-22.441v44.882L947.4 28.028zM985.203 50.476L947.4 28.036v44.882l37.803-22.442z" opacity=".4"/>
            <path fill="#D8C149" d="M985.202 50.476l37.948-22.44v44.882l-37.948-22.442zM1023.15 28.027l37.95-22.441v44.882l-37.95-22.44z" opacity=".4"/>
            <path fill="#D8C149" d="M1061.1 50.476l-37.95-22.44v44.882l37.95-22.442z" opacity=".4"/>
            <path fill="#B3A63D" d="M947.4-16.852l37.803-22.441V5.589L947.4-16.85z" opacity=".4"/>
            <path fill="#D8C149" d="M985.203 5.59L947.4-16.852v44.883L985.203 5.59z" opacity=".4"/>
            <path fill="#D8C149" d="M985.202 5.59l37.948-22.442v44.883L985.202 5.59z" opacity=".4"/>
            <path fill="#D8C149" d="M1023.15 28.027L985.202 5.586v44.882l37.948-22.44zM1023.15-16.852l37.95-22.441V5.589l-37.95-22.44z" opacity=".4"/>
            <path fill="#D8C149" d="M1061.1 5.59l-37.95-22.442v44.883L1061.1 5.59z" opacity=".4"/>
            <path fill="#937132" d="M1023.15-16.852l-37.948-22.441V5.589l37.948-22.44z" opacity=".4"/>
            <path fill="#D8C149" d="M947.4 72.91l37.803-22.441V95.35L947.4 72.91zM985.203 95.351L947.4 72.911v44.881l37.803-22.44z" opacity=".4"/>
            <path fill="#D8C149" d="M985.202 95.351l37.948-22.44v44.881l-37.948-22.44zM1023.15 72.91l37.95-22.441V95.35l-37.95-22.441z" opacity=".4"/>
            <path fill="#D8C149" d="M1061.1 95.351l-37.95-22.44v44.881l37.95-22.44zM947.4 28.027l37.803-22.441v44.882L947.4 28.028z" opacity=".4"/>
            <path fill="#fff" d="M985.203 50.476L947.4 28.036v44.882l37.803-22.442z" opacity=".4"/>
            <path fill="#fff" d="M985.202 50.476l37.948-22.44v44.882l-37.948-22.442z" opacity=".4"/>
            <path fill="#D8C149" d="M1023.15 72.91l-37.948-22.441V95.35l37.948-22.441zM1023.15 28.027l37.95-22.441v44.882l-37.95-22.44z" opacity=".4"/>
            <path fill="#D8C149" d="M1061.1 50.476l-37.95-22.44v44.882l37.95-22.442z" opacity=".4"/>
            <path fill="#fff" d="M1023.15 28.027L985.202 5.586v44.882l37.948-22.44z" opacity=".4"/>
            <path fill="#D8C149" d="M947.4 117.793l37.803-22.441v44.882L947.4 117.793z" opacity=".4"/>
            <path fill="#D8C149" d="M985.203 140.234L947.4 117.793v44.882l37.803-22.441zM1023.15 117.793l37.95-22.441v44.882l-37.95-22.441z" opacity=".4"/>
            <path fill="#B4983E" d="M947.4 72.91l37.803-22.441V95.35L947.4 72.91z" opacity=".4"/>
            <path fill="#D8C149" d="M985.203 95.351L947.4 72.911v44.881l37.803-22.44z" opacity=".4"/>
            <path fill="#B4983E" d="M985.202 95.351l37.948-22.44v44.881l-37.948-22.44z" opacity=".4"/>
            <path fill="#D8C149" d="M1023.15 117.793l-37.948-22.441v44.882l37.948-22.441zM1023.15 72.91l37.95-22.441V95.35l-37.95-22.441zM1061.1 95.351l-37.95-22.44v44.881l37.95-22.44zM1023.15 72.91l-37.948-22.441V95.35l37.948-22.441z" opacity=".4"/>
            <path fill="#937132" d="M947.4 117.793l37.803-22.441v44.882L947.4 117.793z" opacity=".4"/>
            <path fill="#fff" d="M985.203 140.234L947.4 117.793v44.882l37.803-22.441z" opacity=".4"/>
            <path fill="#D8C149" d="M1023.15 117.793l37.95-22.441v44.882l-37.95-22.441z" opacity=".4"/>
            <path fill="#D8C149" d="M1023.15 117.793l-37.948-22.441v44.882l37.948-22.441z" opacity=".45"/>
            <path fill="#D8C149" d="M1023.15-16.852l37.95-22.441V5.589l-37.95-22.44z" opacity=".4"/>
            <path fill="#D8C149" d="M1061.1 5.59l-37.95-22.442v44.883L1061.1 5.59zM1061.1 5.59l37.8-22.442v44.883L1061.1 5.59zM1098.9-16.852l37.95-22.441V5.589l-37.95-22.44z" opacity=".4"/>
            <path fill="#D8C149" d="M1136.85 5.59l-37.95-22.442v44.883l37.95-22.441z" opacity=".4"/>
            <path fill="#D8C149" d="M1098.9-16.852l-37.8-22.441V5.589l37.8-22.44zM1023.15 28.027l37.95-22.441v44.882l-37.95-22.44zM1061.1 50.476l-37.95-22.44v44.882l37.95-22.442zM1061.1 50.476l37.8-22.44v44.882l-37.8-22.442zM1098.9 28.027l37.95-22.441v44.882l-37.95-22.44zM1136.85 50.476l-37.95-22.44v44.882l37.95-22.442z" opacity=".4"/>
            <path fill="#D8C149" d="M1023.15-16.852l37.95-22.441V5.589l-37.95-22.44z" opacity=".4"/>
            <path fill="#B4983E" d="M1061.1 5.59l-37.95-22.442v44.883L1061.1 5.59zM1061.1 5.59l37.8-22.442v44.883L1061.1 5.59z" opacity=".4"/>
            <path fill="#fff" d="M1098.9 28.027l-37.8-22.441v44.882l37.8-22.44z" opacity=".4"/>
            <path fill="#D8C149" d="M1098.9-16.852l37.95-22.441V5.589l-37.95-22.44z" opacity=".4"/>
            <path fill="#D8C149" d="M1136.85 5.59l-37.95-22.442v44.883l37.95-22.441z" opacity=".4"/>
            <path fill="#D8C149" d="M1098.9-16.852l-37.8-22.441V5.589l37.8-22.44zM1023.15 72.91l37.95-22.441V95.35l-37.95-22.441zM1061.1 95.351l-37.95-22.44v44.881l37.95-22.44zM1061.1 95.351l37.8-22.44v44.881l-37.8-22.44zM1098.9 72.91l37.95-22.441V95.35L1098.9 72.91zM1136.85 95.351l-37.95-22.44v44.881l37.95-22.44z" opacity=".4"/>
            <path fill="#937132" d="M1023.15 28.027l37.95-22.441v44.882l-37.95-22.44z" opacity=".4"/>
            <path fill="#D8C149" d="M1061.1 50.476l-37.95-22.44v44.882l37.95-22.442z" opacity=".4"/>
            <path fill="#B4983E" d="M1061.1 50.476l37.8-22.44v44.882l-37.8-22.442z" opacity=".4"/>
            <path fill="#D8C149" d="M1098.9 72.91l-37.8-22.441V95.35l37.8-22.441zM1098.9 28.027l37.95-22.441v44.882l-37.95-22.44z" opacity=".4"/>
            <path fill="#D8C149" d="M1136.85 50.476l-37.95-22.44v44.882l37.95-22.442zM1023.15 117.793l37.95-22.441v44.882l-37.95-22.441zM1061.1 140.234l37.8-22.441v44.882l-37.8-22.441zM1098.9 117.793l37.95-22.441v44.882l-37.95-22.441zM1136.85 140.234l-37.95-22.441v44.882l37.95-22.441z" opacity=".4"/>
            <path fill="#fff" d="M1023.15 72.91l37.95-22.441V95.35l-37.95-22.441z" opacity=".4"/>
            <path fill="#D8C149" d="M1061.1 95.351l-37.95-22.44v44.881l37.95-22.44zM1061.1 95.351l37.8-22.44v44.881l-37.8-22.44z" opacity=".4"/>
            <path fill="#D8C149" d="M1098.9 117.793l-37.8-22.441v44.882l37.8-22.441zM1098.9 72.91l37.95-22.441V95.35L1098.9 72.91zM1136.85 95.351l-37.95-22.44v44.881l37.95-22.44z" opacity=".4"/>
            <path fill="#fff" d="M1098.9 72.91l-37.8-22.441V95.35l37.8-22.441z" opacity=".4"/>
            <path fill="#D8C149" d="M1098.9 162.679l37.95-22.441v44.883l-37.95-22.442z" opacity=".4"/>
            <path fill="#fff" d="M1023.15 117.793l37.95-22.441v44.882l-37.95-22.441z" opacity=".4"/>
            <path fill="#D8C149" d="M1061.1 140.234l37.8-22.441v44.882l-37.8-22.441z" opacity=".45"/>
            <path fill="#D8C149" d="M1098.9 117.793l37.95-22.441v44.882l-37.95-22.441zM1136.85 140.234l-37.95-22.441v44.882l37.95-22.441z" opacity=".4"/>
            <path fill="#fff" d="M1098.9 117.793l-37.8-22.441v44.882l37.8-22.441z" opacity=".4"/>
            <path fill="#D8C149" d="M1098.9 162.679l37.95-22.441v44.883l-37.95-22.442zM1098.9-16.852l37.95-22.441V5.589l-37.95-22.44z" opacity=".4"/>
            <path fill="#D8C149" d="M1136.85 5.59l-37.95-22.442v44.883l37.95-22.441zM1136.85 5.59l37.8-22.442v44.883l-37.8-22.441zM1174.65-16.852l37.95-22.441V5.589l-37.95-22.44z" opacity=".4"/>
            <path fill="#D8C149" d="M1212.6 5.59l-37.95-22.442v44.883L1212.6 5.59z" opacity=".4"/>
            <path fill="#D8C149" d="M1174.65-16.852l-37.8-22.441V5.589l37.8-22.44zM1098.9 28.027l37.95-22.441v44.882l-37.95-22.44zM1136.85 50.476l-37.95-22.44v44.882l37.95-22.442zM1136.85 50.476l37.8-22.44v44.882l-37.8-22.442zM1174.65 28.027l37.95-22.441v44.882l-37.95-22.44zM1212.6 50.476l-37.95-22.44v44.882l37.95-22.442z" opacity=".4"/>
            <path fill="#665D22" d="M1098.9-16.852l37.95-22.441V5.589l-37.95-22.44z" opacity=".4"/>
            <path fill="#B4983E" d="M1136.85 5.59l-37.95-22.442v44.883l37.95-22.441zM1136.85 5.59l37.8-22.442v44.883l-37.8-22.441z" opacity=".4"/>
            <path fill="#D8C149" d="M1174.65 28.027l-37.8-22.441v44.882l37.8-22.44zM1174.65-16.852l37.95-22.441V5.589l-37.95-22.44z" opacity=".4"/>
            <path fill="#D8C149" d="M1212.6 5.59l-37.95-22.442v44.883L1212.6 5.59z" opacity=".4"/>
            <path fill="#937132" d="M1174.65-16.852l-37.8-22.441V5.589l37.8-22.44z" opacity=".4"/>
            <path fill="#D8C149" d="M1098.9 72.91l37.95-22.441V95.35L1098.9 72.91zM1136.85 95.351l-37.95-22.44v44.881l37.95-22.44zM1136.85 95.351l37.8-22.44v44.881l-37.8-22.44zM1174.65 72.91l37.95-22.441V95.35l-37.95-22.441zM1212.6 95.351l-37.95-22.44v44.881l37.95-22.44zM1098.9 28.027l37.95-22.441v44.882l-37.95-22.44z" opacity=".4"/>
            <path fill="#fff" d="M1136.85 50.476l-37.95-22.44v44.882l37.95-22.442z" opacity=".4"/>
            <path fill="#D8C149" d="M1136.85 50.476l37.8-22.44v44.882l-37.8-22.442z" opacity=".4"/>
            <path fill="#D8C149" d="M1174.65 72.91l-37.8-22.441V95.35l37.8-22.441zM1174.65 28.027l37.95-22.441v44.882l-37.95-22.44z" opacity=".4"/>
            <path fill="#D8C149" d="M1212.6 50.476l-37.95-22.44v44.882l37.95-22.442z" opacity=".4"/>
            <path fill="#fff" d="M1174.65 28.027l-37.8-22.441v44.882l37.8-22.44z" opacity=".4"/>
            <path fill="#D8C149" d="M1098.9 117.793l37.95-22.441v44.882l-37.95-22.441zM1136.85 140.234l-37.95-22.441v44.882l37.95-22.441z" opacity=".4"/>
            <path fill="#D8C149" d="M1136.85 140.234l37.8-22.441v44.882l-37.8-22.441zM1174.65 117.793l37.95-22.441v44.882l-37.95-22.441zM1212.6 140.234l-37.95-22.441v44.882l37.95-22.441zM1098.9 72.91l37.95-22.441V95.35L1098.9 72.91z" opacity=".4"/>
            <path fill="#B4983E" d="M1136.85 95.351l-37.95-22.44v44.881l37.95-22.44z" opacity=".4"/>
            <path fill="#D8C149" d="M1136.85 95.351l37.8-22.44v44.881l-37.8-22.44z" opacity=".4"/>
            <path fill="#D8C149" d="M1174.65 117.793l-37.8-22.441v44.882l37.8-22.441zM1174.65 72.91l37.95-22.441V95.35l-37.95-22.441zM1212.6 95.351l-37.95-22.44v44.881l37.95-22.44z" opacity=".4"/>
            <path fill="#fff" d="M1174.65 72.91l-37.8-22.441V95.35l37.8-22.441z" opacity=".4"/>
            <path fill="#D8C149" d="M1098.9 162.679l37.95-22.441v44.883l-37.95-22.442z" opacity=".4"/>
            <path fill="#D8C149" d="M1136.85 185.113l37.8-22.441v44.882l-37.8-22.441zM1174.65 162.679l37.95-22.441v44.883l-37.95-22.442z" opacity=".4"/>
            <path fill="#D8C149" d="M1212.6 185.113l-37.95-22.441v44.882l37.95-22.441zM1098.9 117.793l37.95-22.441v44.882l-37.95-22.441z" opacity=".4"/>
            <path fill="#fff" d="M1136.85 140.234l-37.95-22.441v44.882l37.95-22.441z" opacity=".4"/>
            <path fill="#D8C149" d="M1136.85 140.234l37.8-22.441v44.882l-37.8-22.441z" opacity=".4"/>
            <path fill="#fff" d="M1174.65 162.679l-37.8-22.441v44.883l37.8-22.442z" opacity=".4"/>
            <path fill="#D8C149" d="M1174.65 117.793l37.95-22.441v44.882l-37.95-22.441zM1212.6 140.234l-37.95-22.441v44.882l37.95-22.441z" opacity=".4"/>
            <path fill="#fff" d="M1174.65 117.793l-37.8-22.441v44.882l37.8-22.441zM1098.9 162.679l37.95-22.441v44.883l-37.95-22.442z" opacity=".4"/>
            <path fill="#FFCB87" d="M1136.85 185.113l37.8-22.441v44.882l-37.8-22.441z" opacity=".4"/>
            <path fill="#D8C149" d="M1174.65 162.679l37.95-22.441v44.883l-37.95-22.442z" opacity=".4"/>
            <path fill="#D8C149" d="M1212.6 185.113l-37.95-22.441v44.882l37.95-22.441zM1174.65-16.852l37.95-22.441V5.589l-37.95-22.44z" opacity=".4"/>
            <path fill="#D8C149" d="M1212.6 5.59l-37.95-22.442v44.883L1212.6 5.59zM1212.6 5.59l37.95-22.442v44.883L1212.6 5.59zM1250.55-16.852l37.8-22.441V5.589l-37.8-22.44z" opacity=".4"/>
            <path fill="#D8C149" d="M1288.35 5.59l-37.8-22.442v44.883l37.8-22.441zM1250.55-16.852l-37.95-22.441V5.589l37.95-22.44z" opacity=".4"/>
            <path fill="#D8C149" d="M1174.65 28.027l37.95-22.441v44.882l-37.95-22.44zM1212.6 50.476l-37.95-22.44v44.882l37.95-22.442zM1212.6 50.476l37.95-22.44v44.882l-37.95-22.442zM1250.55 28.027l37.8-22.441v44.882l-37.8-22.44zM1288.35 50.476l-37.8-22.44v44.882l37.8-22.442z" opacity=".4"/>
            <path fill="#B3A63D" d="M1174.65-16.852l37.95-22.441V5.589l-37.95-22.44z" opacity=".4"/>
            <path fill="#B4983E" d="M1212.6 5.59l-37.95-22.442v44.883L1212.6 5.59z" opacity=".4"/>
            <path fill="#665D22" d="M1212.6 5.59l37.95-22.442v44.883L1212.6 5.59z" opacity=".4"/>
            <path fill="#D8C149" d="M1250.55 28.027L1212.6 5.586v44.882l37.95-22.44zM1250.55-16.852l37.8-22.441V5.589l-37.8-22.44z" opacity=".4"/>
            <path fill="#D8C149" d="M1288.35 5.59l-37.8-22.442v44.883l37.8-22.441z" opacity=".4"/>
            <path fill="#B4983E" d="M1250.55-16.852l-37.95-22.441V5.589l37.95-22.44z" opacity=".4"/>
            <path fill="#D8C149" d="M1174.65 72.91l37.95-22.441V95.35l-37.95-22.441zM1212.6 95.351l-37.95-22.44v44.881l37.95-22.44zM1212.6 95.351l37.95-22.44v44.881l-37.95-22.44zM1250.55 72.91l37.8-22.441V95.35l-37.8-22.441zM1288.35 95.351l-37.8-22.44v44.881l37.8-22.44zM1174.65 28.027l37.95-22.441v44.882l-37.95-22.44z" opacity=".4"/>
            <path fill="#fff" d="M1212.6 50.476l-37.95-22.44v44.882l37.95-22.442z" opacity=".4"/>
            <path fill="#B4983E" d="M1212.6 50.476l37.95-22.44v44.882l-37.95-22.442z" opacity=".4"/>
            <path fill="#D8C149" d="M1250.55 72.91l-37.95-22.441V95.35l37.95-22.441zM1250.55 28.027l37.8-22.441v44.882l-37.8-22.44z" opacity=".4"/>
            <path fill="#D8C149" d="M1288.35 50.476l-37.8-22.44v44.882l37.8-22.442zM1250.55 28.027L1212.6 5.586v44.882l37.95-22.44zM1174.65 117.793l37.95-22.441v44.882l-37.95-22.441zM1212.6 140.234l-37.95-22.441v44.882l37.95-22.441z" opacity=".4"/>
            <path fill="#D8C149" d="M1212.6 140.234l37.95-22.441v44.882l-37.95-22.441zM1250.55 117.793l37.8-22.441v44.882l-37.8-22.441z" opacity=".4"/>
            <path fill="#D8C149" d="M1288.35 140.234l-37.8-22.441v44.882l37.8-22.441z" opacity=".4"/>
            <path fill="#fff" d="M1174.65 72.91l37.95-22.441V95.35l-37.95-22.441z" opacity=".4"/>
            <path fill="#D8C149" d="M1212.6 95.351l-37.95-22.44v44.881l37.95-22.44zM1212.6 95.351l37.95-22.44v44.881l-37.95-22.44zM1250.55 117.793l-37.95-22.441v44.882l37.95-22.441zM1250.55 72.91l37.8-22.441V95.35l-37.8-22.441zM1288.35 95.351l-37.8-22.44v44.881l37.8-22.44zM1250.55 72.91l-37.95-22.441V95.35l37.95-22.441zM1174.65 162.679l37.95-22.441v44.883l-37.95-22.442z" opacity=".4"/>
            <path fill="#fff" d="M1212.6 185.113l-37.95-22.441v44.882l37.95-22.441z" opacity=".4"/>
            <path fill="#D8C149" d="M1250.55 162.679l37.8-22.441v44.883l-37.8-22.442zM1174.65 117.793l37.95-22.441v44.882l-37.95-22.441z" opacity=".4"/>
            <path fill="#fff" d="M1212.6 140.234l-37.95-22.441v44.882l37.95-22.441zM1212.6 140.234l37.95-22.441v44.882l-37.95-22.441z" opacity=".4"/>
            <path fill="#D8C149" d="M1250.55 162.679l-37.95-22.441v44.883l37.95-22.442zM1250.55 117.793l37.8-22.441v44.882l-37.8-22.441z" opacity=".4"/>
            <path fill="#D8C149" d="M1288.35 140.234l-37.8-22.441v44.882l37.8-22.441z" opacity=".4"/>
            <path fill="#fff" d="M1250.55 117.793l-37.95-22.441v44.882l37.95-22.441zM1174.65 162.679l37.95-22.441v44.883l-37.95-22.442z" opacity=".4"/>
            <path fill="#D8C149" d="M1250.55 162.679l37.8-22.441v44.883l-37.8-22.442zM1250.55 162.679l-37.95-22.441v44.883l37.95-22.442zM1250.55-16.852l37.8-22.441V5.589l-37.8-22.44z" opacity=".4"/>
            <path fill="#D8C149" d="M1288.35 5.59l-37.8-22.442v44.883l37.8-22.441zM1288.35 5.59l37.95-22.442v44.883L1288.35 5.59zM1326.3-16.852l37.95-22.441V5.589l-37.95-22.44z" opacity=".4"/>
            <path fill="#D8C149" d="M1364.25 5.59l-37.95-22.442v44.883l37.95-22.441zM1326.3-16.852l-37.95-22.441V5.589l37.95-22.44zM1250.55 28.027l37.8-22.441v44.882l-37.8-22.44zM1288.35 50.476l-37.8-22.44v44.882l37.8-22.442zM1288.35 50.476l37.95-22.44v44.882l-37.95-22.442z" opacity=".4"/>
            <path fill="#D8C149" d="M1326.3 28.027l37.95-22.441v44.882l-37.95-22.44zM1364.25 50.476l-37.95-22.44v44.882l37.95-22.442z" opacity=".4"/>
            <path fill="#665D22" d="M1250.55-16.852l37.8-22.441V5.589l-37.8-22.44z" opacity=".4"/>
            <path fill="#D8C149" d="M1288.35 5.59l-37.8-22.442v44.883l37.8-22.441z" opacity=".4"/>
            <path fill="#665D22" d="M1288.35 5.59l37.95-22.442v44.883L1288.35 5.59z" opacity=".4"/>
            <path fill="#D8C149" d="M1326.3 28.027l-37.95-22.441v44.882l37.95-22.44zM1326.3-16.852l37.95-22.441V5.589l-37.95-22.44z" opacity=".4"/>
            <path fill="#D8C149" d="M1364.25 5.59l-37.95-22.442v44.883l37.95-22.441z" opacity=".4"/>
            <path fill="#B3A63D" d="M1326.3-16.852l-37.95-22.441V5.589l37.95-22.44z" opacity=".4"/>
            <path fill="#D8C149" d="M1250.55 72.91l37.8-22.441V95.35l-37.8-22.441zM1288.35 95.351l-37.8-22.44v44.881l37.8-22.44zM1288.35 95.351l37.95-22.44v44.881l-37.95-22.44zM1326.3 72.91l37.95-22.441V95.35L1326.3 72.91zM1364.25 95.351l-37.95-22.44v44.881l37.95-22.44z" opacity=".4"/>
            <path fill="#665D22" d="M1250.55 28.027l37.8-22.441v44.882l-37.8-22.44z" opacity=".4"/>
            <path fill="#D8C149" d="M1288.35 50.476l-37.8-22.44v44.882l37.8-22.442zM1288.35 50.476l37.95-22.44v44.882l-37.95-22.442z" opacity=".4"/>
            <path fill="#D8C149" d="M1326.3 72.91l-37.95-22.441V95.35l37.95-22.441zM1326.3 28.027l37.95-22.441v44.882l-37.95-22.44z" opacity=".4"/>
            <path fill="#D8C149" d="M1364.25 50.476l-37.95-22.44v44.882l37.95-22.442zM1326.3 28.027l-37.95-22.441v44.882l37.95-22.44zM1250.55 117.793l37.8-22.441v44.882l-37.8-22.441z" opacity=".4"/>
            <path fill="#D8C149" d="M1288.35 140.234l-37.8-22.441v44.882l37.8-22.441zM1288.35 140.234l37.95-22.441v44.882l-37.95-22.441zM1326.3 117.793l37.95-22.441v44.882l-37.95-22.441z" opacity=".4"/>
            <path fill="#D8C149" d="M1364.25 140.234l-37.95-22.441v44.882l37.95-22.441zM1250.55 72.91l37.8-22.441V95.35l-37.8-22.441zM1288.35 95.351l-37.8-22.44v44.881l37.8-22.44zM1288.35 95.351l37.95-22.44v44.881l-37.95-22.44zM1326.3 117.793l-37.95-22.441v44.882l37.95-22.441zM1326.3 72.91l37.95-22.441V95.35L1326.3 72.91zM1364.25 95.351l-37.95-22.44v44.881l37.95-22.44z" opacity=".4"/>
            <path fill="#665D22" d="M1326.3 72.91l-37.95-22.441V95.35l37.95-22.441z" opacity=".4"/>
            <path fill="#D8C149" d="M1250.55 162.679l37.8-22.441v44.883l-37.8-22.442zM1288.35 185.113l37.95-22.441v44.882l-37.95-22.441zM1326.3 162.679l37.95-22.441v44.883l-37.95-22.442z" opacity=".4"/>
            <path fill="#D8C149" d="M1364.25 185.113l-37.95-22.441v44.882l37.95-22.441z" opacity=".4"/>
            <path fill="#948533" d="M1250.55 117.793l37.8-22.441v44.882l-37.8-22.441z" opacity=".4"/>
            <path fill="#D8C149" d="M1288.35 140.234l-37.8-22.441v44.882l37.8-22.441z" opacity=".4"/>
            <path fill="#B3A63D" d="M1288.35 140.234l37.95-22.441v44.882l-37.95-22.441z" opacity=".4"/>
            <path fill="#D8C149" d="M1326.3 162.679l-37.95-22.441v44.883l37.95-22.442zM1326.3 117.793l37.95-22.441v44.882l-37.95-22.441z" opacity=".4"/>
            <path fill="#D8C149" d="M1364.25 140.234l-37.95-22.441v44.882l37.95-22.441zM1326.3 117.793l-37.95-22.441v44.882l37.95-22.441zM1326.3 207.554l37.95-22.441v44.883l-37.95-22.442zM1250.55 162.679l37.8-22.441v44.883l-37.8-22.442zM1288.35 185.113l37.95-22.441v44.882l-37.95-22.441z" opacity=".4"/>
            <path fill="#D8C149" d="M1326.3 162.679l37.95-22.441v44.883l-37.95-22.442z" opacity=".4"/>
            <path fill="#D8C149" d="M1364.25 185.113l-37.95-22.441v44.882l37.95-22.441z" opacity=".4"/>
            <path fill="#fff" d="M1326.3 162.679l-37.95-22.441v44.883l37.95-22.442z" opacity=".4"/>
            <path fill="#D8C149" d="M1326.3 207.554l37.95-22.441v44.883l-37.95-22.442zM1326.3-16.852l37.95-22.441V5.589l-37.95-22.44z" opacity=".4"/>
            <path fill="#D8C149" d="M1364.25 5.59l-37.95-22.442v44.883l37.95-22.441zM1364.25 5.59l37.8-22.442v44.883l-37.8-22.441zM1402.05-16.852L1440-39.293V5.589l-37.95-22.44z" opacity=".4"/>
            <path fill="#D8C149" d="M1440 5.59l-37.95-22.442v44.883L1440 5.59zM1402.05-16.852l-37.8-22.441V5.589l37.8-22.44zM1326.3 28.027l37.95-22.441v44.882l-37.95-22.44zM1364.25 50.476l-37.95-22.44v44.882l37.95-22.442zM1364.25 50.476l37.8-22.44v44.882l-37.8-22.442z" opacity=".4"/>
            <path fill="#D8C149" d="M1402.05 28.027L1440 5.586v44.882l-37.95-22.44zM1440 50.476l-37.95-22.44v44.882L1440 50.476z" opacity=".4"/>
            <path fill="#937132" d="M1326.3-16.852l37.95-22.441V5.589l-37.95-22.44z" opacity=".4"/>
            <path fill="#B3A63D" d="M1364.25 5.59l-37.95-22.442v44.883l37.95-22.441z" opacity=".4"/>
            <path fill="#655821" d="M1364.25 5.59l37.8-22.442v44.883l-37.8-22.441z" opacity=".4"/>
            <path fill="#D8C149" d="M1402.05 28.027l-37.8-22.441v44.882l37.8-22.44z" opacity=".4"/>
            <path fill="#655821" d="M1402.05-16.852L1440-39.293V5.589l-37.95-22.44z" opacity=".4"/>
            <path fill="#948533" d="M1440 5.59l-37.95-22.442v44.883L1440 5.59z" opacity=".4"/>
            <path fill="#937132" d="M1402.05-16.852l-37.8-22.441V5.589l37.8-22.44z" opacity=".4"/>
            <path fill="#D8C149" d="M1326.3 72.91l37.95-22.441V95.35L1326.3 72.91zM1364.25 95.351l-37.95-22.44v44.881l37.95-22.44zM1364.25 95.351l37.8-22.44v44.881l-37.8-22.44zM1402.05 72.91L1440 50.469V95.35l-37.95-22.441zM1440 95.351l-37.95-22.44v44.881l37.95-22.44z" opacity=".4"/>
            <path fill="#B3A63D" d="M1326.3 28.027l37.95-22.441v44.882l-37.95-22.44z" opacity=".4"/>
            <path fill="#948533" d="M1364.25 50.476l-37.95-22.44v44.882l37.95-22.442z" opacity=".4"/>
            <path fill="#B3A63D" d="M1364.25 50.476l37.8-22.44v44.882l-37.8-22.442z" opacity=".4"/>
            <path fill="#D8C149" d="M1402.05 72.91l-37.8-22.441V95.35l37.8-22.441z" opacity=".4"/>
            <path fill="#655821" d="M1402.05 28.027L1440 5.586v44.882l-37.95-22.44z" opacity=".4"/>
            <path fill="#937132" d="M1440 50.476l-37.95-22.44v44.882L1440 50.476zM1402.05 28.027l-37.8-22.441v44.882l37.8-22.44z" opacity=".4"/>
            <path fill="#D8C149" d="M1326.3 117.793l37.95-22.441v44.882l-37.95-22.441z" opacity=".4"/>
            <path fill="#D8C149" d="M1364.25 140.234l-37.95-22.441v44.882l37.95-22.441zM1364.25 140.234l37.8-22.441v44.882l-37.8-22.441zM1402.05 117.793L1440 95.352v44.882l-37.95-22.441z" opacity=".4"/>
            <path fill="#D8C149" d="M1440 140.234l-37.95-22.441v44.882l37.95-22.441z" opacity=".4"/>
            <path fill="#B3A63D" d="M1326.3 72.91l37.95-22.441V95.35L1326.3 72.91zM1364.25 95.351l-37.95-22.44v44.881l37.95-22.44z" opacity=".4"/>
            <path fill="#665D22" d="M1364.25 95.351l37.8-22.44v44.881l-37.8-22.44z" opacity=".4"/>
            <path fill="#D8C149" d="M1402.05 117.793l-37.8-22.441v44.882l37.8-22.441z" opacity=".4"/>
            <path fill="#948533" d="M1402.05 72.91L1440 50.469V95.35l-37.95-22.441z" opacity=".4"/>
            <path fill="#655821" d="M1440 95.351l-37.95-22.44v44.881l37.95-22.44z" opacity=".4"/>
            <path fill="#948533" d="M1402.05 72.91l-37.8-22.441V95.35l37.8-22.441z" opacity=".4"/>
            <path fill="#D8C149" d="M1326.3 162.679l37.95-22.441v44.883l-37.95-22.442z" opacity=".4"/>
            <path fill="#D8C149" d="M1364.25 185.113l-37.95-22.441v44.882l37.95-22.441zM1364.25 185.113l37.8-22.441v44.882l-37.8-22.441zM1402.05 162.679l37.95-22.441v44.883l-37.95-22.442z" opacity=".4"/>
            <path fill="#D8C149" d="M1440 185.113l-37.95-22.441v44.882l37.95-22.441zM1326.3 117.793l37.95-22.441v44.882l-37.95-22.441z" opacity=".4"/>
            <path fill="#D8C149" d="M1364.25 140.234l-37.95-22.441v44.882l37.95-22.441z" opacity=".45"/>
            <path fill="#B3A63D" d="M1364.25 140.234l37.8-22.441v44.882l-37.8-22.441z" opacity=".4"/>
            <path fill="#D8C149" d="M1402.05 162.679l-37.8-22.441v44.883l37.8-22.442z" opacity=".4"/>
            <path fill="#937132" d="M1402.05 117.793L1440 95.352v44.882l-37.95-22.441z" opacity=".4"/>
            <path fill="#948533" d="M1440 140.234l-37.95-22.441v44.882l37.95-22.441z" opacity=".4"/>
            <path fill="#937132" d="M1402.05 117.793l-37.8-22.441v44.882l37.8-22.441z" opacity=".4"/>
            <path fill="#D8C149" d="M1326.3 207.554l37.95-22.441v44.883l-37.95-22.442zM1364.25 229.996l37.8-22.441v44.734l-37.8-22.293zM1402.05 207.554l37.95-22.441v44.883l-37.95-22.442zM1440 229.996l-37.95-22.441v44.734l37.95-22.293z" opacity=".4"/>
            <path fill="#948533" d="M1326.3 162.679l37.95-22.441v44.883l-37.95-22.442z" opacity=".4"/>
            <path fill="#D8C149" d="M1364.25 185.113l-37.95-22.441v44.882l37.95-22.441zM1364.25 185.113l37.8-22.441v44.882l-37.8-22.441z" opacity=".4"/>
            <path fill="#D8C149" d="M1402.05 207.554l-37.8-22.441v44.883l37.8-22.442z" opacity=".4"/>
            <path fill="#fff" d="M1402.05 162.679l37.95-22.441v44.883l-37.95-22.442z" opacity=".4"/>
            <path fill="#948533" d="M1440 185.113l-37.95-22.441v44.882l37.95-22.441z" opacity=".4"/>
            <path fill="#B3A63D" d="M1402.05 162.679l-37.8-22.441v44.883l37.8-22.442z" opacity=".4"/>
            <path fill="#B3A63D" d="M1326.3 207.554l37.95-22.441v44.883l-37.95-22.442z" opacity=".45"/>
            <path fill="#fff" d="M1364.25 229.996l37.8-22.441v44.734l-37.8-22.293z" opacity=".4"/>
            <path fill="#FFCB87" d="M1402.05 207.554l37.95-22.441v44.883l-37.95-22.442z" opacity=".4"/>
            <path fill="#fff" d="M1440 229.996l-37.95-22.441v44.734l37.95-22.293z" opacity=".4"/>
            <path fill="#948533" d="M1402.05 207.554l-37.8-22.441v44.883l37.8-22.442z" opacity=".4"/>
        </g>
    </g>
    <defs>
        <linearGradient id="paint0_linear" x1="644.215" x2="644.215" y1="-291.413" y2="231.343" gradientUnits="userSpaceOnUse">
            <stop stop-color="#C88F00"/>
            <stop offset="1" stop-color="#FFD300"/>
        </linearGradient>
        <linearGradient id="paint1_linear" x1="549.481" x2="549.481" y1="-291.413" y2="231.344" gradientUnits="userSpaceOnUse">
            <stop stop-color="#C88F00"/>
            <stop offset="1" stop-color="#FFD300"/>
        </linearGradient>
        <linearGradient id="paint2_linear" x1="360.018" x2="360.018" y1="-291.413" y2="231.343" gradientUnits="userSpaceOnUse">
            <stop stop-color="#C88F00"/>
            <stop offset="1" stop-color="#FFD300"/>
        </linearGradient>
        <linearGradient id="paint3_linear" x1="170.552" x2="170.552" y1="-291.413" y2="231.344" gradientUnits="userSpaceOnUse">
            <stop stop-color="#C88F00"/>
            <stop offset="1" stop-color="#FFD300"/>
        </linearGradient>
        <linearGradient id="paint4_linear" x1="75.817" x2="75.817" y1="-291.413" y2="231.342" gradientUnits="userSpaceOnUse">
            <stop stop-color="#C88F00"/>
            <stop offset="1" stop-color="#FFD300"/>
        </linearGradient>
        <linearGradient id="paint5_linear" x1="795.788" x2="795.788" y1="-291.413" y2="231.343" gradientUnits="userSpaceOnUse">
            <stop stop-color="#C88F00"/>
            <stop offset="1" stop-color="#FFD300"/>
        </linearGradient>
        <linearGradient id="paint6_linear" x1="890.521" x2="890.521" y1="-291.413" y2="231.344" gradientUnits="userSpaceOnUse">
            <stop stop-color="#C88F00"/>
            <stop offset="1" stop-color="#FFD300"/>
        </linearGradient>
        <linearGradient id="paint7_linear" x1="1079.98" x2="1079.98" y1="-291.413" y2="231.343" gradientUnits="userSpaceOnUse">
            <stop stop-color="#C88F00"/>
            <stop offset="1" stop-color="#FFD300"/>
        </linearGradient>
        <linearGradient id="paint8_linear" x1="1269.45" x2="1269.45" y1="-291.413" y2="231.344" gradientUnits="userSpaceOnUse">
            <stop stop-color="#C88F00"/>
            <stop offset="1" stop-color="#FFD300"/>
        </linearGradient>
        <linearGradient id="paint9_linear" x1="1364.18" x2="1364.18" y1="-291.413" y2="231.342" gradientUnits="userSpaceOnUse">
            <stop stop-color="#C88F00"/>
            <stop offset="1" stop-color="#FFD300"/>
        </linearGradient>
    </defs>
</svg>
